<svg width="337" height="195" viewBox="0 0 337 195" fill="none" xmlns="http://www.w3.org/2000/svg">
<rect width="337" height="195" fill="#E4E4E7"/>
<path d="M166.304 89.2118H174.362V89.7483C174.362 92.6014 173.636 94.8198 172.183 96.4036C170.732 98.0129 168.748 98.8166 166.206 98.8166C163.762 98.8166 161.778 97.9874 160.278 96.3054C158.778 94.6234 158.027 92.454 158.027 89.7483C158.027 87.0425 158.776 84.8241 160.301 83.1676C161.827 81.5111 163.813 80.6799 166.304 80.6799C168.45 80.6799 170.205 81.2419 171.571 82.3384C172.936 83.4348 173.773 84.9223 174.064 86.7497H171.957C171.499 84.1953 169.271 82.5584 166.3 82.5584C162.621 82.5584 160.153 85.0933 160.153 89.7483C160.153 91.9431 160.709 93.6978 161.798 94.9888C162.886 96.2798 164.363 96.94 166.202 96.94C169.663 96.94 171.84 94.867 172.228 91.0648H166.304V89.2118Z" fill="#002277"/>
<path d="M184.385 98.8166C181.892 98.8166 179.908 97.9874 178.408 96.3054C176.908 94.6234 176.132 92.454 176.132 89.7483C176.132 87.0425 176.883 84.8496 178.408 83.1676C179.934 81.4856 181.892 80.6799 184.385 80.6799C186.878 80.6799 188.872 81.5091 190.386 83.1676C191.899 84.826 192.637 87.0425 192.637 89.7483C192.637 92.454 191.886 94.6489 190.386 96.3054C188.885 97.9618 186.882 98.8166 184.385 98.8166ZM184.385 96.94C186.248 96.94 187.725 96.2818 188.837 94.9888C189.949 93.6959 190.507 91.9431 190.507 89.7483C190.507 87.5534 189.951 85.8006 188.837 84.5077C187.723 83.2147 186.248 82.5584 184.385 82.5584C182.522 82.5584 181.045 83.2167 179.932 84.5077C178.818 85.7987 178.262 87.5554 178.262 89.7483C178.262 91.9412 178.818 93.6978 179.932 94.9888C181.045 96.2798 182.526 96.94 184.385 96.94Z" fill="#002277"/>
<path d="M208.793 81.0708V85.4095H203.721V98.4274H198.871V85.4095H193.799V81.0708H208.793Z" fill="#002277"/>
<path d="M223.72 85.4095H214.961V87.7006H222.945V91.7484H214.961V94.0868H223.72V98.4274H210.121V81.0708H223.72V85.4095Z" fill="#002277"/>
<path d="M236.118 89.5516L241.998 98.4254H236.384L235.367 96.8397C234.546 95.5723 233.844 94.4523 233.239 93.4521C232.949 93.9158 232.246 95.0614 231.132 96.8397L230.116 98.4254H224.623L230.504 89.6007L224.986 81.0688H230.553L231.495 82.5799C232.053 83.4818 232.681 84.5056 233.384 85.7003C233.939 84.7178 234.554 83.6764 235.246 82.5799L236.191 81.0688H241.635L236.118 89.5516Z" fill="#002277"/>
<path d="M166.936 114.487H168.752C168.785 116.315 169.889 117.222 172.045 117.222C173.826 117.222 174.829 116.503 174.829 115.187C174.829 114.11 174.132 113.632 172.098 113.171L171.062 112.947C168.668 112.469 167.295 111.426 167.295 109.357C167.295 107.356 168.924 106.057 171.571 106.057C174.846 106.057 176.323 107.596 176.374 109.905H174.573C174.454 108.382 173.674 107.614 171.586 107.614C169.973 107.614 169.142 108.246 169.142 109.323C169.129 109.564 169.173 109.804 169.27 110.024C169.367 110.244 169.515 110.438 169.702 110.589C170.059 110.879 170.755 111.153 171.774 111.375L172.825 111.597C175.609 112.186 176.711 113.273 176.711 115.134C176.711 117.391 174.955 118.775 172.01 118.775C168.871 118.777 166.953 117.342 166.936 114.487Z" fill="#002277"/>
<path d="M191.191 106.331H193.007V118.513H191.191V113.084H184.97V118.504H183.154V106.321H184.97V111.398H191.199L191.191 106.331Z" fill="#002277"/>
<path d="M201.105 117.016C200.02 115.855 199.476 114.316 199.476 112.418C199.476 110.52 200.02 108.981 201.105 107.802C202.189 106.623 203.6 106.057 205.383 106.057C207.166 106.057 208.574 106.647 209.661 107.802C210.747 108.958 211.272 110.52 211.272 112.418C211.272 114.316 210.73 115.855 209.661 117.016C208.592 118.177 207.148 118.784 205.383 118.784C203.617 118.784 202.176 118.197 201.105 117.016ZM208.303 115.855C209.033 115.016 209.388 113.87 209.388 112.418C209.388 110.966 209.033 109.818 208.303 108.964C207.573 108.109 206.588 107.698 205.377 107.698C204.166 107.698 203.188 108.126 202.451 108.964C201.713 109.801 201.356 110.97 201.356 112.418C201.356 113.866 201.729 115.016 202.461 115.855C203.192 116.694 204.158 117.136 205.387 117.136C206.616 117.136 207.571 116.709 208.303 115.855Z" fill="#002277"/>
<path d="M230.487 106.33H232.373L228.979 118.513H226.94L225.413 112.815C224.988 111.225 224.648 109.806 224.36 108.592C224.071 109.806 223.731 111.225 223.308 112.815L221.781 118.513H219.744L216.35 106.33H218.232L219.709 111.854C220.236 113.905 220.61 115.408 220.831 116.35C221.391 114.025 221.748 112.52 221.933 111.818L223.4 106.33H225.335L226.796 111.818C226.991 112.52 227.338 114.025 227.898 116.35C228.119 115.408 228.493 113.905 229.018 111.854L230.487 106.33Z" fill="#002277"/>
<path d="M143.121 94.405C141.573 93.6445 139.956 93.0346 138.293 92.5834C138.293 92.5834 134.171 91.7699 128.692 93.5659C128.042 93.7781 125.879 94.5484 124.985 94.9001C124.351 95.1458 123.924 95.3108 123.072 95.635C122.518 95.8473 121.964 96.0555 121.41 96.2501L120.825 96.4584C119.852 96.7884 118.856 97.0446 117.846 97.2247C116.636 97.4333 115.41 97.5385 114.182 97.5391C113.127 97.5574 112.072 97.5147 111.022 97.4114C111.521 99.3665 112.417 100.217 112.994 100.614C114.801 101.866 117.555 101.32 123.107 100.16C125.132 99.7399 126.928 99.2683 126.928 99.2683C127.153 99.2054 127.478 99.115 127.874 99.0128C130.293 98.388 131.442 98.2268 131.971 98.162H132.01C133.715 97.9655 134.819 97.8299 135.607 97.991C137.117 98.2976 138.687 99.901 138.687 101.612C138.701 102.164 138.589 102.711 138.36 103.212C137.918 104.502 137.317 105.731 136.569 106.869C135.661 108.247 134.551 109.478 133.276 110.52C130.403 112.885 126.806 114.177 123.095 114.176H123.066C119.345 114.183 115.737 112.891 112.856 110.52C112.436 110.174 112.033 109.808 111.648 109.423C110.872 108.644 110.175 107.789 109.569 106.869C107.828 104.217 106.899 101.109 106.898 97.9301V97.9006C106.895 97.0355 106.96 96.1714 107.093 95.3167C107.128 95.0875 107.169 94.8595 107.216 94.6329C107.355 93.94 107.54 93.2572 107.77 92.5893C108.755 89.7246 110.511 87.1919 112.842 85.2738L112.891 85.2325C115.765 82.8877 119.353 81.6104 123.052 81.615C124.667 81.62 126.272 81.8623 127.818 82.3342C129.968 83.0004 131.959 84.1054 133.666 85.5803C134.102 85.9565 134.662 86.1536 135.235 86.1325C135.809 86.1114 136.353 85.8735 136.76 85.4663L136.815 85.4113C137.026 85.1987 137.193 84.9463 137.308 84.6685C137.422 84.3907 137.481 84.0929 137.481 83.7922C137.481 83.4914 137.422 83.1937 137.308 82.9158C137.193 82.638 137.026 82.3856 136.815 82.173L124.404 69.6719C124.193 69.4592 123.942 69.2905 123.667 69.1753C123.391 69.0602 123.095 69.001 122.797 69.001C122.498 69.001 122.203 69.0602 121.927 69.1753C121.651 69.2905 121.4 69.4592 121.189 69.6719L94.6652 96.3817C94.454 96.5943 94.2865 96.8467 94.1723 97.1245C94.058 97.4024 93.9991 97.7001 93.9991 98.0009C93.9991 98.3016 94.058 98.5994 94.1723 98.8772C94.2865 99.155 94.454 99.4074 94.6652 99.62L121.181 126.33C121.393 126.543 121.643 126.711 121.919 126.826C122.195 126.941 122.49 127.001 122.789 127.001C123.087 127.001 123.383 126.941 123.659 126.826C123.935 126.711 124.185 126.543 124.396 126.33L148.991 101.557C149.213 101.334 149.387 101.067 149.502 100.773C149.616 100.478 149.669 100.163 149.657 99.8476C149.644 99.5318 149.567 99.2219 149.43 98.9375C149.293 98.6532 149.099 98.4005 148.86 98.1954C147.113 96.6942 145.185 95.4207 143.121 94.405V94.405Z" fill="#009C37"/>
</svg>
