<svg width="24" height="24" viewBox="0 0 24 24" fill="none" xmlns="http://www.w3.org/2000/svg">
    <g id="root">
        <path d="M12.4973 11.5383L6.51366 3.89297C6.44335 3.80156 6.33319 3.75 6.21835 3.75H4.40663C4.2496 3.75 4.16288 3.93047 4.25897 4.05234L10.4793 12L4.25897 19.9477C4.23733 19.9753 4.22391 20.0085 4.22023 20.0434C4.21655 20.0783 4.22276 20.1135 4.23817 20.145C4.25357 20.1766 4.27754 20.2032 4.30733 20.2217C4.33712 20.2403 4.37153 20.2501 4.40663 20.25H6.21835C6.33319 20.25 6.44335 20.1961 6.51366 20.107L12.4973 12.4641C12.7105 12.1898 12.7105 11.8102 12.4973 11.5383V11.5383ZM19.6223 11.5383L13.6387 3.89297C13.5683 3.80156 13.4582 3.75 13.3433 3.75H11.5316C11.3746 3.75 11.2879 3.93047 11.384 4.05234L17.6043 12L11.384 19.9477C11.3623 19.9753 11.3489 20.0085 11.3452 20.0434C11.3415 20.0783 11.3478 20.1135 11.3632 20.145C11.3786 20.1766 11.4025 20.2032 11.4323 20.2217C11.4621 20.2403 11.4965 20.2501 11.5316 20.25H13.3433C13.4582 20.25 13.5683 20.1961 13.6387 20.107L19.6223 12.4641C19.8355 12.1898 19.8355 11.8102 19.6223 11.5383V11.5383Z" fill="currentColor"/>
    </g>
</svg>
