<svg width="24" height="24" viewBox="0 0 24 24" fill="none" xmlns="http://www.w3.org/2000/svg">
    <g id="root">
        <path d="M6.39594 12L12.6163 4.05234C12.7123 3.93047 12.6256 3.75 12.4686 3.75H10.6569C10.542 3.75 10.4319 3.80391 10.3616 3.89297L4.37797 11.5383C4.27434 11.6703 4.21802 11.8333 4.21802 12.0012C4.21802 12.169 4.27434 12.332 4.37797 12.4641L10.3616 20.107C10.4319 20.1984 10.542 20.25 10.6569 20.25H12.4686C12.6256 20.25 12.7123 20.0695 12.6163 19.9477L6.39594 12ZM13.5209 12L19.7413 4.05234C19.8373 3.93047 19.7506 3.75 19.5936 3.75H17.7819C17.667 3.75 17.5569 3.80391 17.4866 3.89297L11.503 11.5383C11.3993 11.6703 11.343 11.8333 11.343 12.0012C11.343 12.169 11.3993 12.332 11.503 12.4641L17.4866 20.107C17.5569 20.1984 17.667 20.25 17.7819 20.25H19.5936C19.7506 20.25 19.8373 20.0695 19.7413 19.9477L13.5209 12Z" fill="currentColor"/>
    </g>
</svg>
