<svg width="24" height="24" viewBox="0 0 24 24" fill="none" xmlns="http://www.w3.org/2000/svg">
    <g id="root">
        <path d="M12 1.5C6.20156 1.5 1.5 6.20156 1.5 12C1.5 17.7984 6.20156 22.5 12 22.5C17.7984 22.5 22.5 17.7984 22.5 12C22.5 6.20156 17.7984 1.5 12 1.5ZM12 20.7188C7.18594 20.7188 3.28125 16.8141 3.28125 12C3.28125 7.18594 7.18594 3.28125 12 3.28125C16.8141 3.28125 20.7188 7.18594 20.7188 12C20.7188 16.8141 16.8141 20.7188 12 20.7188Z" fill="currentColor"/>
        <path d="M15.8461 11.843L10.7273 8.1211C10.6993 8.10076 10.6662 8.08857 10.6317 8.08589C10.5972 8.08321 10.5626 8.09014 10.5318 8.10592C10.5009 8.12169 10.4751 8.1457 10.4571 8.17527C10.4391 8.20484 10.4296 8.23882 10.4297 8.27344V15.7172C10.4297 15.7518 10.4393 15.7857 10.4574 15.8151C10.4754 15.8446 10.5013 15.8685 10.532 15.8842C10.5628 15.9 10.5973 15.9069 10.6317 15.9044C10.6662 15.9018 10.6993 15.8897 10.7273 15.8696L15.8461 12.1453C15.8703 12.1282 15.89 12.1056 15.9036 12.0793C15.9172 12.053 15.9243 12.0238 15.9243 11.9942C15.9243 11.9645 15.9172 11.9354 15.9036 11.909C15.89 11.8827 15.8703 11.8601 15.8461 11.843V11.843Z" fill="currentColor"/>
    </g>
</svg>