<svg width="24" height="24" viewBox="0 0 24 24" fill="none" xmlns="http://www.w3.org/2000/svg">
    <g id="root">
        <path d="M11.9932 4C11.9932 4 5.11728 4.00001 3.39152 4.45029C2.46749 4.70953 1.70662 5.47355 1.44844 6.41503C1.00001 8.14791 1 11.7366 1 11.7366C1 11.7366 1.00001 15.3388 1.44844 17.0444C1.70662 17.9859 2.4539 18.7363 3.39152 18.9955C5.13087 19.4594 11.9932 19.4595 11.9932 19.4595C11.9932 19.4595 18.8827 19.4595 20.6084 19.0092C21.5461 18.7499 22.2933 18.0132 22.5379 17.0581C22.9999 15.3388 23 11.7502 23 11.7502C23 11.7502 23.0135 8.14791 22.5379 6.41503C22.2933 5.47355 21.5461 4.7232 20.6084 4.47759C18.8827 4.00002 11.9932 4 11.9932 4ZM9.80538 8.42095L15.5263 11.7366L9.80538 15.0385V8.42095Z" fill="currentColor"/>
    </g>
</svg>
