<svg width="24" height="24" viewBox="0 0 24 24" fill="none" xmlns="http://www.w3.org/2000/svg">
    <g id="root">
        <path d="M11.9999 7.19274C9.33971 7.19274 7.19284 9.33961 7.19284 11.9998C7.19284 14.6599 9.33971 16.8068 11.9999 16.8068C14.66 16.8068 16.8069 14.6599 16.8069 11.9998C16.8069 9.33961 14.66 7.19274 11.9999 7.19274ZM11.9999 15.124C10.2796 15.124 8.87565 13.7201 8.87565 11.9998C8.87565 10.2795 10.2796 8.87555 11.9999 8.87555C13.7202 8.87555 15.1241 10.2795 15.1241 11.9998C15.1241 13.7201 13.7202 15.124 11.9999 15.124ZM17.0038 5.87555C16.3827 5.87555 15.8811 6.37711 15.8811 6.99821C15.8811 7.6193 16.3827 8.12086 17.0038 8.12086C17.6249 8.12086 18.1264 7.62164 18.1264 6.99821C18.1266 6.85073 18.0977 6.70466 18.0413 6.56837C17.985 6.43208 17.9023 6.30824 17.798 6.20396C17.6937 6.09967 17.5699 6.01698 17.4336 5.96063C17.2973 5.90428 17.1513 5.87537 17.0038 5.87555V5.87555ZM21.3702 11.9998C21.3702 10.706 21.3819 9.42399 21.3092 8.13258C21.2366 6.63258 20.8944 5.30133 19.7975 4.20446C18.6983 3.10524 17.3694 2.76539 15.8694 2.69274C14.5756 2.62008 13.2936 2.6318 12.0022 2.6318C10.7085 2.6318 9.42643 2.62008 8.13502 2.69274C6.63502 2.76539 5.30377 3.10758 4.2069 4.20446C3.10768 5.30368 2.76784 6.63258 2.69518 8.13258C2.62252 9.42633 2.63424 10.7084 2.63424 11.9998C2.63424 13.2912 2.62252 14.5756 2.69518 15.867C2.76784 17.367 3.11002 18.6982 4.2069 19.7951C5.30612 20.8943 6.63502 21.2341 8.13502 21.3068C9.42877 21.3795 10.7108 21.3677 12.0022 21.3677C13.296 21.3677 14.578 21.3795 15.8694 21.3068C17.3694 21.2341 18.7006 20.892 19.7975 19.7951C20.8967 18.6959 21.2366 17.367 21.3092 15.867C21.3842 14.5756 21.3702 13.2935 21.3702 11.9998V11.9998ZM19.3077 17.5263C19.1366 17.9529 18.9303 18.2716 18.5999 18.5998C18.2694 18.9302 17.953 19.1365 17.5264 19.3076C16.2936 19.7974 13.3663 19.6873 11.9999 19.6873C10.6335 19.6873 7.70377 19.7974 6.47096 19.3099C6.0444 19.1388 5.72565 18.9326 5.39752 18.6021C5.06705 18.2716 4.8608 17.9552 4.68971 17.5287C4.20221 16.2935 4.31237 13.3662 4.31237 11.9998C4.31237 10.6334 4.20221 7.70368 4.68971 6.47086C4.8608 6.0443 5.06705 5.72555 5.39752 5.39743C5.72799 5.0693 6.0444 4.86071 6.47096 4.68961C7.70377 4.20211 10.6335 4.31227 11.9999 4.31227C13.3663 4.31227 16.296 4.20211 17.5288 4.68961C17.9553 4.86071 18.2741 5.06696 18.6022 5.39743C18.9327 5.72789 19.1389 6.0443 19.31 6.47086C19.7975 7.70368 19.6874 10.6334 19.6874 11.9998C19.6874 13.3662 19.7975 16.2935 19.3077 17.5263Z" fill="currentColor"/>
    </g>
</svg>
