<svg viewBox="0 0 24 24" fill="none" xmlns="http://www.w3.org/2000/svg">
  <g id="root">
    <path d="M3 21.8294L4.32355 16.9942C3.50683 15.5788 3.07767 13.9744 3.07846 12.3292C3.08081 7.18563 7.26644 3 12.4092 3C14.9049 3.00078 17.2476 3.97285 19.0097 5.73655C20.7711 7.50024 21.7408 9.8445 21.74 12.3378C21.7376 17.4822 17.552 21.6678 12.4092 21.6678C10.848 21.667 9.30943 21.2755 7.94665 20.5318L3 21.8294ZM8.17574 18.8426C9.49066 19.6233 10.746 20.0909 12.4061 20.0916C16.6804 20.0916 20.1622 16.6129 20.1646 12.3363C20.1662 8.051 16.7008 4.57697 12.4124 4.5754C8.13494 4.5754 4.65542 8.05414 4.65385 12.33C4.65307 14.0756 5.1646 15.3827 6.02369 16.7502L5.23992 19.6123L8.17574 18.8426ZM17.1095 14.5558C17.0515 14.4585 16.8961 14.4004 16.6623 14.2835C16.4293 14.1666 15.2831 13.6025 15.0689 13.5249C14.8555 13.4472 14.7001 13.408 14.544 13.6418C14.3887 13.8748 13.9415 14.4004 13.8057 14.5558C13.67 14.7111 13.5335 14.7307 13.3005 14.6138C13.0675 14.4969 12.3159 14.2514 11.4254 13.4566C10.7326 12.8384 10.2642 12.075 10.1285 11.8412C9.99278 11.6082 10.1144 11.4819 10.2305 11.3658C10.3356 11.2614 10.4635 11.0935 10.5804 10.957C10.6989 10.8221 10.7373 10.7248 10.8158 10.5687C10.8935 10.4133 10.855 10.2768 10.7962 10.1599C10.7373 10.0438 10.2713 8.89597 10.0775 8.42915C9.88765 7.97489 9.69543 8.03609 9.55264 8.02903L9.10545 8.02118C8.9501 8.02118 8.69747 8.07924 8.48407 8.31304C8.27067 8.54684 7.66813 9.11015 7.66813 10.258C7.66813 11.4058 8.50369 12.5144 8.6198 12.6697C8.7367 12.825 10.2635 15.1803 12.6022 16.19C13.1585 16.4301 13.5931 16.5737 13.9313 16.6812C14.4899 16.8585 14.9983 16.8334 15.4 16.7737C15.848 16.707 16.7792 16.2096 16.9738 15.6652C17.1684 15.1199 17.1684 14.6531 17.1095 14.5558Z" fill="currentColor"/>
  </g>
</svg>
