<svg viewBox="0 0 24 24" fill="none" xmlns="http://www.w3.org/2000/svg">
  <g id="root">
    <path fill-rule="evenodd" clip-rule="evenodd" d="M19.1783 2.625H4.07175C3.273 2.625 2.625 3.273 2.625 4.07175V19.1783C2.625 19.977 3.273 20.625 4.07175 20.625H19.1783C19.977 20.625 20.625 19.977 20.625 19.1783V4.07175C20.625 3.273 19.977 2.625 19.1783 2.625ZM8.124 6.56473C8.124 7.42897 7.42246 8.12946 6.562 8.12946C5.697 8.12946 4.99774 7.42897 5.00001 6.56473C5.00001 6.35925 5.04041 6.15578 5.11891 5.96593C5.1974 5.77609 5.31246 5.6036 5.4575 5.4583C5.60255 5.313 5.77474 5.19774 5.96425 5.11911C6.15376 5.04047 6.35688 5 6.562 5C6.76713 5 6.97024 5.04047 7.15975 5.11911C7.34926 5.19774 7.52146 5.313 7.6665 5.4583C7.81155 5.6036 7.9266 5.77609 8.0051 5.96593C8.0836 6.15578 8.124 6.35925 8.124 6.56473ZM7.90832 9.31665H5.21342V18H7.90832V9.31665ZM12.2901 13.7038C12.2901 12.5712 12.5058 11.475 13.9066 11.475C15.2869 11.475 15.3074 12.7691 15.3074 13.7766V18H18V13.2376C18 10.8996 17.496 9.10059 14.7693 9.10059C13.4593 9.10059 12.5807 9.82155 12.2197 10.5038H12.1834V9.31665H9.59745V18H12.2901V13.7038Z" fill="currentColor"/>
  </g>
</svg>
