<svg width="24" height="24" viewBox="0 0 24 24" fill="none" xmlns="http://www.w3.org/2000/svg">
    <g id="root" fill="none">
        <path d="M11.9674 20.3146V23.3517C11.4839 19.9915 0.474854 20.9768 0.474854 20.9768C0.474854 20.9721 0.474854 1.62183 0.474854 1.62183C0.474854 1.62183 1.25735 1.67593 2.51285 1.82793" stroke="currentColor" stroke-linecap="round" stroke-linejoin="round"/>
        <path d="M11.9673 23.3517C12.4508 19.9915 23.4598 20.9768 23.4598 20.9768C23.4598 20.9721 23.4598 1.62183 23.4598 1.62183C23.4598 1.62183 22.6426 1.67413 21.4218 1.82023" stroke="currentColor" stroke-linecap="round" stroke-linejoin="round"/>
        <path d="M11.9674 20.3146C11.5696 17.6263 2.51294 18.4145 2.51294 18.4145C2.51294 18.4108 2.51294 0.738037 2.51294 0.738037C2.51294 0.738037 11.5697 1.28954 11.9674 3.97784C11.9674 3.98174 11.9674 20.3146 11.9674 20.3146Z" stroke="currentColor" stroke-linecap="round" stroke-linejoin="round"/>
        <path d="M11.9673 20.3146C12.3651 17.6263 21.4218 18.4145 21.4218 18.4145C21.4218 18.4108 21.4218 0.738037 21.4218 0.738037C21.4218 0.738037 12.365 1.28954 11.9673 3.97784C11.9673 3.98174 11.9673 20.3146 11.9673 20.3146Z" stroke="currentColor" stroke-linecap="round" stroke-linejoin="round"/>
    </g>
</svg>
