<svg width="24" height="24" viewBox="0 0 24 24" fill="none" xmlns="http://www.w3.org/2000/svg">
    <g id="root" fill="none">
        <path d="M15.3184 20.1369C14.1955 19.6975 12.9488 19.152 12.8441 18.812V18.4554C13.0771 18.2141 13.2608 17.8776 13.3695 17.4837C13.6299 17.2986 13.6962 16.9157 13.4795 16.6458V15.8475C13.4795 15.0233 13.0262 14.4592 11.9899 14.4592C10.9804 14.4592 10.4998 15.0234 10.4998 15.8475V16.6461C10.2834 16.9158 10.3499 17.2984 10.6098 17.4836C10.7185 17.8777 10.9024 18.2142 11.1355 18.4555V18.8121C11.031 19.1517 9.7841 19.6973 8.6612 20.137C8.5655 20.1746 8.5022 20.2689 8.5022 20.3742V21.2661C8.5022 21.4062 8.6128 21.52 8.7493 21.52H15.2305C15.3669 21.52 15.4776 21.4062 15.4776 21.2661V20.3742C15.4775 20.2687 15.4141 20.1742 15.3184 20.1369Z" stroke="currentColor" stroke-miterlimit="10" stroke-linecap="round" stroke-linejoin="round"/>
        <path d="M23.3189 9.1363C22.196 8.6969 20.9493 8.1514 20.8446 7.8114V7.4548C21.0776 7.2135 21.2613 6.877 21.37 6.4831C21.6304 6.298 21.6967 5.9151 21.48 5.6452V4.8468C21.48 4.0226 21.0267 3.4585 19.9904 3.4585C18.9809 3.4585 18.5003 4.0227 18.5003 4.8468V5.6454C18.2839 5.9151 18.3504 6.2977 18.6103 6.4829C18.719 6.877 18.9029 7.2135 19.136 7.4548V7.8114C19.0315 8.151 17.7846 8.6966 16.6617 9.1363C16.566 9.1739 16.5027 9.2682 16.5027 9.3735V10.2654C16.5027 10.4055 16.6133 10.5193 16.7498 10.5193H23.231C23.3674 10.5193 23.4781 10.4055 23.4781 10.2654V9.3735C23.478 9.2681 23.4146 9.1736 23.3189 9.1363Z" stroke="currentColor" stroke-miterlimit="10" stroke-linecap="round" stroke-linejoin="round"/>
        <path d="M7.31791 9.1363C6.19501 8.6969 4.94841 8.1514 4.84361 7.8114V7.4548C5.07661 7.2135 5.26031 6.877 5.36901 6.4831C5.62941 6.298 5.69571 5.9151 5.47901 5.6452V4.8468C5.47901 4.0226 5.02571 3.4585 3.98941 3.4585C2.97991 3.4585 2.49931 4.0227 2.49931 4.8468V5.6454C2.28291 5.9151 2.34941 6.2977 2.60931 6.4829C2.71801 6.877 2.90191 7.2135 3.13501 7.4548V7.8114C3.03051 8.1509 1.78361 8.6966 0.660709 9.1363C0.565009 9.1739 0.501709 9.2682 0.501709 9.3735V10.2654C0.501709 10.4055 0.612309 10.5193 0.748809 10.5193H7.23001C7.36641 10.5193 7.47711 10.4055 7.47711 10.2654V9.3735C7.47701 9.2681 7.41361 9.1736 7.31791 9.1363Z" stroke="currentColor" stroke-miterlimit="10" stroke-linecap="round" stroke-linejoin="round"/>
        <path d="M16.4566 3.60388C15.1798 2.86068 13.6968 2.43298 12.1131 2.43298C10.5294 2.43298 9.04633 2.86068 7.76953 3.60388" stroke="currentColor" stroke-miterlimit="10" stroke-linecap="round" stroke-linejoin="round"/>
        <path d="M16.8821 18.2937C18.9597 16.9169 20.4102 14.6704 20.706 12.0707C20.4101 14.6704 18.9597 16.9169 16.8821 18.2937Z" stroke="currentColor" stroke-miterlimit="10" stroke-linecap="round" stroke-linejoin="round"/>
        <path d="M7.34416 18.2937C5.26656 16.9169 3.81616 14.6704 3.52026 12.0707C3.81616 14.6704 5.26656 16.9169 7.34416 18.2937Z" stroke="currentColor" stroke-miterlimit="10" stroke-linecap="round" stroke-linejoin="round"/>
    </g>
</svg>
