<svg width="24" height="24" viewBox="0 0 24 24" fill="none" xmlns="http://www.w3.org/2000/svg">
    <g id="root" fill="none">
        <path d="M6.97794 18.2074L12.1366 21.845C12.3687 22.0212 12.3283 22.3486 12.1366 22.5408L11.5546 23.1224C11.3629 23.3146 11.1129 23.2665 10.8595 23.1224L5.64844 19.537" stroke="currentColor" stroke-miterlimit="10" stroke-linecap="round" stroke-linejoin="round"/>
        <path d="M4.65447 15.8839L4.65297 15.883L3.28227 17.2638L1.26367 18.6251L4.23997 21.6011L5.64827 19.5369L6.97847 18.2077L6.97777 18.2074L19.1372 11.8615L10.9999 3.72421L4.65447 15.8839Z" stroke="currentColor" stroke-miterlimit="10" stroke-linecap="round" stroke-linejoin="round"/>
        <path d="M21.497 8.44971C21.6246 4.56751 18.4679 1.41711 14.5918 1.54441" stroke="currentColor" stroke-miterlimit="10" stroke-linecap="round" stroke-linejoin="round"/>
        <path d="M15.3496 4.58931C17.1155 4.47311 18.5683 5.92711 18.4522 7.69191" stroke="currentColor" stroke-miterlimit="10" stroke-linecap="round" stroke-linejoin="round"/>
        <path d="M4.6543 15.8839L6.9776 18.2074" stroke="currentColor" stroke-miterlimit="10" stroke-linecap="round" stroke-linejoin="round"/>
        <path d="M3.28223 17.2638L5.64823 19.5369" stroke="currentColor" stroke-miterlimit="10" stroke-linecap="round" stroke-linejoin="round"/>
    </g>
</svg>
