<svg width="24" height="24" viewBox="0 0 24 24" fill="none" xmlns="http://www.w3.org/2000/svg">
<g clip-path="url(#clip0_1227_467)">
<path d="M23.5 6.5H0.5V23.5H23.5V6.5Z" stroke="black" stroke-linecap="round" stroke-linejoin="round"/>
<path d="M11.1093 2.79883L7.0661 6.39603" stroke="black"/>
<path d="M12.9939 2.71118L16.934 6.39608" stroke="black"/>
<path d="M11.9999 3.17131C12.7026 3.17131 13.2722 2.60168 13.2722 1.89901C13.2722 1.19634 12.7026 0.626709 11.9999 0.626709C11.2972 0.626709 10.7276 1.19634 10.7276 1.89901C10.7276 2.60168 11.2972 3.17131 11.9999 3.17131Z" stroke="black"/>
<path d="M0.5 9.5H23.5" stroke="black" stroke-linecap="round" stroke-linejoin="round"/>
<path d="M4.55701 20.4502H5.49181" stroke="black" stroke-miterlimit="10" stroke-linecap="round" stroke-linejoin="round"/>
<path d="M7.59869 20.4502H8.53359" stroke="black" stroke-miterlimit="10" stroke-linecap="round" stroke-linejoin="round"/>
<path d="M10.5346 20.4502H11.4694" stroke="black" stroke-miterlimit="10" stroke-linecap="round" stroke-linejoin="round"/>
<path d="M13.5349 20.4502H14.4697" stroke="black" stroke-miterlimit="10" stroke-linecap="round" stroke-linejoin="round"/>
<path d="M4.55701 18.45H5.49181" stroke="black" stroke-miterlimit="10" stroke-linecap="round" stroke-linejoin="round"/>
<path d="M7.59869 18.45H8.53359" stroke="black" stroke-miterlimit="10" stroke-linecap="round" stroke-linejoin="round"/>
<path d="M10.5346 18.45H11.4694" stroke="black" stroke-miterlimit="10" stroke-linecap="round" stroke-linejoin="round"/>
<path d="M13.5349 18.45H14.4697" stroke="black" stroke-miterlimit="10" stroke-linecap="round" stroke-linejoin="round"/>
<path d="M16.5352 18.45H17.47" stroke="black" stroke-miterlimit="10" stroke-linecap="round" stroke-linejoin="round"/>
<path d="M19.5355 18.45H20.4703" stroke="black" stroke-miterlimit="10" stroke-linecap="round" stroke-linejoin="round"/>
<path d="M4.55701 16.4497H5.49181" stroke="black" stroke-miterlimit="10" stroke-linecap="round" stroke-linejoin="round"/>
<path d="M7.59869 16.4497H8.53359" stroke="black" stroke-miterlimit="10" stroke-linecap="round" stroke-linejoin="round"/>
<path d="M10.5346 16.4497H11.4694" stroke="black" stroke-miterlimit="10" stroke-linecap="round" stroke-linejoin="round"/>
<path d="M13.5349 16.4497H14.4697" stroke="black" stroke-miterlimit="10" stroke-linecap="round" stroke-linejoin="round"/>
<path d="M16.5352 16.4497H17.47" stroke="black" stroke-miterlimit="10" stroke-linecap="round" stroke-linejoin="round"/>
<path d="M19.5355 16.4497H20.4703" stroke="black" stroke-miterlimit="10" stroke-linecap="round" stroke-linejoin="round"/>
<path d="M4.55701 14.4495H5.49181" stroke="black" stroke-miterlimit="10" stroke-linecap="round" stroke-linejoin="round"/>
<path d="M7.59869 14.4495H8.53359" stroke="black" stroke-miterlimit="10" stroke-linecap="round" stroke-linejoin="round"/>
<path d="M10.5346 14.4495H11.4694" stroke="black" stroke-miterlimit="10" stroke-linecap="round" stroke-linejoin="round"/>
<path d="M13.5349 14.4495H14.4697" stroke="black" stroke-miterlimit="10" stroke-linecap="round" stroke-linejoin="round"/>
<path d="M16.5352 14.4495H17.47" stroke="black" stroke-miterlimit="10" stroke-linecap="round" stroke-linejoin="round"/>
<path d="M19.5355 14.4495H20.4703" stroke="black" stroke-miterlimit="10" stroke-linecap="round" stroke-linejoin="round"/>
<path d="M13.5349 12.4492H14.4697" stroke="black" stroke-miterlimit="10" stroke-linecap="round" stroke-linejoin="round"/>
<path d="M16.5352 12.4492H17.47" stroke="black" stroke-miterlimit="10" stroke-linecap="round" stroke-linejoin="round"/>
<path d="M19.5355 12.4492H20.4703" stroke="black" stroke-miterlimit="10" stroke-linecap="round" stroke-linejoin="round"/>
</g>
<defs>
<clipPath id="clip0_1227_467">
<rect width="24" height="24" fill="white"/>
</clipPath>
</defs>
</svg>
