<svg width="24" height="24" viewBox="0 0 24 24" fill="none" xmlns="http://www.w3.org/2000/svg">
    <g id="root" fill="none">
        <path d="M11.986 23.326C18.2147 23.326 23.264 18.2767 23.264 12.048C23.264 5.81934 18.2147 0.770004 11.986 0.770004C5.75734 0.770004 0.708008 5.81934 0.708008 12.048C0.708008 18.2767 5.75734 23.326 11.986 23.326Z" stroke="currentColor" stroke-linecap="round" stroke-linejoin="round"/>
        <path d="M4.63974 5.5407C4.63974 5.5407 3.13214 9.0012 4.95714 8.357C6.30574 7.8811 6.42474 7.326 6.42474 7.326L7.21784 5.9376C7.21784 5.9376 7.33684 7.8811 7.49554 8.1585C7.65424 8.4364 8.28884 9.2297 8.52674 8.119C8.96404 6.0773 9.03774 5.5018 9.79134 5.5018C10.5449 5.5018 12.0963 4.9062 12.2551 6.7307C12.4138 8.5553 12.0965 7.4842 11.1049 7.9604C10.1132 8.4363 9.87524 10.1022 10.7875 10.3004C11.3484 10.4224 12.3439 10.7841 13.0277 11.0447C15.2427 11.8888 15.3091 14.3312 15.3091 16.4878C15.3091 16.4878 15.3489 18.9867 16.2611 18.3918C17.1732 17.7969 19.672 13.9097 19.1564 12.4423C18.6408 10.9747 18.6013 10.816 19.5531 10.3004C20.5049 9.7848 21.1792 9.1502 21.1395 8.4363" stroke="currentColor" stroke-linecap="round" stroke-linejoin="round"/>
        <path d="M2.77637 14.9014C2.77637 14.9014 3.05407 11.7538 3.68867 12.2565C4.32327 12.7596 4.60067 12.7596 5.15607 13.315C5.71147 13.8701 8.09117 14.1875 7.29787 14.9014C6.50467 15.6155 6.19977 15.5742 5.11727 18.7487" stroke="currentColor" stroke-linecap="round" stroke-linejoin="round"/>
    </g>
</svg>
