<svg width="24" height="24" viewBox="0 0 24 24" fill="none" xmlns="http://www.w3.org/2000/svg">
<g id="root" fill="none">
<g clip-path="url(#clip0_387_1969)">
<path d="M23.4863 23.5002V4.90669L11.9863 1.63449L0.486328 4.90669V23.5002H2.48633V8.50009H21.4863V23.5002H23.4863Z" stroke="black" stroke-miterlimit="10" stroke-linecap="round" stroke-linejoin="round"/>
<path d="M10.4864 19.5002H6.48645V23.5002H10.4864V19.5002Z" stroke="black" stroke-miterlimit="10" stroke-linecap="round" stroke-linejoin="round"/>
<path d="M14.4865 19.5002H10.4865V23.5002H14.4865V19.5002Z" stroke="black" stroke-miterlimit="10" stroke-linecap="round" stroke-linejoin="round"/>
<path d="M14.4865 15.5H10.4865V19.5H14.4865V15.5Z" stroke="black" stroke-miterlimit="10" stroke-linecap="round" stroke-linejoin="round"/>
<path d="M14.4865 11.4997H10.4865V15.4997H14.4865V11.4997Z" stroke="black" stroke-miterlimit="10" stroke-linecap="round" stroke-linejoin="round"/>
<path d="M18.48 19.5002H14.48V23.5002H18.48V19.5002Z" stroke="black" stroke-miterlimit="10" stroke-linecap="round" stroke-linejoin="round"/>
<path d="M18.48 15.5H14.48V19.5H18.48V15.5Z" stroke="black" stroke-miterlimit="10" stroke-linecap="round" stroke-linejoin="round"/>
<path d="M10.4747 6.50009H13.4798" stroke="black" stroke-miterlimit="10" stroke-linecap="round" stroke-linejoin="round"/>
<path d="M5.56348 6.50009H8.56858" stroke="black" stroke-miterlimit="10" stroke-linecap="round" stroke-linejoin="round"/>
<path d="M15.386 6.50009H18.3912" stroke="black" stroke-miterlimit="10" stroke-linecap="round" stroke-linejoin="round"/>
</g>
<defs>
<clipPath id="clip0_387_1969">
<rect width="24" height="24" fill="white"/>
</clipPath>
</defs>
</g>
</svg>
