<svg width="24" height="24" viewBox="0 0 24 24" fill="none" xmlns="http://www.w3.org/2000/svg">
<g id="root" fill="none">
<path d="M17.3082 11.7097L16.7092 5.0393C16.7092 4.1561 16.0164 3.4389 15.1623 3.4389H8.80795C7.95375 3.4389 7.26135 4.1561 7.26135 5.0393L6.66235 11.7091" stroke="black" stroke-linecap="round" stroke-linejoin="round"/>
<path d="M17.3082 20.7604L20.4794 14.585C20.5873 14.3749 20.5279 14.1179 20.3389 13.9764L14.3598 9.5045C13.2274 8.7419 12.659 8.3592 11.9853 8.3592C11.3114 8.3592 10.743 8.7419 9.59078 9.5183L3.63168 13.9763C3.44258 14.1177 3.38328 14.3748 3.49118 14.5849L6.66248 20.7604" stroke="black" stroke-miterlimit="10" stroke-linecap="round" stroke-linejoin="round"/>
<path d="M14.0568 5.5566L15.2462 5.8146" stroke="black" stroke-linecap="round" stroke-linejoin="round"/>
<path d="M11.3906 5.5243H12.58" stroke="black" stroke-linecap="round" stroke-linejoin="round"/>
<path d="M8.72412 5.8146L9.91362 5.5566" stroke="black" stroke-linecap="round" stroke-linejoin="round"/>
<path d="M11.4596 3.425V0.601402" stroke="black" stroke-miterlimit="10" stroke-linecap="round" stroke-linejoin="round"/>
<path d="M13.467 3.42501V1.83231" stroke="black" stroke-miterlimit="10" stroke-linecap="round" stroke-linejoin="round"/>
<path d="M10.7548 11.3596L10.2153 11.7177" stroke="black" stroke-miterlimit="10" stroke-linecap="round" stroke-linejoin="round"/>
<path d="M13.2157 11.3596L13.7552 11.7177" stroke="black" stroke-miterlimit="10" stroke-linecap="round" stroke-linejoin="round"/>
<path d="M1.48047 20.2527C2.30927 19.4239 3.65307 19.4239 4.48187 20.2527C5.31067 21.0815 6.65447 21.0815 7.48327 20.2527C8.31207 19.4239 9.65587 19.4239 10.4847 20.2527C11.3135 21.0815 12.6573 21.0815 13.4861 20.2527C14.3149 19.4239 15.6587 19.4239 16.4875 20.2527C17.3163 21.0815 18.6601 21.0815 19.4889 20.2527C20.3177 19.4239 21.6615 19.4239 22.4903 20.2527" stroke="black" stroke-miterlimit="10" stroke-linecap="round" stroke-linejoin="round"/>
<path d="M1.48047 22.6247C2.30927 21.7959 3.65307 21.7959 4.48187 22.6247C5.31067 23.4535 6.65447 23.4535 7.48327 22.6247C8.31207 21.7959 9.65587 21.7959 10.4847 22.6247C11.3135 23.4535 12.6573 23.4535 13.4861 22.6247C14.3149 21.7959 15.6587 21.7959 16.4875 22.6247C17.3163 23.4535 18.6601 23.4535 19.4889 22.6247C20.3177 21.7959 21.6615 21.7959 22.4903 22.6247" stroke="black" stroke-miterlimit="10" stroke-linecap="round" stroke-linejoin="round"/>
</g>
</svg>
