<svg width="200" height="207" viewBox="0 0 200 207" fill="none" xmlns="http://www.w3.org/2000/svg">
<path d="M176.511 90.6663C170.948 87.9523 165.138 85.7754 159.162 84.1653C159.162 84.1653 144.351 81.262 124.661 87.6718C122.327 88.4292 114.553 91.1783 111.343 92.4336C109.065 93.3102 107.53 93.8993 104.467 95.0564C102.476 95.8138 100.485 96.5572 98.4944 97.2515L96.3915 97.9949C92.897 99.1729 89.3191 100.087 85.6879 100.73C81.3394 101.474 76.9357 101.85 72.524 101.852C68.7332 101.917 64.9418 101.765 61.1685 101.396C62.9629 108.374 66.1803 111.411 68.2552 112.827C74.746 117.294 84.6435 115.345 104.593 111.207C111.869 109.706 118.324 108.023 118.324 108.023C119.131 107.799 120.301 107.476 121.724 107.112C130.416 104.882 134.545 104.306 136.444 104.075H136.584C142.711 103.374 146.678 102.89 149.51 103.465C154.935 104.559 160.578 110.282 160.578 116.39C160.626 118.358 160.223 120.31 159.4 122.098C157.815 126.703 155.653 131.088 152.966 135.149C149.705 140.068 145.715 144.461 141.134 148.179C130.808 156.62 117.884 161.231 104.551 161.23H104.446C91.076 161.253 78.1115 156.642 67.7575 148.179C66.2504 146.945 64.7995 145.641 63.4186 144.266C60.6276 141.487 58.1241 138.432 55.9464 135.149C49.6909 125.687 46.3539 114.593 46.3503 103.248V103.142C46.338 100.055 46.5724 96.9708 47.0512 93.9203C47.1774 93.1022 47.3246 92.2886 47.4929 91.4798C47.992 89.0067 48.6571 86.57 49.4836 84.1864C53.0238 73.9623 59.3333 64.9232 67.7084 58.0772L67.8837 57.9299C78.2129 49.5614 91.1052 45.0027 104.396 45.0191C110.199 45.0371 115.968 45.9017 121.521 47.5859C129.246 49.9636 136.4 53.9073 142.535 59.1712C144.1 60.5138 146.113 61.2174 148.173 61.142C150.234 61.0666 152.19 60.2178 153.653 58.7645L153.849 58.5681C154.608 57.8094 155.21 56.9085 155.62 55.917C156.031 54.9255 156.242 53.8627 156.242 52.7895C156.242 51.7162 156.031 50.6534 155.62 49.6619C155.21 48.6704 154.608 47.7695 153.849 47.0108L109.254 2.3945C108.496 1.63537 107.595 1.03318 106.604 0.622321C105.613 0.211463 104.551 0 103.478 0C102.405 0 101.343 0.211463 100.352 0.622321C99.3611 1.03318 98.4607 1.63537 97.7023 2.3945L2.39335 97.7214C1.63459 98.4801 1.03268 99.3809 0.622021 100.372C0.211361 101.364 0 102.427 0 103.5C0 104.573 0.211361 105.636 0.622021 106.628C1.03268 107.619 1.63459 108.52 2.39335 109.279L97.6743 204.605C98.4326 205.365 99.3331 205.967 100.324 206.378C101.315 206.789 102.377 207 103.45 207C104.523 207 105.585 206.789 106.576 206.378C107.567 205.967 108.468 205.365 109.226 204.605L197.603 116.193C198.401 115.396 199.025 114.443 199.437 113.393C199.848 112.342 200.038 111.218 199.994 110.091C199.95 108.964 199.673 107.858 199.18 106.843C198.688 105.828 197.991 104.926 197.133 104.194C190.854 98.8365 183.925 94.2914 176.511 90.6663Z" fill="#009C37"/>
</svg>
