<svg viewBox="0 0 264 62" fill="none" xmlns="http://www.w3.org/2000/svg">
<g id="root">
<path d="M64.4143 23.1784H71.5935V23.6549C71.5935 26.1894 70.9464 28.16 69.6523 29.5669C68.3593 30.9965 66.5919 31.7104 64.3274 31.7104C62.1499 31.7104 60.3825 30.9738 59.046 29.4796C57.7096 27.9855 57.0405 26.0585 57.0405 23.6549C57.0405 21.2514 57.7079 19.2807 59.0669 17.8093C60.4259 16.3378 62.1951 15.5995 64.4143 15.5995C66.326 15.5995 67.8901 16.0987 69.1066 17.0727C70.3231 18.0467 71.0687 19.368 71.3276 20.9913H69.4507C69.0423 18.7222 67.0577 17.2682 64.4109 17.2682C61.1332 17.2682 58.9348 19.5199 58.9348 23.6549C58.9348 25.6046 59.4301 27.1634 60.3998 28.3101C61.3696 29.4569 62.6852 30.0434 64.324 30.0434C67.407 30.0434 69.3464 28.2019 69.6923 24.8244H64.4143V23.1784Z" fill="#002277"/>
<path d="M80.5229 31.7104C78.3019 31.7104 76.5345 30.9738 75.198 29.4796C73.8616 27.9855 73.1699 26.0585 73.1699 23.6549C73.1699 21.2514 73.839 19.3034 75.198 17.8093C76.557 16.3151 78.3019 15.5995 80.5229 15.5995C82.7439 15.5995 84.52 16.3361 85.8686 17.8093C87.2172 19.2825 87.8741 21.2514 87.8741 23.6549C87.8741 26.0585 87.205 28.0082 85.8686 29.4796C84.5322 30.9511 82.7474 31.7104 80.5229 31.7104ZM80.5229 30.0434C82.1826 30.0434 83.4981 29.4587 84.4887 28.3101C85.4793 27.1616 85.9763 25.6046 85.9763 23.6549C85.9763 21.7052 85.481 20.1482 84.4887 18.9997C83.4964 17.8512 82.1826 17.2682 80.5229 17.2682C78.8632 17.2682 77.5476 17.8529 76.5553 18.9997C75.563 20.1465 75.0677 21.707 75.0677 23.6549C75.0677 25.6029 75.563 27.1634 76.5553 28.3101C77.5476 29.4569 78.8667 30.0434 80.5229 30.0434Z" fill="#002277"/>
<path d="M102.267 15.947V19.8011H97.7485V31.3649H93.4282V19.8011H88.9097V15.947H102.267Z" fill="#002277"/>
<path d="M115.565 19.8011H107.762V21.8363H114.875V25.432H107.762V27.5092H115.565V31.3649H103.451V15.947H115.565V19.8011Z" fill="#002277"/>
<path d="M126.611 23.4805L131.849 31.3631H126.848L125.942 29.9545C125.211 28.8287 124.585 27.8337 124.046 26.9453C123.787 27.3572 123.162 28.3748 122.169 29.9545L121.264 31.3631H116.37L121.61 23.5241L116.693 15.9452H121.653L122.493 17.2875C122.99 18.0887 123.549 18.9981 124.175 20.0593C124.67 19.1866 125.218 18.2615 125.835 17.2875L126.676 15.9452H131.526L126.611 23.4805Z" fill="#002277"/>
<path d="M64.9771 45.6307H66.595C66.6246 47.254 67.6082 48.0605 69.5286 48.0605C71.1152 48.0605 72.0085 47.4216 72.0085 46.2521C72.0085 45.2956 71.3881 44.8714 69.5755 44.4613L68.6527 44.2623C66.5203 43.8381 65.2968 42.9113 65.2968 41.0733C65.2968 39.2963 66.7479 38.1426 69.1062 38.1426C72.0241 38.1426 73.3397 39.5093 73.3849 41.5603H71.7808C71.6748 40.2075 70.9797 39.525 69.1202 39.525C67.6829 39.525 66.9426 40.0871 66.9426 41.0436C66.9306 41.2573 66.9696 41.4708 67.0564 41.6663C67.1431 41.8619 67.2751 42.0337 67.4414 42.1677C67.7594 42.426 68.3798 42.6686 69.287 42.8659L70.2237 43.0631C72.7037 43.5868 73.6856 44.552 73.6856 46.205C73.6856 48.2106 72.1215 49.4394 69.4973 49.4394C66.701 49.4411 64.9927 48.1669 64.9771 45.6307Z" fill="#002277"/>
<path d="M86.5858 38.3852H88.2038V49.2072H86.5858V44.3844H81.0437V49.1985H79.4258V38.3765H81.0437V42.8868H86.5928L86.5858 38.3852Z" fill="#002277"/>
<path d="M95.4179 47.8772C94.4517 46.8456 93.9668 45.4789 93.9668 43.7927C93.9668 42.1066 94.4517 40.7399 95.4179 39.6926C96.3842 38.6453 97.6407 38.1426 99.2291 38.1426C100.818 38.1426 102.072 38.6662 103.04 39.6926C104.008 40.7189 104.476 42.1066 104.476 43.7927C104.476 45.4789 103.993 46.8456 103.04 47.8772C102.088 48.9088 100.802 49.4481 99.2291 49.4481C97.6563 49.4481 96.372 48.9262 95.4179 47.8772ZM101.831 46.8456C102.481 46.1003 102.797 45.0826 102.797 43.7927C102.797 42.5028 102.481 41.4834 101.831 40.7242C101.181 39.9649 100.303 39.6001 99.2239 39.6001C98.1447 39.6001 97.274 39.9806 96.6171 40.7242C95.9601 41.4677 95.6421 42.5063 95.6421 43.7927C95.6421 45.0792 95.974 46.1003 96.6257 46.8456C97.2775 47.5909 98.1377 47.9837 99.2326 47.9837C100.327 47.9837 101.179 47.6049 101.831 46.8456Z" fill="#002277"/>
<path d="M121.594 38.3853H123.274L120.251 49.2073H118.434L117.074 44.1454C116.695 42.7333 116.392 41.473 116.135 40.3943C115.878 41.473 115.576 42.7333 115.199 44.1454L113.838 49.2073H112.023L109 38.3853H110.677L111.992 43.2918C112.461 45.1141 112.795 46.4494 112.991 47.2855C113.49 45.2206 113.808 43.8835 113.973 43.2604L115.28 38.3853H117.004L118.306 43.2604C118.48 43.8835 118.789 45.2206 119.288 47.2855C119.484 46.4494 119.818 45.1141 120.285 43.2918L121.594 38.3853Z" fill="#002277"/>
<path d="M43.7613 27.7917C42.382 27.1162 40.9418 26.5744 39.46 26.1736C39.46 26.1736 35.7879 25.451 30.9062 27.0464C30.3275 27.2349 28.4002 27.9191 27.6042 28.2315C27.0394 28.4497 26.6588 28.5964 25.8994 28.8844C25.4058 29.0729 24.9123 29.2579 24.4187 29.4307L23.8974 29.6157C23.031 29.9089 22.1439 30.1365 21.2436 30.2965C20.1655 30.4817 19.0737 30.5752 17.9799 30.5758C17.04 30.592 16.1 30.5541 15.1645 30.4623C15.6094 32.1991 16.4071 32.9548 16.9215 33.3074C18.5308 34.4193 20.9847 33.9341 25.9307 32.9042C27.7346 32.5307 29.3352 32.1118 29.3352 32.1118C29.535 32.0559 29.8252 31.9756 30.178 31.8849C32.333 31.3298 33.3566 31.1867 33.8276 31.1291H33.8623C35.3812 30.9545 36.3649 30.8341 37.067 30.9772C38.4121 31.2495 39.8111 32.6738 39.8111 34.1941C39.823 34.6839 39.7231 35.17 39.5191 35.615C39.126 36.7611 38.59 37.8526 37.9238 38.8633C37.1153 40.0875 36.1261 41.181 34.9902 42.1065C32.4303 44.2073 29.2261 45.3549 25.9202 45.3548H25.8942C22.5795 45.3605 19.3652 44.2126 16.7981 42.1065C16.4245 41.7993 16.0647 41.4746 15.7224 41.1325C15.0304 40.4406 14.4097 39.6804 13.8698 38.8633C12.3189 36.5081 11.4915 33.7469 11.4906 30.9231V30.8969C11.4876 30.1284 11.5457 29.3608 11.6644 28.6016C11.6957 28.398 11.7322 28.1955 11.7739 27.9942C11.8977 27.3786 12.0626 26.7721 12.2675 26.1789C13.1452 23.6341 14.7095 21.3843 16.786 19.6804L16.8294 19.6437C19.3903 17.5609 22.5867 16.4262 25.882 16.4303C27.3206 16.4348 28.7509 16.65 30.1276 17.0691C32.043 17.661 33.8165 18.6425 35.3378 19.9527C35.7258 20.2868 36.2249 20.462 36.7356 20.4432C37.2464 20.4244 37.7314 20.2132 38.0941 19.8515L38.1427 19.8026C38.3309 19.6137 38.4801 19.3895 38.5819 19.1427C38.6837 18.8959 38.7361 18.6314 38.7361 18.3643C38.7361 18.0972 38.6837 17.8326 38.5819 17.5859C38.4801 17.3391 38.3309 17.1149 38.1427 16.926L27.0864 5.8212C26.8983 5.63226 26.6751 5.48237 26.4294 5.38011C26.1837 5.27785 25.9203 5.22522 25.6543 5.22522C25.3884 5.22522 25.125 5.27785 24.8793 5.38011C24.6336 5.48237 24.4104 5.63226 24.2223 5.8212L0.592407 29.5477C0.404288 29.7365 0.255056 29.9607 0.153241 30.2075C0.0514261 30.4543 -0.000976562 30.7188 -0.000976562 30.9859C-0.000976562 31.2531 0.0514261 31.5176 0.153241 31.7644C0.255056 32.0112 0.404288 32.2354 0.592407 32.4242L24.2154 56.1507C24.4034 56.3396 24.6266 56.4895 24.8724 56.5918C25.1181 56.694 25.3814 56.7467 25.6474 56.7467C25.9134 56.7467 26.1767 56.694 26.4224 56.5918C26.6681 56.4895 26.8914 56.3396 27.0794 56.1507L48.9906 34.1453C49.1884 33.9469 49.3433 33.7096 49.4453 33.4482C49.5473 33.1868 49.5944 32.907 49.5834 32.6264C49.5725 32.3458 49.5038 32.0706 49.3817 31.818C49.2597 31.5654 49.0868 31.3409 48.8741 31.1587C47.3174 29.8252 45.5996 28.694 43.7613 27.7917Z" fill="#009C37"/>
<path d="M163.754 11.1083L181.71 1.08618V59.0472L173.943 61.9703V8.60275L165.174 13.6973L163.754 11.1083Z" fill="#0E0E0E"/>
<path fill-rule="evenodd" clip-rule="evenodd" d="M216.349 61.1347C221.694 61.1347 226.259 59.7149 230.046 56.8753C232.554 54.9848 234.647 52.7144 236.325 50.0642H231.091C230.995 50.2204 230.897 50.375 230.797 50.528C228.292 54.3141 224.533 56.2072 219.522 56.2072C215.569 56.2072 212.006 54.5925 208.832 51.3632C205.658 48.1338 203.181 44.0136 201.399 39.0026C199.617 33.9916 198.726 28.9805 198.726 23.9695C198.726 18.1789 199.951 13.4185 202.401 9.68801C204.907 5.90189 208.609 4.00883 213.509 4.00883C217.518 4.00883 221.137 5.6235 224.366 8.85284C227.596 12.0822 230.101 16.1745 231.883 21.1299C233.057 24.3939 233.844 27.658 234.244 30.922H241.57C241.571 30.8317 241.571 30.7413 241.571 30.6509C241.571 25.3614 240.597 20.3782 238.648 15.7013C236.755 11.0243 233.887 7.23817 230.046 4.3429C226.259 1.44763 221.694 0 216.349 0C211.004 0 206.438 1.44763 202.652 4.3429C198.921 7.23817 196.11 11.0243 194.217 15.7013C192.323 20.3782 191.377 25.3614 191.377 30.6509C191.377 35.8846 192.323 40.84 194.217 45.5169C196.11 50.1939 198.921 53.98 202.652 56.8753C206.438 59.7149 211.004 61.1347 216.349 61.1347Z" fill="#0E0E0E"/>
<path d="M263.817 43.0306C263.817 44.7532 262.309 46.0256 260.098 46.0256C257.67 46.0256 255.967 44.8119 255.791 42.8544H257.2C257.318 44.0289 258.336 44.8706 260.078 44.8706C261.605 44.8706 262.466 44.0485 262.466 43.0306C262.466 40.388 256.045 41.9344 256.045 37.9215C256.045 36.3359 257.553 35.0244 259.804 35.0244C262.094 35.0244 263.601 36.2381 263.719 38.2934H262.349C262.27 37.0994 261.389 36.1989 259.765 36.1989C258.336 36.1989 257.435 36.9623 257.435 37.9019C257.435 40.799 263.758 39.2526 263.817 43.0306Z" fill="#1B1D1F"/>
<path d="M250.696 39.8986V45.8689H249.326V35.181H250.696V37.0798C251.283 35.7682 252.516 34.9852 254.356 34.9852V36.4142H253.985C252.203 36.4142 250.696 37.2168 250.696 39.8986Z" fill="#1B1D1F"/>
<path d="M235.49 40.5054C235.49 37.1581 237.663 35.0244 240.599 35.0244C242.752 35.0244 244.22 36.1793 244.827 37.53V35.181H246.197V45.869H244.827V43.5004C244.201 44.8706 242.713 46.0256 240.579 46.0256C237.663 46.0256 235.49 43.8527 235.49 40.5054ZM244.827 40.525C244.827 37.8628 243.046 36.2185 240.853 36.2185C238.602 36.2185 236.88 37.7845 236.88 40.5054C236.88 43.2068 238.602 44.8315 240.853 44.8315C243.046 44.8315 244.827 43.1872 244.827 40.525Z" fill="#1B1D1F"/>
<path d="M228.5 36.1989C226.562 36.1989 224.859 37.4517 224.703 39.9377H232.22C232.278 37.4517 230.477 36.1989 228.5 36.1989ZM233.453 42.4825C232.963 44.4987 231.241 46.0256 228.559 46.0256C225.525 46.0256 223.313 43.9115 223.313 40.525C223.313 37.1189 225.486 35.0244 228.559 35.0244C231.691 35.0244 233.609 37.256 233.609 39.9769C233.609 40.4075 233.609 40.6816 233.57 41.0535H224.703C224.82 43.5591 226.562 44.8706 228.559 44.8706C230.38 44.8706 231.613 43.9115 232.004 42.4825H233.453Z" fill="#1B1D1F"/>
<path d="M217.148 44.303L220.672 35.181H222.081L215.739 50.8997H214.31L216.385 45.8102L212 35.181H213.507L217.148 44.303Z" fill="#1B1D1F"/>
</g>
</svg>
