<svg viewBox="0 0 133 62" fill="none" xmlns="http://www.w3.org/2000/svg">
<g id="root">
<path d="M64.6106 23.0089H71.8117V23.4868C71.8117 26.029 71.1626 28.0057 69.8645 29.4168C68.5676 30.8507 66.7948 31.5668 64.5235 31.5668C62.3393 31.5668 60.5665 30.828 59.226 29.3293C57.8855 27.8306 57.2144 25.8977 57.2144 23.4868C57.2144 21.076 57.8837 19.0993 59.2469 17.6234C60.6101 16.1475 62.3846 15.4069 64.6106 15.4069C66.5281 15.4069 68.097 15.9076 69.3172 16.8845C70.5374 17.8615 71.2852 19.1868 71.545 20.8151H69.6623C69.2527 18.539 67.262 17.0806 64.6071 17.0806C61.3195 17.0806 59.1144 19.3392 59.1144 23.4868C59.1144 25.4425 59.6112 27.0059 60.5839 28.1562C61.5566 29.3065 62.8762 29.8948 64.52 29.8948C67.6124 29.8948 69.5577 28.0477 69.9046 24.6599H64.6106V23.0089Z" fill="#002277"/>
<path d="M80.7684 31.5668C78.5406 31.5668 76.7678 30.828 75.4273 29.3293C74.0868 27.8306 73.3931 25.8977 73.3931 23.4868C73.3931 21.076 74.0642 19.1221 75.4273 17.6234C76.7905 16.1247 78.5406 15.4069 80.7684 15.4069C82.9962 15.4069 84.7777 16.1457 86.1304 17.6234C87.4831 19.1011 88.142 21.076 88.142 23.4868C88.142 25.8977 87.4709 27.8533 86.1304 29.3293C84.7899 30.8052 82.9997 31.5668 80.7684 31.5668ZM80.7684 29.8948C82.4331 29.8948 83.7527 29.3083 84.7463 28.1562C85.7399 27.0042 86.2385 25.4425 86.2385 23.4868C86.2385 21.5312 85.7417 19.9695 84.7463 18.8174C83.751 17.6654 82.4331 17.0806 80.7684 17.0806C79.1037 17.0806 77.7841 17.6671 76.7888 18.8174C75.7934 19.9677 75.2966 21.5329 75.2966 23.4868C75.2966 25.4407 75.7934 27.0059 76.7888 28.1562C77.7841 29.3065 79.1072 29.8948 80.7684 29.8948Z" fill="#002277"/>
<path d="M102.579 15.7552V19.621H98.0464V31.2201H93.7129V19.621H89.1807V15.7552H102.579Z" fill="#002277"/>
<path d="M115.917 19.621H108.09V21.6625H115.225V25.2691H108.09V27.3526H115.917V31.2201H103.766V15.7552H115.917V19.621Z" fill="#002277"/>
<path d="M126.997 23.3117L132.251 31.2183H127.234L126.326 29.8054C125.592 28.6761 124.965 27.6782 124.424 26.787C124.164 27.2002 123.537 28.2209 122.542 29.8054L121.633 31.2183H116.725L121.98 23.3554L117.049 15.7534H122.024L122.866 17.0998C123.364 17.9034 123.926 18.8156 124.553 19.8801C125.05 19.0047 125.599 18.0767 126.218 17.0998L127.062 15.7534H131.927L126.997 23.3117Z" fill="#002277"/>
<path d="M65.1748 45.5295H66.7977C66.8273 47.1578 67.814 47.9666 69.7402 47.9666C71.3317 47.9666 72.2277 47.3258 72.2277 46.1528C72.2277 45.1934 71.6054 44.7679 69.7872 44.3565L68.8616 44.1569C66.7227 43.7314 65.4956 42.8018 65.4956 40.9582C65.4956 39.1758 66.9511 38.0186 69.3166 38.0186C72.2434 38.0186 73.5629 39.3894 73.6083 41.4466H71.9993C71.893 40.0898 71.1957 39.4052 69.3305 39.4052C67.8889 39.4052 67.1463 39.969 67.1463 40.9284C67.1343 41.1428 67.1734 41.3569 67.2604 41.553C67.3475 41.7492 67.4799 41.9216 67.6466 42.0559C67.9656 42.315 68.5879 42.5584 69.4979 42.7562L70.4374 42.9541C72.9249 43.4793 73.9098 44.4475 73.9098 46.1055C73.9098 48.1172 72.341 49.3498 69.7088 49.3498C66.904 49.3515 65.1905 48.0734 65.1748 45.5295Z" fill="#002277"/>
<path d="M86.8498 38.2618H88.4727V49.1168H86.8498V44.2793H81.2909V49.1081H79.668V38.2531H81.2909V42.7771H86.8568L86.8498 38.2618Z" fill="#002277"/>
<path d="M95.7085 47.7828C94.7393 46.7481 94.2529 45.3772 94.2529 43.6859C94.2529 41.9946 94.7393 40.6238 95.7085 39.5733C96.6777 38.5228 97.938 38.0186 99.5313 38.0186C101.125 38.0186 102.383 38.5438 103.354 39.5733C104.325 40.6027 104.794 41.9946 104.794 43.6859C104.794 45.3772 104.309 46.7481 103.354 47.7828C102.399 48.8175 101.109 49.3585 99.5313 49.3585C97.9537 49.3585 96.6655 48.835 95.7085 47.7828ZM102.141 46.7481C102.793 46.0005 103.11 44.9798 103.11 43.6859C103.11 42.3921 102.793 41.3696 102.141 40.608C101.489 39.8464 100.609 39.4805 99.526 39.4805C98.4435 39.4805 97.5702 39.8621 96.9113 40.608C96.2523 41.3538 95.9333 42.3956 95.9333 43.6859C95.9333 44.9763 96.2663 46.0005 96.92 46.7481C97.5737 47.4957 98.4365 47.8896 99.5347 47.8896C100.633 47.8896 101.487 47.5097 102.141 46.7481Z" fill="#002277"/>
<path d="M121.964 38.2618H123.65L120.617 49.1168H118.795L117.43 44.0395C117.05 42.6231 116.747 41.359 116.489 40.277C116.231 41.359 115.928 42.6231 115.549 44.0395L114.185 49.1168H112.365L109.332 38.2618H111.014L112.333 43.1834C112.804 45.0112 113.139 46.3506 113.336 47.1892C113.836 45.118 114.155 43.7769 114.32 43.1518L115.631 38.2618H117.361L118.666 43.1518C118.841 43.7769 119.151 45.118 119.651 47.1892C119.848 46.3506 120.183 45.0112 120.652 43.1834L121.964 38.2618Z" fill="#002277"/>
<path d="M43.8946 27.6361C42.5111 26.9585 41.0665 26.415 39.5802 26.0131C39.5802 26.0131 35.8969 25.2882 31.0003 26.8885C30.4199 27.0775 28.4867 27.7639 27.6883 28.0772C27.1218 28.2961 26.74 28.4432 25.9783 28.7321C25.4832 28.9211 24.9881 29.1067 24.4931 29.2801L23.9701 29.4656C23.1011 29.7597 22.2113 29.988 21.3083 30.1485C20.2269 30.3343 19.1318 30.428 18.0346 30.4286C17.0919 30.4449 16.1491 30.4069 15.2107 30.3148C15.6569 32.0568 16.4571 32.8149 16.973 33.1686C18.5872 34.2839 21.0486 33.7971 26.0096 32.7642C27.8191 32.3895 29.4245 31.9693 29.4245 31.9693C29.625 31.9133 29.9161 31.8327 30.2699 31.7417C32.4315 31.1849 33.4582 31.0414 33.9306 30.9836H33.9655C35.489 30.8085 36.4756 30.6877 37.1799 30.8313C38.5291 31.1044 39.9323 32.5331 39.9323 34.058C39.9443 34.5493 39.8441 35.0368 39.6395 35.4832C39.2452 36.6328 38.7075 37.7276 38.0393 38.7414C37.2283 39.9693 36.2361 41.0662 35.0968 41.9944C32.5291 44.1017 29.3151 45.2528 25.9992 45.2527H25.973C22.6482 45.2584 19.4242 44.107 16.8493 41.9944C16.4745 41.6863 16.1137 41.3606 15.7703 41.0175C15.0762 40.3235 14.4536 39.561 13.912 38.7414C12.3564 36.379 11.5265 33.6094 11.5256 30.777V30.7507C11.5226 29.9799 11.5809 29.21 11.7 28.4484C11.7313 28.2442 11.7679 28.0411 11.8098 27.8391C11.9339 27.2217 12.0993 26.6134 12.3048 26.0183C13.1852 23.4658 14.7543 21.2092 16.8371 19.5001L16.8807 19.4633C19.4494 17.3741 22.6555 16.236 25.9608 16.24C27.4038 16.2445 28.8384 16.4604 30.2194 16.8808C32.1406 17.4745 33.9195 18.459 35.4454 19.7732C35.8346 20.1083 36.3352 20.284 36.8475 20.2652C37.3598 20.2464 37.8463 20.0345 38.2101 19.6716L38.2589 19.6226C38.4476 19.4332 38.5973 19.2083 38.6994 18.9608C38.8015 18.7132 38.8541 18.4479 38.8541 18.1799C38.8541 17.912 38.8015 17.6467 38.6994 17.3991C38.5973 17.1516 38.4476 16.9267 38.2589 16.7373L27.1688 5.59865C26.9803 5.40913 26.7563 5.25879 26.5099 5.15622C26.2634 5.05365 25.9993 5.00085 25.7325 5.00085C25.4657 5.00085 25.2015 5.05365 24.9551 5.15622C24.7086 5.25879 24.4847 5.40913 24.2961 5.59865L0.594214 29.3974C0.405522 29.5868 0.255836 29.8117 0.153711 30.0592C0.0515857 30.3068 -0.000976562 30.5721 -0.000976562 30.84C-0.000976562 31.108 0.0515857 31.3733 0.153711 31.6208C0.255836 31.8684 0.405522 32.0933 0.594214 32.2827L24.2891 56.0814C24.4777 56.2709 24.7016 56.4213 24.9481 56.5238C25.1946 56.6264 25.4587 56.6792 25.7255 56.6792C25.9923 56.6792 26.2564 56.6264 26.5029 56.5238C26.7494 56.4213 26.9733 56.2709 27.1619 56.0814L49.1398 34.009C49.3382 33.81 49.4935 33.572 49.5959 33.3098C49.6982 33.0476 49.7454 32.7669 49.7344 32.4855C49.7235 32.2041 49.6546 31.928 49.5321 31.6746C49.4097 31.4213 49.2363 31.1961 49.023 31.0134C47.4615 29.6758 45.7385 28.5411 43.8946 27.6361V27.6361Z" fill="#009C37"/>
</g>
</svg>
