<svg viewBox="0 0 264 62" fill="none" xmlns="http://www.w3.org/2000/svg">
<g id="root">
<path d="M64.4143 23.1934H71.5935V23.6699C71.5935 26.2044 70.9464 28.175 69.6523 29.5819C68.3593 31.0115 66.5919 31.7254 64.3274 31.7254C62.1499 31.7254 60.3825 30.9888 59.046 29.4946C57.7096 28.0005 57.0405 26.0735 57.0405 23.6699C57.0405 21.2664 57.7079 19.2957 59.0669 17.8243C60.4259 16.3528 62.1951 15.6145 64.4143 15.6145C66.326 15.6145 67.8901 16.1137 69.1066 17.0877C70.3231 18.0617 71.0687 19.383 71.3276 21.0063H69.4507C69.0423 18.7372 67.0577 17.2832 64.4109 17.2832C61.1332 17.2832 58.9348 19.5349 58.9348 23.6699C58.9348 25.6197 59.4301 27.1784 60.3998 28.3252C61.3696 29.4719 62.6851 30.0584 64.324 30.0584C67.407 30.0584 69.3464 28.2169 69.6923 24.8394H64.4143V23.1934Z" fill="#002277"/>
<path d="M80.5229 31.7254C78.3019 31.7254 76.5345 30.9888 75.198 29.4946C73.8616 28.0005 73.1699 26.0735 73.1699 23.6699C73.1699 21.2664 73.839 19.3184 75.198 17.8243C76.557 16.3302 78.3019 15.6145 80.5229 15.6145C82.7439 15.6145 84.52 16.3511 85.8686 17.8243C87.2172 19.2975 87.8741 21.2664 87.8741 23.6699C87.8741 26.0735 87.205 28.0232 85.8686 29.4946C84.5322 30.9661 82.7474 31.7254 80.5229 31.7254ZM80.5229 30.0584C82.1826 30.0584 83.4981 29.4737 84.4887 28.3252C85.4793 27.1766 85.9763 25.6197 85.9763 23.6699C85.9763 21.7202 85.481 20.1632 84.4887 19.0147C83.4964 17.8662 82.1826 17.2832 80.5229 17.2832C78.8632 17.2832 77.5476 17.8679 76.5553 19.0147C75.563 20.1615 75.0677 21.722 75.0677 23.6699C75.0677 25.6179 75.563 27.1784 76.5553 28.3252C77.5476 29.4719 78.8667 30.0584 80.5229 30.0584Z" fill="#002277"/>
<path d="M102.267 15.9619V19.816H97.7485V31.3798H93.4282V19.816H88.9097V15.9619H102.267Z" fill="#002277"/>
<path d="M115.565 19.816H107.762V21.8512H114.875V25.4469H107.762V27.524H115.565V31.3798H103.451V15.9619H115.565V19.816Z" fill="#002277"/>
<path d="M126.611 23.4952L131.849 31.3779H126.848L125.942 29.9693C125.211 28.8434 124.585 27.8485 124.046 26.96C123.787 27.372 123.162 28.3896 122.169 29.9693L121.264 31.3779H116.37L121.61 23.5389L116.693 15.96H121.653L122.493 17.3022C122.99 18.1034 123.549 19.0128 124.175 20.0741C124.67 19.2013 125.218 18.2762 125.835 17.3022L126.676 15.96H131.526L126.611 23.4952Z" fill="#002277"/>
<path d="M64.9771 45.6456H66.595C66.6246 47.2689 67.6082 48.0753 69.5286 48.0753C71.1152 48.0753 72.0085 47.4365 72.0085 46.267C72.0085 45.3105 71.3881 44.8863 69.5755 44.4761L68.6527 44.2772C66.5203 43.853 65.2968 42.9261 65.2968 41.0881C65.2968 39.3112 66.7479 38.1575 69.1062 38.1575C72.0241 38.1575 73.3397 39.5242 73.3849 41.5751H71.7808C71.6748 40.2224 70.9797 39.5399 69.1202 39.5399C67.6829 39.5399 66.9426 40.1019 66.9426 41.0585C66.9306 41.2722 66.9696 41.4857 67.0564 41.6812C67.1431 41.8768 67.2751 42.0486 67.4414 42.1826C67.7594 42.4409 68.3798 42.6835 69.287 42.8808L70.2237 43.078C72.7037 43.6017 73.6856 44.5669 73.6856 46.2199C73.6856 48.2255 72.1215 49.4543 69.4973 49.4543C66.701 49.456 64.9927 48.1818 64.9771 45.6456Z" fill="#002277"/>
<path d="M86.5858 38.4001H88.2038V49.2221H86.5858V44.3993H81.0437V49.2134H79.4258V38.3914H81.0437V42.9017H86.5928L86.5858 38.4001Z" fill="#002277"/>
<path d="M95.4179 47.8921C94.4517 46.8605 93.9668 45.4938 93.9668 43.8076C93.9668 42.1215 94.4517 40.7548 95.4179 39.7075C96.3842 38.6602 97.6407 38.1575 99.2291 38.1575C100.818 38.1575 102.072 38.6811 103.04 39.7075C104.008 40.7338 104.476 42.1215 104.476 43.8076C104.476 45.4938 103.993 46.8605 103.04 47.8921C102.088 48.9237 100.802 49.463 99.2291 49.463C97.6563 49.463 96.372 48.9411 95.4179 47.8921ZM101.831 46.8605C102.481 46.1152 102.797 45.0975 102.797 43.8076C102.797 42.5177 102.481 41.4983 101.831 40.739C101.181 39.9798 100.303 39.615 99.2239 39.615C98.1447 39.615 97.274 39.9955 96.6171 40.739C95.9601 41.4826 95.6421 42.5212 95.6421 43.8076C95.6421 45.094 95.974 46.1152 96.6257 46.8605C97.2775 47.6058 98.1377 47.9985 99.2326 47.9985C100.327 47.9985 101.179 47.6198 101.831 46.8605Z" fill="#002277"/>
<path d="M121.594 38.4001H123.274L120.251 49.2222H118.434L117.074 44.1603C116.695 42.7482 116.392 41.4879 116.135 40.4092C115.878 41.4879 115.576 42.7482 115.199 44.1603L113.838 49.2222H112.023L109 38.4001H110.677L111.992 43.3067C112.461 45.129 112.795 46.4643 112.991 47.3004C113.49 45.2355 113.808 43.8984 113.973 43.2753L115.28 38.4001H117.004L118.306 43.2753C118.48 43.8984 118.789 45.2355 119.288 47.3004C119.484 46.4643 119.818 45.129 120.285 43.3067L121.594 38.4001Z" fill="#002277"/>
<path d="M43.7613 27.8067C42.382 27.1312 40.9418 26.5894 39.46 26.1886C39.46 26.1886 35.7879 25.466 30.9062 27.0614C30.3275 27.2499 28.4002 27.9341 27.6042 28.2466C27.0394 28.4647 26.6588 28.6114 25.8994 28.8994C25.4058 29.0879 24.9123 29.2729 24.4187 29.4457L23.8974 29.6307C23.031 29.924 22.1439 30.1515 21.2436 30.3115C20.1655 30.4968 19.0737 30.5902 17.9799 30.5908C17.04 30.607 16.1 30.5691 15.1645 30.4773C15.6094 32.2141 16.4071 32.9699 16.9215 33.3224C18.5308 34.4343 20.9847 33.9491 25.9307 32.9192C27.7346 32.5457 29.3352 32.1268 29.3352 32.1268C29.535 32.0709 29.8252 31.9906 30.178 31.8999C32.333 31.3448 33.3566 31.2017 33.8276 31.1441H33.8623C35.3812 30.9695 36.3649 30.8491 37.067 30.9922C38.4121 31.2645 39.8111 32.6888 39.8111 34.2092C39.823 34.6989 39.7231 35.185 39.5191 35.63C39.126 36.7761 38.59 37.8676 37.9238 38.8783C37.1153 40.1025 36.1261 41.1961 34.9902 42.1215C32.4303 44.2223 29.2261 45.3699 25.9202 45.3698H25.8942C22.5795 45.3755 19.3652 44.2277 16.7981 42.1215C16.4245 41.8143 16.0647 41.4896 15.7224 41.1475C15.0304 40.4556 14.4097 39.6954 13.8698 38.8783C12.3189 36.5231 11.4915 33.7619 11.4906 30.9381V30.9119C11.4876 30.1434 11.5457 29.3759 11.6644 28.6166C11.6957 28.413 11.7322 28.2105 11.7739 28.0092C11.8977 27.3936 12.0626 26.7872 12.2675 26.1939C13.1452 23.6491 14.7095 21.3993 16.786 19.6954L16.8294 19.6588C19.3903 17.5759 22.5867 16.4412 25.882 16.4453C27.3206 16.4498 28.7509 16.665 30.1276 17.0842C32.043 17.676 33.8165 18.6575 35.3378 19.9677C35.7258 20.3019 36.2249 20.477 36.7356 20.4582C37.2464 20.4395 37.7314 20.2282 38.0941 19.8665L38.1427 19.8176C38.3309 19.6288 38.4801 19.4045 38.5819 19.1577C38.6837 18.911 38.7361 18.6464 38.7361 18.3793C38.7361 18.1122 38.6837 17.8477 38.5819 17.6009C38.4801 17.3541 38.3309 17.1299 38.1427 16.941L27.0864 5.83621C26.8983 5.64727 26.6751 5.49739 26.4294 5.39513C26.1837 5.29287 25.9203 5.24023 25.6543 5.24023C25.3884 5.24023 25.125 5.29287 24.8793 5.39513C24.6336 5.49739 24.4104 5.64727 24.2223 5.83621L0.592407 29.5627C0.404288 29.7515 0.255056 29.9757 0.153241 30.2225C0.0514261 30.4693 -0.000976562 30.7338 -0.000976562 31.001C-0.000976562 31.2681 0.0514261 31.5326 0.153241 31.7794C0.255056 32.0262 0.404288 32.2504 0.592407 32.4392L24.2154 56.1657C24.4034 56.3546 24.6266 56.5045 24.8724 56.6068C25.1181 56.709 25.3814 56.7617 25.6474 56.7617C25.9134 56.7617 26.1767 56.709 26.4224 56.6068C26.6681 56.5045 26.8914 56.3546 27.0794 56.1657L48.9906 34.1603C49.1884 33.9619 49.3433 33.7246 49.4453 33.4632C49.5473 33.2018 49.5944 32.922 49.5834 32.6414C49.5725 32.3609 49.5038 32.0856 49.3817 31.833C49.2597 31.5804 49.0868 31.3559 48.8741 31.1738C47.3174 29.8402 45.5996 28.709 43.7613 27.8067V27.8067Z" fill="#009C37"/>
<path d="M163.754 11.1232L181.71 1.10107V59.0621L173.943 61.9852V8.61764L165.174 13.7122L163.754 11.1232Z" fill="#0E0E0E"/>
<path fill-rule="evenodd" clip-rule="evenodd" d="M216.349 61.1496C221.694 61.1496 226.259 59.7298 230.046 56.8902C232.554 54.9997 234.647 52.7293 236.325 50.0791H231.091C230.995 50.2353 230.897 50.3899 230.797 50.5429C228.292 54.329 224.533 56.2221 219.522 56.2221C215.569 56.2221 212.006 54.6074 208.832 51.3781C205.658 48.1487 203.181 44.0285 201.399 39.0175C199.617 34.0064 198.726 28.9954 198.726 23.9844C198.726 18.1938 199.951 13.4333 202.401 9.7029C204.907 5.91679 208.609 4.02373 213.509 4.02373C217.518 4.02373 221.137 5.63839 224.366 8.86773C227.596 12.0971 230.101 16.1894 231.883 21.1448C233.057 24.4088 233.844 27.6729 234.244 30.9369H241.57C241.571 30.8466 241.571 30.7562 241.571 30.6658C241.571 25.3763 240.597 20.3931 238.648 15.7162C236.755 11.0392 233.887 7.25306 230.046 4.3578C226.259 1.46253 221.694 0.0148926 216.349 0.0148926C211.004 0.0148926 206.438 1.46253 202.652 4.3578C198.921 7.25306 196.11 11.0392 194.217 15.7162C192.323 20.3931 191.377 25.3763 191.377 30.6658C191.377 35.8995 192.323 40.8549 194.217 45.5318C196.11 50.2088 198.921 53.9949 202.652 56.8902C206.438 59.7298 211.004 61.1496 216.349 61.1496Z" fill="#0E0E0E"/>
<path d="M260 43.1015C260 44.9706 258.365 46.3512 255.965 46.3512C253.331 46.3512 251.483 45.0343 251.292 42.9104H252.821C252.949 44.1847 254.053 45.098 255.943 45.098C257.6 45.098 258.535 44.206 258.535 43.1015C258.535 40.2342 251.568 41.9121 251.568 37.558C251.568 35.8376 253.204 34.4146 255.646 34.4146C258.131 34.4146 259.767 35.7314 259.894 37.9616H258.407C258.322 36.6659 257.367 35.6889 255.604 35.6889C254.053 35.6889 253.076 36.5173 253.076 37.5368C253.076 40.6802 259.936 39.0023 260 43.1015Z" fill="#0E0E0E"/>
<path d="M249.261 40.3829C249.261 44.0573 246.691 46.3512 243.42 46.3512C240.15 46.3512 237.665 44.0573 237.665 40.3829C237.665 36.6872 240.213 34.4146 243.463 34.4146C246.734 34.4146 249.261 36.6872 249.261 40.3829ZM239.173 40.3829C239.173 43.5688 241.212 45.0555 243.42 45.0555C245.608 45.0555 247.732 43.5688 247.732 40.3829C247.732 37.1969 245.651 35.7102 243.442 35.7102C241.233 35.7102 239.173 37.1969 239.173 40.3829Z" fill="#0E0E0E"/>
<path d="M233.591 46.1817V39.555C233.591 36.985 232.189 35.6682 230.065 35.6682C227.899 35.6682 226.391 37.0275 226.391 39.8524V46.1817H224.904V34.585H226.391V36.5602C227.134 35.1159 228.621 34.3726 230.341 34.3726C232.975 34.3726 235.056 35.9868 235.056 39.3851V46.1817H233.591Z" fill="#0E0E0E"/>
<path d="M209.891 40.3619C209.891 36.7299 212.249 34.4148 215.435 34.4148C217.771 34.4148 219.364 35.6679 220.022 37.1335V34.5847H221.509V46.1815H220.022V43.6115C219.343 45.0983 217.729 46.3514 215.413 46.3514C212.249 46.3514 209.891 43.9938 209.891 40.3619ZM220.022 40.3831C220.022 37.4945 218.09 35.7104 215.711 35.7104C213.268 35.7104 211.399 37.4096 211.399 40.3619C211.399 43.2929 213.268 45.0558 215.711 45.0558C218.09 45.0558 220.022 43.2717 220.022 40.3831Z" fill="#0E0E0E"/>
</g>
</svg>
