<svg width="133" height="133" viewBox="0 0 133 133" fill="none" xmlns="http://www.w3.org/2000/svg">
<g clip-path="url(#clip0_482_20588)">
<path d="M65.6631 48.2798C67.3462 48.2798 68.7106 46.9154 68.7106 45.2323C68.7106 43.5492 67.3462 42.1848 65.6631 42.1848C63.98 42.1848 62.6156 43.5492 62.6156 45.2323C62.6156 46.9154 63.98 48.2798 65.6631 48.2798Z" fill="#F4CE2C"/>
<path d="M65.6631 30L53.3631 42.3L49.7839 38.7208L46.8525 41.6522L65.6641 60.4638L77.9641 48.1638L81.5433 51.743L84.4757 48.8106L65.6631 30ZM67.6034 52.6607C66.5319 53.7322 64.7933 53.7322 63.7218 52.6607L56.2935 45.2324L63.7218 37.8041C64.7933 36.7326 66.5319 36.7326 67.6034 37.8041L75.0317 45.2324L67.6034 52.6607Z" fill="#F4CE2C"/>
<path d="M43.2459 97.4035L43.0116 96.6213H41.937L41.7007 97.4046H41.2454L42.2069 94.2888H42.7539L43.7246 97.4025H43.2459V97.4035ZM42.4789 94.7991H42.4636L42.0521 96.1996H42.8934L42.4789 94.7991Z" fill="#006E52"/>
<path d="M45.4836 97.2925C45.2921 97.429 45.0517 97.4657 44.7604 97.4657C44.5618 97.4657 44.3133 97.4565 44.0454 97.4209V96.9707C44.2746 97.0022 44.5038 97.0246 44.7105 97.0246C44.8786 97.0246 45.0436 97.0063 45.1546 96.9513C45.2921 96.8871 45.3573 96.7374 45.3573 96.5602C45.3573 96.3239 45.2616 96.2006 45.0619 96.1242C44.9316 96.0743 44.7828 96.0295 44.6443 95.9796C44.2583 95.8482 44.0393 95.616 44.0393 95.1301C44.0393 94.8388 44.131 94.5526 44.3408 94.3927C44.5353 94.2471 44.7574 94.2247 45.0212 94.2236C45.2015 94.2236 45.4225 94.242 45.668 94.2725V94.7044C45.4541 94.6728 45.228 94.6504 45.0599 94.6504C44.9112 94.6504 44.7849 94.6555 44.6657 94.7146C44.5323 94.7828 44.4783 94.9417 44.4783 95.0874C44.4783 95.3053 44.574 95.4235 44.7543 95.4968C44.8735 95.5416 45.0069 95.5824 45.1567 95.6323C45.5702 95.7596 45.7963 96 45.7963 96.5235C45.7963 96.8148 45.7128 97.1234 45.4836 97.2925Z" fill="#006E52"/>
<path d="M47.7295 97.2905C47.538 97.427 47.2976 97.4637 47.0063 97.4637C46.8077 97.4637 46.5591 97.4545 46.2913 97.4189V96.9687C46.5204 97.0002 46.7496 97.0226 46.9564 97.0226C47.1244 97.0226 47.2894 97.0043 47.4005 96.9493C47.538 96.8851 47.6032 96.7354 47.6032 96.5582C47.6032 96.3219 47.5074 96.1986 47.3078 96.1222C47.1774 96.0723 47.0287 96.0275 46.8902 95.9776C46.5041 95.8462 46.2852 95.614 46.2852 95.1281C46.2852 94.8368 46.3768 94.5506 46.5866 94.3917C46.7812 94.2461 47.0032 94.2227 47.267 94.2227C47.4473 94.2227 47.6683 94.241 47.9138 94.2715V94.7034C47.6999 94.6718 47.4738 94.6494 47.3057 94.6494C47.157 94.6494 47.0307 94.6545 46.9116 94.7136C46.7781 94.7818 46.7242 94.9407 46.7242 95.0864C46.7242 95.3044 46.8199 95.4225 47.0002 95.4958C47.1193 95.5407 47.2528 95.5814 47.4025 95.6323C47.816 95.7596 48.0422 96 48.0422 96.5236C48.0422 96.8149 47.9586 97.1235 47.7295 97.2926V97.2905Z" fill="#006E52"/>
<path d="M50.5763 94.5413C50.8289 94.8051 50.9593 95.2503 50.9603 95.8369C50.9603 96.4328 50.8391 96.8738 50.5824 97.1376C50.3451 97.379 50.0355 97.4615 49.7024 97.4615C49.3734 97.4615 49.0668 97.38 48.8295 97.1397C48.5769 96.8759 48.4496 96.4308 48.4496 95.8441C48.4496 95.2482 48.5667 94.8072 48.8275 94.5434C49.0607 94.302 49.3744 94.2195 49.7034 94.2195C50.0324 94.2195 50.339 94.301 50.5763 94.5413ZM50.5009 95.8512C50.5009 95.0781 50.2555 94.6646 49.7044 94.6656C49.134 94.6656 48.9049 95.0302 48.9059 95.8257C48.9059 96.6039 49.1514 97.0174 49.7024 97.0164C50.2758 97.0164 50.502 96.6518 50.5009 95.8512Z" fill="#006E52"/>
<path d="M52.4953 97.4596C52.2233 97.4596 51.9443 97.3649 51.7334 97.1103C51.4849 96.8057 51.3881 96.3698 51.3881 95.8371C51.3881 95.3329 51.5093 94.8093 51.8424 94.5038C52.095 94.2675 52.4006 94.2166 52.7224 94.2166C52.9139 94.2166 53.1125 94.2339 53.3274 94.2614V94.7156C53.1441 94.6881 52.9343 94.6708 52.7499 94.6708C52.0767 94.6708 51.8434 95.1088 51.8444 95.8452C51.8444 96.5541 52.0899 97.0043 52.6145 97.0043C52.8518 97.0043 53.1349 96.9177 53.3753 96.8352V97.2763C53.085 97.372 52.7825 97.4586 52.4963 97.4596H52.4953Z" fill="#006E52"/>
<path d="M53.9875 97.3943L53.9844 94.2795H54.4285L54.4316 97.3943H53.9875Z" fill="#006E52"/>
<path d="M56.9056 97.3913L56.6713 96.6091H55.5967L55.3604 97.3924H54.9052L55.8667 94.2766H56.4136L57.3843 97.3903H56.9056V97.3913ZM56.1386 94.7859H56.1233L55.7118 96.1864H56.5532L56.1386 94.7859Z" fill="#006E52"/>
<path d="M58.8877 97.4443C59.014 97.6256 59.0945 97.7764 59.0945 97.9445C59.0945 98.2215 58.8918 98.2948 58.6932 98.2948C58.6239 98.2948 58.5251 98.2857 58.4447 98.2765V97.9995C58.4946 98.0086 58.5516 98.0127 58.5974 98.0127C58.7044 98.0127 58.7584 97.9577 58.7584 97.8487C58.7584 97.7397 58.6891 97.6165 58.574 97.4443C58.356 97.4128 58.134 97.313 57.9649 97.1042C57.7164 96.7996 57.6196 96.3637 57.6196 95.831C57.6196 95.3268 57.7408 94.8032 58.0739 94.4977C58.3265 94.2614 58.6321 94.2104 58.9539 94.2104C59.1454 94.2104 59.344 94.2278 59.5589 94.2553V94.7095C59.3756 94.682 59.1658 94.6647 58.9814 94.6647C58.3082 94.6647 58.0749 95.1017 58.0759 95.8391C58.0759 96.548 58.3214 96.9982 58.846 96.9982C59.0833 96.9982 59.3664 96.9116 59.6068 96.8291V97.2702C59.3705 97.3476 59.1291 97.4209 58.8877 97.4433V97.4443Z" fill="#006E52"/>
<path d="M61.8669 97.3862L61.6327 96.6039H60.5581L60.3218 97.3872H59.8665L60.828 94.2714H61.375L62.3457 97.3851H61.8669V97.3862ZM60.8881 93.8864C60.8077 93.8864 60.7812 93.9598 60.7812 94.137H60.5174C60.5174 93.8141 60.551 93.5279 60.7924 93.5279C60.9757 93.5279 61.1866 93.7 61.32 93.7C61.3923 93.7 61.4198 93.6277 61.4188 93.4495H61.6826C61.6826 93.7723 61.649 94.0586 61.4076 94.0586C61.2273 94.0586 61.0175 93.8864 60.8871 93.8864H60.8881ZM61.1 94.7817H61.0847L60.6732 96.1822H61.5145L61.1 94.7817Z" fill="#006E52"/>
<path d="M64.7067 94.5282C64.9593 94.792 65.0897 95.2371 65.0907 95.8238C65.0907 96.4196 64.9695 96.8606 64.7128 97.1244C64.4755 97.3658 64.1658 97.4483 63.8328 97.4483C63.5038 97.4483 63.1972 97.3669 62.9599 97.1265C62.7073 96.8627 62.58 96.4176 62.58 95.8309C62.58 95.235 62.6971 94.794 62.9578 94.5302C63.1911 94.2888 63.5048 94.2073 63.8338 94.2063C64.1628 94.2063 64.4694 94.2878 64.7067 94.5282ZM64.6313 95.838C64.6313 95.0649 64.3858 94.6514 63.8348 94.6524C63.2644 94.6524 63.0352 95.0171 63.0363 95.8126C63.0363 96.5907 63.2817 97.0032 63.8328 97.0032C64.4062 97.0032 64.6323 96.6386 64.6313 95.838Z" fill="#006E52"/>
<path d="M68.5232 97.1397C68.3287 97.3352 68.0455 97.3811 67.6361 97.3811H66.7713L66.7682 94.2674H67.5831C67.9579 94.2663 68.2024 94.2888 68.4061 94.4752C68.5589 94.6157 68.6281 94.8347 68.6281 95.0893C68.6281 95.399 68.5252 95.6261 68.2849 95.7809V95.7942C68.5609 95.9032 68.7371 96.1171 68.7371 96.5398C68.7371 96.7577 68.676 96.9859 68.5232 97.1407V97.1397ZM67.5984 94.6707H67.2083V95.6353H67.6177C68.0313 95.6353 68.1881 95.4662 68.1871 95.1474C68.1871 94.7929 68.0027 94.6697 67.5973 94.6707H67.5984ZM67.688 96.0264H67.2134V96.9777H67.6911C68.1229 96.9777 68.2839 96.8362 68.2839 96.4949C68.2839 96.1537 68.1076 96.0264 67.687 96.0274L67.688 96.0264Z" fill="#006E52"/>
<path d="M70.8761 97.3781L70.3087 96.2098C70.27 96.2149 70.2323 96.2149 70.1936 96.2149H69.8453L69.8463 97.3791H69.4022L69.3992 94.2644H70.2598C70.6041 94.2634 70.8913 94.3082 71.0828 94.518C71.2478 94.6993 71.3049 94.9448 71.3049 95.2412C71.3049 95.5091 71.2407 95.7647 71.0839 95.9369C71.0034 96.0367 70.8964 96.1009 70.7742 96.1375L71.3874 97.3781H70.8751H70.8761ZM70.2456 94.682H69.8433L69.8443 95.8106H70.2497C70.6897 95.8106 70.8506 95.6191 70.8496 95.2453C70.8496 94.8318 70.6387 94.682 70.2446 94.682H70.2456Z" fill="#006E52"/>
<path d="M73.6649 97.376L73.4306 96.5937H72.356L72.1197 97.377H71.6644L72.6259 94.2612H73.1729L74.1436 97.3749H73.6659L73.6649 97.376ZM72.8969 94.7705H72.8816L72.4691 96.171H73.3104L72.8959 94.7705H72.8969Z" fill="#006E52"/>
<path d="M75.9016 97.264C75.7101 97.4004 75.4697 97.4371 75.1784 97.4371C74.9798 97.4371 74.7313 97.4279 74.4634 97.3923V96.9421C74.6926 96.9737 74.9217 96.9961 75.1285 96.9961C75.2966 96.9961 75.4616 96.9777 75.5726 96.9227C75.7101 96.8586 75.7753 96.7088 75.7753 96.5316C75.7753 96.2953 75.6795 96.1721 75.4799 96.0957C75.3495 96.0458 75.2008 96.001 75.0623 95.951C74.6763 95.8197 74.4573 95.5874 74.4573 95.1016C74.4573 94.8103 74.5489 94.5241 74.7588 94.3641C74.9543 94.2185 75.1754 94.1951 75.4392 94.1951C75.6194 94.1951 75.8405 94.2124 76.0859 94.244V94.6758C75.872 94.6442 75.6459 94.6218 75.4779 94.6218C75.3292 94.6218 75.2028 94.6269 75.0837 94.686C74.9502 94.7543 74.8963 94.9131 74.8963 95.0588C74.8963 95.2768 74.992 95.3949 75.1723 95.4683C75.2905 95.5141 75.4249 95.5548 75.5746 95.6047C75.9882 95.7321 76.2143 95.9724 76.2143 96.496C76.2143 96.7873 76.1308 97.0959 75.9016 97.265V97.264Z" fill="#006E52"/>
<path d="M76.8621 97.373L76.859 94.2583H77.3031L77.3061 97.373H76.8621Z" fill="#006E52"/>
<path d="M78.1322 97.372L78.1292 94.2573H78.5732L78.5753 96.9127H79.8688V97.371L78.1322 97.3731V97.372Z" fill="#006E52"/>
<path d="M80.3587 97.3689L80.3557 94.2542H81.9894V94.6942H80.7997V95.5589H81.8865V95.9806H80.7997V96.9268H82.0505V97.3668H80.3557L80.3587 97.3689Z" fill="#006E52"/>
<path d="M82.738 97.3669L82.735 94.2522H83.1791L83.1821 97.3669H82.738Z" fill="#006E52"/>
<path d="M85.481 97.3647L84.9137 96.1964C84.8749 96.2005 84.8373 96.2005 84.7986 96.2015H84.4502L84.4512 97.3657H84.0071L84.0041 94.251H84.8648C85.209 94.25 85.4963 94.2948 85.6878 94.5046C85.8528 94.6859 85.9098 94.9314 85.9098 95.2278C85.9098 95.4957 85.8456 95.7503 85.6888 95.9234C85.6083 96.0233 85.5014 96.0874 85.3791 96.1241L85.9923 97.3647H85.48H85.481ZM84.8505 94.6686H84.4492L84.4502 95.7972H84.8556C85.2956 95.7972 85.4565 95.6046 85.4555 95.2319C85.4555 94.8183 85.2447 94.6686 84.8505 94.6686Z" fill="#006E52"/>
<path d="M88.2698 97.3618L88.0355 96.5795H86.9609L86.7246 97.3628H86.2693L87.2309 94.2471H87.7778L88.7485 97.3608H88.2708L88.2698 97.3618ZM87.5018 94.7574H87.4865L87.074 96.1579H87.9153L87.5008 94.7574H87.5018Z" fill="#006E52"/>
<path d="M41.9829 102.552C41.7384 102.785 41.4094 102.862 41.0692 102.862H40.0934L40.0904 99.7483H41.0733C41.4135 99.7473 41.7313 99.8196 41.9808 100.056C42.2416 100.311 42.375 100.737 42.376 101.302C42.376 101.875 42.2507 102.298 41.9829 102.552ZM41.0774 100.179H40.5345L40.5365 102.43H41.0723C41.6498 102.429 41.9177 102.075 41.9167 101.306C41.9167 100.569 41.6325 100.178 41.0774 100.178V100.179Z" fill="#006E52"/>
<path d="M42.9658 102.86L42.9627 99.7451H44.5965V100.185H43.4068V101.05H44.4936V101.472H43.4068V102.418H44.6576V102.858H42.9627L42.9658 102.86Z" fill="#006E52"/>
<path d="M47.3038 102.92C47.0318 102.92 46.7527 102.825 46.5419 102.571C46.2934 102.266 46.1966 101.83 46.1966 101.298C46.1966 100.793 46.3178 100.27 46.6509 99.9642C46.9035 99.7279 47.209 99.677 47.5309 99.677C47.7224 99.677 47.921 99.6943 48.1359 99.7218V100.176C47.9526 100.149 47.7428 100.131 47.5584 100.131C46.8851 100.131 46.6519 100.568 46.6529 101.306C46.6529 102.015 46.8984 102.465 47.4229 102.465C47.6603 102.465 47.9434 102.378 48.1838 102.296V102.737C47.8935 102.832 47.591 102.919 47.3048 102.919L47.3038 102.92Z" fill="#006E52"/>
<path d="M50.6059 99.9979C50.8585 100.262 50.9888 100.707 50.9898 101.293C50.9898 101.889 50.8686 102.33 50.612 102.594C50.3746 102.836 50.065 102.918 49.7319 102.918C49.403 102.918 49.0964 102.837 48.859 102.596C48.6064 102.332 48.4791 101.887 48.4791 101.301C48.4791 100.705 48.5963 100.264 48.857 99.9999C49.0903 99.7585 49.404 99.676 49.733 99.676C50.062 99.676 50.3685 99.7575 50.6059 99.9979ZM50.5305 101.308C50.5305 100.535 50.285 100.121 49.734 100.122C49.1636 100.122 48.9344 100.487 48.9354 101.282C48.9354 102.06 49.1809 102.474 49.7319 102.473C50.3054 102.473 50.5315 102.108 50.5305 101.308Z" fill="#006E52"/>
<path d="M53.906 102.85L53.9039 100.485H53.8927L53.1685 102.85H52.6939L51.9758 100.486H51.9646L51.9667 102.851H51.5806L51.5776 99.7359H52.1856L52.9608 102.272H52.972L53.7389 99.7339H54.3358L54.3389 102.849H53.907L53.906 102.85Z" fill="#006E52"/>
<path d="M55.1649 102.849L55.1619 99.7339H56.7956V100.174H55.606V101.039H56.6927V101.46H55.606V102.408H56.8567V102.848H55.1619L55.1649 102.849ZM55.7312 99.5883C55.8922 99.3428 56.0256 99.1014 56.155 98.8508H56.599C56.4503 99.1095 56.3016 99.3601 56.1448 99.5872H55.7312V99.5883Z" fill="#006E52"/>
<path d="M59.0171 102.846L58.4497 101.677C58.411 101.681 58.3733 101.681 58.3346 101.682H57.9863L57.9873 102.847H57.5432L57.5402 99.732H58.4008C58.7451 99.7309 59.0323 99.7757 59.2238 99.9845C59.3888 100.166 59.4459 100.411 59.4469 100.708C59.4469 100.976 59.3827 101.23 59.2259 101.403C59.1454 101.503 59.0384 101.567 58.9162 101.604L59.5294 102.845H59.0171V102.846ZM58.3866 100.15H57.9853L57.9863 101.278H58.3917C58.8317 101.278 58.9926 101.087 58.9916 100.713C58.9916 100.299 58.7808 100.15 58.3866 100.15Z" fill="#006E52"/>
<path d="M61.0246 102.908C60.7527 102.908 60.4736 102.813 60.2628 102.558C60.0142 102.254 59.9175 101.818 59.9175 101.285C59.9175 100.781 60.0387 100.258 60.3718 99.952C60.6244 99.7157 60.9299 99.6648 61.2518 99.6648C61.4433 99.6648 61.6419 99.6821 61.8568 99.7096V100.164C61.6735 100.136 61.4636 100.119 61.2793 100.119C60.606 100.119 60.3728 100.557 60.3738 101.293C60.3738 102.002 60.6193 102.453 61.1438 102.453C61.3811 102.453 61.6643 102.366 61.9047 102.283V102.725C61.6144 102.82 61.3119 102.907 61.0257 102.907L61.0246 102.908Z" fill="#006E52"/>
<path d="M62.5168 102.843L62.5137 99.7278H62.9578L62.9609 102.843H62.5168Z" fill="#006E52"/>
<path d="M65.6743 99.9835C65.9269 100.247 66.0573 100.692 66.0583 101.279C66.0583 101.875 65.9371 102.316 65.6804 102.58C65.4431 102.821 65.1334 102.904 64.8004 102.904C64.4714 102.904 64.1648 102.822 63.9275 102.582C63.6749 102.318 63.5475 101.873 63.5475 101.286C63.5475 100.69 63.6647 100.249 63.9254 99.9855C64.1587 99.7441 64.4724 99.6626 64.8014 99.6616C65.1304 99.6606 65.437 99.7431 65.6743 99.9835ZM65.5989 101.293C65.5989 100.52 65.3534 100.107 64.8024 100.108C64.232 100.108 64.0028 100.472 64.0039 101.268C64.0039 102.046 64.2493 102.459 64.8004 102.459C65.3738 102.459 65.5999 102.094 65.5989 101.293Z" fill="#006E52"/>
<path d="M67.7379 102.837L67.7348 99.7227H69.3686V100.163H68.1789V101.027H69.2657V101.449H68.1789V102.396H69.4297V102.836H67.7348L67.7379 102.837Z" fill="#006E52"/>
<path d="M70.1172 102.835L70.1141 99.7207H70.5582L70.5613 102.376H71.8548V102.834L70.1182 102.836L70.1172 102.835Z" fill="#006E52"/>
<path d="M72.3438 102.833L72.3407 99.7188H73.9745V100.159H72.7848V101.024H73.8716V101.445H72.7848V102.392H74.0356V102.832L72.3407 102.834L72.3438 102.833Z" fill="#006E52"/>
<path d="M75.1937 102.83L75.1906 100.157H74.3065V99.7166L76.5178 99.7146V100.156H75.6347L75.6378 102.829H75.1937V102.83Z" fill="#006E52"/>
<path d="M78.4836 102.827L77.9163 101.659C77.8776 101.664 77.8399 101.664 77.8012 101.664H77.4528L77.4539 102.828H77.0098L77.0067 99.7136H77.8674C78.2117 99.7126 78.4989 99.7574 78.6904 99.9662C78.8554 100.148 78.9124 100.393 78.9124 100.689C78.9124 100.957 78.8483 101.212 78.6914 101.385C78.6109 101.485 78.504 101.549 78.3818 101.586L78.9949 102.826H78.4826L78.4836 102.827ZM77.8541 100.131H77.4528L77.4539 101.26H77.8592C78.2993 101.26 78.4602 101.068 78.4592 100.695C78.4592 100.281 78.2483 100.131 77.8541 100.131Z" fill="#006E52"/>
<path d="M81.5107 99.9691C81.7633 100.233 81.8937 100.678 81.8947 101.265C81.8947 101.861 81.7735 102.302 81.5168 102.565C81.2795 102.807 80.9699 102.889 80.6368 102.889C80.3078 102.889 80.0022 102.808 79.7639 102.567C79.5113 102.304 79.385 101.859 79.384 101.272C79.384 100.676 79.5021 100.235 79.7619 99.9712C79.9951 99.7298 80.3088 99.6473 80.6378 99.6473C80.9668 99.6473 81.2734 99.7288 81.5107 99.9691ZM81.4353 101.278C81.4353 100.505 81.1899 100.091 80.6388 100.092C80.0684 100.092 79.8393 100.457 79.8403 101.253C79.8403 102.031 80.0858 102.444 80.6368 102.443C81.2112 102.443 81.4364 102.079 81.4353 101.278ZM80.9138 99.5648C80.8252 99.4242 80.7448 99.2826 80.6572 99.1238C80.5696 99.2826 80.4891 99.4242 80.4015 99.5648H79.9849C80.1571 99.3193 80.3017 99.0779 80.4361 98.8284H80.8761C81.0106 99.0779 81.1593 99.3183 81.3284 99.5638H80.9148L80.9138 99.5648Z" fill="#006E52"/>
<path d="M84.107 102.822L82.9 100.522H82.8919L82.8939 102.823H82.4844L82.4814 99.7085H82.9896L84.163 101.981H84.1742L84.1722 99.7075H84.5816L84.5847 102.822H84.106H84.107Z" fill="#006E52"/>
<path d="M85.4107 102.821L85.4077 99.7065H85.8517L85.8548 102.821H85.4107Z" fill="#006E52"/>
<path d="M87.5497 102.882C87.2777 102.882 86.9986 102.787 86.7878 102.533C86.5393 102.228 86.4425 101.792 86.4425 101.26C86.4425 100.755 86.5637 100.232 86.8968 99.9274C87.1494 99.6911 87.4549 99.6401 87.7768 99.6401C87.9683 99.6401 88.1669 99.6585 88.3808 99.685V100.139C88.1975 100.112 87.9876 100.094 87.8033 100.094C87.13 100.094 86.8968 100.532 86.8978 101.269C86.8978 101.978 87.1433 102.428 87.6678 102.428C87.9051 102.428 88.1883 102.341 88.4287 102.259V102.7C88.1384 102.796 87.8359 102.882 87.5497 102.883V102.882Z" fill="#006E52"/>
<path d="M90.8518 99.96C91.1044 100.224 91.2348 100.669 91.2358 101.256C91.2358 101.851 91.1146 102.293 90.8579 102.556C90.6206 102.798 90.311 102.88 89.9779 102.88C89.6489 102.88 89.3434 102.799 89.105 102.558C88.8524 102.295 88.7261 101.849 88.7251 101.263C88.7251 100.667 88.8432 100.226 89.103 99.9621C89.3362 99.7207 89.6499 99.6382 89.9789 99.6382C90.3079 99.6382 90.6145 99.7197 90.8518 99.96ZM90.7765 101.27C90.7765 100.497 90.531 100.083 89.9799 100.083C89.4096 100.083 89.1804 100.448 89.1814 101.243C89.1814 102.022 89.4269 102.435 89.9779 102.434C90.5524 102.434 90.7775 102.069 90.7765 101.27Z" fill="#006E52"/>
<path d="M24.7164 85.5118L24.6349 84.6481C22.8586 85.354 21.3776 85.9631 19.6542 85.9651C18.4961 85.9651 17.3115 85.6157 16.4488 84.6563C15.5586 83.6958 15.1278 82.5112 15.1257 80.8153C15.1237 79.0553 15.7145 77.3899 17.0875 76.5242C18.1366 75.8509 19.2142 75.7215 20.6687 75.7205C21.6108 75.7205 22.9574 75.8142 24.1694 75.9415V75.3976C24.1664 72.9653 23.3047 72.0059 20.4497 72.0089C19.2651 72.0089 17.9451 72.1067 16.7065 72.2676L16.7035 69.1947C18.158 69.0337 19.6379 68.9044 21.0924 68.9024C23.0582 68.9003 24.97 69.155 26.2106 70.4343C27.5042 71.7451 27.6671 73.5378 27.6702 75.8102L27.6794 85.5078L24.7174 85.5108L24.7164 85.5118ZM24.1715 78.5979C23.2558 78.4706 22.0702 78.4075 21.2625 78.4085C19.2427 78.4105 18.5165 79.2437 18.5185 80.6839C18.5195 82.06 19.3018 83.0195 20.7288 83.0184C21.8064 83.0184 23.0175 82.6324 24.1755 82.2148L24.1725 78.5979H24.1715Z" fill="#006E52"/>
<path d="M40.1616 84.3753C39.0046 85.4651 37.5511 85.9459 35.6658 85.9479C34.3192 85.9479 32.9187 85.5986 31.7056 84.9589L31.6252 85.5028L29.0941 85.5048L29.0727 62.5233L32.5734 62.5203L32.5806 70.0097C33.9801 69.4637 35.5415 68.8862 36.942 68.8852C38.477 68.8842 39.7705 69.4586 40.7412 70.6096C42.0083 72.1456 42.4951 74.4169 42.4972 77.3941C42.5002 80.5628 41.5866 83.0277 40.1606 84.3743L40.1616 84.3753ZM35.734 72.3442C34.7918 72.3442 33.6613 72.7302 32.5847 73.211L32.5928 82.1406C33.4015 82.5561 34.2897 82.7792 35.0974 82.7782C37.5755 82.7762 38.8935 81.174 38.8895 77.5255C38.8864 73.9087 37.7263 72.3411 35.733 72.3432L35.734 72.3442Z" fill="#006E52"/>
<path d="M49.4111 85.9348C47.9302 85.9358 46.4217 85.4255 45.3431 84.082C44.0495 82.4829 43.5616 80.1789 43.5596 77.3942C43.5575 74.802 44.1738 72.0163 45.8696 70.4141C47.2151 69.1644 48.8031 68.8751 50.6619 68.873C51.766 68.873 52.9241 68.9993 54.1627 69.1582L54.1657 72.3911C53.2501 72.2638 52.092 72.1681 51.1763 72.1691C48.2683 72.1721 47.1377 73.869 47.1418 77.4217C47.1449 80.5578 48.1695 82.6387 50.5672 82.6357C51.7253 82.6347 53.1788 82.1845 54.3908 81.7995L54.3939 84.904C52.751 85.4499 51.0011 85.9317 49.4122 85.9327L49.4111 85.9348Z" fill="#006E52"/>
<path d="M57.4638 84.1991C56.0083 82.7924 55.386 80.3917 55.3839 77.4155C55.3809 74.4393 55.9981 72.006 57.4516 70.5963C58.7696 69.2508 60.4665 68.8648 62.3508 68.8638C64.2086 68.8617 65.9055 69.2447 67.2541 70.5872C68.6831 71.9938 69.3309 74.3945 69.334 77.3707C69.337 80.3469 68.7198 82.7802 67.2673 84.1899C65.9483 85.5354 64.2524 85.9214 62.3681 85.9224C60.5103 85.9245 58.8124 85.5415 57.4648 84.1991H57.4638ZM65.7517 77.4695C65.7477 73.8526 64.7505 72.0294 62.3539 72.0315C59.8492 72.0335 58.9621 73.6347 58.9651 77.3157C58.9682 80.9326 59.9674 82.7884 62.364 82.7863C64.8687 82.7843 65.7558 81.1505 65.7517 77.4695Z" fill="#006E52"/>
<path d="M89.3586 85.4497L89.3494 75.527C89.3474 73.1263 88.2688 72.2952 86.6533 72.2962C85.6837 72.2962 84.6611 72.6496 83.342 73.2271C83.504 73.8668 83.5325 74.6032 83.5325 75.2755L83.5417 85.4538L80.0674 85.4569L80.0582 75.5342C80.0562 73.1334 78.9511 72.3023 77.3621 72.3033C76.42 72.3033 75.4503 72.6252 74.2393 73.1701L74.2505 85.4609L70.7497 85.464L70.7344 69.3006L73.6964 69.2976L73.7779 70.1613C75.4462 69.4555 77.0352 68.8453 78.6241 68.8443C79.9706 68.8433 81.3182 69.2579 82.2878 70.474C84.1182 69.6714 86.1644 68.8382 87.9418 68.8362C89.3423 68.8352 90.7428 69.3139 91.741 70.6573C92.6302 71.8725 92.8471 73.3453 92.8492 75.2653L92.8583 85.4436L89.3576 85.4467L89.3586 85.4497Z" fill="#006E52"/>
<path d="M112.699 85.4069L112.689 75.4842C112.687 73.0835 111.609 72.2524 109.993 72.2544C109.024 72.2544 108.001 72.6078 106.682 73.1854C106.844 73.826 106.873 74.5614 106.873 75.2337L106.882 85.412L103.407 85.4151L103.398 75.4924C103.396 73.0917 102.291 72.2605 100.702 72.2626C99.76 72.2626 98.7903 72.5844 97.5793 73.1293L97.5905 85.4202L94.0897 85.4232L94.0745 69.2599L97.0364 69.2568L97.1179 70.1205C98.7863 69.4147 100.375 68.8056 101.964 68.8036C103.311 68.8036 104.658 69.2171 105.628 70.4332C107.458 69.6316 109.504 68.7974 111.282 68.7954C112.682 68.7944 114.083 69.2731 115.081 70.6166C115.97 71.8317 116.187 73.3045 116.189 75.2245L116.198 85.4029L112.698 85.4059L112.699 85.4069Z" fill="#006E52"/>
</g>
<defs>
<clipPath id="clip0_482_20588">
<rect width="101.075" height="72.92" fill="white" transform="translate(15.1257 30)"/>
</clipPath>
</defs>
</svg>
