<svg width="134" height="133" viewBox="0 0 134 133" fill="none" xmlns="http://www.w3.org/2000/svg">
<g clip-path="url(#clip0_482_20642)">
<path d="M9.25719 92.9671H7.57916L7.13619 94.3711H6.53931L8.09721 89.7612H8.75791L10.3158 94.3711H9.6889L9.25344 92.9671H9.25719ZM9.11079 92.4979L8.89306 91.7959C8.81047 91.5369 8.72788 91.2816 8.6528 91.0263C8.57772 90.7711 8.50264 90.5083 8.42756 90.2417H8.40129C8.32996 90.5083 8.25863 90.7711 8.18355 91.0263C8.10847 91.2816 8.02964 91.5369 7.9433 91.7959L7.72557 92.4979H9.11079Z" fill="#3D4543"/>
<path d="M12.3918 93.3688C12.557 93.5415 12.7484 93.6804 12.9699 93.7855C13.1914 93.8906 13.4241 93.9431 13.6606 93.9431C13.9647 93.9431 14.2012 93.8756 14.3701 93.7367C14.5391 93.5978 14.6217 93.4176 14.6217 93.1923C14.6217 93.076 14.6029 92.9746 14.5616 92.8958C14.5203 92.8132 14.4677 92.7419 14.4002 92.6856C14.3326 92.6255 14.25 92.5729 14.1562 92.5279C14.0623 92.4828 13.961 92.434 13.8558 92.3815L13.1951 92.0924C13.0863 92.0474 12.9774 91.9911 12.8648 91.9235C12.7522 91.8559 12.6508 91.7771 12.5645 91.6832C12.4744 91.5894 12.403 91.4768 12.3467 91.3491C12.2904 91.2215 12.2641 91.0713 12.2641 90.9024C12.2641 90.7335 12.3017 90.5683 12.373 90.4182C12.4443 90.268 12.5457 90.1366 12.6733 90.0277C12.801 89.9189 12.9549 89.8325 13.1313 89.7725C13.3078 89.7124 13.4992 89.6824 13.7094 89.6824C13.9872 89.6824 14.2425 89.7349 14.4752 89.84C14.708 89.9452 14.907 90.0803 15.0721 90.2492L14.7568 90.6284C14.6179 90.4932 14.4602 90.3844 14.2913 90.3093C14.1186 90.2305 13.9272 90.1929 13.7132 90.1929C13.4542 90.1929 13.2477 90.253 13.09 90.3731C12.9324 90.4932 12.8535 90.6584 12.8535 90.8686C12.8535 90.9813 12.876 91.0751 12.9211 91.1539C12.9661 91.2328 13.0262 91.3003 13.1013 91.3567C13.1764 91.4167 13.259 91.4655 13.3453 91.5106C13.4354 91.5556 13.5255 91.5969 13.6193 91.6344L14.2725 91.916C14.4039 91.9723 14.5278 92.0361 14.6442 92.1074C14.7606 92.1788 14.8619 92.2651 14.9445 92.359C15.0271 92.4566 15.0947 92.5692 15.1435 92.6968C15.1923 92.8245 15.2185 92.9746 15.2185 93.1436C15.2185 93.3275 15.181 93.4964 15.1097 93.6578C15.0383 93.8155 14.9332 93.9582 14.7981 94.0745C14.6629 94.1947 14.4978 94.2885 14.3063 94.3561C14.1149 94.4237 13.8971 94.4574 13.6531 94.4574C13.3303 94.4574 13.03 94.3974 12.7559 94.2735C12.4781 94.1534 12.2416 93.9844 12.0389 93.7742L12.3918 93.365V93.3688Z" fill="#3D4543"/>
<path d="M17.4485 93.3688C17.6137 93.5415 17.8051 93.6804 18.0266 93.7855C18.2481 93.8906 18.4808 93.9431 18.7173 93.9431C19.0214 93.9431 19.2579 93.8756 19.4268 93.7367C19.5958 93.5978 19.6784 93.4176 19.6784 93.1923C19.6784 93.076 19.6596 92.9746 19.6183 92.8958C19.577 92.8132 19.5244 92.7419 19.4569 92.6856C19.3893 92.6255 19.3067 92.5729 19.2129 92.5279C19.119 92.4828 19.0177 92.434 18.9125 92.3815L18.2518 92.0924C18.143 92.0474 18.0341 91.9911 17.9215 91.9235C17.8089 91.8597 17.7075 91.7771 17.6212 91.6832C17.5311 91.5894 17.4597 91.4768 17.4034 91.3491C17.3471 91.2215 17.3209 91.0713 17.3209 90.9024C17.3209 90.7335 17.3584 90.5683 17.4297 90.4182C17.501 90.268 17.6024 90.1366 17.73 90.0277C17.8577 89.9189 18.0116 89.8325 18.188 89.7725C18.3645 89.7124 18.5559 89.6824 18.7661 89.6824C19.0439 89.6824 19.2992 89.7349 19.532 89.84C19.7647 89.9452 19.9637 90.0803 20.1288 90.2492L19.8135 90.6284C19.6746 90.4932 19.5169 90.3844 19.348 90.3093C19.1753 90.2305 18.9839 90.1929 18.7699 90.1929C18.5109 90.1929 18.3044 90.253 18.1467 90.3731C17.9891 90.4932 17.9102 90.6584 17.9102 90.8686C17.9102 90.9813 17.9328 91.0751 17.9778 91.1539C18.0228 91.2328 18.0829 91.3003 18.158 91.3567C18.2331 91.4167 18.3157 91.4655 18.402 91.5106C18.4921 91.5556 18.5822 91.5969 18.676 91.6344L19.3292 91.916C19.4606 91.9723 19.5845 92.0361 19.7009 92.1074C19.8173 92.1788 19.9186 92.2651 20.0012 92.359C20.0838 92.4566 20.1514 92.5692 20.2002 92.6968C20.249 92.8245 20.2752 92.9746 20.2752 93.1436C20.2752 93.3275 20.2377 93.4964 20.1664 93.6578C20.095 93.8155 19.9899 93.9582 19.8548 94.0745C19.7196 94.1947 19.5545 94.2885 19.363 94.3561C19.1716 94.4237 18.9538 94.4574 18.7098 94.4574C18.387 94.4574 18.0867 94.3974 17.8126 94.2735C17.5348 94.1534 17.2983 93.9844 17.0956 93.7742L17.4485 93.365V93.3688Z" fill="#3D4543"/>
<path d="M24.2919 94.4573C24.0028 94.4573 23.7363 94.401 23.496 94.2884C23.2558 94.1757 23.0493 94.0143 22.8729 93.8079C22.7002 93.6014 22.5651 93.3461 22.4675 93.0495C22.3698 92.753 22.3248 92.4189 22.3248 92.0472C22.3248 91.6756 22.3736 91.3452 22.4675 91.0524C22.5651 90.7596 22.6964 90.5119 22.8729 90.3091C23.0456 90.1064 23.252 89.9488 23.496 89.8399C23.7363 89.731 24.0028 89.6785 24.2919 89.6785C24.5809 89.6785 24.8475 89.7348 25.0877 89.8436C25.328 89.9525 25.5382 90.1102 25.7147 90.3129C25.8911 90.5156 26.0262 90.7634 26.1238 91.0562C26.2214 91.349 26.2665 91.6793 26.2665 92.0435C26.2665 92.4076 26.2177 92.7492 26.1238 93.0458C26.0262 93.3424 25.8911 93.5976 25.7147 93.8041C25.5382 94.0143 25.3317 94.172 25.0877 94.2846C24.8475 94.3972 24.5809 94.4535 24.2919 94.4535V94.4573ZM24.2919 93.943C24.4984 93.943 24.6823 93.8979 24.8512 93.8079C25.0164 93.7178 25.1591 93.5901 25.2792 93.4249C25.3993 93.2598 25.4894 93.0608 25.557 92.8281C25.6208 92.5953 25.6546 92.3363 25.6546 92.0435C25.6546 91.7507 25.6208 91.4992 25.557 91.2702C25.4894 91.0412 25.3993 90.846 25.2792 90.6883C25.1591 90.5306 25.0164 90.4067 24.8512 90.3204C24.6861 90.2341 24.4984 90.189 24.2919 90.189C24.0854 90.189 23.9015 90.2341 23.7325 90.3204C23.5674 90.4067 23.4247 90.5306 23.3046 90.6883C23.1845 90.846 23.0944 91.0412 23.0268 91.2702C22.963 91.4992 22.9292 91.7582 22.9292 92.0435C22.9292 92.3288 22.963 92.5953 23.0268 92.8281C23.0906 93.0608 23.1845 93.2598 23.3046 93.4249C23.4247 93.5901 23.5674 93.7178 23.7325 93.8079C23.8977 93.8979 24.0854 93.943 24.2919 93.943Z" fill="#3D4543"/>
<path d="M28.3947 92.0699C28.3947 91.6983 28.4473 91.3679 28.5487 91.0713C28.65 90.7748 28.7927 90.527 28.9766 90.3205C29.1606 90.1141 29.3745 89.9564 29.6261 89.8475C29.8776 89.7387 30.1479 89.6824 30.4444 89.6824C30.741 89.6824 30.97 89.7387 31.1802 89.8551C31.3904 89.9714 31.5631 90.1028 31.6983 90.253L31.3679 90.6246C31.2478 90.4932 31.1126 90.3881 30.9625 90.313C30.8161 90.2342 30.6434 90.1967 30.4444 90.1967C30.2229 90.1967 30.024 90.2417 29.8475 90.3281C29.6711 90.4144 29.5172 90.5383 29.3896 90.6997C29.2619 90.8611 29.1643 91.0563 29.093 91.2853C29.0217 91.5143 28.9879 91.7733 28.9879 92.0586C28.9879 92.344 29.0217 92.6105 29.0892 92.8432C29.1568 93.076 29.2507 93.2712 29.3745 93.4364C29.4947 93.6015 29.6448 93.7254 29.8213 93.8155C29.9977 93.9056 30.1967 93.9507 30.4144 93.9507C30.6321 93.9507 30.8348 93.9056 31 93.8155C31.1652 93.7254 31.3229 93.6015 31.473 93.4364L31.8034 93.793C31.6194 94.0032 31.413 94.1684 31.184 94.2848C30.955 94.4011 30.6922 94.4612 30.3956 94.4612C30.0991 94.4612 29.8363 94.4086 29.5923 94.2998C29.3483 94.1909 29.1343 94.037 28.9541 93.8343C28.7739 93.6316 28.635 93.3801 28.5336 93.0835C28.4323 92.7869 28.3835 92.4491 28.3835 92.0737L28.3947 92.0699Z" fill="#3D4543"/>
<path d="M34.0786 89.7649H34.6605V94.3748H34.0786V89.7649Z" fill="#3D4543"/>
<path d="M39.4354 92.9671H37.7574L37.3144 94.3711H36.7176L38.2755 89.7612H38.9362L40.4941 94.3711H39.8672L39.4317 92.9671H39.4354ZM39.289 92.4979L39.0713 91.7959C38.9887 91.5369 38.9061 91.2816 38.8311 91.0263C38.756 90.7711 38.6809 90.5083 38.6058 90.2417H38.5795C38.5082 90.5083 38.4369 90.7711 38.3618 91.0263C38.2867 91.2816 38.2079 91.5369 38.1216 91.7959L37.9038 92.4979H39.289Z" fill="#3D4543"/>
<path d="M42.2207 92.0699C42.2207 91.6983 42.2733 91.3679 42.3746 91.0713C42.476 90.7748 42.6187 90.527 42.8026 90.3205C42.9865 90.1141 43.2005 89.9564 43.452 89.8475C43.7036 89.7387 43.9738 89.6824 44.2704 89.6824C44.567 89.6824 44.796 89.7387 45.0062 89.8551C45.2164 89.9714 45.3891 90.1028 45.5242 90.253L45.1939 90.6246C45.0738 90.4932 44.9386 90.3881 44.7885 90.313C44.6421 90.2342 44.4694 90.1967 44.2704 90.1967C44.0489 90.1967 43.85 90.2417 43.6735 90.3281C43.4971 90.4144 43.3432 90.5383 43.2155 90.6997C43.0879 90.8611 42.9903 91.0563 42.919 91.2853C42.8477 91.5143 42.8139 91.7733 42.8139 92.0586C42.8139 92.344 42.8477 92.6105 42.9152 92.8432C42.9828 93.076 43.0766 93.2712 43.2005 93.4364C43.3207 93.6015 43.4708 93.7254 43.6473 93.8155C43.8237 93.9056 44.0227 93.9507 44.2404 93.9507C44.4581 93.9507 44.6608 93.9056 44.826 93.8155C44.9912 93.7254 45.1488 93.6015 45.299 93.4364L45.6294 93.793C45.4454 94.0032 45.2389 94.1684 45.01 94.2848C44.781 94.4011 44.5182 94.4612 44.2216 94.4612C43.925 94.4612 43.6623 94.4086 43.4183 94.2998C43.1742 94.1909 42.9603 94.037 42.7801 93.8343C42.5999 93.6316 42.461 93.3801 42.3596 93.0835C42.2583 92.7869 42.2095 92.4491 42.2095 92.0737L42.2207 92.0699ZM44.1315 94.3523H44.5032L44.3267 94.724C44.4393 94.7615 44.5369 94.8178 44.6195 94.8929C44.7021 94.968 44.7434 95.0769 44.7434 95.2233C44.7434 95.3246 44.7134 95.4147 44.6608 95.4898C44.6045 95.5649 44.5294 95.6287 44.4356 95.6775C44.3417 95.73 44.2329 95.7713 44.109 95.8014C43.9851 95.8314 43.8575 95.8539 43.7261 95.8689L43.6698 95.5799C43.8575 95.5574 44.0076 95.5198 44.124 95.4635C44.2404 95.411 44.2967 95.3359 44.2967 95.242C44.2967 95.1482 44.2592 95.0769 44.1803 95.028C44.1015 94.9792 43.9926 94.9342 43.8537 94.8967L44.1353 94.3486L44.1315 94.3523Z" fill="#3D4543"/>
<path d="M50.0103 92.9671H48.3323L47.8893 94.3711H47.2924L48.8503 89.7612H49.511L51.0689 94.3711H50.442L50.0066 92.9671H50.0103ZM49.5936 89.3783C49.4998 89.3783 49.4172 89.3595 49.3421 89.322C49.267 89.2844 49.1994 89.2431 49.1356 89.1943C49.0718 89.1493 49.0117 89.1042 48.9479 89.0667C48.8879 89.0292 48.824 89.0104 48.7565 89.0104C48.6889 89.0104 48.6326 89.0404 48.58 89.1005C48.5275 89.1605 48.4937 89.2544 48.4749 89.3745H48.1521C48.1746 89.153 48.2384 88.9728 48.3435 88.8302C48.4449 88.6875 48.5838 88.6162 48.7527 88.6162C48.8466 88.6162 48.9292 88.635 49.0042 88.6725C49.0793 88.7101 49.1469 88.7514 49.2107 88.8002C49.2745 88.8452 49.3346 88.8903 49.3984 88.9278C49.4585 88.9653 49.5223 88.9841 49.5861 88.9841C49.6499 88.9841 49.71 88.9541 49.7625 88.8903C49.8151 88.8264 49.8489 88.7363 49.8677 88.62H50.1905C50.168 88.8339 50.1042 89.0141 50.0028 89.1605C49.9014 89.3069 49.7625 89.3783 49.5936 89.3783ZM49.8639 92.4978L49.6462 91.7958C49.5636 91.5368 49.481 91.2815 49.4059 91.0263C49.3308 90.771 49.2558 90.5082 49.1807 90.2417H49.1544C49.0831 90.5082 49.0117 90.771 48.9367 91.0263C48.8616 91.2815 48.7828 91.5368 48.6964 91.7958L48.4787 92.4978H49.8639Z" fill="#3D4543"/>
<path d="M54.7591 94.4573C54.4701 94.4573 54.2035 94.401 53.9633 94.2884C53.723 94.1757 53.5165 94.0143 53.3401 93.8079C53.1674 93.6014 53.0323 93.3461 52.9347 93.0495C52.8371 92.753 52.792 92.4189 52.792 92.0472C52.792 91.6756 52.8408 91.3452 52.9347 91.0524C53.0323 90.7596 53.1637 90.5119 53.3401 90.3091C53.5128 90.1064 53.7193 89.9488 53.9633 89.8399C54.2035 89.731 54.4701 89.6785 54.7591 89.6785C55.0482 89.6785 55.3147 89.7348 55.555 89.8436C55.7952 89.9525 56.0054 90.1102 56.1819 90.3129C56.3583 90.5156 56.4935 90.7634 56.5911 91.0562C56.6887 91.349 56.7337 91.6793 56.7337 92.0435C56.7337 92.4076 56.6849 92.7492 56.5911 93.0458C56.4935 93.3424 56.3583 93.5976 56.1819 93.8041C56.0054 94.0143 55.799 94.172 55.555 94.2846C55.3147 94.3972 55.0482 94.4535 54.7591 94.4535V94.4573ZM54.7591 93.943C54.9656 93.943 55.1495 93.8979 55.3185 93.8079C55.4836 93.7178 55.6263 93.5901 55.7464 93.4249C55.8665 93.2598 55.9566 93.0608 56.0242 92.8281C56.088 92.5953 56.1218 92.3363 56.1218 92.0435C56.1218 91.7507 56.088 91.4992 56.0242 91.2702C55.9566 91.0412 55.8665 90.846 55.7464 90.6883C55.6263 90.5306 55.4836 90.4067 55.3185 90.3204C55.1533 90.2341 54.9656 90.189 54.7591 90.189C54.5526 90.189 54.3687 90.2341 54.1998 90.3204C54.0308 90.4067 53.8919 90.5306 53.7718 90.6883C53.6517 90.846 53.5616 91.0412 53.494 91.2702C53.4302 91.4992 53.3964 91.7582 53.3964 92.0435C53.3964 92.3288 53.4302 92.5953 53.494 92.8281C53.5578 93.0608 53.6517 93.2598 53.7718 93.4249C53.8919 93.5901 54.0346 93.7178 54.1998 93.8079C54.3649 93.8979 54.5526 93.943 54.7591 93.943Z" fill="#3D4543"/>
<path d="M61.9518 89.7649H62.5336V94.3748H61.9518V89.7649Z" fill="#3D4543"/>
<path d="M65.2064 89.7649H65.8108L67.4775 92.6592L67.9768 93.6127H68.0031C67.9881 93.38 67.9731 93.136 67.958 92.8845C67.943 92.6329 67.9318 92.3852 67.9318 92.1449V89.7649H68.4874V94.3748H67.883L66.2124 91.473L65.7132 90.5232H65.6869C65.7057 90.7559 65.7244 90.9962 65.7394 91.2365C65.7545 91.4767 65.7657 91.7207 65.7657 91.9647V94.3748H65.2101V89.7649H65.2064Z" fill="#3D4543"/>
<path d="M72.1103 90.2567H70.7175V89.7649H74.0886V90.2567H72.6959V94.3748H72.1065V90.2567H72.1103Z" fill="#3D4543"/>
<path d="M76.326 89.765H78.98V90.2568H76.9078V91.702H78.6572V92.2013H76.9078V93.8718H79.0514V94.3711H76.326V89.7612V89.765Z" fill="#3D4543"/>
<path d="M83.9615 94.3748L82.8503 92.4302H82.0131V94.3748H81.4313V89.7649H82.8728C83.1056 89.7649 83.3233 89.7874 83.5222 89.8325C83.7212 89.8775 83.8901 89.9526 84.0365 90.0539C84.1829 90.1553 84.2918 90.2904 84.3706 90.4556C84.4495 90.6208 84.4908 90.8198 84.4908 91.06C84.4908 91.4204 84.3969 91.7095 84.2092 91.9234C84.0215 92.1374 83.77 92.2876 83.4584 92.3664L84.6259 94.3748H83.9652H83.9615ZM82.0169 91.9497H82.7902C83.1506 91.9497 83.4284 91.8746 83.6199 91.7282C83.8113 91.5818 83.9089 91.3566 83.9089 91.0563C83.9089 90.7559 83.8113 90.5382 83.6199 90.4181C83.4284 90.298 83.1506 90.2341 82.7902 90.2341H82.0169V91.9497Z" fill="#3D4543"/>
<path d="M86.9197 89.7649H87.5241L89.1909 92.6592L89.6902 93.6127H89.7164C89.7014 93.38 89.6864 93.136 89.6714 92.8845C89.6564 92.6329 89.6489 92.3852 89.6489 92.1449V89.7649H90.2044V94.3748H89.6001L87.9258 91.473L87.4265 90.5232H87.4002C87.419 90.7559 87.4378 90.9962 87.4528 91.2365C87.4678 91.4767 87.4791 91.7207 87.4791 91.9647V94.3748H86.9235V89.7649H86.9197Z" fill="#3D4543"/>
<path d="M94.9756 92.9671H93.2975L92.8546 94.3711H92.2577L93.8194 89.7612H94.4801L96.038 94.3711H95.4148L94.9793 92.9671H94.9756ZM94.8292 92.4979L94.6114 91.7959C94.5289 91.5369 94.4463 91.2816 94.3712 91.0263C94.2961 90.7711 94.221 90.5083 94.1459 90.2417H94.1197C94.0483 90.5083 93.977 90.7711 93.9019 91.0263C93.8269 91.2816 93.748 91.5369 93.6617 91.7959L93.444 92.4979H94.8292Z" fill="#3D4543"/>
<path d="M97.7572 92.0699C97.7572 91.6983 97.8098 91.3679 97.9111 91.0713C98.0162 90.7748 98.1589 90.527 98.3391 90.3205C98.523 90.1141 98.737 89.9564 98.9885 89.8475C99.24 89.7387 99.5103 89.6824 99.8069 89.6824C100.103 89.6824 100.332 89.7387 100.543 89.8551C100.753 89.9714 100.926 90.1028 101.061 90.253L100.73 90.6246C100.61 90.4932 100.475 90.3881 100.325 90.313C100.179 90.2342 100.006 90.1967 99.8106 90.1967C99.5892 90.1967 99.3902 90.2417 99.2137 90.3281C99.0373 90.4144 98.8834 90.5383 98.7595 90.6997C98.6319 90.8611 98.5343 91.0563 98.463 91.2853C98.3916 91.5143 98.3578 91.7733 98.3578 92.0586C98.3578 92.344 98.3916 92.6105 98.4592 92.8432C98.5268 93.076 98.6206 93.2712 98.7445 93.4364C98.8646 93.6015 99.0148 93.7254 99.1912 93.8155C99.3677 93.9056 99.5629 93.9507 99.7844 93.9507C100.006 93.9507 100.205 93.9056 100.37 93.8155C100.535 93.7254 100.693 93.6015 100.843 93.4364L101.173 93.793C100.989 94.0032 100.783 94.1684 100.554 94.2848C100.325 94.4011 100.062 94.4612 99.7656 94.4612C99.469 94.4612 99.2062 94.4086 98.9622 94.2998C98.7182 94.1909 98.5042 94.037 98.3241 93.8343C98.1439 93.6316 98.005 93.3801 97.9036 93.0835C97.8023 92.7869 97.7534 92.4491 97.7534 92.0737L97.7572 92.0699Z" fill="#3D4543"/>
<path d="M103.441 89.7649H104.023V94.3748H103.441V89.7649Z" fill="#3D4543"/>
<path d="M108.396 94.4573C108.107 94.4573 107.84 94.401 107.6 94.2884C107.36 94.1757 107.154 94.0143 106.977 93.8079C106.804 93.6014 106.669 93.3461 106.572 93.0495C106.474 92.753 106.429 92.4189 106.429 92.0472C106.429 91.6756 106.478 91.3452 106.572 91.0524C106.669 90.7596 106.804 90.5119 106.977 90.3091C107.15 90.1064 107.356 89.9488 107.6 89.8399C107.84 89.731 108.107 89.6785 108.396 89.6785C108.685 89.6785 108.952 89.7348 109.192 89.8436C109.432 89.9525 109.642 90.1102 109.819 90.3129C109.995 90.5156 110.13 90.7634 110.228 91.0562C110.326 91.349 110.371 91.6793 110.371 92.0435C110.371 92.4076 110.322 92.7492 110.228 93.0458C110.13 93.3424 109.995 93.5976 109.819 93.8041C109.642 94.0143 109.436 94.172 109.192 94.2846C108.948 94.3972 108.685 94.4535 108.396 94.4535V94.4573ZM108.396 93.943C108.603 93.943 108.786 93.8979 108.955 93.8079C109.121 93.7178 109.263 93.5901 109.383 93.4249C109.504 93.2598 109.594 93.0608 109.661 92.8281C109.729 92.5953 109.759 92.3363 109.759 92.0435C109.759 91.7507 109.725 91.4992 109.661 91.2702C109.597 91.0412 109.504 90.846 109.383 90.6883C109.263 90.5306 109.121 90.4067 108.955 90.3204C108.79 90.2341 108.603 90.189 108.396 90.189C108.19 90.189 108.006 90.2341 107.837 90.3204C107.672 90.4067 107.529 90.5306 107.409 90.6883C107.289 90.846 107.195 91.0412 107.131 91.2702C107.067 91.4992 107.033 91.7582 107.033 92.0435C107.033 92.3288 107.067 92.5953 107.131 92.8281C107.195 93.0608 107.289 93.2598 107.409 93.4249C107.529 93.5901 107.672 93.7178 107.837 93.8079C108.002 93.8979 108.19 93.943 108.396 93.943Z" fill="#3D4543"/>
<path d="M112.762 89.7649H113.366L115.033 92.6592L115.532 93.6127H115.559C115.544 93.38 115.529 93.136 115.514 92.8845C115.499 92.6329 115.491 92.3852 115.491 92.1449V89.7649H116.047V94.3748H115.442L113.768 91.473L113.269 90.5232H113.242C113.261 90.7559 113.28 90.9962 113.295 91.2365C113.31 91.4767 113.321 91.7207 113.321 91.9647V94.3748H112.766V89.7649H112.762Z" fill="#3D4543"/>
<path d="M120.822 92.9671H119.144L118.701 94.3711H118.104L119.662 89.7612H120.323L121.881 94.3711H121.254L120.818 92.9671H120.822ZM120.676 92.4979L120.458 91.7959C120.375 91.5369 120.293 91.2816 120.218 91.0263C120.143 90.7711 120.067 90.5083 119.992 90.2417H119.966C119.895 90.5083 119.823 90.7711 119.748 91.0263C119.673 91.2816 119.594 91.5369 119.508 91.7959L119.29 92.4979H120.676Z" fill="#3D4543"/>
<path d="M123.941 89.7649H124.523V93.8755H126.539V94.3748H123.941V89.7649Z" fill="#3D4543"/>
<path d="M14.873 97.1714H16.0255C16.7388 97.1714 17.2794 97.3704 17.6472 97.7608C18.0189 98.1549 18.2028 98.718 18.2028 99.4538C18.2028 99.8179 18.1578 100.145 18.0639 100.434C17.9701 100.723 17.8312 100.967 17.651 101.166C17.4671 101.365 17.2418 101.519 16.9753 101.624C16.7087 101.729 16.4009 101.781 16.0556 101.781H14.8768V97.1714H14.873ZM15.9842 101.301C16.521 101.301 16.9265 101.139 17.1968 100.817C17.4671 100.494 17.6022 100.039 17.6022 99.4538C17.6022 98.8682 17.4671 98.4215 17.1968 98.1136C16.9265 97.8058 16.5248 97.6519 15.9842 97.6519H15.4587V101.305H15.9842V101.301Z" fill="#3D4543"/>
<path d="M22.2984 101.864C22.0094 101.864 21.7429 101.808 21.5026 101.695C21.2623 101.582 21.0559 101.421 20.8794 101.215C20.7068 101.008 20.5716 100.753 20.474 100.456C20.3764 100.16 20.3314 99.8255 20.3314 99.4539C20.3314 99.0822 20.3802 98.7519 20.474 98.4591C20.5716 98.1663 20.703 97.9185 20.8794 97.7158C21.0559 97.5131 21.2586 97.3554 21.5026 97.2503C21.7429 97.1414 22.0094 97.0889 22.2984 97.0889C22.5875 97.0889 22.854 97.1452 23.0943 97.254C23.3345 97.3629 23.5448 97.5206 23.7212 97.7233C23.8976 97.926 24.0328 98.1738 24.1304 98.4666C24.228 98.7594 24.273 99.0897 24.273 99.4539C24.273 99.818 24.2242 100.16 24.1304 100.456C24.0328 100.753 23.8976 101.004 23.7212 101.215C23.5448 101.425 23.3383 101.582 23.0943 101.695C22.854 101.808 22.5875 101.864 22.2984 101.864ZM22.2984 101.35C22.5049 101.35 22.6889 101.305 22.8578 101.215C23.023 101.124 23.1656 100.997 23.2857 100.832C23.4059 100.666 23.496 100.467 23.5635 100.235C23.6274 100.002 23.6611 99.7429 23.6611 99.4501C23.6611 99.1573 23.6274 98.9058 23.5635 98.6768C23.496 98.4478 23.4059 98.2526 23.2857 98.0949C23.1656 97.9373 23.023 97.8134 22.8578 97.727C22.6926 97.6407 22.5049 97.5957 22.2984 97.5957C22.092 97.5957 21.908 97.6407 21.7391 97.727C21.5702 97.8134 21.4313 97.9373 21.3111 98.0949C21.191 98.2526 21.1009 98.4478 21.0334 98.6768C20.9695 98.9058 20.9358 99.1648 20.9358 99.4501C20.9358 99.7354 20.9695 100.002 21.0334 100.235C21.0972 100.467 21.191 100.666 21.3111 100.832C21.4313 100.997 21.5739 101.124 21.7391 101.215C21.9043 101.305 22.092 101.35 22.2984 101.35Z" fill="#3D4543"/>
<path d="M26.6831 100.775C26.8483 100.948 27.0397 101.087 27.2612 101.192C27.4827 101.297 27.7154 101.35 27.9519 101.35C28.256 101.35 28.4925 101.282 28.6614 101.143C28.8304 101.004 28.9129 100.824 28.9129 100.599C28.9129 100.482 28.8942 100.381 28.8529 100.302C28.8116 100.22 28.759 100.148 28.6915 100.092C28.6239 100.036 28.5413 99.9832 28.4474 99.9344C28.3536 99.8893 28.2522 99.8368 28.1471 99.788L27.4864 99.4989C27.3776 99.4539 27.2687 99.3938 27.1561 99.33C27.0435 99.2624 26.9421 99.1836 26.8558 99.0897C26.7657 98.9959 26.6943 98.887 26.638 98.7556C26.5817 98.628 26.5554 98.4778 26.5554 98.3089C26.5554 98.14 26.593 97.9748 26.6643 97.8247C26.7356 97.6745 26.837 97.5469 26.9646 97.4342C27.0923 97.3254 27.2462 97.239 27.4226 97.179C27.599 97.1189 27.7905 97.0889 28.0007 97.0889C28.2785 97.0889 28.5338 97.1414 28.7665 97.2465C28.9993 97.3516 29.1982 97.4905 29.3634 97.6595L29.0481 98.0386C28.9092 97.9035 28.7515 97.7946 28.5826 97.7195C28.4099 97.6407 28.2185 97.6032 28.0045 97.6032C27.7455 97.6032 27.539 97.6632 27.3813 97.7834C27.2236 97.9035 27.1448 98.0687 27.1448 98.2789C27.1448 98.3915 27.1673 98.4854 27.2124 98.5642C27.2574 98.643 27.3175 98.7106 27.3926 98.7669C27.4677 98.827 27.5502 98.8758 27.6366 98.9208C27.7267 98.9659 27.8168 99.0072 27.9106 99.0447L28.5638 99.3262C28.6952 99.3826 28.8191 99.4464 28.9355 99.5215C29.0518 99.5928 29.1532 99.6791 29.2358 99.773C29.3184 99.8706 29.3859 99.9794 29.4347 100.111C29.4836 100.238 29.5098 100.389 29.5098 100.558C29.5098 100.742 29.4723 100.91 29.401 101.072C29.3296 101.233 29.2245 101.372 29.0894 101.492C28.9542 101.612 28.7891 101.706 28.5976 101.774C28.4062 101.841 28.1884 101.875 27.9444 101.875C27.6216 101.875 27.3213 101.815 27.0472 101.691C26.7694 101.571 26.5329 101.402 26.3302 101.192L26.6831 100.787V100.775Z" fill="#3D4543"/>
<path d="M34.6489 97.1714H35.2308V101.282H37.2467V101.781H34.6489V97.1714Z" fill="#3D4543"/>
<path d="M39.2441 97.1714H39.8259V99.8893C39.8259 100.167 39.8559 100.4 39.9085 100.584C39.9648 100.771 40.0399 100.922 40.1375 101.034C40.2351 101.147 40.3477 101.229 40.4791 101.278C40.6105 101.327 40.7494 101.353 40.8996 101.353C41.0497 101.353 41.1961 101.331 41.3275 101.278C41.4589 101.229 41.5715 101.147 41.6729 101.034C41.7705 100.922 41.8493 100.771 41.9056 100.584C41.9619 100.396 41.9882 100.163 41.9882 99.8893V97.1714H42.5513V99.878C42.5513 100.25 42.51 100.561 42.4237 100.813C42.3411 101.064 42.2247 101.271 42.0746 101.428C41.9282 101.586 41.7517 101.699 41.5528 101.766C41.35 101.834 41.1323 101.868 40.8996 101.868C40.6668 101.868 40.4453 101.834 40.2426 101.766C40.0399 101.699 39.8635 101.586 39.7171 101.428C39.5706 101.271 39.4543 101.068 39.3679 100.813C39.2853 100.561 39.2403 100.25 39.2403 99.878V97.1714H39.2441Z" fill="#3D4543"/>
<path d="M45.1453 100.775C45.3104 100.948 45.5019 101.087 45.7234 101.192C45.9449 101.297 46.1776 101.35 46.4141 101.35C46.7182 101.35 46.9547 101.282 47.1236 101.143C47.2925 101.004 47.3751 100.824 47.3751 100.599C47.3751 100.482 47.3564 100.381 47.3151 100.302C47.2738 100.22 47.2212 100.148 47.1536 100.092C47.0861 100.036 47.0035 99.9832 46.9096 99.9344C46.8158 99.8893 46.7144 99.8368 46.6093 99.788L45.9486 99.4989C45.8398 99.4539 45.7309 99.3938 45.6183 99.33C45.5056 99.2624 45.4043 99.1836 45.3179 99.0897C45.2279 98.9959 45.1565 98.887 45.1002 98.7556C45.0439 98.628 45.0176 98.4778 45.0176 98.3089C45.0176 98.14 45.0552 97.9748 45.1265 97.8247C45.1978 97.6745 45.2992 97.5469 45.4268 97.4342C45.5544 97.3254 45.7084 97.239 45.8848 97.179C46.0612 97.1189 46.2527 97.0889 46.4629 97.0889C46.7407 97.0889 46.996 97.1414 47.2287 97.2465C47.4615 97.3516 47.6604 97.4905 47.8256 97.6595L47.5103 98.0386C47.3714 97.9035 47.2137 97.7946 47.0448 97.7195C46.8721 97.6407 46.6806 97.6032 46.4667 97.6032C46.2076 97.6032 46.0012 97.6632 45.8435 97.7834C45.6858 97.9035 45.607 98.0687 45.607 98.2789C45.607 98.3915 45.6295 98.4854 45.6746 98.5642C45.7196 98.643 45.7797 98.7106 45.8548 98.7669C45.9298 98.827 46.0124 98.8758 46.0988 98.9208C46.1889 98.9659 46.279 99.0072 46.3728 99.0447L47.026 99.3262C47.1574 99.3826 47.2813 99.4464 47.3977 99.5215C47.514 99.5928 47.6154 99.6791 47.698 99.773C47.7806 99.8706 47.8481 99.9794 47.8969 100.111C47.9457 100.238 47.972 100.389 47.972 100.558C47.972 100.742 47.9345 100.91 47.8632 101.072C47.7918 101.233 47.6867 101.372 47.5516 101.492C47.4164 101.612 47.2513 101.706 47.0598 101.774C46.8683 101.841 46.6506 101.875 46.4066 101.875C46.0838 101.875 45.7834 101.815 45.5094 101.691C45.2316 101.571 44.9951 101.402 44.7924 101.192L45.1453 100.787V100.775Z" fill="#3D4543"/>
<path d="M51.9887 101.864C51.6996 101.864 51.4331 101.808 51.1928 101.695C50.9526 101.582 50.7461 101.421 50.5697 101.215C50.397 101.008 50.2618 100.753 50.1642 100.456C50.0666 100.16 50.0216 99.8255 50.0216 99.4539C50.0216 99.0822 50.0704 98.7519 50.1642 98.4591C50.2618 98.1663 50.3932 97.9185 50.5697 97.7158C50.7423 97.5131 50.9488 97.3554 51.1928 97.2503C51.4368 97.1452 51.6996 97.0889 51.9887 97.0889C52.2777 97.0889 52.5443 97.1452 52.7845 97.254C53.0248 97.3629 53.235 97.5206 53.4114 97.7233C53.5879 97.926 53.723 98.1738 53.8206 98.4666C53.9182 98.7594 53.9633 99.0897 53.9633 99.4539C53.9633 99.818 53.9145 100.16 53.8206 100.456C53.723 100.753 53.5879 101.004 53.4114 101.215C53.235 101.425 53.0285 101.582 52.7845 101.695C52.5443 101.808 52.2777 101.864 51.9887 101.864ZM51.9887 101.35C52.1951 101.35 52.3791 101.305 52.548 101.215C52.7132 101.124 52.8558 100.997 52.976 100.832C53.0961 100.666 53.1862 100.467 53.2538 100.235C53.3176 100.002 53.3514 99.7429 53.3514 99.4501C53.3514 99.1573 53.3176 98.9058 53.2538 98.6768C53.1862 98.4478 53.0961 98.2526 52.976 98.0949C52.8558 97.9373 52.7132 97.8134 52.548 97.727C52.3828 97.6407 52.1951 97.5957 51.9887 97.5957C51.7822 97.5957 51.5983 97.6407 51.4293 97.727C51.2604 97.8134 51.1215 97.9373 51.0014 98.0949C50.8812 98.2526 50.7911 98.4478 50.7236 98.6768C50.6598 98.9058 50.626 99.1648 50.626 99.4501C50.626 99.7354 50.6598 100.002 50.7236 100.235C50.7874 100.467 50.8812 100.666 51.0014 100.832C51.1215 100.997 51.2641 101.124 51.4293 101.215C51.5945 101.305 51.7822 101.35 51.9887 101.35Z" fill="#3D4543"/>
<path d="M56.3584 97.1714H57.5108C58.2241 97.1714 58.7647 97.3704 59.1326 97.7608C59.5042 98.1549 59.6882 98.718 59.6882 99.4538C59.6882 99.8179 59.6431 100.145 59.5493 100.434C59.4554 100.723 59.3165 100.967 59.1363 101.166C58.9524 101.365 58.7271 101.519 58.4606 101.624C58.1941 101.729 57.8862 101.781 57.5409 101.781H56.3621V97.1714H56.3584ZM57.4658 101.301C58.0026 101.301 58.408 101.139 58.6783 100.817C58.9486 100.494 59.0838 100.039 59.0838 99.4538C59.0838 98.8682 58.9486 98.4215 58.6783 98.1136C58.408 97.8058 58.0064 97.6519 57.4658 97.6519H56.9402V101.305H57.4658V101.301Z" fill="#3D4543"/>
<path d="M62.0833 97.1714H64.7373V97.6632H62.6651V99.1122H64.4145V99.6115H62.6651V101.282H64.8087V101.781H62.0833V97.1714Z" fill="#3D4543"/>
<path d="M67.2035 100.775C67.3687 100.948 67.5602 101.087 67.7816 101.192C68.0031 101.297 68.2359 101.35 68.4724 101.35C68.7765 101.35 69.013 101.282 69.1819 101.143C69.3508 101.004 69.4334 100.824 69.4334 100.599C69.4334 100.482 69.4146 100.381 69.3733 100.302C69.332 100.22 69.2795 100.148 69.2119 100.092C69.1443 100.036 69.0618 99.9832 68.9679 99.9344C68.8741 99.8856 68.7727 99.8368 68.6676 99.788L68.0069 99.4989C67.898 99.4539 67.7892 99.3938 67.6765 99.33C67.5639 99.2624 67.4626 99.1836 67.3762 99.0897C67.2861 98.9959 67.2148 98.887 67.1585 98.7556C67.1022 98.628 67.0759 98.4778 67.0759 98.3089C67.0759 98.14 67.1134 97.9748 67.1848 97.8247C67.2561 97.6745 67.3575 97.5469 67.4851 97.4342C67.6127 97.3254 67.7666 97.239 67.9431 97.179C68.1195 97.1189 68.311 97.0889 68.5212 97.0889C68.799 97.0889 69.0542 97.1414 69.287 97.2465C69.5197 97.3516 69.7187 97.4905 69.8839 97.6595L69.5685 98.0386C69.4296 97.9035 69.272 97.7946 69.0993 97.7195C68.9266 97.6407 68.7352 97.6032 68.5212 97.6032C68.2622 97.6032 68.0557 97.6632 67.898 97.7834C67.7404 97.9035 67.6615 98.0687 67.6615 98.2789C67.6615 98.3915 67.684 98.4854 67.7291 98.5642C67.7741 98.643 67.8342 98.7106 67.9093 98.7669C67.9844 98.827 68.067 98.8758 68.157 98.9208C68.2471 98.9659 68.3372 99.0072 68.4311 99.0447L69.0843 99.3262C69.2157 99.3826 69.3396 99.4464 69.4559 99.5215C69.5723 99.5928 69.6737 99.6791 69.7562 99.773C69.8388 99.8706 69.9064 99.9794 69.9552 100.111C70.004 100.238 70.0303 100.389 70.0303 100.558C70.0303 100.742 69.9927 100.91 69.9214 101.072C69.8501 101.233 69.745 101.372 69.6098 101.492C69.4747 101.612 69.3095 101.706 69.1181 101.774C68.9266 101.841 68.7089 101.875 68.4649 101.875C68.142 101.875 67.8417 101.815 67.5677 101.691C67.2899 101.571 67.0534 101.402 66.8507 101.192L67.2035 100.787V100.775Z" fill="#3D4543"/>
<path d="M72.0765 99.4764C72.0765 99.1085 72.1291 98.7744 72.2304 98.4778C72.3355 98.1813 72.4782 97.9298 72.6584 97.727C72.8423 97.5206 73.0563 97.3629 73.3078 97.254C73.5593 97.1452 73.8296 97.0889 74.1262 97.0889C74.4227 97.0889 74.6517 97.1452 74.862 97.2616C75.0722 97.3779 75.2449 97.5093 75.38 97.6595L75.0497 98.0311C74.9295 97.8997 74.7944 97.7946 74.6442 97.7195C74.4978 97.6407 74.3251 97.6032 74.1262 97.6032C73.9047 97.6032 73.7057 97.6482 73.5293 97.7346C73.3529 97.8209 73.199 97.9448 73.0751 98.1062C72.9474 98.2676 72.8498 98.4628 72.7785 98.6918C72.7072 98.9208 72.6734 99.1798 72.6734 99.4651C72.6734 99.7504 72.7072 100.017 72.7748 100.25C72.8423 100.482 72.9362 100.678 73.0601 100.843C73.1839 101.008 73.3303 101.132 73.5068 101.222C73.6832 101.312 73.8784 101.357 74.0999 101.357C74.3214 101.357 74.5204 101.312 74.6855 101.222C74.8507 101.132 75.0084 101.008 75.1585 100.843L75.4889 101.199C75.3049 101.41 75.0985 101.575 74.8695 101.691C74.6405 101.808 74.3777 101.868 74.0811 101.868C73.7846 101.868 73.5218 101.815 73.2778 101.706C73.0338 101.597 72.8198 101.443 72.6396 101.241C72.4594 101.038 72.3205 100.787 72.2192 100.49C72.1178 100.193 72.069 99.8556 72.069 99.4802L72.0765 99.4764Z" fill="#3D4543"/>
<path d="M77.7635 97.1714H80.4175V97.6632H78.3453V99.1122H80.0947V99.6115H78.3453V101.282H80.4889V101.781H77.7635V97.1714Z" fill="#3D4543"/>
<path d="M82.8692 97.1714H83.4736L85.1403 100.066L85.6396 101.019H85.6659C85.6509 100.786 85.6359 100.542 85.6208 100.291C85.6058 100.039 85.5983 99.7954 85.5983 99.5514V97.1714H86.1539V101.781H85.5495L83.879 98.8795L83.3797 97.9297H83.3534C83.3722 98.1624 83.391 98.4027 83.406 98.6429C83.421 98.8832 83.4323 99.1272 83.4323 99.3712V101.781H82.8767V97.1714H82.8692Z" fill="#3D4543"/>
<path d="M88.819 97.1714H89.9715C90.6848 97.1714 91.2253 97.3704 91.5932 97.7608C91.9649 98.1549 92.1488 98.718 92.1488 99.4538C92.1488 99.8179 92.1038 100.145 92.0099 100.434C91.9161 100.723 91.7772 100.967 91.597 101.166C91.413 101.365 91.1878 101.519 90.9213 101.624C90.6547 101.729 90.3469 101.781 90.0015 101.781H88.8228V97.1714H88.819ZM89.9302 101.301C90.4708 101.301 90.8725 101.139 91.1428 100.817C91.413 100.494 91.5482 100.039 91.5482 99.4538C91.5482 98.8682 91.413 98.4215 91.1428 98.1136C90.8725 97.8058 90.4708 97.6519 89.9302 97.6519H89.4047V101.305H89.9302V101.301Z" fill="#3D4543"/>
<path d="M94.5439 97.1714H97.198V97.6632H95.1258V99.1122H96.8752V99.6115H95.1258V101.282H97.2693V101.781H94.5439V97.1714Z" fill="#3D4543"/>
<path d="M99.653 97.1714H100.257L101.92 100.066L102.42 101.019H102.446C102.431 100.786 102.416 100.542 102.401 100.291C102.386 100.039 102.375 99.7954 102.375 99.5514V97.1714H102.93V101.781H102.326L100.655 98.8795L100.156 97.9297H100.13C100.149 98.1624 100.167 98.4027 100.182 98.6429C100.197 98.8832 100.205 99.1272 100.205 99.3712V101.781H99.6493V97.1714H99.653Z" fill="#3D4543"/>
<path d="M106.557 97.6632H105.168V97.1714H108.539V97.6632H107.146V101.781H106.557V97.6632Z" fill="#3D4543"/>
<path d="M110.772 97.1714H113.426V97.6632H111.354V99.1122H113.104V99.6115H111.354V101.282H113.498V101.781H110.772V97.1714Z" fill="#3D4543"/>
<path d="M115.893 100.775C116.058 100.948 116.25 101.087 116.471 101.192C116.693 101.297 116.925 101.35 117.162 101.35C117.466 101.35 117.702 101.282 117.871 101.143C118.04 101.004 118.123 100.824 118.123 100.599C118.123 100.482 118.104 100.381 118.063 100.302C118.021 100.22 117.969 100.148 117.901 100.092C117.834 100.036 117.751 99.9832 117.661 99.9344C117.567 99.8893 117.466 99.8368 117.361 99.788L116.7 99.4989C116.591 99.4539 116.482 99.3938 116.37 99.33C116.257 99.2624 116.156 99.1836 116.069 99.0897C115.979 98.9959 115.908 98.887 115.852 98.7556C115.795 98.628 115.769 98.4778 115.769 98.3089C115.769 98.14 115.807 97.9748 115.878 97.8247C115.949 97.6745 116.051 97.5469 116.178 97.4342C116.306 97.3254 116.46 97.239 116.636 97.179C116.813 97.1189 117.004 97.0889 117.214 97.0889C117.488 97.0889 117.744 97.1414 117.98 97.2465C118.213 97.3516 118.412 97.4905 118.577 97.6595L118.262 98.0386C118.123 97.9035 117.965 97.7946 117.796 97.7195C117.624 97.6407 117.432 97.6032 117.218 97.6032C116.959 97.6032 116.753 97.6632 116.595 97.7834C116.437 97.9035 116.358 98.0687 116.358 98.2789C116.358 98.3915 116.381 98.4854 116.426 98.5642C116.471 98.643 116.531 98.7106 116.606 98.7669C116.681 98.827 116.764 98.8758 116.85 98.9208C116.94 98.9659 117.03 99.0072 117.124 99.0447L117.777 99.3262C117.909 99.3826 118.033 99.4464 118.149 99.5215C118.265 99.5928 118.367 99.6791 118.449 99.773C118.532 99.8706 118.6 99.9794 118.648 100.111C118.697 100.238 118.723 100.389 118.723 100.558C118.723 100.742 118.686 100.91 118.615 101.072C118.543 101.233 118.438 101.372 118.303 101.492C118.168 101.612 118.003 101.706 117.811 101.774C117.62 101.841 117.402 101.875 117.158 101.875C116.835 101.875 116.535 101.815 116.257 101.691C115.979 101.571 115.743 101.402 115.54 101.192L115.893 100.787V100.775Z" fill="#3D4543"/>
<path fill-rule="evenodd" clip-rule="evenodd" d="M57.6161 63.5583V63.7498V63.9412V64.1402V64.3392V64.5419V64.7484V64.9548V65.1688V65.3828V65.6005V65.8182V66.0435V66.2687V66.5015V66.7305V66.967V67.2072V67.4475V67.6915V67.9392V68.1908V68.4423V68.7013V68.9603V69.2231V69.4859V69.7562V70.0265V70.3005V70.5783V70.8599V71.1414V71.4305V71.7195V72.0086V72.3051V72.6055V72.9058V73.2098V73.5177V73.8293V74.1371V74.4562V74.7753V75.0981V75.4247V75.7513V76.0816V76.4158V76.7536V77.0952V77.4368V77.7822V78.1313V78.4842V78.8371V79.1975V79.5578V79.922V80.2899V80.6578V81.0294V81.4048V81.7877H54.4552V44.0076H57.6161V44.1127V44.3154V44.5181V44.7283V44.9386V45.1488V45.3665V45.5842V45.8057V46.031V46.2562V46.489V46.7217V46.9582V47.1947V47.435V47.679V47.9267V48.1782V48.4298V48.685V48.9441V49.2031V49.4696V49.7362V50.0064V50.2767V50.5545V50.8323V51.1101V51.3954V51.6845V51.9735V52.2663V52.5629V52.8595V53.1598V53.4639V53.7717V54.0795V54.3911V54.7064V55.0255V55.3484V55.6712V55.9978V56.3244V56.6585V56.9926V57.3305V57.6721V58.0137V58.3628V58.7082V59.0611V59.4177V59.7743V60.1347V60.4988V63.5583Z" fill="#009877"/>
<path fill-rule="evenodd" clip-rule="evenodd" d="M85.9172 78.6455V81.8064H64.4294V44.0112H67.5902V78.6455H85.9172Z" fill="#009877"/>
<path fill-rule="evenodd" clip-rule="evenodd" d="M47.7242 81.8064H44.4244C43.2757 79.0885 41.5564 75.0004 39.2627 69.5647H23.0342C21.9268 72.2826 20.2487 76.3594 18.0226 81.8064C17.3019 81.8064 16.2207 81.7877 14.7754 81.7576C18.1878 73.3675 23.3045 60.7803 30.118 44C30.4784 44.8784 31.0339 46.2149 31.7885 47.983C30.118 52.1462 27.5953 58.389 24.2205 66.7116H27.6103C29.1194 63.1716 31.4131 57.8747 34.4989 50.8285C37.4458 57.7171 41.8567 68.0368 47.7242 81.8064ZM34.4989 58.3065C33.6768 60.1759 32.4792 62.9802 30.9063 66.7116H38.0802C37.2656 64.8384 36.068 62.0379 34.4989 58.3065Z" fill="#009877"/>
<path fill-rule="evenodd" clip-rule="evenodd" d="M119.865 62.86C119.865 64.1551 119.745 65.4127 119.512 66.6178C119.245 67.8453 118.859 69.0503 118.352 70.2103C117.886 71.344 117.312 72.4139 116.64 73.4087C115.934 74.4148 115.142 75.3458 114.275 76.2167C113.397 77.0801 112.462 77.8647 111.456 78.5629C110.442 79.2312 109.365 79.7905 108.231 80.2635C107.052 80.7665 105.84 81.1307 104.601 81.3634C103.388 81.63 102.135 81.7651 100.817 81.7651H92.7083V68.5135H95.779V78.7169H100.821C101.894 78.7169 102.953 78.6155 103.993 78.409C105.044 78.2138 106.065 77.8985 107.071 77.463C107.844 77.1327 108.584 76.746 109.29 76.3105C110.029 75.8826 110.716 75.3796 111.354 74.8165C107.191 68.4159 100.975 58.7982 92.712 45.9671V44.0112H100.821C102.138 44.0112 103.392 44.1314 104.605 44.3604C105.843 44.6269 107.056 44.991 108.235 45.4603C109.372 45.9633 110.446 46.5414 111.459 47.2096C112.466 47.8741 113.404 48.6437 114.279 49.5146C115.146 50.378 115.938 51.3165 116.644 52.3151C117.316 53.3136 117.89 54.3797 118.356 55.5172C118.862 56.6847 119.234 57.8822 119.463 59.1173C119.729 60.3448 119.868 61.6024 119.868 62.8638L119.865 62.86ZM115.533 56.7072C115.131 55.7762 114.647 54.879 114.068 54.0081C113.502 53.171 112.848 52.3976 112.109 51.6619C111.369 50.9636 110.577 50.3217 109.736 49.7586C108.903 49.1617 107.991 48.6587 107.018 48.257C106.046 47.8553 105.04 47.5587 103.993 47.3635C102.953 47.1233 101.894 47.0107 100.821 47.0107H97.0441C100.708 52.6754 106.193 61.1745 113.52 72.5078C113.926 71.9784 114.294 71.4266 114.628 70.8598C114.962 70.2554 115.266 69.6397 115.533 69.009C115.972 68.0443 116.291 67.0382 116.494 66.0059C116.693 64.9735 116.794 63.9224 116.794 62.8563C116.794 61.7901 116.693 60.7428 116.494 59.7104C116.287 58.6781 115.972 57.6795 115.533 56.7072Z" fill="#009877"/>
<path d="M62.1018 108.223H72.5417" stroke="#009877" stroke-width="0.750798" stroke-miterlimit="10"/>
</g>
<defs>
<clipPath id="clip0_482_20642">
<rect width="120" height="64.5986" fill="white" transform="translate(6.53931 44)"/>
</clipPath>
</defs>
</svg>
