<svg width="133" height="133" viewBox="0 0 133 133" fill="none" xmlns="http://www.w3.org/2000/svg">
<g clip-path="url(#clip0_490_773)">
<path d="M115.808 71.6803C115.512 72.2269 115.178 72.7149 114.745 73.1054C114.311 73.4951 113.838 73.7882 113.326 74.0029C112.814 74.1978 112.301 74.3142 111.749 74.3142C110.823 74.2952 110.094 73.9831 109.581 73.3391C109.049 72.714 108.793 71.7777 108.793 70.5871C108.793 69.0257 109.246 67.8557 110.212 67.0945C111.157 66.353 112.596 65.9625 114.547 65.9823H115.138C115.355 65.9823 115.572 66.0013 115.808 66.0211V71.6803ZM123 72.9295L122.527 72.5002C122.133 73.0278 121.778 73.4373 121.443 73.6908C121.108 73.9641 120.754 74.1003 120.379 74.1003C119.946 74.1003 119.63 73.8857 119.434 73.4563C119.217 73.027 119.099 72.3639 119.099 71.4656V63.0552C119.118 62.4302 119.079 61.8844 119.02 61.4353C118.941 60.9663 118.783 60.5377 118.546 60.1662C118.29 59.7955 117.896 59.4057 117.384 59.0342C116.714 58.5462 115.986 58.1755 115.197 57.922C114.428 57.6883 113.561 57.5513 112.635 57.5513C111.69 57.5711 110.823 57.6883 110.055 57.922C109.286 58.1755 108.616 58.5074 108.065 58.9169C107.513 59.3463 107.08 59.8145 106.785 60.3421C106.489 60.8887 106.351 61.4543 106.332 62.0397C106.351 62.6251 106.529 63.113 106.864 63.464C107.218 63.8149 107.691 64.0106 108.282 64.0106C108.833 64.0106 109.286 63.8347 109.602 63.4838C109.916 63.1329 110.094 62.6449 110.094 62.0397C110.094 61.7474 110.035 61.4931 109.916 61.2982C109.798 61.1033 109.66 60.9275 109.503 60.811C109.346 60.674 109.226 60.5567 109.109 60.4593C108.99 60.3619 108.931 60.2834 108.911 60.2058C108.911 60.03 109.009 59.8351 109.166 59.6204C109.324 59.3868 109.56 59.1523 109.876 58.9376C110.191 58.7031 110.566 58.5272 111.019 58.3712C111.472 58.2349 111.983 58.1565 112.555 58.1375C113.344 58.1375 113.974 58.2547 114.447 58.4694C114.92 58.6841 115.275 59.016 115.492 59.4644C115.708 59.9127 115.806 60.48 115.806 61.162V65.3969H115.59C113.304 65.3969 111.393 65.6115 109.836 66.0797C108.279 66.5289 107.097 67.1721 106.309 68.0118C105.521 68.8507 105.108 69.8654 105.108 71.0363C105.128 71.8355 105.324 72.5382 105.738 73.1632C106.151 73.8072 106.724 74.2952 107.453 74.6659C108.182 75.0367 109.029 75.2315 109.975 75.2315C111.434 75.2315 112.654 74.9979 113.66 74.5487C114.645 74.0805 115.434 73.3977 115.985 72.4605C116.182 73.3193 116.555 73.9633 117.148 74.4116C117.719 74.86 118.467 75.0945 119.354 75.1143C120.043 75.1143 120.674 74.9186 121.265 74.5677C121.837 74.1969 122.408 73.6504 122.999 72.9287L123 72.9295Z" fill="#F08722"/>
<path d="M91.8488 74.7253H100.144V74.1399H97.8193V64.3433C98.1147 63.0362 98.4694 61.924 98.9024 61.0257C99.3556 60.1084 99.8287 59.4453 100.341 58.9772C100.853 58.5082 101.365 58.2745 101.878 58.2745C101.957 58.2745 102.056 58.2745 102.134 58.2943C102.214 58.3142 102.292 58.3332 102.39 58.353C102.134 58.6461 101.937 58.9194 101.8 59.1927C101.642 59.4462 101.583 59.7195 101.583 59.9919C101.583 60.3049 101.681 60.617 101.858 60.8705C102.016 61.1438 102.253 61.3584 102.548 61.4955C102.824 61.6714 103.139 61.749 103.474 61.749C104.006 61.749 104.401 61.5731 104.716 61.2024C105.012 60.8705 105.168 60.3825 105.168 59.7393C105.168 59.3099 105.07 58.9392 104.834 58.6073C104.618 58.2952 104.302 58.0417 103.908 57.846C103.494 57.6511 103.021 57.5727 102.47 57.5537C101.485 57.5537 100.597 57.9244 99.8496 58.6271C99.081 59.3694 98.4109 60.4419 97.8202 61.9257V57.5545C96.9723 57.9055 95.6531 58.0615 93.879 58.0615H91.8504V58.6469H94.2737V74.1408H91.8504V74.7262L91.8488 74.7253Z" fill="#F08722"/>
<path d="M86.0359 71.6803C85.7597 72.2269 85.405 72.7149 84.972 73.1054C84.538 73.4951 84.0657 73.7882 83.5534 74.0029C83.041 74.1978 82.5295 74.3142 81.9771 74.3142C81.0517 74.2952 80.3223 73.9831 79.81 73.3391C79.2976 72.714 79.0214 71.7777 79.0214 70.5871C79.0214 69.0257 79.4946 67.8557 80.44 67.0945C81.3863 66.353 82.8241 65.9625 84.775 65.9823H85.385C85.5819 65.9823 85.7989 66.0013 86.0359 66.0211V71.6803ZM93.2273 72.9295L92.755 72.5002C92.3603 73.0278 92.0064 73.4373 91.671 73.6908C91.3364 73.9641 90.9809 74.1003 90.6071 74.1003C90.1932 74.1003 89.8585 73.8857 89.6616 73.4563C89.4455 73.027 89.347 72.3639 89.347 71.4656V63.0552C89.347 62.4302 89.327 61.8844 89.2477 61.4353C89.1684 60.9663 89.0116 60.5377 88.7754 60.1662C88.5192 59.7955 88.1254 59.4057 87.613 59.0342C86.9438 58.5462 86.2145 58.1755 85.4251 57.922C84.6574 57.6883 83.7904 57.5513 82.8641 57.5513C81.9178 57.5711 81.0508 57.6883 80.2823 57.922C79.5138 58.1755 78.8437 58.5074 78.2929 58.9169C77.7414 59.3463 77.3074 59.8145 77.012 60.3421C76.7166 60.8887 76.579 61.4543 76.579 62.0397C76.579 62.6251 76.7559 63.113 77.0913 63.464C77.4451 63.8149 77.9183 64.0106 78.5099 64.0106C79.0615 64.0106 79.5146 63.8347 79.83 63.4838C80.1646 63.1329 80.3223 62.6449 80.3223 62.0397C80.3223 61.7474 80.2631 61.4931 80.1454 61.2982C80.0269 61.1033 79.8893 60.9275 79.7315 60.811C79.5939 60.674 79.4553 60.5567 79.3368 60.4593C79.2192 60.3619 79.1599 60.2834 79.1399 60.2058C79.1399 60.03 79.2384 59.8351 79.3961 59.6204C79.5538 59.3868 79.79 59.1523 80.1045 58.9376C80.42 58.7031 80.7946 58.5272 81.2478 58.3712C81.7017 58.2349 82.2132 58.1565 82.7848 58.1375C83.5726 58.1375 84.2034 58.2547 84.6757 58.4694C85.1489 58.6841 85.5035 59.016 85.7205 59.4644C85.9374 59.9127 86.0551 60.48 86.0359 61.162V65.3969H85.8189C83.5534 65.3969 81.6224 65.6115 80.0653 66.0797C78.5091 66.5289 77.3467 67.1721 76.5381 68.0118C75.7503 68.8507 75.3373 69.8654 75.3373 71.0363C75.3565 71.8355 75.5534 72.5382 75.9673 73.1632C76.3812 73.8072 76.952 74.2952 77.6821 74.6659C78.4106 75.0367 79.2584 75.2315 80.2047 75.2315C81.6616 75.2315 82.8841 74.9979 83.8888 74.5487C84.8935 74.0805 85.662 73.3977 86.2136 72.4605C86.4106 73.3193 86.7852 73.9633 87.376 74.4116C87.9468 74.86 88.6961 75.0945 89.5823 75.1143C90.2916 75.1143 90.9025 74.9186 91.4941 74.5677C92.0649 74.1969 92.6373 73.6504 93.2281 72.9287L93.2273 72.9295Z" fill="#F08722"/>
<path d="M55.6132 74.7254H63.9086V74.14H61.5829V62.4508C62.3314 61.0851 63.1592 60.0506 64.0654 59.3677C64.9717 58.6841 65.9772 58.3522 67.0795 58.3522C67.7104 58.3522 68.1835 58.4694 68.5181 58.7039C68.8728 58.9186 69.0897 59.2893 69.2274 59.7575C69.3459 60.2256 69.4043 60.8308 69.4043 61.5723V74.1391H67.0403V74.7245H75.3557V74.1391H72.9124V62.8017C72.8924 61.6887 72.6754 60.7722 72.2423 59.9721C71.8084 59.2109 71.1976 58.6056 70.3898 58.1961C69.6021 57.7667 68.6366 57.5719 67.5335 57.5521C66.2918 57.5521 65.1886 57.8642 64.204 58.4892C63.2385 59.0936 62.3515 60.0308 61.5829 61.28V46C60.9529 46.3707 60.3221 46.644 59.6712 46.7803C59.0412 46.9371 58.3511 47.0148 57.6426 47.0148H55.6124V47.6002H58.0164V74.1391H55.6124V74.7245L55.6132 74.7254Z" fill="#F08722"/>
<path d="M55.8109 69.1637H55.1801C54.9631 70.9199 54.4124 72.2468 53.4861 73.1443C52.5607 74.0228 51.3191 74.472 49.7227 74.472C48.935 74.491 48.2649 74.3746 47.6933 74.1401C47.1217 73.9056 46.6294 73.5158 46.2155 72.9692C45.8609 72.5011 45.6047 72.0131 45.447 71.4665C45.2701 70.9397 45.1716 70.3543 45.1324 69.7103C45.0731 69.0853 45.0531 68.3834 45.0731 67.661V64.9676C45.0531 64.1675 45.0731 63.445 45.1324 62.8018C45.1916 62.138 45.3093 61.5328 45.4862 60.9862C45.6839 60.4404 45.9785 59.9524 46.3732 59.4843C46.7871 59.0161 47.3187 58.6644 47.9495 58.3911C48.6004 58.1178 49.3088 57.9815 50.0974 57.9815C50.649 57.9815 51.1213 58.0591 51.5352 58.2152C51.929 58.3514 52.2453 58.5075 52.4815 58.7032C52.6984 58.8782 52.7969 59.0343 52.7969 59.1515C52.7969 59.1903 52.7376 59.2688 52.6191 59.3852C52.5207 59.5024 52.383 59.6395 52.2244 59.8335C52.0868 60.0094 51.9491 60.2241 51.8306 60.4586C51.7321 60.712 51.6729 60.9853 51.6537 61.2785C51.6729 61.6492 51.7521 61.9613 51.9098 62.2544C52.0676 62.5475 52.2837 62.7812 52.5791 62.9373C52.8553 63.1131 53.1699 63.2106 53.5245 63.2106C53.8792 63.2106 54.2138 63.1123 54.51 62.9373C54.8255 62.7622 55.0808 62.5269 55.2585 62.2346C55.4354 61.9613 55.5339 61.6492 55.5539 61.3371C55.5339 60.6344 55.2978 60.0102 54.8255 59.4248C54.3523 58.8592 53.7023 58.3902 52.8945 58.0393C52.0667 57.7074 51.1213 57.5315 50.0565 57.5117C48.8357 57.5315 47.7125 57.7652 46.6477 58.2342C45.6038 58.7032 44.6784 59.3662 43.8698 60.2051C43.0612 61.0646 42.4513 62.0587 41.9973 63.1907C41.5442 64.3227 41.308 65.5522 41.308 66.8989C41.308 68.5568 41.6627 70.0009 42.3528 71.2502C43.0621 72.4994 44.0275 73.4746 45.2692 74.1772C46.5101 74.8601 47.9487 75.2118 49.5842 75.2308C50.7474 75.2308 51.7521 74.9765 52.6375 74.5083C53.5245 74.0203 54.2338 73.3375 54.7854 72.4202C55.337 71.5227 55.6724 70.4303 55.8101 69.1612" fill="#F08722"/>
<path d="M35.0237 58.6452V74.1399H32.6197V74.7253H40.895V74.1399H38.5702V57.552C37.7224 57.9037 36.4223 58.059 34.6491 58.059H32.6188V58.6444H35.0229L35.0237 58.6452Z" fill="#F08722"/>
<path d="M10 74.7252H22.4919C23.9497 74.7252 25.2706 74.5296 26.4522 74.1398C27.6146 73.7691 28.6001 73.2225 29.4279 72.5397C30.2356 71.8568 30.8657 71.0568 31.2996 70.1394C31.7335 69.2229 31.9496 68.2272 31.9496 67.1538C31.9496 65.1053 31.2011 63.4853 29.7233 62.2748C28.2263 61.0652 26.0583 60.3039 23.202 60.0306C24.8959 59.9134 26.3145 59.5625 27.4778 58.9961C28.661 58.4107 29.5672 57.6692 30.1772 56.7519C30.7881 55.8147 31.1035 54.7612 31.1035 53.5904C31.1035 52.2049 30.7288 51.0341 29.9603 50.0581C29.1917 49.0632 28.0694 48.3217 26.5715 47.7949C25.0945 47.2871 23.2621 47.0146 21.0941 47.0146H10V47.6001H13.1334V74.1398H10V74.7252ZM17.3299 59.6987V47.6389H19.5571C21.1726 47.6389 22.5327 47.9122 23.6551 48.4389C24.7582 48.9855 25.6061 49.727 26.1777 50.6831C26.7685 51.6393 27.0447 52.7713 27.0447 54.0395C27.0447 55.3078 26.7685 56.4588 26.1969 57.3175C25.6253 58.1374 24.7382 58.7616 23.5767 59.1521C22.3942 59.5427 20.8972 59.7375 19.1031 59.7375H18.2369C17.9415 59.7375 17.6462 59.7177 17.3307 59.6979L17.3299 59.6987ZM17.3299 74.1398V60.2453C17.5068 60.2453 17.7046 60.2263 17.8815 60.2263C18.0784 60.2065 18.2553 60.2065 18.433 60.2065C21.4087 60.2065 23.6551 60.7729 25.1521 61.9239C26.67 63.0559 27.4385 64.7535 27.4385 67.0175C27.4385 68.6763 27.1231 70.042 26.5123 71.0956C25.9215 72.1301 24.9944 72.9104 23.7736 73.3984C22.5519 73.9062 20.9948 74.1597 19.1432 74.1398H17.3307H17.3299Z" fill="#F08722"/>
<path d="M90.1473 86C89.7518 86 89.4096 85.9488 89.1201 85.8465C88.8305 85.7441 88.566 85.5707 88.3248 85.3279L88.8455 84.8201C89.0241 84.9968 89.2202 85.1215 89.4347 85.1958C89.6491 85.2701 89.8911 85.3065 90.1615 85.3065C90.4986 85.3065 90.7606 85.2388 90.9459 85.1025C91.1311 84.9663 91.2246 84.7747 91.2246 84.5262C91.2246 84.2925 91.1753 84.1315 91.0769 84.0432C90.9776 83.9548 90.8875 83.8946 90.8057 83.8607C90.7239 83.8277 90.6079 83.8013 90.4586 83.7823L89.8511 83.6964C89.4322 83.6394 89.1017 83.4982 88.8606 83.2745C88.6194 83.0507 88.4992 82.7303 88.4992 82.3159C88.4992 81.8675 88.6536 81.5059 88.9624 81.2317C89.2711 80.9576 89.69 80.8206 90.2207 80.8206C90.8666 80.8206 91.3998 81.0138 91.8187 81.4002L91.3197 81.8865C91.1703 81.7437 91.0043 81.6421 90.8207 81.5827C90.6371 81.5232 90.4302 81.4935 90.199 81.4935C89.9053 81.4935 89.675 81.5686 89.5089 81.7189C89.3429 81.8692 89.2594 82.0591 89.2594 82.2878C89.2594 82.4884 89.3254 82.647 89.458 82.7634C89.5907 82.8806 89.7826 82.9582 90.033 82.9962L90.6188 83.0821C90.8499 83.1151 91.0393 83.1622 91.1862 83.2216C91.3331 83.2811 91.5058 83.3967 91.7036 83.5684C91.9013 83.7402 91.9998 84.0523 91.9998 84.5056C91.9998 84.9589 91.8296 85.3329 91.4899 85.6004C91.1503 85.8679 90.703 86.0009 90.149 86.0009M84.9478 81.8287C84.856 81.7288 84.7442 81.6512 84.6115 81.5959C84.4788 81.5414 84.3353 81.5133 84.1809 81.5133C84.0265 81.5133 83.888 81.5422 83.7503 81.5992C83.6135 81.6561 83.4916 81.742 83.3857 81.8568C83.2797 81.9716 83.2071 82.1301 83.1687 82.3324C83.1303 82.5355 83.1111 82.8938 83.1111 83.4091C83.1111 83.9243 83.1295 84.3049 83.1654 84.4932C83.2013 84.6814 83.2755 84.8367 83.3857 84.958C83.4967 85.0794 83.6185 85.1678 83.7503 85.2222C83.883 85.2767 84.0265 85.3048 84.1809 85.3048C84.3353 85.3048 84.4738 85.2759 84.6115 85.2189C84.7492 85.162 84.8702 85.0761 84.977 84.9613C85.083 84.8466 85.1556 84.688 85.1939 84.4857C85.2323 84.2826 85.2515 83.9243 85.2515 83.4091C85.2515 82.8938 85.2332 82.5132 85.1973 82.3249C85.1614 82.1367 85.078 81.9707 84.9478 81.8279V81.8287ZM85.5411 85.4559C85.1748 85.8184 84.7216 86 84.1817 86C83.6419 86 83.2296 85.8522 82.9309 85.5566C82.6322 85.2611 82.4578 84.9795 82.4069 84.7128C82.356 84.4453 82.3309 84.0118 82.3309 83.4107C82.3309 82.8096 82.356 82.3819 82.4069 82.1119C82.4578 81.8427 82.6322 81.5595 82.9309 81.2639C83.2296 80.9684 83.6469 80.8206 84.1817 80.8206C84.4563 80.8206 84.7058 80.866 84.9303 80.9568C85.1547 81.0476 85.3692 81.1938 85.5736 81.3969C85.7781 81.5992 85.9066 81.837 85.9566 82.1086C86.0075 82.3803 86.0326 82.8146 86.0326 83.4107C86.0326 84.0068 86.01 84.4626 85.9642 84.7202C85.9183 84.9778 85.7772 85.2231 85.5411 85.4576V85.4559ZM78.7144 81.9005C78.5024 81.6718 78.2104 81.5571 77.839 81.5571H76.8919V85.2635H77.839C78.2104 85.2635 78.4791 85.1727 78.6451 84.9919C78.8112 84.8111 78.9105 84.6055 78.9413 84.3768C78.9731 84.148 78.9881 83.8136 78.9881 83.3752C78.9881 82.9368 78.9722 82.6321 78.9413 82.4199C78.9096 82.2077 78.8337 82.0351 78.7135 81.9014L78.7144 81.9005ZM79.2493 85.4774C79.0899 85.6351 78.8963 85.754 78.6668 85.8349C78.4382 85.9158 78.1887 85.9563 77.9183 85.9563H76.1109V80.8618H77.9183C78.4824 80.8618 78.9071 81.0022 79.1908 81.2838C79.4754 81.5653 79.6431 81.8518 79.6932 82.1425C79.7441 82.4331 79.7691 82.8435 79.7691 83.3727V83.6518C79.7691 84.0861 79.7391 84.4428 79.679 84.7219C79.6189 85.001 79.4754 85.2528 79.2484 85.4766L79.2493 85.4774ZM71.6064 82.0145L70.807 84.2752H72.3825L71.6064 82.0145ZM72.9599 85.9571L72.6111 84.9341H70.5717L70.2162 85.9571H69.3859L71.2735 80.8627H71.9027L73.7902 85.9571H72.9599ZM66.7975 85.4204C66.6047 85.6211 66.3911 85.7672 66.1574 85.8605C65.9238 85.9538 65.6643 86 65.3805 86C64.8457 86 64.4284 85.8522 64.1297 85.5566C63.831 85.2611 63.6557 84.9795 63.6057 84.7128C63.5547 84.4453 63.5297 84.0118 63.5297 83.4107C63.5297 82.8096 63.5547 82.3819 63.6057 82.1119C63.6557 81.8427 63.831 81.5595 64.1305 81.2639C64.4293 80.9684 64.8482 80.8206 65.3839 80.8206C65.9196 80.8206 66.336 80.9675 66.6589 81.2606C66.9827 81.5538 67.183 81.9344 67.2606 82.4017H66.472C66.4044 82.1202 66.2776 81.9022 66.0948 81.747C65.9104 81.5917 65.6743 81.5141 65.3839 81.5141C65.2345 81.5141 65.0927 81.543 64.96 81.6C64.8265 81.657 64.7055 81.7428 64.597 81.8576C64.4877 81.9724 64.4126 82.135 64.3717 82.3481C64.3308 82.5603 64.3099 82.9145 64.3099 83.4107C64.3099 83.9069 64.3291 84.2909 64.3675 84.4907C64.4059 84.6913 64.506 84.8771 64.6671 85.0489C64.829 85.2206 65.0659 85.3065 65.3797 85.3065C65.7268 85.3065 65.9964 85.1967 66.1891 84.977C66.3819 84.7574 66.4787 84.4808 66.4787 84.1472V83.8607H65.3797V83.2026H67.2597V83.9821C67.2597 84.3157 67.2247 84.5939 67.1546 84.8152C67.0845 85.0373 66.9652 85.2388 66.7966 85.4196L66.7975 85.4204ZM59.8848 81.8287C59.793 81.7288 59.6812 81.6512 59.5485 81.5959C59.4158 81.5414 59.2723 81.5133 59.1179 81.5133C58.9636 81.5133 58.825 81.5422 58.6873 81.5992C58.5497 81.6561 58.4278 81.742 58.3219 81.8568C58.2159 81.9716 58.1433 82.1301 58.1049 82.3324C58.0665 82.5355 58.0473 82.8938 58.0473 83.4091C58.0473 83.9243 58.0657 84.3049 58.1016 84.4932C58.1374 84.6814 58.2109 84.8367 58.3219 84.958C58.4328 85.0794 58.5547 85.1678 58.6873 85.2222C58.82 85.2767 58.9636 85.3048 59.1179 85.3048C59.2723 85.3048 59.4108 85.2759 59.5485 85.2189C59.6854 85.162 59.808 85.0761 59.914 84.9613C60.02 84.8466 60.0926 84.688 60.131 84.4857C60.1693 84.2826 60.1885 83.9243 60.1885 83.4091C60.1885 82.8938 60.1702 82.5132 60.1343 82.3249C60.0984 82.1367 60.015 81.9707 59.8848 81.8279V81.8287ZM60.4781 85.4559C60.1118 85.8184 59.6587 86 59.1188 86C58.5789 86 58.1666 85.8522 57.8679 85.5566C57.5692 85.2611 57.3948 84.9795 57.3439 84.7128C57.293 84.4453 57.2679 84.0118 57.2679 83.4107C57.2679 82.8096 57.293 82.3819 57.3439 82.1119C57.3948 81.8427 57.5692 81.5595 57.8679 81.2639C58.1666 80.9684 58.5839 80.8206 59.1188 80.8206C59.3933 80.8206 59.6428 80.866 59.8673 80.9568C60.0917 81.0476 60.3062 81.1938 60.5106 81.3969C60.7151 81.5992 60.8436 81.837 60.8937 82.1086C60.9446 82.3803 60.9696 82.8146 60.9696 83.4107C60.9696 84.0068 60.9471 84.4626 60.9012 84.7202C60.8553 84.9778 60.7142 85.2231 60.4781 85.4576V85.4559ZM53.4494 85.9571H52.842L51.1497 80.8627H51.9591L53.144 84.5675L54.3315 80.8627H55.1559L53.4494 85.9571ZM47.9821 81.9005C47.7701 81.6718 47.4781 81.5571 47.1076 81.5571H46.1604V85.2635H47.1076C47.4789 85.2635 47.7476 85.1727 47.9136 84.9919C48.0797 84.8111 48.179 84.6055 48.2099 84.3768C48.2407 84.148 48.2566 83.8136 48.2566 83.3752C48.2566 82.9368 48.2407 82.6321 48.2099 82.4199C48.1782 82.2077 48.1022 82.0351 47.9821 81.9014V81.9005ZM48.5178 85.4774C48.3584 85.6351 48.1648 85.754 47.9353 85.8349C47.7067 85.9158 47.4572 85.9563 47.1868 85.9563H45.3786V80.8618H47.1868C47.7509 80.8618 48.1748 81.0022 48.4594 81.2838C48.7439 81.5653 48.9108 81.8518 48.9617 82.1425C49.0126 82.4331 49.0377 82.8435 49.0377 83.3727V83.6518C49.0377 84.0861 49.0076 84.4428 48.9475 84.7219C48.8875 85.001 48.7439 85.2528 48.517 85.4766L48.5178 85.4774ZM40.8741 82.0145L40.0756 84.2752H41.651L40.875 82.0145H40.8741ZM42.2276 85.9571L41.8797 84.9341H39.8402L39.4848 85.9571H38.6545L40.542 80.8627H41.1712L43.0588 85.9571H42.2285H42.2276Z" fill="#221E20"/>
</g>
<defs>
<clipPath id="clip0_490_773">
<rect width="113" height="40" fill="white" transform="translate(10 46)"/>
</clipPath>
</defs>
</svg>
