<svg width="133" height="133" viewBox="0 0 133 133" fill="none" xmlns="http://www.w3.org/2000/svg">
<g clip-path="url(#clip0_482_20556)">
<mask id="mask0_482_20556" style="mask-type:luminance" maskUnits="userSpaceOnUse" x="5" y="37" width="53" height="58">
<path d="M42.2179 38.663C42.1302 38.5598 42.0115 38.4553 41.9186 38.3663C41.7974 38.2708 41.3342 38.1122 40.8853 38.0128C40.4634 37.9251 40.0415 37.8425 39.5887 37.7613C39.1359 37.6877 38.7863 37.689 38.8598 37.7742C38.9321 37.8606 39.0017 37.9548 39.0417 38.0515C39.1346 38.1754 39.6171 38.3457 40.1448 38.4321C40.6156 38.516 41.0865 38.6076 41.5303 38.6992C42.027 38.8101 42.3547 38.7985 42.2179 38.6643M45.9011 39.8048C45.7631 39.6925 45.6225 39.5842 45.5051 39.4939C45.3606 39.3932 44.9129 39.192 44.5336 39.0539C44.1802 38.9314 43.8241 38.8127 43.468 38.6992C43.0552 38.574 42.7933 38.5392 42.9146 38.6321C43.0346 38.7262 43.152 38.8256 43.2668 38.9314C43.3764 39.0501 43.8434 39.2616 44.2795 39.3932C44.6859 39.5235 45.0652 39.6487 45.4432 39.779C45.847 39.9247 46.0598 39.9389 45.9011 39.8035V39.8048ZM49.0348 41.2535C48.8967 41.1477 48.7316 41.0303 48.5884 40.931C48.4181 40.8214 48.0414 40.6059 47.7356 40.4446C47.4531 40.3002 47.168 40.1595 46.8803 40.0228C46.5397 39.8654 46.3978 39.8267 46.5436 39.9247C46.661 40.0125 46.8016 40.117 46.9409 40.2266C47.1009 40.3569 47.5241 40.5982 47.8634 40.753C48.1756 40.9013 48.4852 41.0536 48.7677 41.1968C49.0993 41.3722 49.218 41.3967 49.0348 41.2548V41.2535ZM36.1184 38.516C36.1326 38.6966 36.1713 38.894 36.2087 39.1042C36.2422 39.3519 35.6965 39.5429 35.0102 39.5222C34.3768 39.5132 33.7433 39.5132 33.1099 39.5222C32.3978 39.5442 31.8778 39.3519 31.9114 39.1042C31.9488 38.894 31.9604 38.6992 32.0017 38.5173C32.043 38.3315 32.5874 38.1663 33.1989 38.1483C33.782 38.1393 34.3368 38.1393 34.9199 38.1483C35.5301 38.1676 36.0758 38.3315 36.1171 38.5185L36.1184 38.516ZM40.7163 39.0526C40.813 39.232 40.9059 39.4229 40.9949 39.6241C41.0994 39.8615 40.6788 39.9841 40.0686 39.8925C39.4855 39.8125 38.9024 39.7403 38.3206 39.6783C37.6845 39.6203 37.1259 39.3765 37.0718 39.1417C37.0395 38.9443 36.9776 38.7559 36.9415 38.5818C36.904 38.405 37.3607 38.3095 37.9426 38.365C38.4676 38.4231 38.994 38.4889 39.5178 38.5637C40.0699 38.6488 40.6195 38.8694 40.7176 39.0526H40.7163ZM44.9439 40.0847C45.0806 40.2627 45.2122 40.4485 45.3645 40.6536C45.5051 40.8781 45.2277 40.9594 44.6975 40.8085C44.2201 40.682 43.7157 40.553 43.2371 40.4421C42.6798 40.3182 42.1199 40.0254 42.018 39.8048C41.9057 39.6087 41.8154 39.4306 41.6942 39.2526C41.5987 39.0797 41.9315 39.0333 42.4514 39.1533C42.9159 39.2668 43.3532 39.3777 43.8151 39.5055C44.2769 39.6371 44.8059 39.9054 44.9439 40.086V40.0847ZM48.5936 41.4883C48.7767 41.6793 48.9316 41.8612 49.0812 42.0469C49.2696 42.2766 49.0786 42.314 48.6877 42.1489C48.2981 41.985 47.9072 41.8289 47.5137 41.6793C47.0674 41.5154 46.5759 41.2019 46.4081 40.9787C46.2804 40.7968 46.1475 40.6201 46.0108 40.4511C45.847 40.2679 46.0727 40.2537 46.4984 40.4137C46.87 40.5582 47.2402 40.7091 47.5834 40.851C47.9756 41.0239 48.4336 41.3129 48.5948 41.4896L48.5936 41.4883ZM51.6085 43.1487C51.7685 43.3164 51.9478 43.506 52.1013 43.6815C52.2922 43.8995 52.1981 43.924 51.9026 43.7447C51.6304 43.5847 51.3324 43.4119 51.0331 43.2454C50.7054 43.0713 50.2784 42.7436 50.1107 42.5385C49.9585 42.3591 49.7779 42.1682 49.6424 42.0121C49.4566 41.825 49.5895 41.8302 49.9185 42.0095C50.1946 42.1643 50.4693 42.323 50.7416 42.4856C51.0357 42.6675 51.424 42.9655 51.6085 43.1487ZM53.9255 44.9135C54.0881 45.0787 54.2467 45.2464 54.4041 45.4154C54.5976 45.6308 54.5757 45.6515 54.3577 45.4631C54.1784 45.3173 53.9758 45.1535 53.75 44.9742C53.5191 44.8 53.1811 44.4904 53.0095 44.2943C52.8547 44.1227 52.696 43.9537 52.5335 43.7886C52.3477 43.6054 52.4096 43.6209 52.6393 43.7963C52.8431 43.9576 53.0457 44.1214 53.2237 44.2685C53.4417 44.4581 53.7397 44.7316 53.9268 44.9135H53.9255ZM39.1888 41.6019C39.1294 41.2768 39.0624 40.9671 38.9914 40.6717C38.9192 40.366 38.3348 40.0757 37.682 40.0176C37.0821 39.9725 36.4564 39.9338 35.8578 39.9054C35.1805 39.8835 34.6541 40.1092 34.6477 40.4124C34.6657 40.7065 34.6593 41.0149 34.6761 41.3413C34.6902 41.7193 35.303 42.056 36.0203 42.0766C36.6899 42.1063 37.362 42.1437 38.0342 42.1927C38.7579 42.2534 39.2843 41.985 39.1901 41.6019H39.1888ZM44.3272 42.4082C44.2072 42.1011 44.1027 41.8134 43.966 41.5257C43.8538 41.2393 43.2706 40.9 42.694 40.7762C42.1689 40.673 41.6451 40.5762 41.0955 40.4821C40.4944 40.3879 40.0777 40.5466 40.1667 40.8394C40.2312 41.1155 40.3138 41.4109 40.3899 41.718C40.475 42.0727 41.0839 42.4494 41.7238 42.541C42.316 42.6365 42.8862 42.7333 43.459 42.8403C44.0834 42.9668 44.473 42.7707 44.3272 42.4095V42.4082ZM52.3813 45.2193C52.2135 44.9484 52.0613 44.6994 51.882 44.4362C51.7027 44.1704 51.295 43.8273 50.9415 43.6454C50.6113 43.4802 50.2797 43.3215 49.9456 43.1693C49.5598 42.9964 49.3779 43.07 49.534 43.3293C49.6901 43.5834 49.8398 43.8427 50.0049 44.1214C50.1546 44.4168 50.6267 44.8142 51.0357 44.9922C51.3724 45.1341 51.7285 45.3018 52.06 45.4579C52.4161 45.6321 52.5554 45.5199 52.38 45.2193H52.3813ZM55.124 46.9041C54.9679 46.6629 54.8066 46.4229 54.6428 46.1868C54.4764 45.9508 54.1345 45.6063 53.8791 45.4192C53.6636 45.2735 53.4262 45.1122 53.185 44.9535C52.896 44.7665 52.8083 44.8232 52.9915 45.0812C53.154 45.3199 53.3114 45.5624 53.4649 45.8063C53.6275 46.0785 54.0016 46.4539 54.2725 46.6177C54.5357 46.7919 54.7576 46.9312 54.9963 47.0938C55.2543 47.2795 55.293 47.1699 55.1253 46.9016L55.124 46.9041ZM57.0733 48.5916C56.9301 48.3748 56.7831 48.1607 56.6515 47.971C56.4825 47.7375 56.2232 47.4266 56.0619 47.2615C55.9174 47.1196 55.751 46.9596 55.6 46.8229C55.4078 46.6474 55.3923 46.7003 55.56 46.9351C55.7084 47.148 55.8529 47.3634 55.9948 47.5801C56.1664 47.8459 56.4412 48.1749 56.6166 48.3271C56.7869 48.4858 56.9353 48.6238 57.0824 48.7644C57.2462 48.9296 57.2462 48.8586 57.072 48.5929L57.0733 48.5916ZM36.4486 90.4447C36.4319 90.7853 36.3854 91.1091 36.3622 91.4148C36.3132 91.7322 35.7326 91.9993 35.027 92.0212C34.3742 92.0315 33.7201 92.0302 33.0931 92.0212C32.3874 92.0005 31.7811 91.7309 31.7321 91.4136C31.7088 91.1091 31.6637 90.784 31.6469 90.4447C31.6134 90.0473 32.1978 89.73 32.986 89.7519C33.702 89.7622 34.3935 89.7622 35.1095 89.7519C35.8978 89.73 36.4822 90.0486 36.4473 90.446L36.4486 90.4447ZM46.6313 88.8592C46.4959 89.1598 46.3501 89.4526 46.1979 89.7377C46.0443 90.0293 45.4948 90.3802 44.9439 90.5376C44.4691 90.6601 43.9699 90.784 43.4448 90.9104C42.8926 91.0291 42.5121 90.9014 42.6333 90.6098C42.7301 90.335 42.8436 90.0422 42.9494 89.7364C43.0604 89.3868 43.659 88.9908 44.2614 88.8695C44.8149 88.7469 45.3464 88.6244 45.8779 88.4928C46.461 88.3367 46.7926 88.507 46.6313 88.8605V88.8592ZM38.4509 93.1087C38.5063 92.9372 38.5592 92.7527 38.6353 92.554C38.705 92.3218 38.2199 92.1786 37.5839 92.2353C37.0008 92.2792 36.4177 92.3153 35.8088 92.345C35.1727 92.3656 34.6206 92.5772 34.5986 92.8068C34.6025 93.0017 34.6064 93.1836 34.5819 93.3551C34.5845 93.5293 35.0592 93.6519 35.6423 93.6325C36.1971 93.6041 36.7247 93.5706 37.2511 93.5306C37.8329 93.4764 38.367 93.2893 38.4509 93.11V93.1087ZM42.872 92.3166C42.9894 92.1437 43.1029 91.9631 43.2113 91.7735C43.3351 91.5503 43.0126 91.4535 42.454 91.5748C41.9483 91.6754 41.4168 91.7774 40.8853 91.8702C40.2996 91.9631 39.7526 92.2224 39.6881 92.4366C39.6158 92.6237 39.541 92.8004 39.4623 92.9668C39.3823 93.1371 39.7642 93.2003 40.2892 93.1165C40.7846 93.0275 41.2529 92.9384 41.72 92.8417C42.2411 92.7256 42.7546 92.4921 42.8733 92.3166H42.872ZM46.8197 91.0846C46.9809 90.9053 47.1138 90.7337 47.2661 90.544C47.4325 90.3247 47.2132 90.2692 46.7655 90.4279C46.3436 90.5724 45.9205 90.7092 45.496 90.8395C45.0187 90.9801 44.4911 91.2807 44.3672 91.4884C44.233 91.6754 44.1208 91.8457 44.0047 92.0096C43.8615 92.185 44.1402 92.2057 44.5994 92.0663C45.0045 91.9386 45.3825 91.8148 45.7837 91.6741C46.2108 91.518 46.6804 91.2523 46.8171 91.0846H46.8197ZM50.1597 89.5365C50.321 89.3675 50.4784 89.1933 50.6551 88.9998C50.8241 88.7972 50.6964 88.7663 50.3661 88.9353C50.0359 89.103 49.7275 89.2488 49.3934 89.4062C49.0077 89.5829 48.5703 89.8874 48.4 90.0964C48.2452 90.2783 48.1124 90.4421 47.9743 90.6008C47.8105 90.775 47.9756 90.7788 48.3162 90.6253C48.6516 90.464 48.9612 90.3131 49.2683 90.157C49.5753 89.9983 49.9985 89.7042 50.161 89.5352L50.1597 89.5365ZM52.816 87.8142C52.9786 87.6491 53.1385 87.4814 53.2946 87.3111C53.4675 87.1163 53.434 87.0801 53.1785 87.2672C52.9644 87.4156 52.727 87.5781 52.487 87.7368C52.22 87.9071 51.8485 88.2193 51.6769 88.4154C51.5208 88.5883 51.3621 88.7573 51.1995 88.9237C51.0357 89.0888 51.1312 89.0733 51.375 88.9185C51.6149 88.7585 51.8523 88.5934 52.0652 88.4438C52.2987 88.2735 52.6522 87.9768 52.8173 87.8142H52.816ZM35.9494 94.0557C35.9287 94.1627 35.9068 94.2608 35.8552 94.3511C35.832 94.4375 35.3779 94.5201 34.8051 94.5369C34.3187 94.5446 33.8027 94.5446 33.3163 94.5369C32.7435 94.5188 32.2894 94.4362 32.2378 94.3485C32.2146 94.2608 32.1926 94.1627 32.172 94.0557C32.1243 93.9241 32.608 93.8312 33.2221 93.8505C33.7807 93.8596 34.3406 93.8596 34.8992 93.8505C35.5146 93.8312 35.9971 93.9241 35.9494 94.0569V94.0557ZM40.1912 93.5783C40.0996 93.688 40.0325 93.7834 39.9358 93.8763C39.8661 93.9615 39.3668 94.1021 38.8572 94.1821C38.4031 94.2466 37.9477 94.3034 37.4627 94.3575C36.9492 94.4066 36.5725 94.3795 36.5944 94.2969C36.6434 94.2105 36.6925 94.1163 36.7105 94.0157C36.7557 93.8918 37.2485 93.7447 37.8342 93.688C38.336 93.6325 38.8663 93.5654 39.3668 93.4945C39.9229 93.4067 40.2776 93.448 40.1912 93.5757V93.5783ZM44.0924 92.6366C43.9802 92.7436 43.8641 92.8443 43.7183 92.9488C43.5983 93.0404 43.1429 93.221 42.7004 93.35C42.2837 93.4648 41.8941 93.5654 41.4761 93.6686C41.0285 93.7705 40.7356 93.7847 40.8324 93.697C40.9007 93.6144 40.9936 93.5177 41.0852 93.4145C41.1988 93.2881 41.7019 93.0894 42.1986 92.9759C42.6385 92.8688 43.0784 92.7552 43.5171 92.634C43.9815 92.4998 44.2537 92.4959 44.0937 92.6366H44.0924ZM47.5202 91.322C47.3576 91.4445 47.217 91.549 47.0738 91.6496C46.9035 91.7593 46.4907 91.9683 46.1205 92.1321C45.8018 92.2676 45.4535 92.4095 45.131 92.5346C44.753 92.6766 44.5517 92.7165 44.6717 92.6275C44.8162 92.5256 44.9323 92.4301 45.0716 92.3166C45.2058 92.1928 45.665 91.9605 46.0676 91.8109C46.4404 91.6651 46.7861 91.5245 47.1551 91.3671C47.5228 91.2058 47.6776 91.1904 47.5202 91.322ZM30.0343 37.938C30.1053 37.8296 30.1491 37.7355 30.2227 37.6439C30.2691 37.5587 30.7451 37.4478 31.2586 37.4C31.7437 37.3613 32.2017 37.3329 32.6867 37.3097C33.2015 37.293 33.6324 37.3458 33.6337 37.4284C33.6337 37.5136 33.6079 37.6077 33.6092 37.7109C33.6117 37.8348 33.1099 37.9548 32.5513 37.9728C32.0198 37.9986 31.4895 38.0322 30.9593 38.0735C30.4007 38.1251 29.9956 38.0606 30.0343 37.9367V37.938ZM25.9305 38.6579C26.0466 38.5469 26.1369 38.4502 26.2582 38.3534C26.3524 38.2657 26.8155 38.1083 27.2916 38.0012C27.7134 37.9135 28.1366 37.8322 28.5597 37.7574C29.0409 37.6787 29.3622 37.6851 29.2886 37.7716C29.2448 37.8529 29.1751 37.947 29.1054 38.0489C29.0409 38.1676 28.5301 38.3418 28.0295 38.4231C27.5573 38.5069 27.0865 38.5972 26.6169 38.6953C26.1202 38.8049 25.8196 38.7856 25.9292 38.6605L25.9305 38.6579ZM22.246 39.7983C22.3841 39.6861 22.5247 39.5777 22.6692 39.4758C22.815 39.3765 23.2342 39.1855 23.6148 39.0475C23.9683 38.9249 24.3515 38.7972 24.7088 38.6837C25.1216 38.5585 25.3552 38.534 25.2352 38.6269C25.1152 38.7211 25.0249 38.8114 24.9101 38.9172C24.7733 39.0449 24.3063 39.2565 23.8703 39.3881C23.4897 39.5068 23.1104 39.6319 22.7066 39.7738C22.3028 39.9196 22.0899 39.9338 22.2486 39.7983H22.246ZM19.1111 41.2445C19.2737 41.1232 19.4143 41.0213 19.582 40.9078C19.7278 40.8123 20.129 40.584 20.436 40.4227C20.7199 40.2782 21.005 40.1389 21.2914 40.0021C21.6061 39.8577 21.7739 39.8061 21.6281 39.9041C21.4849 40.0047 21.343 40.1092 21.2049 40.2176C21.045 40.3479 20.6476 40.5749 20.2812 40.7439C19.9948 40.8781 19.6852 41.0303 19.3769 41.1864C19.0698 41.3464 18.9511 41.3722 19.1098 41.2445H19.1111ZM27.4322 39.0488C27.3612 39.2216 27.2684 39.4126 27.1535 39.6203C27.049 39.8577 27.4696 39.9802 28.1056 39.8835C28.6629 39.8099 29.2461 39.7377 29.8279 39.6758C30.4639 39.6177 31.0496 39.3713 31.0767 39.1404C31.136 38.9404 31.1709 38.7546 31.2083 38.5818C31.2457 38.405 30.8161 38.3057 30.2343 38.3612C29.7079 38.4192 29.1829 38.4837 28.6578 38.5572C28.0785 38.6476 27.529 38.8682 27.4309 39.0501L27.4322 39.0488ZM23.2033 40.0783C23.0665 40.2563 22.9337 40.4421 22.8072 40.6356C22.6408 40.8717 22.944 40.9413 23.4729 40.7917C23.9515 40.6653 24.4289 40.5466 24.9333 40.4266C25.4919 40.3027 26.0247 40.0202 26.1537 39.7906C26.2402 39.6022 26.3576 39.4164 26.453 39.2474C26.5485 39.0746 26.2156 39.0281 25.7228 39.1391C25.2584 39.2513 24.7953 39.3726 24.3592 39.49C23.8703 39.6306 23.3671 39.8886 23.2033 40.0796V40.0783ZM19.5523 41.4793C19.3936 41.656 19.2388 41.8367 19.0647 42.0379C18.8763 42.2663 19.0673 42.305 19.4814 42.1243C19.8478 41.976 20.2387 41.8199 20.6321 41.6702C21.0785 41.5064 21.5713 41.1942 21.7377 40.9697C21.8655 40.7878 22.0241 40.5995 22.1609 40.4305C22.2989 40.2589 22.0745 40.2447 21.6732 40.3918C21.3017 40.5362 20.9314 40.6859 20.5625 40.8407C20.1703 41.0136 19.7355 41.2884 19.551 41.478L19.5523 41.4793ZM16.5593 43.1203C16.3761 43.3061 16.2187 43.4777 16.0433 43.6699C15.8523 43.8879 15.9465 43.9124 16.2407 43.7331C16.5361 43.5563 16.8109 43.4015 17.1102 43.2338C17.4379 43.0597 17.8649 42.7333 18.0558 42.5114C18.2081 42.3321 18.3654 42.1566 18.5254 41.9863C18.6867 41.816 18.5538 41.8199 18.2493 41.9824C17.9487 42.1527 17.674 42.3114 17.403 42.474C17.1089 42.6559 16.7438 42.9358 16.558 43.1203H16.5593ZM14.2191 44.9019C14.0565 45.067 13.8979 45.2335 13.7405 45.4038C13.5676 45.5986 13.5882 45.6192 13.7869 45.4515C13.9869 45.2851 14.1894 45.1225 14.3945 44.9638C14.6255 44.791 14.9635 44.4801 15.1363 44.284C15.3144 44.093 15.4731 43.9253 15.6343 43.7589C15.7982 43.595 15.7582 43.5925 15.5285 43.7666C15.3234 43.9266 15.1222 44.0904 14.9222 44.2569C14.7248 44.4259 14.4049 44.7187 14.2191 44.9006V44.9019ZM28.9571 41.5993C29.0177 41.2742 29.0835 40.9646 29.1558 40.6691C29.2293 40.3634 29.8124 40.0731 30.491 40.0125C31.0909 39.9686 31.6908 39.9325 32.2894 39.9054C32.9667 39.8835 33.5176 40.1092 33.4995 40.4137C33.5059 40.7065 33.4879 41.0162 33.4711 41.3426C33.4801 41.7205 32.8673 42.0547 32.1268 42.0766C31.4573 42.105 30.7851 42.1437 30.1362 42.1876C29.4125 42.2469 28.8861 41.9786 28.9571 41.6006V41.5993ZM23.8187 42.4017C23.9386 42.0947 24.0676 41.7967 24.1799 41.5193C24.3179 41.2239 24.8752 40.8949 25.4519 40.771C25.977 40.6678 26.5266 40.5646 27.0503 40.4782C27.6528 40.384 28.094 40.5375 28.0037 40.8291C27.9147 41.1116 27.8553 41.3993 27.7792 41.7064C27.6928 42.0611 27.0839 42.4365 26.4208 42.5346C25.8518 42.621 25.2584 42.7268 24.6856 42.8326C24.0844 42.9487 23.6948 42.7513 23.8187 42.4004V42.4017ZM19.3846 43.6479C19.5227 43.3693 19.6904 43.0829 19.8426 42.8158C19.9948 42.5436 20.5109 42.1837 20.9572 42.0302C21.401 41.8792 21.8216 41.7476 22.2667 41.6122C22.7646 41.4677 23.0756 41.5683 22.9401 41.8457C22.8046 42.1153 22.6756 42.394 22.5557 42.6804C22.4305 43.0055 21.8603 43.4093 21.3481 43.5447C20.8643 43.6866 20.4025 43.8247 19.9419 43.973C19.453 44.1343 19.1976 43.9911 19.3846 43.6479ZM15.762 45.2077C15.9298 44.9367 16.1026 44.6697 16.2613 44.4246C16.4406 44.1588 16.8702 43.7989 17.2237 43.617C17.5308 43.4699 17.8636 43.3112 18.221 43.1422C18.5835 42.9861 18.7667 43.0597 18.6106 43.3177C18.4545 43.5718 18.3048 43.8311 18.1603 44.0943C17.9887 44.4052 17.5166 44.8039 17.1282 44.9638C16.7696 45.1225 16.4148 45.2902 16.082 45.4463C15.7246 45.6205 15.5866 45.5083 15.762 45.2077ZM13.0193 46.8912C13.1754 46.65 13.3367 46.4113 13.5005 46.1752C13.6863 45.9185 14.0294 45.5753 14.2655 45.4089C14.5016 45.2438 14.7403 45.0825 14.9815 44.9251C15.2499 44.7574 15.3376 44.8129 15.175 45.0541C15.0125 45.2928 14.8538 45.5341 14.7016 45.7792C14.5184 46.0707 14.1456 46.4461 13.8733 46.61C13.6295 46.7635 13.3883 46.9222 13.1496 47.086C12.9096 47.2499 12.8529 47.1622 13.0206 46.8938L13.0193 46.8912ZM11.0687 48.5787C11.2119 48.3619 11.359 48.1478 11.5086 47.9349C11.6608 47.7233 11.9189 47.4137 12.0814 47.2486C12.2453 47.0847 12.3923 46.9467 12.5613 46.7893C12.7342 46.6358 12.751 46.6887 12.6013 46.9016C12.453 47.1144 12.3072 47.3299 12.1472 47.5685C11.9937 47.8111 11.7008 48.162 11.5254 48.3155C11.3732 48.451 11.2067 48.6122 11.0597 48.7528C10.9139 48.8947 10.9139 48.8238 11.07 48.5812L11.0687 48.5787ZM25.7538 44.1614C25.6532 44.6052 25.568 45.0619 25.4764 45.5379C25.3577 46.0914 25.8957 46.4758 26.671 46.3829C27.3741 46.3107 28.0889 46.2436 28.7971 46.1881C29.5995 46.1314 30.2885 45.6218 30.3362 45.0683C30.3813 44.5845 30.4136 44.1214 30.4742 43.6712C30.5155 43.2029 29.9427 42.8778 29.2151 42.9358C28.5546 42.9977 27.8902 43.07 27.2232 43.1525C26.5278 43.2429 25.8557 43.697 25.7538 44.1614ZM20.6115 45.2386C20.4709 45.6489 20.3238 46.0785 20.1909 46.5158C20.0335 47.0228 20.4244 47.3183 21.0359 47.1867C21.6126 47.0667 22.2048 46.948 22.7917 46.8448C23.4613 46.73 24.1257 46.1972 24.2225 45.6914C24.3321 45.2386 24.4353 44.8052 24.5321 44.3923C24.6495 43.9498 24.225 43.6983 23.5864 43.8273C23.0188 43.9485 22.4718 44.0711 21.9442 44.1924C21.3443 44.3498 20.7508 44.8155 20.6102 45.2399L20.6115 45.2386ZM16.3335 46.6835C16.1787 47.0525 16.0162 47.4434 15.8627 47.8369C15.6975 48.2819 15.922 48.5322 16.3916 48.3619C16.8148 48.2252 17.2585 48.0846 17.7217 47.9375C18.2364 47.7878 18.7834 47.2795 18.937 46.8138C19.0802 46.401 19.2169 46.0075 19.3433 45.6334C19.511 45.218 19.2221 45.0296 18.7344 45.1883C18.2984 45.3393 17.8623 45.4992 17.4508 45.654C17.0108 45.8243 16.5077 46.2875 16.3335 46.6822V46.6835ZM13.0399 48.3129C12.8838 48.6445 12.7329 48.9799 12.5729 49.3372C12.4117 49.7243 12.5149 49.9358 12.8322 49.7733C13.1432 49.6095 13.4412 49.474 13.7598 49.3269C14.1288 49.1579 14.5687 48.678 14.7338 48.2652C14.8822 47.9027 15.0215 47.5608 15.1867 47.2034C15.3505 46.8396 15.197 46.6835 14.8396 46.8603C14.5326 47.0151 14.2281 47.1751 13.9262 47.3441C13.6218 47.5118 13.2141 47.9594 13.0387 48.3155L13.0399 48.3129ZM10.6713 49.9784C10.5333 50.2609 10.3849 50.568 10.2405 50.8776C10.0895 51.2156 10.1153 51.3936 10.3256 51.2285C10.5191 51.0866 10.7165 50.9486 10.9177 50.8157C11.1474 50.6699 11.4815 50.2313 11.6389 49.8713C11.7757 49.5617 11.9356 49.2315 12.0827 48.9257C12.2478 48.5954 12.182 48.4729 11.9447 48.6419C11.7331 48.798 11.5434 48.936 11.3383 49.1012C11.1332 49.2663 10.8403 49.6494 10.6701 49.9797L10.6713 49.9784ZM9.09227 51.582C8.96326 51.84 8.83683 52.0993 8.71427 52.3599C8.58269 52.6476 8.55946 52.7973 8.67557 52.6644C8.79297 52.5315 8.89876 52.427 9.02261 52.2993C9.16839 52.1522 9.39544 51.7897 9.53735 51.4788C9.67152 51.195 9.80956 50.9112 9.93728 50.6544C10.0805 50.3732 10.0934 50.2442 9.9347 50.4158C9.81343 50.5422 9.69603 50.6725 9.57993 50.8041C9.45092 50.9615 9.23676 51.3033 9.09098 51.5846L9.09227 51.582ZM16.6238 51.6929C16.7425 51.173 16.8586 50.6699 16.9902 50.1655C17.1192 49.6456 17.6662 49.096 18.2029 48.9489C18.6905 48.8315 19.2117 48.6974 19.7329 48.5774C20.3019 48.4639 20.7031 48.7954 20.5741 49.3592C20.476 49.8713 20.3806 50.3977 20.2709 50.9499C20.1754 51.5523 19.582 52.1458 18.964 52.2606C18.4235 52.3586 17.8971 52.458 17.3837 52.5586C16.8328 52.6747 16.4845 52.2941 16.6238 51.6917V51.6929ZM12.6555 52.845C12.7806 52.3896 12.9019 51.9561 13.0309 51.5227C13.187 51.0402 13.6024 50.5499 13.9843 50.3925C14.3404 50.2545 14.7003 50.1255 15.0796 49.9862C15.5105 49.8352 15.7543 50.11 15.6046 50.6144C15.4834 51.0698 15.3595 51.5433 15.2447 52.0168C15.117 52.556 14.6603 53.0875 14.2165 53.2178C13.8269 53.3365 13.4566 53.4462 13.1032 53.5455C12.711 53.6861 12.5097 53.3701 12.6542 52.8437L12.6555 52.845ZM9.8302 54.0861C9.95018 53.6939 10.0753 53.3017 10.194 52.934C10.3385 52.5173 10.6507 52.0684 10.8945 51.929C11.1319 51.7897 11.3603 51.6775 11.6221 51.5278C11.9008 51.3911 12.0195 51.6259 11.8892 52.04C11.7576 52.4489 11.6325 52.8592 11.5151 53.2694C11.3886 53.73 11.0545 54.1957 10.7604 54.3376C10.5114 54.4486 10.2792 54.5402 10.0431 54.6627C9.79795 54.784 9.7128 54.5079 9.83149 54.0874L9.8302 54.0861ZM7.99182 55.2871C8.09374 54.9633 8.19824 54.6408 8.3079 54.3183C8.43045 53.97 8.65235 53.5752 8.79555 53.4565C8.93617 53.3378 9.07937 53.2217 9.24063 53.0837C9.4006 52.9779 9.44576 53.1585 9.31675 53.5275C9.20064 53.8706 9.09098 54.2164 8.9839 54.5608C8.87554 54.9337 8.64074 55.3426 8.47303 55.4523C8.31951 55.5697 8.18018 55.6638 8.04601 55.7606C7.90926 55.8574 7.88733 55.638 7.99182 55.2859V55.2871ZM6.91718 56.4018C7.0049 56.127 7.09392 55.8535 7.18681 55.5813C7.29259 55.282 7.43321 54.9672 7.51578 54.8446C7.58674 54.7492 7.66156 54.6563 7.73768 54.5647C7.83314 54.4499 7.82411 54.6021 7.70929 54.9259C7.6177 55.1968 7.51965 55.4948 7.43451 55.7683C7.33388 56.096 7.17262 56.4611 7.08618 56.5514C7.01652 56.6185 6.94169 56.7127 6.87848 56.7824C6.80623 56.8791 6.82558 56.7037 6.91847 56.4018H6.91718ZM13.7237 55.9348C13.6386 56.4934 13.5444 57.0894 13.4618 57.6815C13.3792 58.3356 13.7043 58.822 14.1997 58.7485C14.668 58.6749 15.1454 58.6143 15.6395 58.5498C16.1994 58.4814 16.7257 57.8518 16.807 57.1423C16.878 56.5192 16.9541 55.9064 17.0431 55.2846C17.1386 54.6253 16.7644 54.1751 16.211 54.2886C15.7272 54.3867 15.2602 54.4834 14.7983 54.5944C14.3146 54.7053 13.8372 55.3013 13.725 55.9322L13.7237 55.9348ZM10.2933 56.9101C10.1966 57.4158 10.1076 57.9202 10.0263 58.4234C9.94373 58.9755 10.1295 59.3909 10.4559 59.3019C10.7604 59.2361 11.0751 59.1768 11.408 59.1006C11.7873 59.0194 12.1704 58.4608 12.2491 57.8738C12.3304 57.3306 12.4207 56.7862 12.511 56.2599C12.6078 55.7051 12.3833 55.331 12.0066 55.4458C11.6841 55.5387 11.368 55.6393 11.0609 55.749C10.741 55.8574 10.3991 56.3773 10.2933 56.9101ZM7.99311 57.9047C7.90668 58.3343 7.83314 58.7368 7.75703 59.1664C7.67704 59.6502 7.76864 59.9766 7.95699 59.9095C8.13889 59.8425 8.32854 59.7779 8.52721 59.7173C8.75685 59.6386 9.01229 59.1677 9.09485 58.6517C9.1671 58.2118 9.25353 57.7461 9.33739 57.3048C9.43027 56.8365 9.3232 56.5153 9.09098 56.6263C8.88973 56.723 8.69492 56.8236 8.5156 56.9036C8.3208 57.0081 8.09116 57.4493 7.9944 57.9047H7.99311ZM6.6024 58.8413C6.53531 59.1755 6.46565 59.5367 6.4063 59.8721C6.34051 60.263 6.3676 60.5275 6.46178 60.4888C6.55853 60.4217 6.66174 60.3572 6.76237 60.3211C6.88493 60.2604 7.04877 59.8425 7.11714 59.4322C7.17907 59.0761 7.2526 58.6943 7.33001 58.3111C7.40999 57.9292 7.37903 57.657 7.24744 57.7628C7.13649 57.8467 7.03845 57.906 6.93782 57.9937C6.83461 58.0815 6.68754 58.453 6.60369 58.8413H6.6024ZM5.90059 59.6747C5.84382 59.9573 5.78964 60.2411 5.73804 60.5249C5.68514 60.8371 5.66837 61.0693 5.70707 61.0164C5.74578 60.9648 5.78835 60.9132 5.8335 60.8629C5.8864 60.8139 5.97412 60.5107 6.03089 60.1714C6.08765 59.8618 6.1457 59.5522 6.20892 59.2426C6.27987 58.9058 6.2889 58.7007 6.23214 58.7755C6.18183 58.8517 6.14054 58.9007 6.09668 58.9781C6.05282 59.0568 5.96767 59.3625 5.90188 59.6722L5.90059 59.6747ZM11.0609 63.7888C11.0868 63.2109 11.1151 62.6536 11.15 62.0962C11.1977 61.4667 11.5486 60.9235 11.9408 60.8707C12.311 60.8178 12.6929 60.7713 13.0916 60.7107C13.5392 60.6681 13.8785 61.1622 13.8334 61.8292C13.7998 62.4304 13.7727 63.029 13.7482 63.6443C13.7289 64.3191 13.3367 64.8712 12.8838 64.8919C12.4865 64.8944 12.1033 64.8983 11.7318 64.9048C11.3383 64.9331 11.0403 64.412 11.0597 63.7888H11.0609ZM8.23178 63.9449C8.25371 63.4792 8.2808 63.0122 8.31693 62.5194C8.3595 62.0008 8.58785 61.5389 8.82651 61.5015C9.05357 61.4641 9.29482 61.4047 9.54122 61.3725C9.8302 61.3003 10.0289 61.735 9.98888 62.2717C9.95534 62.7826 9.92567 63.2934 9.90245 63.803C9.88181 64.3849 9.62766 64.8596 9.34255 64.8712C9.09485 64.8609 8.85747 64.8764 8.62784 64.8919C8.38788 64.9086 8.20985 64.4868 8.23178 63.9424V63.9449ZM6.48242 64.1165C6.50177 63.7295 6.52628 63.3438 6.55466 62.9567C6.59208 62.5155 6.72625 62.1427 6.85783 62.1053C6.98426 62.0679 7.12101 62.0046 7.25905 61.9698C7.41773 61.9388 7.52094 62.2794 7.48353 62.7335C7.45257 63.1606 7.42934 63.5618 7.40741 63.9888C7.38806 64.47 7.2397 64.8648 7.08102 64.8583C6.94298 64.8803 6.81139 64.8751 6.68625 64.8983C6.55595 64.8932 6.46565 64.5577 6.48371 64.1165H6.48242ZM5.54452 64.2855C5.56129 63.972 5.58064 63.6585 5.60645 63.3167C5.63483 62.9748 5.70578 62.6665 5.76771 62.6161C5.82447 62.5942 5.8864 62.5723 5.95477 62.5233C6.03089 62.5039 6.07088 62.7645 6.03863 63.1567C6.01412 63.4934 5.99347 63.8314 5.97541 64.1681C5.95864 64.5616 5.88253 64.8686 5.80641 64.8944C5.74191 64.8919 5.68127 64.8906 5.62322 64.9164C5.56516 64.9151 5.53033 64.6274 5.54581 64.2855H5.54452ZM5.20523 64.4403C5.21942 64.181 5.23619 63.9204 5.25425 63.6611C5.27747 63.3734 5.30586 63.1141 5.31747 63.087C5.33166 63.0599 5.34714 63.0316 5.3652 63.0045C5.38842 62.9774 5.38713 63.2096 5.36133 63.5257C5.34327 63.7837 5.32521 64.0714 5.30973 64.3591C5.29682 64.6467 5.26715 64.9048 5.24522 64.9048C5.22716 64.9331 5.21297 64.9331 5.20007 64.9319C5.18846 64.9602 5.19104 64.7293 5.20394 64.4403H5.20523ZM12.9638 68.2022C12.9896 68.8421 13.0232 69.4833 13.0606 70.1064C13.1109 70.7992 13.5508 71.4159 14.0488 71.4752C14.5119 71.5152 14.9996 71.5823 15.4911 71.6184C16.0575 71.6816 16.4884 71.1191 16.4471 70.3928C16.411 69.7129 16.3826 69.0395 16.3581 68.3532C16.3387 67.6011 15.8498 66.9702 15.2821 66.965C14.7816 66.9547 14.2952 66.9418 13.8256 66.9457C13.3251 66.9302 12.9419 67.5004 12.9638 68.2009V68.2022ZM9.49994 68.0332C9.52574 68.5764 9.55928 69.1195 9.59412 69.6394C9.64314 70.2341 9.94115 70.7553 10.265 70.8147C10.572 70.874 10.8868 70.9037 11.2209 70.9759C11.5989 71.034 11.8724 70.5528 11.8247 69.9155C11.7899 69.3491 11.7563 68.7621 11.7331 68.1997C11.7099 67.5482 11.3757 67.0037 10.9977 66.9986C10.6662 66.9908 10.3475 66.9818 10.0418 66.9715C9.71925 66.9612 9.47801 67.4411 9.49994 68.0319V68.0332ZM7.24357 67.8513C7.26808 68.308 7.29518 68.7376 7.33001 69.1956C7.37129 69.6794 7.55706 70.1142 7.74542 70.1645C7.92732 70.2161 8.11567 70.2638 8.31306 70.3102C8.53882 70.3502 8.69621 69.9839 8.64977 69.4459C8.61494 68.9595 8.58398 68.4732 8.56204 68.0126C8.54011 67.4759 8.3337 67.0244 8.10664 67.0076C7.90926 66.9896 7.7222 66.9715 7.54287 66.9779C7.35452 66.9586 7.22035 67.3405 7.24228 67.8513H7.24357ZM5.93155 67.6643C5.9509 68.0307 5.97799 68.4241 6.00508 68.7892C6.03863 69.1827 6.14441 69.5388 6.24117 69.5826C6.33535 69.6265 6.43468 69.6691 6.53789 69.7116C6.65787 69.7503 6.72754 69.4343 6.69012 68.9956C6.65916 68.5841 6.63465 68.1984 6.61272 67.8139C6.59337 67.374 6.47855 66.9934 6.35857 66.9702C6.25665 66.9741 6.1599 66.9496 6.0683 66.9534C5.97283 66.9289 5.9122 67.2695 5.92897 67.6643H5.93155ZM5.31231 67.5017C5.33037 67.8178 5.34843 68.1055 5.37294 68.4216C5.40003 68.7376 5.45293 69.0498 5.48776 69.0756C5.52259 69.1001 5.56129 69.1247 5.60258 69.1492C5.65547 69.2008 5.67224 68.9402 5.64386 68.5983C5.61806 68.2564 5.59742 67.9429 5.57935 67.6294C5.56258 67.2592 5.5084 66.9754 5.45938 66.9483C5.41809 66.9496 5.38068 66.9225 5.34585 66.9238C5.31231 66.9238 5.29682 67.1844 5.31231 67.5017ZM11.8724 75.4835C11.7821 74.9726 11.6905 74.4398 11.6079 73.9109C11.5267 73.3355 11.7705 72.9098 12.1588 72.9807C12.5278 73.0517 12.9071 73.1149 13.2954 73.1678C13.7495 73.2607 14.1868 73.8309 14.2642 74.4502C14.3404 75.0088 14.4268 75.5725 14.5132 76.1195C14.6164 76.7181 14.3313 77.1103 13.8862 76.9929C13.4954 76.8884 13.1225 76.793 12.7561 76.6872C12.373 76.5827 11.9795 76.0447 11.8724 75.4835ZM9.02648 74.4669C8.93875 74.0231 8.85618 73.578 8.78007 73.1343C8.70008 72.6389 8.83296 72.3073 9.07421 72.3783C9.30514 72.4505 9.53864 72.4944 9.79279 72.5821C10.0714 72.635 10.3785 73.1407 10.4559 73.6619C10.5333 74.1354 10.6159 74.6101 10.7062 75.0849C10.8042 75.588 10.6455 75.9028 10.3617 75.7996C10.114 75.7067 9.87278 75.6086 9.63927 75.5042C9.39673 75.4009 9.12323 74.9378 9.02648 74.4656V74.4669ZM7.2139 73.4942C7.14165 73.1381 7.06683 72.7537 7.00361 72.3976C6.93266 71.9861 6.98168 71.6906 7.12101 71.7745C7.24873 71.8313 7.3829 71.8854 7.52223 71.9383C7.68607 72.0119 7.8783 72.4105 7.95441 72.8646C8.02666 73.2658 8.09503 73.64 8.17631 74.0412C8.26661 74.4682 8.19824 74.7224 8.03311 74.6333C7.88475 74.5379 7.75187 74.4656 7.62286 74.3908C7.48095 74.2902 7.30421 73.9057 7.21519 73.4955L7.2139 73.4942ZM6.19602 72.6208C6.1328 72.3125 6.07217 72.0028 6.01541 71.6919C5.95735 71.3526 5.95864 71.1191 6.02573 71.194C6.08636 71.2404 6.14957 71.2868 6.21666 71.3307C6.29923 71.4017 6.41275 71.7242 6.47597 72.0867C6.53789 72.4208 6.59595 72.7266 6.66432 73.0594C6.74302 73.4194 6.73141 73.6297 6.64239 73.5355C6.57014 73.4671 6.50306 73.3961 6.43726 73.3252C6.37147 73.2542 6.26181 72.9266 6.19602 72.6182V72.6208ZM14.5145 79.6415C14.6422 80.1407 14.7661 80.6207 14.9028 81.1019C15.0525 81.6127 15.5543 82.1572 16.0317 82.3223C16.4626 82.4526 16.9115 82.588 17.3798 82.7287C17.8997 82.8706 18.2274 82.5597 18.0868 82.0152C17.9591 81.5069 17.8481 80.9974 17.7359 80.4749C17.6172 79.8866 17.056 79.2841 16.5206 79.1732C16.0407 79.0609 15.5776 78.95 15.1196 78.8248C14.641 78.701 14.3752 79.0751 14.5145 79.6428V79.6415ZM11.1306 78.4185C11.2596 78.8558 11.3977 79.2931 11.528 79.706C11.6725 80.1459 12.0621 80.6516 12.3717 80.7935C12.6736 80.9354 12.9793 81.0696 13.3057 81.2167C13.6669 81.3637 13.8617 81.1212 13.7095 80.6387C13.5844 80.2052 13.4541 79.7511 13.3328 79.297C13.1948 78.7732 12.7793 78.2482 12.4078 78.1192C12.075 77.9902 11.7615 77.874 11.466 77.7708C11.1358 77.6238 10.9952 77.9295 11.1319 78.4185H11.1306ZM8.82909 77.189C8.94649 77.5618 9.06776 77.9334 9.18387 78.2791C9.32449 78.6752 9.59412 79.0996 9.79537 79.2428C9.99275 79.386 10.1811 79.5009 10.3875 79.6363C10.6236 79.7834 10.7075 79.5757 10.563 79.1603C10.4327 78.7707 10.3204 78.403 10.2017 78.0121C10.0727 77.5696 9.76828 77.0923 9.53219 76.9645C9.33868 76.8742 9.14 76.7543 8.9581 76.6549C8.75943 76.5311 8.70008 76.7659 8.82909 77.1916V77.189ZM7.39451 76.0189C7.48998 76.3182 7.59835 76.6446 7.70026 76.9426C7.81508 77.2664 8.00989 77.6496 8.11567 77.7579C8.22146 77.8663 8.34273 77.9979 8.45626 78.1011C8.59043 78.225 8.60978 78.0598 8.48593 77.7128C8.37627 77.3916 8.25887 77.0432 8.15696 76.7207C8.04085 76.344 7.84733 75.9673 7.71832 75.8667C7.60093 75.7596 7.48869 75.6512 7.38935 75.5661C7.27969 75.4551 7.28356 75.6654 7.39322 76.0202L7.39451 76.0189ZM6.63465 74.9494C6.71463 75.1971 6.80623 75.4706 6.89009 75.717C6.98684 75.9892 7.11327 76.3117 7.16488 76.4162C7.20745 76.4924 7.26292 76.5943 7.32227 76.6949C7.38548 76.793 7.35839 76.6498 7.2526 76.3505C7.15843 76.0782 7.06812 75.8047 6.98039 75.5312C6.88751 75.2294 6.75979 74.9081 6.69528 74.8075C6.64497 74.7327 6.59853 74.6566 6.55466 74.5804C6.50306 74.4759 6.54176 74.645 6.63594 74.9481L6.63465 74.9494ZM23.0975 87.2195C22.9878 86.8118 22.8704 86.3848 22.7479 85.9384C22.6189 85.4314 23.0652 85.1063 23.7348 85.216C24.3695 85.3192 24.9978 85.4082 25.639 85.4946C26.3601 85.5836 27.0129 86.0842 27.089 86.5951C27.1497 87.0401 27.2438 87.4801 27.3071 87.8929C27.3922 88.3328 26.9123 88.6089 26.2402 88.5134C25.6364 88.4192 25.0533 88.3238 24.4676 88.218C23.8522 88.1032 23.2291 87.6529 23.0988 87.2182L23.0975 87.2195ZM18.3771 85.941C18.2261 85.5604 18.0855 85.176 17.9371 84.7709C17.7785 84.3129 18.0713 84.0549 18.586 84.1968C19.0685 84.3258 19.5691 84.4561 20.0877 84.589C20.6541 84.718 21.2372 85.2185 21.3739 85.692C21.4823 86.0971 21.6023 86.4957 21.7352 86.8866C21.8667 87.2943 21.5197 87.4994 20.9882 87.3627C20.507 87.2298 20.0258 87.0866 19.5652 86.9473C19.0556 86.7795 18.5254 86.3306 18.3758 85.9397L18.3771 85.941ZM14.5997 84.3877C14.4307 84.0329 14.2862 83.6949 14.1327 83.3337C13.9624 82.9235 14.1262 82.7158 14.4978 82.8757C14.8448 83.0176 15.2125 83.1699 15.5827 83.3118C16.0046 83.4679 16.4858 83.9491 16.6238 84.3529C16.7657 84.7231 16.918 85.0908 17.0586 85.4379C17.2186 85.8107 17.0108 85.9732 16.6199 85.821C16.26 85.6675 15.9014 85.5062 15.5659 85.354C15.206 85.185 14.7674 84.7464 14.5984 84.3864L14.5997 84.3877ZM11.7834 82.7209C11.6325 82.4152 11.4867 82.1081 11.3306 81.7779C11.1848 81.4412 11.248 81.2644 11.4996 81.4257C11.7305 81.565 11.9666 81.6979 12.2207 81.8488C12.4904 81.9856 12.8697 82.4397 13.0206 82.8009C13.169 83.1337 13.3057 83.4434 13.467 83.7711C13.6269 84.1026 13.5237 84.2316 13.2489 84.0704C13.0012 83.9181 12.7574 83.7607 12.5355 83.6201C12.2749 83.4356 11.9511 83.0499 11.7834 82.7209ZM9.8302 81.0825C9.687 80.8013 9.56186 80.5432 9.4264 80.2594C9.2832 79.9472 9.29095 79.8118 9.44318 79.9537C9.57993 80.0711 9.73474 80.2104 9.89213 80.3459C10.0598 80.4749 10.332 80.8671 10.4714 81.178C10.603 81.4618 10.7397 81.743 10.8803 82.023C11.0377 82.3274 11.0003 82.4229 10.8223 82.2707C10.6675 82.1352 10.5165 81.9972 10.3682 81.8566C10.2198 81.7147 9.97469 81.3625 9.8302 81.0812V81.0825ZM8.58398 79.5125C8.46658 79.2802 8.35176 79.0467 8.23952 78.8132C8.11825 78.5513 8.086 78.4391 8.16599 78.5591C8.24855 78.6791 8.3208 78.772 8.40852 78.8894C8.50141 79.0029 8.68589 79.328 8.81877 79.6157C8.92972 79.8492 9.05744 80.1085 9.17355 80.3394C9.30643 80.5949 9.32449 80.6852 9.2187 80.5458C9.13226 80.4297 9.04841 80.311 8.96713 80.1911C8.88715 80.0698 8.71685 79.7679 8.58398 79.5125ZM26.3408 89.9196C26.4504 90.246 26.5433 90.5518 26.644 90.8446C26.7459 91.1465 27.3419 91.4652 27.9715 91.558C28.5739 91.6406 29.1506 91.7077 29.7518 91.7722C30.4059 91.8315 30.9038 91.6393 30.8638 91.3387C30.8238 91.0485 30.7619 90.7401 30.7297 90.4189C30.6819 90.0448 30.0511 89.681 29.3261 89.6203C28.6707 89.5558 28.0372 89.4862 27.4025 89.4075C26.6917 89.3068 26.2247 89.5442 26.3395 89.9196H26.3408ZM21.5365 88.8798C21.6732 89.1804 21.8177 89.4733 21.948 89.7455C22.1015 90.037 22.6756 90.3995 23.202 90.544C23.7013 90.6756 24.2005 90.7995 24.7011 90.9156C25.279 91.0433 25.6338 90.9065 25.5371 90.6227C25.4158 90.3402 25.3255 90.0551 25.2197 89.7506C25.1075 89.401 24.4869 88.9959 23.8832 88.8759C23.3297 88.7534 22.7982 88.6321 22.2667 88.5005C21.7055 88.3573 21.3739 88.5276 21.5365 88.8811V88.8798ZM17.5011 87.4581C17.6636 87.7407 17.8326 88.0167 17.9862 88.2735C18.1629 88.5496 18.648 88.9185 19.0621 89.0953C19.4504 89.2552 19.8658 89.4217 20.258 89.5674C20.7031 89.7261 20.965 89.6461 20.8102 89.37C20.6554 89.1004 20.507 88.8243 20.3677 88.5405C20.2 88.2077 19.68 87.8052 19.1924 87.6362C18.7783 87.4917 18.3654 87.3394 17.9539 87.1782C17.5166 87.0002 17.314 87.1279 17.5037 87.4581H17.5011ZM14.321 85.812C14.4926 86.0777 14.6693 86.3409 14.8306 86.5809C15.0138 86.8415 15.4111 87.204 15.7285 87.3988C16.002 87.5562 16.3 87.7265 16.6006 87.8916C16.9296 88.0632 17.0779 88.0077 16.8973 87.742C16.7386 87.4955 16.5864 87.2453 16.4174 86.9743C16.242 86.6725 15.7969 86.2674 15.4434 86.0855C15.1402 85.9268 14.8383 85.763 14.5416 85.5914C14.241 85.4198 14.1417 85.5191 14.3223 85.8133L14.321 85.812ZM11.9847 84.1103C12.1446 84.3503 12.3072 84.5877 12.4749 84.8225C12.6439 85.056 12.9548 85.3953 13.1548 85.563C13.3547 85.7281 13.5586 85.8907 13.765 86.0494C13.9972 86.2222 14.0488 86.168 13.8824 85.932C13.7172 85.6959 13.556 85.4572 13.3986 85.216C13.2309 84.9476 12.8877 84.5735 12.6529 84.4032C12.4439 84.2458 12.2388 84.0845 12.0543 83.9426C11.8337 83.7543 11.8144 83.8446 11.9847 84.1103ZM10.3811 82.441C10.5269 82.6564 10.6572 82.8473 10.8081 83.0589C10.9616 83.2692 11.208 83.5904 11.3344 83.7478C11.4647 83.9026 11.5783 84.0329 11.7137 84.1839C11.8711 84.3542 11.8711 84.3155 11.7008 84.0833C11.5512 83.8717 11.4028 83.6575 11.2596 83.4408C11.1022 83.1983 10.8403 82.8564 10.6997 82.7093C10.5643 82.5584 10.4469 82.4294 10.3179 82.2733C10.2056 82.1404 10.2224 82.1984 10.3811 82.441ZM29.7247 93.1165C29.6692 92.9449 29.5892 92.7565 29.5389 92.5617C29.4692 92.3295 29.9272 92.1812 30.5632 92.2379C31.1464 92.2818 31.7553 92.3192 32.3384 92.3463C33.0002 92.3682 33.5524 92.5785 33.5485 92.8068C33.5446 93.0017 33.5692 93.1848 33.5653 93.3551C33.5898 93.5293 33.088 93.6519 32.5048 93.6325C31.9772 93.6067 31.4224 93.5719 30.8961 93.5306C30.3143 93.4764 29.7802 93.2906 29.7234 93.1152L29.7247 93.1165ZM25.2752 92.3218C25.1578 92.1489 25.0442 91.9683 24.9359 91.7786C24.812 91.5567 25.1603 91.4677 25.719 91.5877C26.2247 91.6883 26.7304 91.7812 27.2619 91.8741C27.8476 91.967 28.3946 92.225 28.4862 92.4456C28.5584 92.6327 28.6346 92.8081 28.6862 92.9694C28.7662 93.1397 28.3843 93.2042 27.8592 93.1191C27.3909 93.0365 26.8955 92.941 26.4285 92.8456C25.9073 92.7294 25.3939 92.4959 25.2752 92.3218ZM21.3262 91.0923C21.1895 90.9259 21.0321 90.7414 20.8798 90.5518C20.7134 90.3325 20.9572 90.2899 21.4049 90.4486C21.8022 90.5802 22.2254 90.7169 22.6743 90.8588C23.1517 90.9981 23.6548 91.2884 23.8032 91.5051C23.9115 91.6819 24.0238 91.8522 24.167 92.0251C24.2844 92.1902 24.0057 92.2121 23.5722 92.0831C23.1672 91.9554 22.7634 91.8212 22.3867 91.6935C21.9583 91.5387 21.49 91.2729 21.3262 91.0923ZM17.9862 89.5455C17.8249 89.3765 17.6675 89.2036 17.514 89.0256C17.3218 88.8063 17.4495 88.7753 17.803 88.9611C18.11 89.112 18.4416 89.2746 18.777 89.4307C19.1395 89.5919 19.6013 89.9106 19.7471 90.1054C19.9019 90.2873 20.0593 90.4653 20.1974 90.624C20.3612 90.7969 20.1961 90.802 19.831 90.6343C19.5201 90.4886 19.2105 90.3376 18.9034 90.1815C18.5731 90.0074 18.1719 89.73 17.9862 89.5455ZM15.3286 87.8245C15.166 87.6594 15.006 87.4917 14.8499 87.3214C14.6771 87.1266 14.7313 87.1098 14.9661 87.2775C15.2009 87.4439 15.4395 87.6065 15.6795 87.7652C15.9465 87.9355 16.3194 88.2464 16.4909 88.4425C16.647 88.6153 16.7838 88.7663 16.9463 88.9327C17.1102 89.0978 17.0379 89.0991 16.7709 88.9275C16.5309 88.7676 16.3168 88.6205 16.0807 88.4528C15.8472 88.2825 15.5156 88.0051 15.3286 87.8232V87.8245ZM27.9573 93.5809C28.0502 93.6906 28.1443 93.7912 28.214 93.8789C28.312 93.9705 28.7829 94.1047 29.2925 94.1847C29.7466 94.2479 30.2304 94.3098 30.6871 94.3601C31.2006 94.4091 31.6056 94.3833 31.5553 94.2995C31.5063 94.213 31.4857 94.1215 31.4379 94.0182C31.3928 93.8944 30.9 93.7486 30.3143 93.6919C29.8124 93.6364 29.3106 93.5745 28.7816 93.4996C28.2256 93.4132 27.8708 93.4545 27.9573 93.5822V93.5809ZM24.0547 92.643C24.167 92.7501 24.3102 92.8597 24.4289 92.9552C24.5759 93.0571 25.0313 93.2352 25.4738 93.3642C25.8622 93.47 26.2801 93.5783 26.671 93.6738C27.1471 93.7834 27.4399 93.7963 27.3432 93.7086C27.2477 93.6196 27.1535 93.5228 27.0619 93.4196C26.9484 93.2932 26.4724 93.1023 25.9757 92.99C25.5074 92.8752 25.0688 92.7617 24.6572 92.6507C24.1657 92.5075 23.9206 92.514 24.0547 92.6443V92.643ZM20.627 91.3297C20.7895 91.4523 20.9301 91.5568 21.0991 91.6703C21.2449 91.767 21.6823 91.9876 22.0267 92.1386C22.3454 92.2728 22.6937 92.4147 23.0433 92.5514C23.4213 92.692 23.6226 92.732 23.4768 92.6327C23.3581 92.5424 23.2162 92.4353 23.1027 92.3334C22.9414 92.1992 22.4834 91.967 22.0809 91.8174C21.7081 91.6716 21.3623 91.5322 21.0179 91.3877C20.6244 91.2136 20.4696 91.1981 20.627 91.3297ZM31.2792 94.671C31.6585 94.7072 32.0404 94.7368 32.4236 94.7575C32.5035 94.7613 32.5797 94.7665 32.7009 94.7717C32.8248 94.7768 32.9486 94.782 33.0725 94.7859C33.426 94.7949 33.6853 94.7962 33.6853 94.7859C33.6853 94.7678 33.6853 94.742 33.6569 94.7097C33.6569 94.6659 33.2273 94.6156 32.7396 94.5988C32.252 94.5743 31.7927 94.5459 31.3347 94.5098C30.8484 94.4646 30.4716 94.4633 30.5245 94.5098C30.5787 94.5446 30.6329 94.573 30.6884 94.5949C30.7155 94.6052 30.9683 94.6362 31.2792 94.6685V94.671ZM27.1884 93.9795C28.0089 94.1795 28.8436 94.3472 29.6899 94.4762C29.8292 94.493 29.9105 94.502 29.855 94.4891C29.7995 94.4685 29.7453 94.4414 29.6924 94.4079C29.6408 94.3653 29.1906 94.2634 28.7365 94.1898C28.3108 94.1137 27.916 94.0376 27.4915 93.9499C27.0413 93.8492 26.782 93.817 26.8878 93.8686C26.9678 93.906 27.0774 93.9434 27.16 93.9692C27.16 93.9692 27.1884 93.9757 27.1871 93.9808L27.1884 93.9795ZM21.721 92.0418C21.93 92.1412 22.1402 92.2366 22.3518 92.3308C22.1957 92.2547 21.9854 92.1592 21.7764 92.0625C21.7592 92.0539 21.7412 92.0474 21.7223 92.0431L21.721 92.0418ZM17.7101 89.7339C17.7268 89.7455 17.7436 89.7571 17.7604 89.7687L17.7965 89.7764C17.6365 89.6526 17.6972 89.6655 17.9913 89.8487C18.2635 90.0125 18.5383 90.1712 18.8144 90.3273C19.1189 90.4911 19.533 90.7517 19.6929 90.8782C19.831 90.984 19.9974 91.1001 20.1419 91.1981C20.3135 91.3065 20.1806 91.2471 19.8761 91.0807C19.742 91.005 19.6078 90.9293 19.4736 90.8537C19.066 90.615 18.6647 90.366 18.27 90.108C18.1109 89.9996 17.953 89.8887 17.7965 89.7751L17.7114 89.7339H17.7101ZM16.1142 88.5547C16.3929 88.7753 16.6754 88.9908 16.9618 89.2023C16.9618 89.2023 16.9541 89.1967 16.9386 89.1856C16.7773 89.063 16.4329 88.8011 16.2033 88.6257C16.1594 88.5921 16.1439 88.5792 16.1142 88.556V88.5547ZM5.74836 71.7177C5.77416 71.8403 5.80125 71.9629 5.82834 72.0841C5.86963 72.2531 5.89543 72.3654 5.91091 72.4208C5.92897 72.4763 5.94832 72.5305 5.97154 72.5847C5.99734 72.6376 5.97412 72.466 5.91349 72.1835C5.86188 71.9293 5.81157 71.6739 5.75997 71.3913C5.70965 71.1075 5.64644 70.8263 5.61935 70.7721C5.60129 70.7463 5.58193 70.6908 5.56903 70.6637C5.55355 70.6083 5.58452 70.8082 5.62967 71.0637C5.67181 71.2907 5.7118 71.5087 5.74965 71.7177H5.74836ZM5.1833 66.947C5.20394 67.5314 5.24135 68.1132 5.29682 68.6886C5.29811 68.6886 5.28263 68.4873 5.2607 68.228C5.24135 67.9687 5.22458 67.7094 5.2091 67.4501C5.19878 67.2243 5.18846 67.0347 5.18201 66.9483L5.1833 66.947ZM5.75997 60.0282C5.67611 60.432 5.60258 60.8384 5.53678 61.2487C5.55871 61.1351 5.5871 60.9648 5.61677 60.7958C5.65805 60.5688 5.70707 60.3133 5.75868 60.0579C5.75868 60.0579 5.76255 60.0295 5.75868 60.0282H5.75997ZM13.1702 45.9314C12.9187 46.1946 12.6736 46.4629 12.4323 46.7351C12.5897 46.5648 12.8374 46.2926 13.009 46.103C13.0993 46.0062 13.1212 45.983 13.1702 45.9301V45.9314ZM28.0631 37.6232C27.1613 37.8142 26.275 38.0451 25.4068 38.3173C25.3173 38.3526 25.2274 38.3882 25.1371 38.4244C25.0326 38.476 25.2597 38.4295 25.6751 38.3095C26.0647 38.2025 26.4556 38.1018 26.8749 37.9986C27.3238 37.8967 27.7689 37.7703 27.8463 37.7226C27.9263 37.6839 28.0076 37.6503 28.0914 37.6245C28.1198 37.6168 28.1185 37.6155 28.0618 37.6232H28.0631ZM31.0883 37.1498C30.46 37.2143 29.8382 37.2994 29.2228 37.4039C29.0551 37.4362 28.9145 37.462 28.8874 37.471C28.8049 37.4981 28.7223 37.5316 28.6423 37.5729C28.5636 37.6245 28.9119 37.6013 29.3944 37.5265C29.8498 37.462 30.3065 37.4052 30.7632 37.3549C31.2496 37.3084 31.7037 37.2297 31.7579 37.182C31.7837 37.1485 31.8108 37.1214 31.8379 37.1007C31.8946 37.084 31.5489 37.1085 31.0883 37.151V37.1498ZM38.9501 37.4104C38.3335 37.3046 37.7103 37.2194 37.0808 37.1536C36.6254 37.1111 36.2835 37.0865 36.3106 37.1007C36.3377 37.1214 36.3932 37.151 36.4203 37.1846C36.4448 37.2297 36.9002 37.3097 37.4149 37.36C37.8716 37.4116 38.3283 37.4697 38.7553 37.529C39.2662 37.6103 39.5861 37.6271 39.5074 37.5755C39.4275 37.5342 39.3449 37.5007 39.2907 37.4787C39.2339 37.4645 39.1204 37.4426 38.9501 37.4104ZM42.7417 38.3237C41.8735 38.0502 40.9872 37.8193 40.0854 37.6271C40.0557 37.6258 40.0274 37.6206 40.0557 37.6271C40.1383 37.6542 40.2209 37.6864 40.3009 37.7251C40.4066 37.7793 40.8504 37.9057 41.3007 38.009C41.6929 38.1044 42.0838 38.2063 42.4721 38.3134C42.9146 38.4424 43.1429 38.4902 43.01 38.4295C42.9206 38.3934 42.8312 38.3577 42.7417 38.3224V38.3237ZM55.0492 46.0256C55.0208 45.9959 54.9924 45.9649 54.964 45.9353C55.0014 45.9753 55.0234 45.9985 55.0492 46.0256ZM55.7329 46.7738C55.5226 46.5352 55.3098 46.3017 55.0917 46.0707L55.155 46.1391C55.3085 46.3094 55.5768 46.6035 55.7342 46.7751L55.7329 46.7738ZM51.1828 89.192C51.4679 88.9817 51.7491 88.7676 52.0252 88.5483L51.9413 88.6141C51.7117 88.7895 51.3905 89.0346 51.206 89.1752C51.206 89.1752 51.1982 89.1808 51.1828 89.192ZM48.671 90.8459C49.0889 90.6008 49.5005 90.3454 49.9043 90.0796C50.1159 89.9351 50.1172 89.9338 50.3494 89.7648L50.4345 89.7235C50.4177 89.7351 50.401 89.7468 50.3855 89.7584L50.3494 89.7661C50.5326 89.6255 50.4487 89.6552 50.1546 89.8384C49.8824 90.0022 49.6321 90.1454 49.3315 90.317C49.027 90.4821 48.6374 90.7272 48.4529 90.8691C48.3149 90.9749 48.173 91.0781 48.0298 91.1762C47.8595 91.2858 47.9653 91.2394 48.2697 91.073C48.4697 90.9594 48.471 90.9594 48.6697 90.8472L48.671 90.8459ZM45.7953 92.3244C46.0069 92.2302 46.2172 92.1334 46.4262 92.0341C46.4073 92.0392 46.3892 92.0461 46.372 92.0547C46.1888 92.1399 45.9785 92.2366 45.7953 92.3244ZM38.4896 94.4685C39.3255 94.3395 40.1486 94.1743 40.9601 93.9757C40.9872 93.9641 40.9872 93.9641 40.9872 93.9641C41.0981 93.9318 41.1794 93.9008 41.2878 93.857C41.3936 93.8041 41.1059 93.8454 40.6556 93.946C40.2609 94.0273 39.8364 94.1098 39.4404 94.1808C38.9579 94.2608 38.536 94.3575 38.456 94.4053C38.4031 94.4388 38.3489 94.4659 38.2935 94.4865C38.2664 94.4956 38.3219 94.4904 38.4909 94.4685H38.4896ZM35.0721 94.7859C35.1934 94.782 35.3147 94.7781 35.4346 94.7717C35.5546 94.7652 35.632 94.7613 35.7081 94.7575C36.1029 94.7355 36.4964 94.7046 36.8873 94.6672C37.2033 94.6336 37.433 94.6052 37.4897 94.591C37.5452 94.5691 37.571 94.5446 37.6252 94.5098C37.6781 94.4633 37.3298 94.462 36.8137 94.5098C36.3558 94.5459 35.8965 94.5756 35.4372 94.5988C34.9199 94.6168 34.4903 94.6672 34.4903 94.711C34.4903 94.7433 34.4903 94.7678 34.4619 94.7871C34.4619 94.7975 34.7186 94.7962 35.0695 94.7871L35.0721 94.7859ZM35.6772 37.0594C35.6772 37.0788 35.703 37.1072 35.7301 37.1446C35.7559 37.1936 35.3521 37.222 34.8064 37.2052C34.3187 37.1975 33.8014 37.1975 33.3137 37.2052C32.768 37.222 32.3642 37.1949 32.39 37.1459C32.4171 37.1098 32.4442 37.0801 32.4713 37.0594C32.4984 37.0453 32.8867 37.0233 33.364 37.0078C33.4995 37.0053 33.6362 37.004 33.773 37.0027C33.9639 37.0027 34.1587 37.0027 34.3497 37.0027C34.4864 37.004 34.6245 37.0053 34.7612 37.0078C35.2372 37.0233 35.6488 37.0465 35.6759 37.0607L35.6772 37.0594ZM38.1141 37.9406C38.0432 37.8322 37.9993 37.738 37.9542 37.6503C37.8794 37.5613 37.4033 37.4503 36.8899 37.4026C36.4332 37.3665 35.9468 37.3355 35.4617 37.311C34.947 37.293 34.5161 37.3458 34.5148 37.4297C34.5419 37.5149 34.5406 37.609 34.538 37.7122C34.5638 37.8374 35.0373 37.9561 35.6243 37.9767C36.1545 38.0038 36.6576 38.0348 37.1879 38.0773C37.7736 38.1328 38.1799 38.0696 38.1129 37.9419L38.1141 37.9406Z" fill="white"/>
</mask>
<g mask="url(#mask0_482_20556)">
<path d="M57.2464 37H5.18347V94.7961H57.2464V37Z" fill="url(#paint0_linear_482_20556)"/>
</g>
<path d="M33.5679 62.3968C35.0361 63.0922 35.9559 64.4855 35.9559 66.1858C35.9559 68.7092 33.7782 70.6212 30.9026 70.6212H23.7233V55.0459H30.7581C33.5202 55.0459 35.5353 56.7308 35.5353 59.0323C35.5353 60.4243 34.7561 61.6757 33.5654 62.3968H33.5679ZM31.7128 65.6762C31.7128 64.8493 31.1052 64.2662 30.1763 64.2662H27.8451V67.0992H30.1763C31.1052 67.0992 31.7128 66.5174 31.7128 65.6762ZM31.4651 59.7431C31.4651 58.9342 30.9117 58.3872 30.0137 58.3872H27.8451V61.099H30.0137C30.9117 61.099 31.4651 60.552 31.4651 59.7431Z" fill="#000E31"/>
<path d="M44.9684 65.8556H43.4125V70.6212H39.1217V55.0459H45.8727C49.2309 55.0459 51.664 57.3023 51.664 60.5585C51.664 62.4704 50.7299 64.0365 49.1922 64.9577L52.2845 70.6225H47.4957L44.9684 65.8569V65.8556ZM43.4125 62.2407H45.3722C46.572 62.2407 47.2622 61.5183 47.2622 60.5443C47.2622 59.5702 46.572 58.8581 45.3722 58.8581H43.4125V62.2407Z" fill="#000E31"/>
<path d="M65.4704 56.8765H60.7306V70.6212H58.7787V56.8765H54.0389V55.0459H65.4704V56.8765Z" fill="#000E31"/>
<path d="M74.4793 64.5255H70.9329V70.6212H68.981V55.0459H74.8883C77.8026 55.0459 79.9609 57.0313 79.9609 59.8076C79.9609 61.9969 78.5754 63.7076 76.5267 64.301L80.2538 70.6225H78.0542L74.4793 64.5268V64.5255ZM70.9329 62.6755H74.7864C76.6931 62.6755 77.9677 61.4718 77.9677 59.787C77.9677 58.1021 76.6918 56.8972 74.7864 56.8972H70.9329V62.6755Z" fill="#000E31"/>
<path d="M93.3816 66.8915H85.8965L84.3742 70.6212H82.2985L88.6715 55.0459H90.4944L97.0455 70.6212H94.9285L93.3829 66.8915H93.3816ZM86.6241 65.1022H92.6463L89.6081 57.7344L86.6241 65.1022Z" fill="#000E31"/>
<path d="M105.659 55.0459C110.243 55.0459 113.559 58.3163 113.559 62.8316C113.559 67.3469 110.242 70.6212 105.659 70.6212H100.466V55.0459H105.659ZM111.566 62.8316C111.566 59.3858 109.092 56.8765 105.599 56.8765H102.419V68.7905H105.599C109.091 68.7905 111.566 66.2787 111.566 62.8316Z" fill="#000E31"/>
<path d="M126.752 68.7505V70.6212H117.688V55.0459H126.507V56.8972H119.64V61.7118H125.929V63.5218H119.64V68.7518H126.752V68.7505Z" fill="#000E31"/>
<path d="M26.2762 80.5352C24.8674 80.5352 23.8483 79.5135 23.8483 78.0931C23.8483 76.6727 24.8687 75.6497 26.2762 75.6497C27.3728 75.6497 28.2501 76.3024 28.521 77.3242H27.9146C27.6631 76.6392 27.0529 76.2302 26.2762 76.2302C25.2196 76.2302 24.4546 77.0017 24.4546 78.0918C24.4546 79.1819 25.2183 79.9521 26.2762 79.9521C27.0735 79.9521 27.6914 79.5161 27.9379 78.7897H28.5442C28.2733 79.8605 27.3934 80.5339 26.2762 80.5339V80.5352Z" fill="#000E31"/>
<path d="M31.131 78.0944C31.131 76.6947 32.176 75.6445 33.6105 75.6445C35.0451 75.6445 36.0901 76.6934 36.0901 78.0944C36.0901 79.4955 35.0451 80.543 33.6105 80.543C32.176 80.543 31.131 79.4942 31.131 78.0944ZM35.4825 78.0944C35.4825 77.0249 34.6865 76.2264 33.6092 76.2264C32.532 76.2264 31.736 77.0327 31.736 78.0944C31.736 79.1562 32.532 79.9612 33.6092 79.9612C34.6865 79.9612 35.4825 79.1626 35.4825 78.0944Z" fill="#000E31"/>
<path d="M43.9803 80.4618L43.3649 76.7618L41.7316 80.3418H41.573L39.9397 76.7669L39.3179 80.463H38.7115L39.5088 75.7258H40.0816L41.6465 79.2026L43.2178 75.7258H43.8035L44.5879 80.463H43.9816L43.9803 80.4618Z" fill="#000E31"/>
<path d="M50.325 79.8929V80.4618H47.5681V75.7246H50.2502V76.287H48.1616V77.7513H50.0748V78.3022H48.1616V79.8929H50.325ZM49.0607 75.193H48.6079L49.1007 74.2319H49.7148L49.0607 75.193Z" fill="#000E31"/>
<path d="M55.0131 78.608H53.9346V80.4618H53.3412V75.7246H55.1383C56.0246 75.7246 56.6812 76.3284 56.6812 77.1734C56.6812 77.8391 56.2594 78.359 55.6363 78.5396L56.7702 80.4618H56.1007L55.0131 78.608ZM53.9346 78.0455H55.1073C55.6879 78.0455 56.0749 77.6791 56.0749 77.1669C56.0749 76.6548 55.6866 76.2884 55.1073 76.2884H53.9346V78.0455Z" fill="#000E31"/>
<path d="M61.8352 80.5352C60.4264 80.5352 59.4072 79.5135 59.4072 78.0931C59.4072 76.6727 60.4277 75.6497 61.8352 75.6497C62.9318 75.6497 63.809 76.3024 64.0799 77.3242H63.4736C63.222 76.6392 62.6118 76.2302 61.8352 76.2302C60.7786 76.2302 60.0136 77.0017 60.0136 78.0918C60.0136 79.1819 60.7773 79.9521 61.8352 79.9521C62.6325 79.9521 63.2504 79.5161 63.4968 78.7897H64.1032C63.8322 79.8605 62.9524 80.5339 61.8352 80.5339V80.5352Z" fill="#000E31"/>
<path d="M67.0122 75.7246H67.6056V80.4618H67.0122V75.7246Z" fill="#000E31"/>
<path d="M70.6078 78.0944C70.6078 76.6947 71.6528 75.6445 73.0873 75.6445C74.5219 75.6445 75.5669 76.6934 75.5669 78.0944C75.5669 79.4955 74.5219 80.543 73.0873 80.543C71.6528 80.543 70.6078 79.4942 70.6078 78.0944ZM74.9606 78.0944C74.9606 77.0249 74.1646 76.2264 73.0873 76.2264C72.0101 76.2264 71.2141 77.0327 71.2141 78.0944C71.2141 79.1562 72.0101 79.9612 73.0873 79.9612C74.1646 79.9612 74.9606 79.1626 74.9606 78.0944Z" fill="#000E31"/>
<path d="M85.1317 79.8929V80.4618H82.3748V75.7246H85.0569V76.2871H82.9682V77.7513H84.8814V78.3022H82.9682V79.8929H85.1317Z" fill="#000E31"/>
<path d="M90.8426 80.4619L89.5345 78.4584L88.2353 80.4619H87.5593L89.1694 77.9798L87.6832 75.7234H88.3527L89.537 77.5308L90.711 75.7234H91.3806L89.9021 77.9991L91.5109 80.4606H90.8413L90.8426 80.4619Z" fill="#000E31"/>
<path d="M97.2119 76.2819H95.7709V80.4631H95.1774V76.2819H93.7351V75.7246H97.2119V76.2819Z" fill="#000E31"/>
<path d="M102.79 79.8929V80.4618H100.033V75.7246H102.716V76.2871H100.627V77.7513H102.54V78.3022H100.627V79.8929H102.79Z" fill="#000E31"/>
<path d="M107.478 78.608H106.4V80.4618H105.806V75.7246H107.603C108.49 75.7246 109.146 76.3284 109.146 77.1734C109.146 77.8391 108.725 78.359 108.101 78.5396L109.235 80.4618H108.566L107.478 78.608ZM106.4 78.0455H107.573C108.153 78.0455 108.54 77.6791 108.54 77.1669C108.54 76.6548 108.152 76.2884 107.573 76.2884H106.4V78.0455Z" fill="#000E31"/>
<path d="M112.195 75.7246H112.789V80.4618H112.195V75.7246Z" fill="#000E31"/>
<path d="M115.792 78.0944C115.792 76.6947 116.837 75.6445 118.271 75.6445C119.706 75.6445 120.751 76.6934 120.751 78.0944C120.751 79.4955 119.706 80.543 118.271 80.543C116.837 80.543 115.792 79.4942 115.792 78.0944ZM120.143 78.0944C120.143 77.0249 119.347 76.2264 118.27 76.2264C117.193 76.2264 116.397 77.0327 116.397 78.0944C116.397 79.1562 117.193 79.9612 118.27 79.9612C119.347 79.9612 120.143 79.1626 120.143 78.0944Z" fill="#000E31"/>
<path d="M125.428 78.608H124.349V80.4618H123.756V75.7246H125.553C126.439 75.7246 127.096 76.3284 127.096 77.1734C127.096 77.8391 126.674 78.359 126.051 78.5396L127.185 80.4618H126.515L125.428 78.608ZM124.348 78.0455H125.52C126.101 78.0455 126.488 77.6791 126.488 77.1669C126.488 76.6548 126.1 76.2884 125.52 76.2884H124.348V78.0455Z" fill="#000E31"/>
</g>
<defs>
<linearGradient id="paint0_linear_482_20556" x1="31.2614" y1="43.5859" x2="31.1478" y2="97.7529" gradientUnits="userSpaceOnUse">
<stop stop-color="#30B5F2"/>
<stop offset="1" stop-color="#1AD6A1"/>
</linearGradient>
<clipPath id="clip0_482_20556">
<rect width="122" height="57.7961" fill="white" transform="translate(5.18335 37)"/>
</clipPath>
</defs>
</svg>
