<svg width="134" height="133" viewBox="0 0 134 133" fill="none" xmlns="http://www.w3.org/2000/svg">
<g clip-path="url(#clip0_482_20432)">
<g clip-path="url(#clip1_482_20432)">
<path d="M15.7972 57.7053C15.4116 57.0944 14.9404 56.5821 14.3871 56.1668C13.8321 55.7532 13.2211 55.4384 12.5524 55.2224C11.8837 55.0063 11.1833 54.8983 10.4513 54.8983C9.11578 54.8983 7.96838 55.1516 7.0091 55.6601C6.04983 56.1686 5.26378 56.841 4.65282 57.6774C4.04187 58.5137 3.58924 59.46 3.29866 60.5124C3.00622 61.5666 2.86093 62.647 2.86093 63.7571C2.86093 64.8673 3.00622 65.9253 3.29866 66.987C3.58924 68.0506 4.04187 69.0006 4.65282 69.8369C5.26378 70.6732 6.04983 71.3457 7.0091 71.8542C7.96838 72.3627 9.11578 72.616 10.4513 72.616C11.392 72.616 12.2376 72.4465 12.9901 72.1075C13.7427 71.7685 14.3909 71.3084 14.9366 70.7254C15.4824 70.1424 15.9238 69.4606 16.2628 68.6802C16.6019 67.8997 16.8179 67.0578 16.9111 66.1544H18.8296C18.6974 67.3949 18.4068 68.5144 17.9542 69.5128C17.5034 70.5093 16.9204 71.3568 16.2051 72.0516C15.4898 72.7482 14.6479 73.2847 13.6793 73.6591C12.7107 74.0353 11.6341 74.2235 10.4495 74.2235C8.86991 74.2235 7.48222 73.9366 6.28825 73.3629C5.09428 72.7892 4.10147 72.0237 3.3117 71.0644C2.52193 70.1051 1.9296 68.995 1.53471 67.7358C1.13983 66.4766 0.942383 65.1504 0.942383 63.7571C0.942383 62.3639 1.13983 61.0395 1.53471 59.7785C1.9296 58.5174 2.52193 57.4036 3.3117 56.435C4.10147 55.4664 5.09428 54.6952 6.28825 54.1215C7.48222 53.5478 8.86991 53.261 10.4495 53.261C11.4087 53.261 12.3438 53.4025 13.2565 53.6838C14.1692 53.9651 14.9962 54.3842 15.7394 54.9393C16.4826 55.4943 17.1029 56.1761 17.6021 56.9845C18.0994 57.7929 18.4161 58.7242 18.5465 59.7785H16.6279C16.4584 59.0073 16.1809 58.3163 15.7953 57.7053" fill="#231F20"/>
<path d="M35.0777 53.6855V55.321H23.0876V62.6003H34.3158V64.2376H23.0876V72.1949H35.2192V73.8303H21.1672V53.6855H35.0777Z" fill="#231F20"/>
<path d="M51.3965 57.7053C51.011 57.0944 50.5397 56.5821 49.9865 56.1668C49.4314 55.7532 48.8205 55.4384 48.1518 55.2224C47.4831 55.0063 46.7827 54.8983 46.0507 54.8983C44.7151 54.8983 43.5677 55.1516 42.6085 55.6601C41.6492 56.1686 40.8631 56.841 40.2522 57.6774C39.6412 58.5137 39.1886 59.46 38.898 60.5124C38.6056 61.5666 38.4603 62.647 38.4603 63.7571C38.4603 64.8673 38.6056 65.9253 38.898 66.987C39.1905 68.0506 39.6412 69.0006 40.2522 69.8369C40.8631 70.6732 41.6492 71.3457 42.6085 71.8542C43.5677 72.3627 44.7151 72.616 46.0507 72.616C46.9913 72.616 47.837 72.4465 48.5895 72.1075C49.342 71.7685 49.9902 71.3084 50.536 70.7254C51.0818 70.1424 51.5232 69.4606 51.8622 68.6802C52.2012 67.8997 52.4173 67.0578 52.5104 66.1544H54.429C54.2967 67.3949 54.0061 68.5144 53.5535 69.5128C53.1028 70.5093 52.5197 71.3568 51.8045 72.0516C51.0892 72.7482 50.2473 73.2847 49.2787 73.6591C48.3101 74.0353 47.2335 74.2235 46.0488 74.2235C44.4693 74.2235 43.0816 73.9366 41.8876 73.3629C40.6936 72.7892 39.7008 72.0237 38.9111 71.0644C38.1213 70.1051 37.529 68.995 37.1341 67.7358C36.7392 66.4766 36.5417 65.1504 36.5417 63.7571C36.5417 62.3639 36.7392 61.0395 37.1341 59.7785C37.529 58.5174 38.1213 57.4036 38.9111 56.435C39.7008 55.4664 40.6918 54.6952 41.8876 54.1215C43.0816 53.5478 44.4693 53.261 46.0488 53.261C47.0081 53.261 47.9432 53.4025 48.8559 53.6838C49.7686 53.9651 50.5956 54.3842 51.3388 54.9393C52.082 55.4943 52.7023 56.1761 53.2015 56.9845C53.6988 57.7929 54.0155 58.7242 54.1458 59.7785H52.2273C52.0578 59.0073 51.7803 58.3163 51.3947 57.7053" fill="#231F20"/>
<path d="M58.6292 53.6855H56.7107V73.8303H58.6292V53.6855Z" fill="#231F20"/>
<path d="M75.3523 53.6855V55.321H63.3604V62.6003H74.5905V64.2376H63.3604V72.1949H75.492V73.8303H61.4419V53.6855H75.3523Z" fill="#231F20"/>
<path d="M93.383 59.3928H90.8684L76.6301 73.6311H79.1447L93.383 59.3928Z" fill="#231F20"/>
<path d="M76.4309 59.3928H79.1448L106.157 86.6213L76.4309 59.3928Z" fill="#231F20"/>
<path d="M4.02327 78.7143C3.96739 78.6249 3.89847 78.5504 3.81838 78.4908C3.73829 78.4312 3.64888 78.3846 3.55202 78.353C3.45516 78.3213 3.35271 78.3064 3.24654 78.3064C3.05282 78.3064 2.88518 78.3436 2.74734 78.4163C2.60764 78.4908 2.49402 78.5876 2.40461 78.7087C2.31521 78.8298 2.25001 78.9676 2.20903 79.1204C2.16619 79.2731 2.1457 79.4296 2.1457 79.5916C2.1457 79.7537 2.16619 79.9064 2.20903 80.061C2.25187 80.2156 2.31707 80.3535 2.40461 80.4745C2.49402 80.5956 2.60764 80.6943 2.74734 80.767C2.88704 80.8415 3.05282 80.8769 3.24654 80.8769C3.38252 80.8769 3.50545 80.8527 3.61535 80.8024C3.72525 80.7539 3.81838 80.6869 3.89847 80.6012C3.97671 80.5155 4.0419 80.4168 4.09033 80.305C4.13876 80.1914 4.17042 80.0703 4.18533 79.9381H4.46286C4.44424 80.1188 4.4014 80.2808 4.3362 80.4261C4.27101 80.5714 4.18533 80.6943 4.08288 80.7949C3.97857 80.8955 3.8575 80.9737 3.71593 81.0277C3.57437 81.0818 3.41977 81.1097 3.24654 81.1097C3.01743 81.1097 2.81626 81.0687 2.64304 80.9849C2.46981 80.9011 2.32638 80.7912 2.2109 80.6515C2.09727 80.5118 2.00973 80.3516 1.95385 80.1691C1.8961 79.9865 1.86816 79.7947 1.86816 79.5916C1.86816 79.3886 1.8961 79.1967 1.95385 79.0142C2.01159 78.8317 2.09727 78.6696 2.2109 78.5299C2.32638 78.3902 2.46981 78.2766 2.64304 78.1946C2.81626 78.1108 3.01743 78.0698 3.24654 78.0698C3.38624 78.0698 3.52222 78.0903 3.65447 78.1313C3.78671 78.1723 3.90779 78.2337 4.01582 78.3138C4.12386 78.3939 4.21327 78.4926 4.28591 78.61C4.35855 78.7273 4.40326 78.8633 4.42375 79.0161H4.14435C4.12013 78.9043 4.07915 78.8037 4.02327 78.7143Z" fill="#231F20"/>
<path d="M4.82055 79.0161C4.87829 78.8335 4.96397 78.6715 5.07759 78.5299C5.19308 78.3902 5.33651 78.2784 5.50973 78.1946C5.68296 78.1108 5.88413 78.0698 6.11324 78.0698C6.34235 78.0698 6.54352 78.1108 6.71488 78.1946C6.88625 78.2784 7.02967 78.3902 7.14516 78.5299C7.26064 78.6715 7.34633 78.8317 7.40407 79.0161C7.46181 79.2005 7.48975 79.3905 7.48975 79.5935C7.48975 79.7965 7.46181 79.9884 7.40407 80.1709C7.34633 80.3535 7.26064 80.5155 7.14516 80.6533C7.02967 80.793 6.88811 80.9029 6.71488 80.9868C6.54352 81.0706 6.34235 81.1116 6.11324 81.1116C5.88413 81.1116 5.68296 81.0706 5.50973 80.9868C5.33651 80.9029 5.19308 80.793 5.07759 80.6533C4.96397 80.5136 4.87643 80.3535 4.82055 80.1709C4.7628 79.9884 4.73486 79.7947 4.73486 79.5935C4.73486 79.3923 4.7628 79.1986 4.82055 79.0161ZM5.07573 80.0629C5.11857 80.2175 5.18377 80.3553 5.27317 80.4764C5.36258 80.5975 5.47621 80.6962 5.61591 80.7688C5.75561 80.8415 5.92138 80.8787 6.1151 80.8787C6.30882 80.8787 6.4746 80.8415 6.61244 80.7688C6.75027 80.6943 6.8639 80.5975 6.95144 80.4764C7.04085 80.3553 7.10604 80.2175 7.14888 80.0629C7.19173 79.9083 7.21221 79.7518 7.21221 79.5935C7.21221 79.4352 7.19173 79.275 7.14888 79.1222C7.10604 78.9695 7.04085 78.8317 6.95144 78.7106C6.86203 78.5895 6.75027 78.4908 6.61244 78.4181C6.4746 78.3436 6.30882 78.3082 6.1151 78.3082C5.92138 78.3082 5.75561 78.3455 5.61591 78.4181C5.47621 78.4908 5.36258 78.5895 5.27317 78.7106C5.18377 78.8317 5.11857 78.9695 5.07573 79.1222C5.03289 79.275 5.0124 79.4314 5.0124 79.5935C5.0124 79.7555 5.03289 79.9083 5.07573 80.0629Z" fill="#231F20"/>
<path d="M8.23099 78.1313L9.93347 80.605H9.94092V78.1313H10.2203V81.0557H9.90925L8.20491 78.5821H8.19746V81.0557H7.91992V78.1313H8.23099Z" fill="#231F20"/>
<path d="M11.0063 80.469C11.0547 80.5696 11.1237 80.6516 11.2093 80.7112C11.295 80.7708 11.3975 80.8136 11.5148 80.8397C11.6322 80.8658 11.757 80.8788 11.8911 80.8788C11.9674 80.8788 12.0513 80.8676 12.1407 80.8453C12.2301 80.8229 12.3139 80.7894 12.3921 80.741C12.4704 80.6926 12.5356 80.6311 12.5859 80.5566C12.638 80.4821 12.6641 80.3908 12.6641 80.2846C12.6641 80.2027 12.6455 80.1319 12.6082 80.0723C12.571 80.0127 12.5244 79.9624 12.4648 79.9214C12.407 79.8804 12.3418 79.8469 12.2711 79.8208C12.2003 79.7947 12.1314 79.7743 12.0624 79.7575L11.4105 79.5973C11.3267 79.575 11.2429 79.5489 11.1628 79.5153C11.0827 79.4818 11.0119 79.439 10.9523 79.385C10.8927 79.3309 10.8443 79.2639 10.807 79.1838C10.7697 79.1056 10.7511 79.0068 10.7511 78.8932C10.7511 78.8224 10.7642 78.7386 10.7921 78.6436C10.82 78.5486 10.8703 78.4574 10.9467 78.3735C11.0212 78.2897 11.1255 78.2171 11.2559 78.1593C11.3863 78.0997 11.5539 78.0718 11.7588 78.0718C11.9041 78.0718 12.042 78.0904 12.1723 78.1295C12.3027 78.1668 12.4182 78.2245 12.5169 78.3009C12.6157 78.3773 12.6939 78.4723 12.7516 78.5859C12.8094 78.6995 12.8392 78.8299 12.8392 78.9808H12.5598C12.5542 78.869 12.5281 78.7721 12.4834 78.6883C12.4387 78.6045 12.3791 78.5356 12.3083 78.4797C12.2357 78.4238 12.1537 78.381 12.0587 78.353C11.9637 78.3251 11.865 78.3102 11.7626 78.3102C11.6676 78.3102 11.5744 78.3195 11.4869 78.34C11.3975 78.3605 11.3192 78.394 11.254 78.4387C11.187 78.4834 11.133 78.543 11.092 78.6175C11.051 78.692 11.0305 78.7833 11.0305 78.8914C11.0305 78.9603 11.0417 79.018 11.0659 79.0702C11.0883 79.1205 11.1218 79.1633 11.1628 79.1987C11.2038 79.2341 11.2503 79.262 11.3043 79.2844C11.3584 79.3067 11.4142 79.3235 11.4738 79.3384L12.1854 79.5135C12.2897 79.5414 12.3865 79.575 12.4778 79.6141C12.5691 79.6532 12.6492 79.7035 12.72 79.7612C12.7889 79.8208 12.8448 79.8916 12.8839 79.9754C12.923 80.0592 12.9435 80.1617 12.9435 80.2828C12.9435 80.3163 12.9398 80.3591 12.9342 80.4132C12.9267 80.4672 12.9118 80.5268 12.8857 80.5882C12.8597 80.6497 12.8224 80.7112 12.7758 80.7745C12.7274 80.8378 12.6622 80.8937 12.5803 80.944C12.4964 80.9943 12.394 81.0353 12.2711 81.067C12.1481 81.0986 12.001 81.1135 11.8296 81.1135C11.6582 81.1135 11.4981 81.093 11.3509 81.0539C11.2038 81.0148 11.0771 80.9533 10.9746 80.8714C10.8703 80.7894 10.7902 80.6851 10.7344 80.5566C10.6785 80.4281 10.6543 80.2735 10.6617 80.0946H10.9411C10.9374 80.2455 10.9616 80.3703 11.01 80.4709" fill="#231F20"/>
<path d="M15.4041 78.1313V78.3698H13.6644V79.4259H15.2924V79.6625H13.6644V80.8173H15.4246V81.0557H13.385V78.1313H15.4041Z" fill="#231F20"/>
<path d="M16.0915 78.1313V80.8173H17.7288V81.0557H15.814V78.1313H16.0915Z" fill="#231F20"/>
<path d="M18.2914 78.1313V79.4017H20.0274V78.1313H20.3049V81.0557H20.0274V79.6382H18.2914V81.0557H18.012V78.1313H18.2914Z" fill="#231F20"/>
<path d="M20.8245 79.0161C20.8822 78.8335 20.9679 78.6715 21.0834 78.5299C21.197 78.3902 21.3423 78.2784 21.5155 78.1946C21.6887 78.1108 21.8899 78.0698 22.119 78.0698C22.3481 78.0698 22.5493 78.1108 22.7207 78.1946C22.892 78.2784 23.0354 78.3902 23.1509 78.5299C23.2664 78.6715 23.3521 78.8317 23.4098 79.0161C23.4676 79.1986 23.4955 79.3905 23.4955 79.5935C23.4955 79.7965 23.4676 79.9884 23.4098 80.1709C23.3521 80.3535 23.2664 80.5155 23.1509 80.6533C23.0354 80.793 22.8939 80.9029 22.7207 80.9868C22.5493 81.0706 22.3481 81.1116 22.119 81.1116C21.8899 81.1116 21.6887 81.0706 21.5155 80.9868C21.3423 80.9029 21.1988 80.793 21.0834 80.6533C20.9679 80.5136 20.8822 80.3535 20.8245 80.1709C20.7667 79.9884 20.7388 79.7947 20.7388 79.5935C20.7388 79.3923 20.7667 79.1986 20.8245 79.0161ZM21.0815 80.0629C21.1243 80.2175 21.1895 80.3553 21.2789 80.4764C21.3684 80.5975 21.482 80.6962 21.6217 80.7688C21.7614 80.8415 21.9272 80.8787 22.1209 80.8787C22.3146 80.8787 22.4804 80.8415 22.6182 80.7688C22.756 80.6943 22.8697 80.5975 22.9572 80.4764C23.0466 80.3553 23.1118 80.2175 23.1547 80.0629C23.1975 79.9083 23.218 79.7518 23.218 79.5935C23.218 79.4352 23.1975 79.275 23.1547 79.1222C23.1118 78.9695 23.0466 78.8317 22.9572 78.7106C22.8678 78.5895 22.756 78.4908 22.6182 78.4181C22.4804 78.3436 22.3146 78.3082 22.1209 78.3082C21.9272 78.3082 21.7614 78.3455 21.6217 78.4181C21.482 78.4908 21.3684 78.5895 21.2789 78.7106C21.1895 78.8317 21.1243 78.9695 21.0815 79.1222C21.0387 79.275 21.0182 79.4314 21.0182 79.5935C21.0182 79.7555 21.0387 79.9083 21.0815 80.0629Z" fill="#231F20"/>
<path d="M26.3046 78.1313C26.4275 78.1313 26.5449 78.1425 26.6585 78.1667C26.7721 78.1891 26.8708 78.2301 26.9565 78.2859C27.0422 78.3418 27.1111 78.4163 27.1633 78.5076C27.2154 78.5989 27.2415 78.7125 27.2415 78.8485C27.2415 78.9248 27.2303 78.9994 27.2043 79.072C27.1801 79.1446 27.1447 79.2098 27.1 79.2694C27.0552 79.329 27.0012 79.3775 26.9398 79.4185C26.8783 79.4594 26.8094 79.4874 26.733 79.5041V79.5116C26.9211 79.5358 27.072 79.614 27.1838 79.7426C27.2955 79.8729 27.3514 80.0331 27.3514 80.2231C27.3514 80.2697 27.3477 80.3218 27.3402 80.3815C27.3328 80.4411 27.316 80.5007 27.2899 80.5621C27.2657 80.6236 27.2303 80.6851 27.1838 80.7447C27.1372 80.8043 27.0757 80.8583 26.9975 80.903C26.9193 80.9477 26.8243 80.985 26.7107 81.0129C26.597 81.0408 26.4611 81.0557 26.3027 81.0557H25.0659V78.1332H26.3027L26.3046 78.1313ZM26.3046 79.4129C26.4164 79.4129 26.5132 79.3998 26.5952 79.3737C26.6771 79.3477 26.7442 79.3123 26.8001 79.2676C26.8541 79.2229 26.8951 79.1689 26.923 79.1092C26.9509 79.0496 26.964 78.9845 26.964 78.9174C26.964 78.5523 26.7442 78.3679 26.3046 78.3679H25.3472V79.4129H26.3046ZM26.3046 80.8173C26.4089 80.8173 26.5058 80.808 26.5989 80.7912C26.692 80.7745 26.774 80.7409 26.8448 80.6944C26.9156 80.6478 26.9714 80.5863 27.0124 80.5081C27.0534 80.4299 27.0739 80.333 27.0739 80.2157C27.0739 80.0275 27.0068 79.886 26.8746 79.791C26.7423 79.696 26.5523 79.6494 26.3027 79.6494H25.3453V80.8173H26.3027H26.3046Z" fill="#231F20"/>
<path d="M29.1376 78.1313C29.2587 78.1313 29.3723 78.1462 29.4803 78.176C29.5884 78.2059 29.6815 78.2524 29.7635 78.3139C29.8436 78.3754 29.9087 78.4555 29.9553 78.5523C30.0037 78.6492 30.0261 78.7628 30.0261 78.8932C30.0261 79.0794 29.9777 79.2396 29.8827 79.3756C29.7877 79.5116 29.6461 79.5991 29.4561 79.6382V79.6457C29.5511 79.6587 29.6312 79.6848 29.6945 79.7221C29.7579 79.7593 29.8082 79.8059 29.8473 79.8636C29.8864 79.9214 29.9162 79.9866 29.933 80.0629C29.9497 80.1374 29.9628 80.2194 29.9684 80.3069C29.9721 80.3554 29.9739 80.4168 29.9758 80.4876C29.9777 80.5584 29.9833 80.6311 29.9926 80.7037C30 80.7763 30.0131 80.8434 30.0317 80.9086C30.0484 80.9719 30.0727 81.0222 30.1025 81.0576H29.7951C29.7784 81.0297 29.7653 80.9961 29.756 80.957C29.7467 80.9179 29.7392 80.8769 29.7355 80.8341C29.7318 80.7912 29.7281 80.7503 29.7243 80.7093C29.7225 80.6683 29.7188 80.6329 29.7169 80.6031C29.7113 80.4988 29.702 80.3964 29.6908 80.2939C29.6778 80.1915 29.6517 80.1002 29.6126 80.0201C29.5735 79.94 29.5157 79.8748 29.4412 79.8264C29.3667 79.7779 29.2624 79.7556 29.132 79.7612H28.0759V81.0595H27.7983V78.1351H29.1376V78.1313ZM29.1171 79.519C29.2009 79.519 29.2829 79.506 29.3593 79.4799C29.4356 79.4538 29.5027 79.4166 29.5604 79.3682C29.6182 79.3197 29.6629 79.2601 29.6983 79.1893C29.7337 79.1186 29.7486 79.0403 29.7486 78.9491C29.7486 78.7684 29.6964 78.6268 29.594 78.5225C29.4896 78.4182 29.3313 78.3679 29.119 78.3679H28.0796V79.519H29.119H29.1171Z" fill="#231F20"/>
<path d="M31.6952 78.1313L32.8407 81.0557H32.5427L32.1869 80.1468H30.8551L30.503 81.0557H30.2087L31.3841 78.1313H31.6952ZM32.0938 79.9083L31.5294 78.4089L30.9445 79.9083H32.0956H32.0938Z" fill="#231F20"/>
<path d="M33.31 80.469C33.3585 80.5696 33.4274 80.6516 33.5131 80.7112C33.5987 80.7708 33.7012 80.8136 33.8185 80.8397C33.9359 80.8658 34.0607 80.8788 34.1948 80.8788C34.2712 80.8788 34.355 80.8676 34.4444 80.8453C34.5338 80.8229 34.6176 80.7894 34.6958 80.741C34.7741 80.6926 34.8393 80.6311 34.8896 80.5566C34.9417 80.4821 34.9678 80.3908 34.9678 80.2846C34.9678 80.2027 34.9492 80.1319 34.9119 80.0723C34.8747 80.0127 34.8281 79.9624 34.7685 79.9214C34.7107 79.8804 34.6456 79.8469 34.5748 79.8208C34.504 79.7947 34.4351 79.7743 34.3662 79.7575L33.7142 79.5973C33.6304 79.575 33.5466 79.5489 33.4665 79.5153C33.3864 79.4818 33.3156 79.439 33.256 79.385C33.1964 79.3309 33.148 79.2639 33.1107 79.1838C33.0735 79.1056 33.0548 79.0068 33.0548 78.8932C33.0548 78.8224 33.0679 78.7386 33.0958 78.6436C33.1238 78.5486 33.174 78.4574 33.2504 78.3735C33.3249 78.2897 33.4292 78.2171 33.5596 78.1593C33.69 78.0997 33.8576 78.0718 34.0625 78.0718C34.2078 78.0718 34.3457 78.0904 34.4761 78.1295C34.6064 78.1668 34.7219 78.2245 34.8206 78.3009C34.9194 78.3773 34.9976 78.4723 35.0553 78.5859C35.1131 78.6995 35.1429 78.8299 35.1429 78.9808H34.8635C34.8579 78.869 34.8337 78.7721 34.7871 78.6883C34.7424 78.6045 34.6828 78.5356 34.612 78.4797C34.5394 78.4238 34.4574 78.381 34.3624 78.353C34.2674 78.3251 34.1687 78.3102 34.0663 78.3102C33.9713 78.3102 33.8781 78.3195 33.7906 78.34C33.7012 78.3605 33.6248 78.394 33.5578 78.4387C33.4907 78.4834 33.4367 78.543 33.3957 78.6175C33.3547 78.692 33.3342 78.7833 33.3342 78.8914C33.3342 78.9603 33.3454 79.018 33.3696 79.0702C33.392 79.1205 33.4255 79.1633 33.4665 79.1987C33.5075 79.2341 33.554 79.262 33.608 79.2844C33.6621 79.3067 33.7179 79.3235 33.7776 79.3384L34.4891 79.5135C34.5934 79.5414 34.6903 79.575 34.7815 79.6141C34.8728 79.6532 34.9529 79.7035 35.0237 79.7612C35.0926 79.8208 35.1485 79.8916 35.1876 79.9754C35.2267 80.0592 35.2472 80.1617 35.2472 80.2828C35.2472 80.3163 35.2435 80.3591 35.2379 80.4132C35.2304 80.4672 35.2155 80.5268 35.1895 80.5882C35.1634 80.6497 35.1261 80.7112 35.0796 80.7745C35.0311 80.8378 34.9659 80.8937 34.884 80.944C34.8002 80.9943 34.6977 81.0353 34.5748 81.067C34.4518 81.0986 34.3047 81.1135 34.1333 81.1135C33.962 81.1135 33.8018 81.093 33.6546 81.0539C33.5075 81.0148 33.3808 80.9533 33.2784 80.8714C33.174 80.7894 33.094 80.6851 33.0381 80.5566C32.9822 80.4281 32.958 80.2735 32.9654 80.0946H33.2448C33.2411 80.2455 33.2653 80.3703 33.3137 80.4709" fill="#231F20"/>
<path d="M35.9868 78.1313H35.7092V81.0557H35.9868V78.1313Z" fill="#231F20"/>
<path d="M36.8752 78.1313V80.8173H38.5125V81.0557H36.5977V78.1313H36.8752Z" fill="#231F20"/>
<path d="M40.8148 78.1313V78.3698H39.0751V79.4259H40.703V79.6625H39.0751V80.8173H40.8353V81.0557H38.7957V78.1313H40.8148Z" fill="#231F20"/>
<path d="M41.5245 78.1313H41.2451V81.0557H41.5245V78.1313Z" fill="#231F20"/>
<path d="M43.4709 78.1313C43.5919 78.1313 43.7055 78.1462 43.8136 78.176C43.9216 78.2059 44.0147 78.2524 44.0967 78.3139C44.1768 78.3754 44.242 78.4555 44.2886 78.5523C44.337 78.6492 44.3593 78.7628 44.3593 78.8932C44.3593 79.0794 44.3109 79.2396 44.2159 79.3756C44.1209 79.5116 43.9794 79.5991 43.7894 79.6382V79.6457C43.8844 79.6587 43.9645 79.6848 44.0278 79.7221C44.0911 79.7593 44.1414 79.8059 44.1805 79.8636C44.2196 79.9214 44.2494 79.9866 44.2662 80.0629C44.283 80.1374 44.296 80.2194 44.3016 80.3069C44.3053 80.3554 44.3072 80.4168 44.3091 80.4876C44.3109 80.5584 44.3165 80.6311 44.3258 80.7037C44.3333 80.7763 44.3463 80.8434 44.3649 80.9086C44.3817 80.9719 44.4059 81.0222 44.4357 81.0576H44.1284C44.1116 81.0297 44.0986 80.9961 44.0893 80.957C44.0799 80.9179 44.0725 80.8769 44.0688 80.8341C44.065 80.7912 44.0613 80.7503 44.0576 80.7093C44.0557 80.6683 44.052 80.6329 44.0501 80.6031C44.0446 80.4988 44.0352 80.3964 44.0241 80.2939C44.011 80.1915 43.9868 80.1002 43.9458 80.0201C43.9067 79.94 43.849 79.8748 43.7745 79.8264C43.7 79.7779 43.5956 79.7556 43.4653 79.7612H42.4091V81.0595H42.1316V78.1351H43.4709V78.1313ZM43.4504 79.519C43.5342 79.519 43.6161 79.506 43.6925 79.4799C43.7689 79.4538 43.8359 79.4166 43.8937 79.3682C43.9514 79.3197 43.9961 79.2601 44.0315 79.1893C44.0669 79.1186 44.0818 79.0403 44.0818 78.9491C44.0818 78.7684 44.0297 78.6268 43.9272 78.5225C43.8229 78.4182 43.6646 78.3679 43.4522 78.3679H42.4129V79.519H43.4522H43.4504Z" fill="#231F20"/>
<path d="M44.7934 79.0161C44.8512 78.8335 44.9369 78.6715 45.0505 78.5299C45.166 78.3902 45.3094 78.2784 45.4826 78.1946C45.6559 78.1108 45.857 78.0698 46.0861 78.0698C46.3152 78.0698 46.5164 78.1108 46.6878 78.1946C46.8591 78.2784 47.0026 78.3902 47.1181 78.5299C47.2335 78.6715 47.3192 78.8317 47.377 79.0161C47.4347 79.2005 47.4627 79.3905 47.4627 79.5935C47.4627 79.7965 47.4347 79.9884 47.377 80.1709C47.3192 80.3535 47.2335 80.5155 47.1181 80.6533C47.0026 80.793 46.861 80.9029 46.6878 80.9868C46.5164 81.0706 46.3152 81.1116 46.0861 81.1116C45.857 81.1116 45.6559 81.0706 45.4826 80.9868C45.3094 80.9029 45.166 80.793 45.0505 80.6533C44.9369 80.5136 44.8493 80.3535 44.7934 80.1709C44.7357 79.9884 44.7078 79.7947 44.7078 79.5935C44.7078 79.3923 44.7357 79.1986 44.7934 79.0161ZM45.0505 80.0629C45.0933 80.2175 45.1585 80.3553 45.2479 80.4764C45.3373 80.5975 45.451 80.6962 45.5907 80.7688C45.7304 80.8415 45.8961 80.8787 46.0899 80.8787C46.2836 80.8787 46.4494 80.8415 46.5872 80.7688C46.725 80.6943 46.8387 80.5975 46.9262 80.4764C47.0156 80.3553 47.0808 80.2175 47.1236 80.0629C47.1665 79.9083 47.187 79.7518 47.187 79.5935C47.187 79.4352 47.1665 79.275 47.1236 79.1222C47.0808 78.9695 47.0156 78.8317 46.9262 78.7106C46.8368 78.5895 46.725 78.4908 46.5872 78.4181C46.4494 78.3436 46.2836 78.3082 46.0899 78.3082C45.8961 78.3082 45.7304 78.3455 45.5907 78.4181C45.451 78.4908 45.3373 78.5895 45.2479 78.7106C45.1585 78.8317 45.0933 78.9695 45.0505 79.1222C45.0077 79.275 44.9872 79.4314 44.9872 79.5935C44.9872 79.7555 45.0077 79.9083 45.0505 80.0629Z" fill="#231F20"/>
<path d="M50.048 78.1313C50.4932 78.1425 50.8285 78.2673 51.0539 78.5057C51.2793 78.7442 51.391 79.1074 51.391 79.5935C51.391 80.0797 51.2793 80.4411 51.0539 80.6813C50.8285 80.9198 50.4932 81.0446 50.048 81.0557H49.0366V78.1332H50.048V78.1313ZM49.9083 80.8173C50.1188 80.8173 50.2995 80.795 50.4504 80.7503C50.6013 80.7056 50.7261 80.6329 50.8248 80.5361C50.9235 80.4373 50.9961 80.3107 51.0409 80.1561C51.0874 80.0015 51.1098 79.8133 51.1098 79.5954C51.1098 79.3775 51.0874 79.1893 51.0409 79.0347C50.9943 78.8801 50.9216 78.7516 50.8248 78.6548C50.7261 78.556 50.6013 78.4853 50.4504 78.4406C50.2995 78.3958 50.1188 78.3735 49.9083 78.3735H49.3142V80.8229H49.9083V80.8173Z" fill="#231F20"/>
<path d="M53.0076 78.1313L54.1532 81.0557H53.8533L53.4975 80.1468H52.1676L51.8155 81.0557H51.5212L52.6966 78.1313H53.0076ZM53.4044 79.9083L52.84 78.4089L52.2551 79.9083H53.4063H53.4044Z" fill="#231F20"/>
<path d="M54.6208 80.469C54.6692 80.5696 54.7382 80.6516 54.8238 80.7112C54.9095 80.7708 55.012 80.8136 55.1293 80.8397C55.2467 80.8658 55.3715 80.8788 55.5056 80.8788C55.582 80.8788 55.6658 80.8676 55.7552 80.8453C55.8446 80.8229 55.9284 80.7894 56.0066 80.741C56.0849 80.6926 56.1501 80.6311 56.2004 80.5566C56.2525 80.4821 56.2786 80.3908 56.2786 80.2846C56.2786 80.2027 56.26 80.1319 56.2227 80.0723C56.1855 80.0127 56.1389 79.9624 56.0793 79.9214C56.0215 79.8804 55.9563 79.8469 55.8856 79.8208C55.8148 79.7947 55.7459 79.7743 55.6769 79.7575L55.025 79.5973C54.9412 79.575 54.8574 79.5489 54.7773 79.5153C54.6972 79.4818 54.6264 79.439 54.5668 79.385C54.5072 79.3309 54.4588 79.2639 54.4215 79.1838C54.3843 79.1056 54.3656 79.0068 54.3656 78.8932C54.3656 78.8224 54.3787 78.7386 54.4066 78.6436C54.4345 78.5486 54.4848 78.4574 54.5612 78.3735C54.6357 78.2897 54.74 78.2171 54.8704 78.1593C55.0008 78.0997 55.1684 78.0718 55.3733 78.0718C55.5186 78.0718 55.6565 78.0904 55.7868 78.1295C55.9172 78.1668 56.0327 78.2245 56.1314 78.3009C56.2302 78.3773 56.3084 78.4723 56.3661 78.5859C56.4239 78.6995 56.4537 78.8299 56.4537 78.9808H56.1743C56.1687 78.869 56.1426 78.7721 56.0979 78.6883C56.0532 78.6045 55.9936 78.5356 55.9228 78.4797C55.8502 78.4238 55.7682 78.381 55.6732 78.353C55.5782 78.3251 55.4795 78.3102 55.3771 78.3102C55.2821 78.3102 55.1889 78.3195 55.1014 78.34C55.012 78.3605 54.9356 78.394 54.8686 78.4387C54.8015 78.4834 54.7475 78.543 54.7065 78.6175C54.6655 78.692 54.645 78.7833 54.645 78.8914C54.645 78.9603 54.6562 79.018 54.6804 79.0702C54.7028 79.1205 54.7363 79.1633 54.7773 79.1987C54.8183 79.2341 54.8648 79.262 54.9188 79.2844C54.9729 79.3067 55.0287 79.3235 55.0883 79.3384L55.7999 79.5135C55.9042 79.5414 56.001 79.575 56.0923 79.6141C56.1836 79.6532 56.2637 79.7035 56.3345 79.7612C56.4034 79.8208 56.4593 79.8916 56.4984 79.9754C56.5375 80.0592 56.558 80.1617 56.558 80.2828C56.558 80.3163 56.5543 80.3591 56.5487 80.4132C56.5412 80.4672 56.5263 80.5268 56.5002 80.5882C56.4742 80.6497 56.4369 80.7112 56.3903 80.7745C56.3419 80.8378 56.2767 80.8937 56.1948 80.944C56.111 80.9943 56.0085 81.0353 55.8856 81.067C55.7626 81.0986 55.6155 81.1135 55.4441 81.1135C55.2727 81.1135 55.1126 81.093 54.9654 81.0539C54.8183 81.0148 54.6916 80.9533 54.5892 80.8714C54.4848 80.7894 54.4047 80.6851 54.3489 80.5566C54.293 80.4281 54.2688 80.2735 54.2762 80.0946H54.5556C54.5519 80.2455 54.5761 80.3703 54.6245 80.4709" fill="#231F20"/>
<path d="M60.1566 78.1313V78.3698H58.4169V79.4259H60.0467V79.6625H58.4169V80.8173H60.1771V81.0557H58.1375V78.1313H60.1566Z" fill="#231F20"/>
<path d="M60.967 78.1313L61.9375 80.6944L62.9452 78.1313H63.355V81.0557H63.0756V78.5281H63.0681L62.0697 81.0557H61.8071L60.8441 78.5281H60.8366V81.0557H60.5591V78.1313H60.967Z" fill="#231F20"/>
<path d="M65.2249 78.1313C65.3553 78.1313 65.4745 78.15 65.5807 78.1872C65.6868 78.2245 65.7781 78.2785 65.8545 78.3511C65.9308 78.4238 65.9904 78.5113 66.0314 78.6156C66.0724 78.7199 66.0929 78.8373 66.0929 78.9677C66.0929 79.0981 66.0724 79.2154 66.0314 79.3197C65.9904 79.424 65.9308 79.5116 65.8545 79.5842C65.7781 79.6569 65.6868 79.7109 65.5807 79.7481C65.4745 79.7854 65.3553 79.804 65.2249 79.804H64.206V81.0576H63.9285V78.1332H65.2267L65.2249 78.1313ZM65.1634 79.5656C65.3571 79.5656 65.5136 79.5172 65.6347 79.4185C65.7539 79.3197 65.8154 79.1707 65.8154 78.9677C65.8154 78.7647 65.7557 78.6156 65.6347 78.5169C65.5155 78.4182 65.3571 78.3698 65.1634 78.3698H64.2041V79.5656H65.1634Z" fill="#231F20"/>
<path d="M67.8459 78.1313C67.9669 78.1313 68.0805 78.1462 68.1886 78.176C68.2966 78.2059 68.3898 78.2524 68.4717 78.3139C68.5518 78.3754 68.617 78.4555 68.6636 78.5523C68.712 78.6492 68.7343 78.7628 68.7343 78.8932C68.7343 79.0794 68.6859 79.2396 68.5909 79.3756C68.4959 79.5116 68.3544 79.5991 68.1644 79.6382V79.6457C68.2594 79.6587 68.3395 79.6848 68.4028 79.7221C68.4661 79.7593 68.5164 79.8059 68.5555 79.8636C68.5946 79.9214 68.6245 79.9866 68.6412 80.0629C68.658 80.1374 68.671 80.2194 68.6766 80.3069C68.6803 80.3554 68.6822 80.4168 68.6841 80.4876C68.6859 80.5584 68.6915 80.6311 68.7008 80.7037C68.7083 80.7763 68.7213 80.8434 68.7399 80.9086C68.7567 80.9719 68.7809 81.0222 68.8107 81.0576H68.5034C68.4866 81.0297 68.4736 80.9961 68.4643 80.957C68.4549 80.9179 68.4475 80.8769 68.4438 80.8341C68.44 80.7912 68.4363 80.7503 68.4326 80.7093C68.4307 80.6683 68.427 80.6329 68.4251 80.6031C68.4196 80.4988 68.4102 80.3964 68.3991 80.2939C68.386 80.1915 68.3618 80.1002 68.3208 80.0201C68.2817 79.94 68.224 79.8748 68.1495 79.8264C68.075 79.7779 67.9707 79.7556 67.8403 79.7612H66.7841V81.0595H66.5066V78.1351H67.8459V78.1313ZM67.8254 79.519C67.9092 79.519 67.9911 79.506 68.0675 79.4799C68.1439 79.4538 68.2109 79.4166 68.2687 79.3682C68.3264 79.3197 68.3711 79.2601 68.4065 79.1893C68.4419 79.1186 68.4568 79.0403 68.4568 78.9491C68.4568 78.7684 68.4047 78.6268 68.3022 78.5225C68.1979 78.4182 68.0396 78.3679 67.8272 78.3679H66.7879V79.519H67.8272H67.8254Z" fill="#231F20"/>
<path d="M71.2563 78.1313V78.3698H69.5165V79.4259H71.1464V79.6625H69.5165V80.8173H71.2768V81.0557H69.239V78.1313H71.2563Z" fill="#231F20"/>
<path d="M71.8674 80.469C71.9158 80.5696 71.9847 80.6516 72.0704 80.7112C72.1561 80.7708 72.2585 80.8136 72.3759 80.8397C72.4932 80.8658 72.618 80.8788 72.7521 80.8788C72.8285 80.8788 72.9123 80.8676 73.0017 80.8453C73.0911 80.8229 73.1749 80.7894 73.2532 80.741C73.3314 80.6926 73.3966 80.6311 73.4469 80.5566C73.4991 80.4821 73.5251 80.3908 73.5251 80.2846C73.5251 80.2027 73.5065 80.1319 73.4693 80.0723C73.432 80.0127 73.3854 79.9624 73.3258 79.9214C73.2662 79.8804 73.2029 79.8469 73.1321 79.8208C73.0613 79.7947 72.9924 79.7743 72.9235 79.7575L72.2716 79.5973C72.1877 79.575 72.1039 79.5489 72.0238 79.5153C71.9437 79.4818 71.8729 79.439 71.8133 79.385C71.7537 79.3309 71.7053 79.2639 71.6681 79.1838C71.6308 79.1056 71.6122 79.0068 71.6122 78.8932C71.6122 78.8224 71.6252 78.7386 71.6531 78.6436C71.6811 78.5486 71.7314 78.4574 71.8059 78.3735C71.8804 78.2897 71.9847 78.2171 72.1151 78.1593C72.2455 78.0997 72.4131 78.0718 72.618 78.0718C72.7633 78.0718 72.9011 78.0904 73.0315 78.1295C73.1619 78.1668 73.2774 78.2245 73.3761 78.3009C73.4748 78.3773 73.5531 78.4723 73.6108 78.5859C73.6704 78.6995 73.6984 78.8299 73.6984 78.9808H73.419C73.4134 78.869 73.3873 78.7721 73.3426 78.6883C73.2979 78.6045 73.2383 78.5356 73.1656 78.4797C73.093 78.4238 73.011 78.381 72.916 78.353C72.821 78.3251 72.7223 78.3102 72.6199 78.3102C72.5249 78.3102 72.4317 78.3195 72.3442 78.34C72.2548 78.3605 72.1766 78.394 72.1114 78.4387C72.0443 78.4834 71.9903 78.543 71.9493 78.6175C71.9083 78.692 71.8878 78.7833 71.8878 78.8914C71.8878 78.9603 71.899 79.018 71.9232 79.0702C71.9456 79.1205 71.9791 79.1633 72.0201 79.1987C72.0611 79.2341 72.1076 79.262 72.1617 79.2844C72.2157 79.3067 72.2716 79.3235 72.3312 79.3384L73.0427 79.5135C73.147 79.5414 73.2439 79.575 73.3351 79.6141C73.4264 79.6532 73.5065 79.7035 73.5773 79.7612C73.6462 79.8208 73.7021 79.8916 73.7412 79.9754C73.7803 80.0592 73.8008 80.1617 73.8008 80.2828C73.8008 80.3163 73.7971 80.3591 73.7915 80.4132C73.784 80.4672 73.7691 80.5268 73.7431 80.5882C73.717 80.6497 73.6797 80.7112 73.6332 80.7745C73.5847 80.8378 73.5195 80.8937 73.4357 80.944C73.3519 80.9943 73.2495 81.0353 73.1265 81.067C73.0036 81.0986 72.8564 81.1135 72.6851 81.1135C72.5137 81.1135 72.3535 81.093 72.2064 81.0539C72.0592 81.0148 71.9326 80.9533 71.8301 80.8714C71.7258 80.7894 71.6457 80.6851 71.5898 80.5566C71.5339 80.4281 71.5097 80.2735 71.519 80.0946H71.7984C71.7966 80.2455 71.8189 80.3703 71.8674 80.4709" fill="#231F20"/>
<path d="M75.4137 78.1313L76.5612 81.0557H76.2613L75.9055 80.1468H74.5755L74.2235 81.0557H73.9292L75.1045 78.1313H75.4156H75.4137ZM75.8105 79.9083L75.2461 78.4089L74.6612 79.9083H75.8124H75.8105Z" fill="#231F20"/>
<path d="M77.0269 80.469C77.0754 80.5696 77.1443 80.6516 77.23 80.7112C77.3156 80.7708 77.4181 80.8136 77.5354 80.8397C77.6528 80.8658 77.7776 80.8788 77.9117 80.8788C77.9881 80.8788 78.0719 80.8676 78.1613 80.8453C78.2507 80.8229 78.3345 80.7894 78.4128 80.741C78.491 80.6926 78.5562 80.6311 78.6065 80.5566C78.6586 80.4821 78.6847 80.3908 78.6847 80.2846C78.6847 80.2027 78.6661 80.1319 78.6288 80.0723C78.5916 80.0127 78.545 79.9624 78.4854 79.9214C78.4258 79.8804 78.3625 79.8469 78.2917 79.8208C78.2209 79.7947 78.152 79.7743 78.0831 79.7575L77.4311 79.5973C77.3473 79.575 77.2635 79.5489 77.1834 79.5153C77.1033 79.4818 77.0325 79.439 76.9729 79.385C76.9133 79.3309 76.8649 79.2639 76.8276 79.1838C76.7904 79.1056 76.7717 79.0068 76.7717 78.8932C76.7717 78.8224 76.7848 78.7386 76.8127 78.6436C76.8407 78.5486 76.891 78.4574 76.9655 78.3735C77.04 78.2897 77.1443 78.2171 77.2747 78.1593C77.4051 78.0997 77.5727 78.0718 77.7776 78.0718C77.9229 78.0718 78.0607 78.0904 78.1911 78.1295C78.3215 78.1668 78.437 78.2245 78.5357 78.3009C78.6344 78.3773 78.7126 78.4723 78.7704 78.5859C78.83 78.6995 78.8579 78.8299 78.8579 78.9808H78.5785C78.5729 78.869 78.5487 78.7721 78.5022 78.6883C78.4575 78.6045 78.3979 78.5356 78.3252 78.4797C78.2526 78.4238 78.1706 78.381 78.0756 78.353C77.9806 78.3251 77.8819 78.3102 77.7795 78.3102C77.6845 78.3102 77.5913 78.3195 77.5038 78.34C77.4144 78.3605 77.338 78.394 77.2709 78.4387C77.2039 78.4834 77.1499 78.543 77.1089 78.6175C77.0679 78.692 77.0474 78.7833 77.0474 78.8914C77.0474 78.9603 77.0586 79.018 77.0828 79.0702C77.1052 79.1205 77.1387 79.1633 77.1797 79.1987C77.2207 79.2341 77.2672 79.262 77.3212 79.2844C77.3752 79.3067 77.4311 79.3235 77.4907 79.3384L78.2023 79.5135C78.3066 79.5414 78.4034 79.575 78.4947 79.6141C78.586 79.6532 78.6661 79.7035 78.7369 79.7612C78.8058 79.8208 78.8617 79.8916 78.9008 79.9754C78.9399 80.0592 78.9604 80.1617 78.9604 80.2828C78.9604 80.3163 78.9567 80.3591 78.9511 80.4132C78.9436 80.4672 78.9287 80.5268 78.9026 80.5882C78.8766 80.6497 78.8393 80.7112 78.7927 80.7745C78.7443 80.8378 78.6791 80.8937 78.5953 80.944C78.5115 80.9943 78.409 81.0353 78.2861 81.067C78.1632 81.0986 78.016 81.1135 77.8428 81.1135C77.6696 81.1135 77.5112 81.093 77.3641 81.0539C77.2169 81.0148 77.0903 80.9533 76.9878 80.8714C76.8835 80.7894 76.8034 80.6851 76.7475 80.5566C76.6917 80.4281 76.6674 80.2735 76.6767 80.0946H76.9562C76.9543 80.2455 76.9766 80.3703 77.0251 80.4709" fill="#231F20"/>
<path d="M4.02327 83.1811C3.96739 83.0917 3.89847 83.0172 3.81838 82.9576C3.73829 82.898 3.64888 82.8514 3.55202 82.8197C3.45516 82.7881 3.35271 82.7732 3.24654 82.7732C3.05282 82.7732 2.88518 82.8104 2.74734 82.8831C2.60764 82.9576 2.49402 83.0544 2.40461 83.1755C2.31521 83.2966 2.25001 83.4344 2.20903 83.5872C2.16619 83.7399 2.1457 83.8964 2.1457 84.0584C2.1457 84.2205 2.16619 84.3732 2.20903 84.5278C2.25187 84.6824 2.31707 84.8203 2.40461 84.9413C2.49402 85.0624 2.60764 85.1611 2.74734 85.2338C2.88704 85.3083 3.05282 85.3437 3.24654 85.3437C3.38252 85.3437 3.50545 85.3195 3.61535 85.2692C3.72525 85.2207 3.81838 85.1537 3.89847 85.068C3.97671 84.9842 4.0419 84.8836 4.09033 84.7718C4.13876 84.6582 4.17042 84.5371 4.18533 84.4049H4.46286C4.44424 84.5856 4.4014 84.7476 4.3362 84.8929C4.27101 85.0382 4.18533 85.1611 4.08288 85.2617C3.97857 85.3623 3.8575 85.4405 3.71593 85.4945C3.57437 85.5486 3.41977 85.5765 3.24654 85.5765C3.01743 85.5765 2.81626 85.5355 2.64304 85.4517C2.46981 85.3679 2.32638 85.258 2.2109 85.1183C2.09727 84.9786 2.00973 84.8184 1.95385 84.6359C1.8961 84.4533 1.86816 84.2615 1.86816 84.0584C1.86816 83.8554 1.8961 83.6635 1.95385 83.481C2.01159 83.2985 2.09727 83.1364 2.2109 82.9967C2.32638 82.857 2.46981 82.7434 2.64304 82.6614C2.81626 82.5776 3.01743 82.5366 3.24654 82.5366C3.38624 82.5366 3.52222 82.5571 3.65447 82.5981C3.78671 82.6391 3.90779 82.7005 4.01582 82.7806C4.12386 82.8607 4.21327 82.9594 4.28591 83.0768C4.35855 83.1941 4.40326 83.3301 4.42375 83.4829H4.14435C4.12013 83.3711 4.07915 83.2705 4.02327 83.1811Z" fill="#231F20"/>
<path d="M4.82055 83.4829C4.87829 83.3003 4.96397 83.1383 5.07759 82.9967C5.19308 82.857 5.33651 82.7452 5.50973 82.6614C5.68296 82.5776 5.88413 82.5366 6.11324 82.5366C6.34235 82.5366 6.54352 82.5776 6.71488 82.6614C6.88625 82.7452 7.02967 82.857 7.14516 82.9967C7.26064 83.1383 7.34633 83.2985 7.40407 83.4829C7.46181 83.6654 7.48975 83.8573 7.48975 84.0603C7.48975 84.2633 7.46181 84.4552 7.40407 84.6377C7.34633 84.8203 7.26064 84.9823 7.14516 85.1201C7.02967 85.2598 6.88811 85.3697 6.71488 85.4536C6.54352 85.5374 6.34235 85.5784 6.11324 85.5784C5.88413 85.5784 5.68296 85.5374 5.50973 85.4536C5.33651 85.3697 5.19308 85.2598 5.07759 85.1201C4.96397 84.9804 4.87643 84.8203 4.82055 84.6377C4.7628 84.4552 4.73486 84.2615 4.73486 84.0603C4.73486 83.8591 4.7628 83.6654 4.82055 83.4829ZM5.07573 84.5278C5.11857 84.6824 5.18377 84.8203 5.27317 84.9413C5.36258 85.0624 5.47621 85.1611 5.61591 85.2338C5.75561 85.3064 5.92138 85.3437 6.1151 85.3437C6.30882 85.3437 6.4746 85.3064 6.61244 85.2338C6.75027 85.1593 6.8639 85.0624 6.95144 84.9413C7.04085 84.8203 7.10604 84.6824 7.14888 84.5278C7.19173 84.3732 7.21221 84.2167 7.21221 84.0584C7.21221 83.9001 7.19173 83.7399 7.14888 83.5872C7.10604 83.4344 7.04085 83.2966 6.95144 83.1755C6.86203 83.0544 6.75027 82.9557 6.61244 82.8831C6.4746 82.8086 6.30882 82.7732 6.1151 82.7732C5.92138 82.7732 5.75561 82.8104 5.61591 82.8831C5.47621 82.9557 5.36258 83.0544 5.27317 83.1755C5.18377 83.2966 5.11857 83.4344 5.07573 83.5872C5.03289 83.7399 5.0124 83.8964 5.0124 84.0584C5.0124 84.2205 5.03289 84.3732 5.07573 84.5278Z" fill="#231F20"/>
<path d="M8.32409 82.5981L9.29455 85.1612L10.3023 82.5981H10.712V85.5207H10.4326V82.9949H10.4252L9.42679 85.5207H9.16416L8.20116 82.9949H8.19371V85.5207H7.91431V82.5981H8.32409Z" fill="#231F20"/>
<path d="M13.3032 82.5981V82.8347H11.5634V83.8908H13.1933V84.1293H11.5634V85.2841H13.3237V85.5207H11.2859V82.5981H13.3032Z" fill="#231F20"/>
<path d="M15.0522 82.5981C15.1732 82.5981 15.2868 82.613 15.3949 82.6428C15.5029 82.6727 15.5961 82.7192 15.678 82.7807C15.7581 82.8422 15.8233 82.9222 15.8699 83.0191C15.9183 83.116 15.9406 83.2296 15.9406 83.36C15.9406 83.5462 15.8922 83.7064 15.7972 83.8424C15.7022 83.9784 15.5607 84.0659 15.3707 84.105V84.1125C15.4657 84.1255 15.5458 84.1516 15.6091 84.1889C15.6724 84.2261 15.7227 84.2727 15.7618 84.3304C15.8009 84.3882 15.8307 84.4534 15.8475 84.5297C15.8643 84.6042 15.8773 84.6862 15.8829 84.7737C15.8866 84.8222 15.8885 84.8836 15.8904 84.9544C15.8941 85.0252 15.8978 85.0978 15.9071 85.1705C15.9146 85.2431 15.9276 85.3102 15.9462 85.3754C15.963 85.4387 15.9872 85.489 16.017 85.5244H15.7097C15.6929 85.4965 15.6799 85.4629 15.6706 85.4238C15.6612 85.3847 15.6538 85.3437 15.6501 85.3009C15.6463 85.258 15.6426 85.2171 15.6389 85.1761C15.637 85.1351 15.6333 85.0997 15.6314 85.0699C15.6259 84.9656 15.6165 84.8632 15.6054 84.7607C15.5923 84.6583 15.5681 84.567 15.5271 84.4869C15.488 84.4068 15.4303 84.3416 15.3558 84.2932C15.2813 84.2447 15.177 84.2224 15.0466 84.228H13.9904V85.5263H13.7129V82.6019H15.0522V82.5981ZM15.0317 83.9858C15.1155 83.9858 15.1974 83.9728 15.2738 83.9467C15.3502 83.9206 15.4172 83.8834 15.475 83.835C15.5327 83.7865 15.5774 83.7269 15.6128 83.6561C15.6463 83.5872 15.6631 83.5071 15.6631 83.4159C15.6631 83.2352 15.611 83.0936 15.5085 82.9893C15.4042 82.885 15.2459 82.8347 15.0335 82.8347H13.9942V83.9858H15.0335H15.0317Z" fill="#231F20"/>
<path d="M18.4608 83.1811C18.4049 83.0917 18.336 83.0172 18.2559 82.9576C18.1758 82.898 18.0864 82.8514 17.9895 82.8197C17.8927 82.7881 17.7902 82.7732 17.684 82.7732C17.4903 82.7732 17.3227 82.8104 17.1848 82.8831C17.0451 82.9576 16.9315 83.0544 16.8421 83.1755C16.7527 83.2966 16.6875 83.4344 16.6465 83.5872C16.6037 83.7399 16.5832 83.8964 16.5832 84.0584C16.5832 84.2205 16.6037 84.3732 16.6465 84.5278C16.6894 84.6824 16.7546 84.8203 16.8421 84.9413C16.9315 85.0624 17.0451 85.1611 17.1848 85.2338C17.3245 85.3083 17.4903 85.3437 17.684 85.3437C17.82 85.3437 17.943 85.3195 18.0528 85.2692C18.1627 85.2207 18.2559 85.1537 18.336 85.068C18.4142 84.9842 18.4794 84.8836 18.5278 84.7718C18.5763 84.6582 18.6079 84.5371 18.6228 84.4049H18.9004C18.8817 84.5856 18.8389 84.7476 18.7737 84.8929C18.7085 85.0382 18.6228 85.1611 18.5204 85.2617C18.4161 85.3623 18.295 85.4405 18.1534 85.4945C18.0119 85.5486 17.8573 85.5765 17.684 85.5765C17.4549 85.5765 17.2538 85.5355 17.0805 85.4517C16.9073 85.3679 16.7639 85.258 16.6484 85.1183C16.5348 84.9786 16.4472 84.8184 16.3913 84.6359C16.3336 84.4533 16.3057 84.2615 16.3057 84.0584C16.3057 83.8554 16.3336 83.6635 16.3913 83.481C16.4491 83.2985 16.5348 83.1364 16.6484 82.9967C16.7639 82.857 16.9073 82.7434 17.0805 82.6614C17.2538 82.5776 17.4549 82.5366 17.684 82.5366C17.8237 82.5366 17.9597 82.5571 18.092 82.5981C18.2242 82.6391 18.3453 82.7005 18.4533 82.7806C18.5614 82.8607 18.6508 82.9594 18.7234 83.0768C18.7961 83.1941 18.8408 83.3301 18.8612 83.4829H18.5818C18.5576 83.3711 18.5167 83.2705 18.4608 83.1811Z" fill="#231F20"/>
<path d="M19.6268 82.5981H19.3474V85.5207H19.6268V82.5981Z" fill="#231F20"/>
<path d="M21.4019 82.5981L22.5475 85.5207H22.2495L21.8937 84.6117H20.5619L20.2098 85.5207H19.9155L21.0909 82.5981H21.4019ZM21.7987 84.3751L21.2343 82.8757L20.6494 84.3751H21.8006H21.7987Z" fill="#231F20"/>
<path d="M23.1156 82.5981H22.8362V85.5207H23.1156V82.5981Z" fill="#231F20"/>
<path d="M23.924 84.9356C23.9725 85.0362 24.0414 85.1181 24.1271 85.1777C24.2127 85.2373 24.3152 85.2802 24.4325 85.3063C24.5499 85.3323 24.6747 85.3454 24.8088 85.3454C24.8852 85.3454 24.969 85.3342 25.0584 85.3118C25.1478 85.2895 25.2316 85.256 25.3099 85.2075C25.3881 85.1591 25.4533 85.0976 25.5036 85.0231C25.5557 84.9486 25.5818 84.8574 25.5818 84.7512C25.5818 84.6692 25.5632 84.5984 25.5259 84.5388C25.4887 84.4792 25.4421 84.4289 25.3825 84.388C25.3248 84.347 25.2596 84.3135 25.1888 84.2874C25.118 84.2613 25.0491 84.2408 24.9802 84.224L24.3282 84.0639C24.2444 84.0415 24.1606 84.0154 24.0805 83.9819C24.0004 83.9484 23.9296 83.9055 23.87 83.8515C23.8104 83.7975 23.762 83.7304 23.7247 83.6503C23.6875 83.5721 23.6688 83.4734 23.6688 83.3598C23.6688 83.289 23.6819 83.2052 23.7098 83.1102C23.7378 83.0152 23.7881 82.9239 23.8644 82.8401C23.9389 82.7563 24.0432 82.6836 24.1736 82.6259C24.304 82.5663 24.4717 82.5383 24.6766 82.5383C24.8218 82.5383 24.9597 82.557 25.0901 82.5961C25.2205 82.6352 25.3359 82.6911 25.4347 82.7674C25.5334 82.8438 25.6116 82.9388 25.6694 83.0524C25.7271 83.166 25.7569 83.2964 25.7569 83.4473H25.4775C25.4719 83.3356 25.4477 83.2387 25.4011 83.1549C25.3564 83.0711 25.2968 83.0021 25.226 82.9463C25.1534 82.8904 25.0714 82.8475 24.9764 82.8196C24.8814 82.7917 24.7827 82.7768 24.6803 82.7768C24.5853 82.7768 24.4921 82.7861 24.4046 82.8084C24.3152 82.8289 24.2388 82.8624 24.1718 82.9071C24.1047 82.9518 24.0507 83.0114 24.0097 83.086C23.9687 83.1605 23.9482 83.2517 23.9482 83.3598C23.9482 83.4287 23.9594 83.4864 23.9836 83.5386C24.006 83.5889 24.0395 83.6317 24.0805 83.6671C24.1215 83.7025 24.168 83.7304 24.2221 83.7528C24.2742 83.7751 24.332 83.7919 24.3916 83.8068L25.1031 83.9819C25.2074 84.0098 25.3043 84.0434 25.3955 84.0825C25.4868 84.1216 25.5669 84.1719 25.6377 84.2296C25.7085 84.2874 25.7625 84.36 25.8016 84.4438C25.8407 84.5277 25.8612 84.6301 25.8612 84.7512C25.8612 84.7847 25.8575 84.8275 25.8519 84.8816C25.8444 84.9356 25.8295 84.9952 25.8035 85.0567C25.7774 85.1181 25.7401 85.1796 25.6936 85.2429C25.6451 85.3063 25.5799 85.3621 25.498 85.4124C25.4142 85.4627 25.3117 85.5037 25.1888 85.5354C25.0659 85.567 24.9187 85.5819 24.7473 85.5819C24.576 85.5819 24.4158 85.5614 24.2686 85.5223C24.1215 85.4832 23.9948 85.4217 23.8924 85.3398C23.7881 85.2578 23.708 85.1535 23.6521 85.025C23.5962 84.8965 23.572 84.7419 23.5794 84.5631H23.8588C23.8551 84.7139 23.8793 84.8387 23.9278 84.9393" fill="#231F20"/>
<path d="M27.7407 82.5981H27.4631V85.5207H27.7407V82.5981Z" fill="#231F20"/>
<path d="M28.7521 82.5981L29.7225 85.1612L30.7302 82.5981H31.1382V85.5207H30.8606V82.9949H30.8532L29.8529 85.5207H29.5921L28.6291 82.9949H28.6217V85.5207H28.3423V82.5981H28.7521Z" fill="#231F20"/>
<path d="M33.01 82.5981C33.1404 82.5981 33.2596 82.6168 33.3658 82.654C33.472 82.6913 33.5633 82.7453 33.6396 82.8179C33.716 82.8906 33.7756 82.9781 33.8166 83.0824C33.8576 83.1867 33.878 83.3041 33.878 83.4345C33.878 83.5649 33.8576 83.6822 33.8166 83.7865C33.7756 83.8908 33.716 83.9784 33.6396 84.051C33.5633 84.1237 33.472 84.1777 33.3658 84.2149C33.2596 84.2522 33.1404 84.2708 33.01 84.2708H31.9912V85.5244H31.7136V82.6H33.0119L33.01 82.5981ZM32.9486 84.0305C33.1423 84.0305 33.2988 83.9821 33.4198 83.8834C33.539 83.7847 33.6005 83.6357 33.6005 83.4326C33.6005 83.2296 33.5409 83.0806 33.4198 82.9819C33.3006 82.8831 33.1423 82.8347 32.9486 82.8347H31.9912V84.0305H32.9486Z" fill="#231F20"/>
<path d="M34.2226 83.4829C34.2804 83.3003 34.3661 83.1383 34.4816 82.9967C34.5952 82.857 34.7405 82.7452 34.9137 82.6614C35.0869 82.5776 35.2881 82.5366 35.5172 82.5366C35.7463 82.5366 35.9475 82.5776 36.1188 82.6614C36.2902 82.7452 36.4336 82.857 36.5491 82.9967C36.6646 83.1383 36.7503 83.2985 36.808 83.4829C36.8658 83.6654 36.8937 83.8573 36.8937 84.0603C36.8937 84.2633 36.8658 84.4552 36.808 84.6377C36.7503 84.8203 36.6646 84.9823 36.5491 85.1201C36.4336 85.2598 36.2921 85.3697 36.1188 85.4536C35.9475 85.5374 35.7463 85.5784 35.5172 85.5784C35.2881 85.5784 35.0869 85.5374 34.9137 85.4536C34.7405 85.3697 34.597 85.2598 34.4816 85.1201C34.3661 84.9804 34.2804 84.8203 34.2226 84.6377C34.1649 84.4552 34.137 84.2615 34.137 84.0603C34.137 83.8591 34.1649 83.6654 34.2226 83.4829ZM34.4778 84.5278C34.5207 84.6824 34.5859 84.8203 34.6753 84.9413C34.7647 85.0624 34.8783 85.1611 35.018 85.2338C35.1577 85.3064 35.3235 85.3437 35.5172 85.3437C35.7109 85.3437 35.8767 85.3064 36.0145 85.2338C36.1524 85.1593 36.266 85.0624 36.3535 84.9413C36.4429 84.8203 36.5081 84.6824 36.551 84.5278C36.5938 84.3732 36.6143 84.2167 36.6143 84.0584C36.6143 83.9001 36.5938 83.7399 36.551 83.5872C36.5081 83.4344 36.4429 83.2966 36.3535 83.1755C36.2641 83.0544 36.1524 82.9557 36.0145 82.8831C35.8767 82.8086 35.7109 82.7732 35.5172 82.7732C35.3235 82.7732 35.1577 82.8104 35.018 82.8831C34.8783 82.9557 34.7647 83.0544 34.6753 83.1755C34.5859 83.2966 34.5207 83.4344 34.4778 83.5872C34.435 83.7399 34.4145 83.8964 34.4145 84.0584C34.4145 84.2205 34.435 84.3732 34.4778 84.5278Z" fill="#231F20"/>
<path d="M38.6652 82.5981C38.7863 82.5981 38.8999 82.613 39.0079 82.6428C39.116 82.6727 39.2091 82.7192 39.291 82.7807C39.3711 82.8422 39.4363 82.9222 39.4829 83.0191C39.5313 83.116 39.5537 83.2296 39.5537 83.36C39.5537 83.5462 39.5053 83.7064 39.4103 83.8424C39.3153 83.9784 39.1737 84.0659 38.9837 84.105V84.1125C39.0787 84.1255 39.1588 84.1516 39.2221 84.1889C39.2855 84.2261 39.3357 84.2727 39.3749 84.3304C39.414 84.3882 39.4438 84.4534 39.4605 84.5297C39.4773 84.6042 39.4903 84.6862 39.4959 84.7737C39.4997 84.8222 39.5015 84.8836 39.5034 84.9544C39.5053 85.0252 39.5108 85.0978 39.5202 85.1705C39.5276 85.2431 39.5406 85.3102 39.5593 85.3754C39.576 85.4387 39.6002 85.489 39.6301 85.5244H39.3227C39.3059 85.4965 39.2929 85.4629 39.2836 85.4238C39.2743 85.3847 39.2668 85.3437 39.2631 85.3009C39.2594 85.258 39.2557 85.2171 39.2519 85.1761C39.2501 85.1351 39.2463 85.0997 39.2445 85.0699C39.2389 84.9656 39.2296 84.8632 39.2184 84.7607C39.2054 84.6583 39.1793 84.567 39.1402 84.4869C39.1011 84.4068 39.0433 84.3416 38.9688 84.2932C38.8943 84.2447 38.79 84.2224 38.6596 84.228H37.6035V85.5263H37.3259V82.6019H38.6652V82.5981ZM38.6447 83.9858C38.7285 83.9858 38.8105 83.9728 38.8868 83.9467C38.9632 83.9206 39.0303 83.8834 39.088 83.835C39.1458 83.7865 39.1905 83.7269 39.2259 83.6561C39.2594 83.5872 39.2761 83.5071 39.2761 83.4159C39.2761 83.2352 39.224 83.0936 39.1215 82.9893C39.0172 82.885 38.8589 82.8347 38.6466 82.8347H37.6072V83.9858H38.6466H38.6447Z" fill="#231F20"/>
<path d="M42.0832 82.5981V82.8347H41.0643V85.5207H40.7849V82.8347H39.7698V82.5981H42.0832Z" fill="#231F20"/>
<path d="M43.2472 82.5981L44.3928 85.5207H44.0948L43.739 84.6117H42.409L42.057 85.5207H41.7627L42.938 82.5981H43.2491H43.2472ZM43.644 84.3751L43.0796 82.8757L42.4947 84.3751H43.6459H43.644Z" fill="#231F20"/>
<path d="M45.6706 82.5981C46.1158 82.6093 46.4511 82.7341 46.6765 82.9725C46.9018 83.211 47.0136 83.5742 47.0136 84.0603C47.0136 84.5465 46.9018 84.9079 46.6765 85.1481C46.4511 85.3866 46.1158 85.5114 45.6706 85.5225H44.6592V82.6H45.6706V82.5981ZM45.5309 85.2841C45.7414 85.2841 45.9221 85.2618 46.0729 85.2171C46.2238 85.1724 46.3486 85.0997 46.4473 85.0029C46.5461 84.9041 46.6187 84.7775 46.6634 84.6229C46.71 84.4683 46.7323 84.2801 46.7323 84.0622C46.7323 83.8443 46.71 83.6561 46.6634 83.5015C46.6168 83.3469 46.5442 83.2184 46.4473 83.1216C46.3486 83.0228 46.2238 82.9521 46.0729 82.9073C45.9221 82.8626 45.7414 82.8403 45.5309 82.8403H44.9367V85.2897H45.5309V85.2841Z" fill="#231F20"/>
<path d="M47.3938 83.4829C47.4515 83.3003 47.5372 83.1383 47.6508 82.9967C47.7663 82.857 47.9097 82.7452 48.083 82.6614C48.2562 82.5776 48.4574 82.5366 48.6865 82.5366C48.9156 82.5366 49.1168 82.5776 49.2881 82.6614C49.4595 82.7452 49.6029 82.857 49.7184 82.9967C49.8339 83.1383 49.9196 83.2985 49.9773 83.4829C50.0351 83.6654 50.063 83.8573 50.063 84.0603C50.063 84.2633 50.0351 84.4552 49.9773 84.6377C49.9196 84.8203 49.8339 84.9823 49.7184 85.1201C49.6029 85.2598 49.4614 85.3697 49.2881 85.4536C49.1168 85.5374 48.9156 85.5784 48.6865 85.5784C48.4574 85.5784 48.2562 85.5374 48.083 85.4536C47.9097 85.3697 47.7663 85.2598 47.6508 85.1201C47.5372 84.9804 47.4497 84.8203 47.3938 84.6377C47.336 84.4552 47.3081 84.2615 47.3081 84.0603C47.3081 83.8591 47.336 83.6654 47.3938 83.4829ZM47.6508 84.5278C47.6937 84.6824 47.7589 84.8203 47.8483 84.9413C47.9377 85.0624 48.0513 85.1611 48.191 85.2338C48.3307 85.3064 48.4965 85.3437 48.6902 85.3437C48.8839 85.3437 49.0497 85.3064 49.1875 85.2338C49.3254 85.1593 49.439 85.0624 49.5265 84.9413C49.616 84.8203 49.6812 84.6824 49.724 84.5278C49.7668 84.3732 49.7873 84.2167 49.7873 84.0584C49.7873 83.9001 49.7668 83.7399 49.724 83.5872C49.6812 83.4344 49.616 83.2966 49.5265 83.1755C49.4371 83.0544 49.3254 82.9557 49.1875 82.8831C49.0497 82.8086 48.8839 82.7732 48.6902 82.7732C48.4965 82.7732 48.3307 82.8104 48.191 82.8831C48.0513 82.9557 47.9377 83.0544 47.8483 83.1755C47.7589 83.2966 47.6937 83.4344 47.6508 83.5872C47.608 83.7399 47.5875 83.8964 47.5875 84.0584C47.5875 84.2205 47.608 84.3732 47.6508 84.5278Z" fill="#231F20"/>
<path d="M51.8361 82.5981C51.9572 82.5981 52.0708 82.613 52.1788 82.6428C52.2869 82.6727 52.38 82.7192 52.4619 82.7807C52.542 82.8422 52.6072 82.9222 52.6538 83.0191C52.7022 83.116 52.7246 83.2296 52.7246 83.36C52.7246 83.5462 52.6762 83.7064 52.5812 83.8424C52.4862 83.9784 52.3446 84.0659 52.1546 84.105V84.1125C52.2496 84.1255 52.3297 84.1516 52.393 84.1889C52.4564 84.2261 52.5066 84.2727 52.5458 84.3304C52.5849 84.3882 52.6147 84.4534 52.6314 84.5297C52.6482 84.6042 52.6612 84.6862 52.6668 84.7737C52.6706 84.8222 52.6724 84.8836 52.6743 84.9544C52.6762 85.0252 52.6817 85.0978 52.6911 85.1705C52.6985 85.2431 52.7115 85.3102 52.7302 85.3754C52.7469 85.4387 52.7711 85.489 52.8009 85.5244H52.4936C52.4768 85.4965 52.4638 85.4629 52.4545 85.4238C52.4452 85.3847 52.4377 85.3437 52.434 85.3009C52.4303 85.258 52.4266 85.2171 52.4228 85.1761C52.421 85.1351 52.4172 85.0997 52.4154 85.0699C52.4098 84.9656 52.4005 84.8632 52.3893 84.7607C52.3763 84.6583 52.3502 84.567 52.3111 84.4869C52.2719 84.4068 52.2142 84.3416 52.1397 84.2932C52.0652 84.2447 51.9609 84.2224 51.8305 84.228H50.7744V85.5263H50.4968V82.6019H51.8361V82.5981ZM51.8156 83.9858C51.8994 83.9858 51.9814 83.9728 52.0577 83.9467C52.1341 83.9206 52.2012 83.8834 52.2589 83.835C52.3167 83.7865 52.3614 83.7269 52.3967 83.6561C52.4303 83.5872 52.447 83.5071 52.447 83.4159C52.447 83.2352 52.3949 83.0936 52.2924 82.9893C52.1881 82.885 52.0298 82.8347 51.8175 82.8347H50.7781V83.9858H51.8175H51.8156Z" fill="#231F20"/>
<path d="M54.3953 82.5981L55.5409 85.5207H55.2429L54.8871 84.6117H53.5553L53.2032 85.5207H52.9089L54.0843 82.5981H54.3953ZM54.7921 84.3751L54.2277 82.8757L53.6428 84.3751H54.794H54.7921Z" fill="#231F20"/>
<path d="M56.0085 84.9356C56.0569 85.0362 56.1259 85.1181 56.2115 85.1777C56.2972 85.2373 56.3997 85.2802 56.517 85.3063C56.6344 85.3323 56.7592 85.3454 56.8933 85.3454C56.9696 85.3454 57.0535 85.3342 57.1429 85.3118C57.2323 85.2895 57.3161 85.256 57.3943 85.2075C57.4726 85.1591 57.5378 85.0976 57.588 85.0231C57.6402 84.9486 57.6663 84.8574 57.6663 84.7512C57.6663 84.6692 57.6477 84.5984 57.6104 84.5388C57.5732 84.4792 57.5266 84.4289 57.467 84.388C57.4092 84.347 57.344 84.3135 57.2733 84.2874C57.2025 84.2613 57.1336 84.2408 57.0646 84.224L56.4127 84.0639C56.3289 84.0415 56.2451 84.0154 56.165 83.9819C56.0849 83.9484 56.0141 83.9055 55.9545 83.8515C55.8949 83.7975 55.8465 83.7304 55.8092 83.6503C55.7719 83.5721 55.7533 83.4734 55.7533 83.3598C55.7533 83.289 55.7664 83.2052 55.7943 83.1102C55.8222 83.0152 55.8725 82.9239 55.9489 82.8401C56.0234 82.7563 56.1277 82.6836 56.2581 82.6259C56.3885 82.5663 56.5561 82.5383 56.761 82.5383C56.9063 82.5383 57.0442 82.557 57.1745 82.5961C57.3049 82.6352 57.4204 82.6911 57.5191 82.7674C57.6179 82.8438 57.6961 82.9388 57.7538 83.0524C57.8116 83.166 57.8414 83.2964 57.8414 83.4473H57.562C57.5564 83.3356 57.5303 83.2387 57.4856 83.1549C57.4409 83.0711 57.3813 83.0021 57.3105 82.9463C57.2379 82.8904 57.1559 82.8475 57.0609 82.8196C56.9659 82.7917 56.8672 82.7768 56.7648 82.7768C56.6698 82.7768 56.5766 82.7861 56.4891 82.8084C56.3997 82.8289 56.3214 82.8624 56.2562 82.9071C56.1892 82.9518 56.1352 83.0114 56.0942 83.086C56.0532 83.1605 56.0327 83.2517 56.0327 83.3598C56.0327 83.4287 56.0439 83.4864 56.0681 83.5386C56.0905 83.5889 56.124 83.6317 56.165 83.6671C56.2059 83.7025 56.2525 83.7304 56.3065 83.7528C56.3587 83.7751 56.4164 83.7919 56.476 83.8068L57.1876 83.9819C57.2919 84.0098 57.3887 84.0434 57.48 84.0825C57.5713 84.1216 57.6514 84.1719 57.7222 84.2296C57.7929 84.2874 57.847 84.36 57.8861 84.4438C57.9252 84.5277 57.9457 84.6301 57.9457 84.7512C57.9457 84.7847 57.942 84.8275 57.9364 84.8816C57.9289 84.9356 57.914 84.9952 57.8879 85.0567C57.8619 85.1181 57.8246 85.1796 57.778 85.2429C57.7296 85.3063 57.6644 85.3621 57.5825 85.4124C57.4986 85.4627 57.3962 85.5037 57.2733 85.5354C57.1503 85.567 57.0032 85.5819 56.8318 85.5819C56.6604 85.5819 56.5003 85.5614 56.3531 85.5223C56.206 85.4832 56.0793 85.4217 55.9768 85.3398C55.8725 85.2578 55.7924 85.1535 55.7366 85.025C55.6807 84.8965 55.6565 84.7419 55.6639 84.5631H55.9433C55.9396 84.7139 55.9638 84.8387 56.0122 84.9393" fill="#231F20"/>
<path d="M61.5444 82.5981V82.8347H59.8046V83.8908H61.4345V84.1293H59.8046V85.2841H61.5649V85.5207H59.5271V82.5981H61.5444Z" fill="#231F20"/>
<path d="M65.1114 82.5981V82.8347H63.3717V83.8908H65.0015V84.1293H63.3717V85.2841H65.1319V85.5207H63.0923V82.5981H65.1114Z" fill="#231F20"/>
<path d="M65.5657 82.5981L66.3928 83.8219L67.2477 82.5981H67.5588L66.5604 84.0231L67.6166 85.5207H67.2813L66.3928 84.2317L65.4912 85.5207H65.1802L66.2289 84.0138L65.2379 82.5981H65.5657Z" fill="#231F20"/>
<path d="M69.1682 82.5981C69.2986 82.5981 69.4178 82.6168 69.524 82.654C69.6302 82.6913 69.7215 82.7453 69.7978 82.8179C69.8742 82.8906 69.9338 82.9781 69.9748 83.0824C70.0158 83.1867 70.0362 83.3041 70.0362 83.4345C70.0362 83.5649 70.0158 83.6822 69.9748 83.7865C69.9338 83.8908 69.8742 83.9784 69.7978 84.051C69.7215 84.1237 69.6302 84.1777 69.524 84.2149C69.4178 84.2522 69.2986 84.2708 69.1682 84.2708H68.1494V85.5244H67.8718V82.6H69.1701L69.1682 82.5981ZM69.1068 84.0305C69.3005 84.0305 69.457 83.9821 69.578 83.8834C69.6972 83.7847 69.7587 83.6357 69.7587 83.4326C69.7587 83.2296 69.6991 83.0806 69.578 82.9819C69.4588 82.8831 69.3005 82.8347 69.1068 82.8347H68.1494V84.0305H69.1068Z" fill="#231F20"/>
<path d="M70.3809 83.4829C70.4386 83.3003 70.5243 83.1383 70.6379 82.9967C70.7534 82.857 70.8968 82.7452 71.07 82.6614C71.2433 82.5776 71.4444 82.5366 71.6735 82.5366C71.9027 82.5366 72.1038 82.5776 72.2752 82.6614C72.4466 82.7452 72.59 82.857 72.7055 82.9967C72.8209 83.1383 72.9066 83.2985 72.9625 83.4829C73.0203 83.6654 73.0482 83.8573 73.0482 84.0603C73.0482 84.2633 73.0203 84.4552 72.9625 84.6377C72.9048 84.8203 72.8191 84.9823 72.7055 85.1201C72.59 85.2598 72.4466 85.3697 72.2752 85.4536C72.1038 85.5374 71.9027 85.5784 71.6735 85.5784C71.4444 85.5784 71.2433 85.5374 71.07 85.4536C70.8968 85.3697 70.7534 85.2598 70.6379 85.1201C70.5243 84.9804 70.4367 84.8203 70.3809 84.6377C70.3231 84.4552 70.2952 84.2615 70.2952 84.0603C70.2952 83.8591 70.3231 83.6654 70.3809 83.4829ZM70.636 84.5278C70.6789 84.6824 70.7441 84.8203 70.8316 84.9413C70.921 85.0624 71.0346 85.1611 71.1743 85.2338C71.314 85.3064 71.4798 85.3437 71.6735 85.3437C71.8673 85.3437 72.033 85.3064 72.1709 85.2338C72.3087 85.1593 72.4223 85.0624 72.5099 84.9413C72.5993 84.8203 72.6645 84.6824 72.7073 84.5278C72.7502 84.3732 72.7707 84.2167 72.7707 84.0584C72.7707 83.9001 72.7502 83.7399 72.7073 83.5872C72.6645 83.4344 72.5993 83.2966 72.5099 83.1755C72.4205 83.0544 72.3087 82.9557 72.1709 82.8831C72.033 82.8086 71.8673 82.7732 71.6735 82.7732C71.4798 82.7732 71.314 82.8104 71.1743 82.8831C71.0346 82.9557 70.921 83.0544 70.8316 83.1755C70.7422 83.2966 70.677 83.4344 70.636 83.5872C70.5932 83.7399 70.5727 83.8964 70.5727 84.0584C70.5727 84.2205 70.5932 84.3732 70.636 84.5278Z" fill="#231F20"/>
<path d="M74.8232 82.5981C74.9443 82.5981 75.0579 82.613 75.166 82.6428C75.274 82.6727 75.3671 82.7192 75.4491 82.7807C75.5292 82.8422 75.5944 82.9222 75.641 83.0191C75.6894 83.116 75.7117 83.2296 75.7117 83.36C75.7117 83.5462 75.6633 83.7064 75.5683 83.8424C75.4733 83.9784 75.3317 84.0659 75.1418 84.105V84.1125C75.2368 84.1255 75.3168 84.1516 75.3802 84.1889C75.4435 84.2261 75.4938 84.2727 75.5329 84.3304C75.572 84.3882 75.6018 84.4534 75.6186 84.5297C75.6354 84.6042 75.6484 84.6862 75.654 84.7737C75.6559 84.8222 75.6596 84.8836 75.6614 84.9544C75.6633 85.0252 75.6689 85.0978 75.6782 85.1705C75.6857 85.2431 75.6987 85.3102 75.7173 85.3754C75.7341 85.4387 75.7583 85.489 75.7881 85.5244H75.4808C75.464 85.4965 75.451 85.4629 75.4416 85.4238C75.4323 85.3847 75.4249 85.3437 75.4212 85.3009C75.4174 85.258 75.4137 85.2171 75.4118 85.1761C75.41 85.1351 75.4063 85.0997 75.4044 85.0699C75.3988 84.9656 75.3895 84.8632 75.3783 84.7607C75.3653 84.6583 75.3411 84.567 75.3001 84.4869C75.261 84.4068 75.2032 84.3416 75.1287 84.2932C75.0542 84.2447 74.9499 84.2224 74.8195 84.228H73.7634V85.5263H73.4858V82.6019H74.8251L74.8232 82.5981ZM74.8027 83.9858C74.8866 83.9858 74.9685 83.9728 75.0449 83.9467C75.1213 83.9206 75.1883 83.8834 75.2461 83.835C75.3038 83.7865 75.3485 83.7269 75.3839 83.6561C75.4174 83.5872 75.4342 83.5071 75.4342 83.4159C75.4342 83.2352 75.382 83.0936 75.2796 82.9893C75.1753 82.885 75.017 82.8347 74.8046 82.8347H73.7652V83.9858H74.8046H74.8027Z" fill="#231F20"/>
<path d="M78.2431 82.5981V82.8347H77.2224V85.5207H76.9448V82.8347H75.9297V82.5981H78.2431Z" fill="#231F20"/>
<path d="M79.4054 82.5981L80.5529 85.5207H80.253L79.8972 84.6117H78.5672L78.2152 85.5207H77.9209L79.0962 82.5981H79.4073H79.4054ZM79.8022 84.3751L79.2378 82.8757L78.6529 84.3751H79.8041H79.8022Z" fill="#231F20"/>
<path d="M81.8288 82.5981C82.274 82.6093 82.6093 82.7341 82.8347 82.9725C83.06 83.211 83.1718 83.5742 83.1718 84.0603C83.1718 84.5465 83.06 84.9079 82.8347 85.1481C82.6093 85.3866 82.274 85.5114 81.8288 85.5225H80.8174V82.6H81.8288V82.5981ZM81.6891 85.2841C81.8996 85.2841 82.0803 85.2618 82.2311 85.2171C82.382 85.1724 82.5068 85.0997 82.6055 85.0029C82.7043 84.9041 82.7769 84.7775 82.8235 84.6229C82.87 84.4683 82.8924 84.2801 82.8924 84.0622C82.8924 83.8443 82.87 83.6561 82.8235 83.5015C82.7769 83.3469 82.7043 83.2184 82.6055 83.1216C82.5068 83.0228 82.382 82.9521 82.2311 82.9073C82.0803 82.8626 81.8996 82.8403 81.6891 82.8403H81.0949V85.2897H81.6891V85.2841Z" fill="#231F20"/>
<path d="M83.5537 83.4829C83.6114 83.3003 83.6971 83.1383 83.8108 82.9967C83.9262 82.857 84.0697 82.7452 84.2429 82.6614C84.4161 82.5776 84.6173 82.5366 84.8464 82.5366C85.0755 82.5366 85.2767 82.5776 85.448 82.6614C85.6194 82.7452 85.7628 82.857 85.8783 82.9967C85.9938 83.1383 86.0795 83.2985 86.1354 83.4829C86.1931 83.6654 86.221 83.8573 86.221 84.0603C86.221 84.2633 86.1931 84.4552 86.1354 84.6377C86.0776 84.8203 85.9919 84.9823 85.8783 85.1201C85.7628 85.2598 85.6194 85.3697 85.448 85.4536C85.2767 85.5374 85.0755 85.5784 84.8464 85.5784C84.6173 85.5784 84.4161 85.5374 84.2429 85.4536C84.0697 85.3697 83.9262 85.2598 83.8108 85.1201C83.6971 84.9804 83.6096 84.8203 83.5537 84.6377C83.496 84.4552 83.468 84.2615 83.468 84.0603C83.468 83.8591 83.496 83.6654 83.5537 83.4829ZM83.8089 84.5278C83.8517 84.6824 83.9169 84.8203 84.0045 84.9413C84.0939 85.0624 84.2075 85.1611 84.3472 85.2338C84.4869 85.3064 84.6527 85.3437 84.8464 85.3437C85.0401 85.3437 85.2059 85.3064 85.3437 85.2338C85.4816 85.1593 85.5952 85.0624 85.6827 84.9413C85.7721 84.8203 85.8373 84.6824 85.8802 84.5278C85.923 84.3732 85.9435 84.2167 85.9435 84.0584C85.9435 83.9001 85.923 83.7399 85.8802 83.5872C85.8373 83.4344 85.7721 83.2966 85.6827 83.1755C85.5933 83.0544 85.4816 82.9557 85.3437 82.8831C85.2059 82.8086 85.0401 82.7732 84.8464 82.7732C84.6527 82.7732 84.4869 82.8104 84.3472 82.8831C84.2075 82.9557 84.0939 83.0544 84.0045 83.1755C83.9151 83.2966 83.8499 83.4344 83.8089 83.5872C83.766 83.7399 83.7456 83.8964 83.7456 84.0584C83.7456 84.2205 83.766 84.3732 83.8089 84.5278Z" fill="#231F20"/>
<path d="M87.9961 82.5981C88.1172 82.5981 88.2308 82.613 88.3388 82.6428C88.4469 82.6727 88.54 82.7192 88.6219 82.7807C88.702 82.8422 88.7672 82.9222 88.8138 83.0191C88.8622 83.116 88.8846 83.2296 88.8846 83.36C88.8846 83.5462 88.8362 83.7064 88.7412 83.8424C88.6462 83.9784 88.5046 84.0659 88.3146 84.105V84.1125C88.4096 84.1255 88.4897 84.1516 88.553 84.1889C88.6164 84.2261 88.6667 84.2727 88.7058 84.3304C88.7449 84.3882 88.7747 84.4534 88.7915 84.5297C88.8082 84.6042 88.8213 84.6862 88.8268 84.7737C88.8287 84.8222 88.8324 84.8836 88.8343 84.9544C88.8362 85.0252 88.8417 85.0978 88.8511 85.1705C88.8585 85.2431 88.8715 85.3102 88.8902 85.3754C88.9069 85.4387 88.9312 85.489 88.961 85.5244H88.6536C88.6369 85.4965 88.6238 85.4629 88.6145 85.4238C88.6052 85.3847 88.5977 85.3437 88.594 85.3009C88.5903 85.258 88.5866 85.2171 88.5847 85.1761C88.5828 85.1351 88.5791 85.0997 88.5772 85.0699C88.5717 84.9656 88.5623 84.8632 88.5512 84.7607C88.5381 84.6583 88.5121 84.567 88.4729 84.4869C88.4338 84.4068 88.3761 84.3416 88.3016 84.2932C88.2271 84.2447 88.1228 84.2224 87.9924 84.228H86.9362V85.5263H86.6587V82.6019H87.998L87.9961 82.5981ZM87.9756 83.9858C88.0594 83.9858 88.1414 83.9728 88.2177 83.9467C88.2941 83.9206 88.3612 83.8834 88.4189 83.835C88.4767 83.7865 88.5214 83.7269 88.5568 83.6561C88.5903 83.5872 88.607 83.5071 88.607 83.4159C88.607 83.2352 88.5549 83.0936 88.4524 82.9893C88.3481 82.885 88.1898 82.8347 87.9775 82.8347H86.9381V83.9858H87.9775H87.9756Z" fill="#231F20"/>
<path d="M90.5553 82.5981L91.7009 85.5207H91.4029L91.0471 84.6117H89.7171L89.3651 85.5207H89.0708L90.2461 82.5981H90.5572H90.5553ZM90.9521 84.3751L90.3877 82.8757L89.8028 84.3751H90.954H90.9521Z" fill="#231F20"/>
<path d="M92.1686 84.9356C92.2171 85.0362 92.286 85.1181 92.3717 85.1777C92.4573 85.2373 92.5598 85.2802 92.6771 85.3063C92.7945 85.3323 92.9193 85.3454 93.0534 85.3454C93.1298 85.3454 93.2136 85.3342 93.303 85.3118C93.3924 85.2895 93.4762 85.256 93.5545 85.2075C93.6327 85.1591 93.6979 85.0976 93.7482 85.0231C93.8003 84.9486 93.8264 84.8574 93.8264 84.7512C93.8264 84.6692 93.8078 84.5984 93.7705 84.5388C93.7333 84.4792 93.6867 84.4289 93.6271 84.388C93.5675 84.347 93.5042 84.3135 93.4334 84.2874C93.3626 84.2613 93.2937 84.2408 93.2248 84.224L92.5728 84.0639C92.489 84.0415 92.4052 84.0154 92.3251 83.9819C92.245 83.9484 92.1742 83.9055 92.1146 83.8515C92.055 83.7975 92.0066 83.7304 91.9693 83.6503C91.9321 83.5721 91.9134 83.4734 91.9134 83.3598C91.9134 83.289 91.9265 83.2052 91.9544 83.1102C91.9824 83.0152 92.0326 82.9239 92.109 82.8401C92.1835 82.7563 92.2878 82.6836 92.4182 82.6259C92.5486 82.5663 92.7162 82.5383 92.9211 82.5383C93.0664 82.5383 93.2043 82.557 93.3347 82.5961C93.465 82.6352 93.5805 82.6911 93.6792 82.7674C93.778 82.8438 93.8562 82.9388 93.9139 83.0524C93.9717 83.166 94.0015 83.2964 94.0015 83.4473H93.7221C93.7165 83.3356 93.6904 83.2387 93.6457 83.1549C93.601 83.0711 93.5414 83.0021 93.4688 82.9463C93.3961 82.8904 93.3142 82.8475 93.2192 82.8196C93.1242 82.7917 93.0254 82.7768 92.923 82.7768C92.828 82.7768 92.7349 82.7861 92.6473 82.8084C92.5579 82.8289 92.4797 82.8624 92.4145 82.9071C92.3474 82.9518 92.2934 83.0114 92.2524 83.086C92.2115 83.1605 92.191 83.2517 92.191 83.3598C92.191 83.4287 92.2022 83.4864 92.2264 83.5386C92.2487 83.5889 92.2822 83.6317 92.3232 83.6671C92.3642 83.7025 92.4108 83.7304 92.4648 83.7528C92.5188 83.7751 92.5747 83.7919 92.6343 83.8068L93.3458 83.9819C93.4501 84.0098 93.547 84.0434 93.6383 84.0825C93.7295 84.1216 93.8096 84.1719 93.8804 84.2296C93.9493 84.2892 94.0052 84.36 94.0443 84.4438C94.0834 84.5277 94.1039 84.6301 94.1039 84.7512C94.1039 84.7847 94.1002 84.8275 94.0946 84.8816C94.0872 84.9356 94.0723 84.9952 94.0462 85.0567C94.0201 85.1181 93.9829 85.1796 93.9363 85.2429C93.8879 85.3063 93.8227 85.3621 93.7389 85.4124C93.655 85.4627 93.5526 85.5037 93.4296 85.5354C93.3067 85.567 93.1596 85.5819 92.9863 85.5819C92.8131 85.5819 92.6548 85.5614 92.5076 85.5223C92.3605 85.4832 92.2338 85.4217 92.1314 85.3398C92.0271 85.2578 91.947 85.1535 91.8911 85.025C91.8352 84.8965 91.811 84.7419 91.8203 84.5631H92.0997C92.0978 84.7139 92.1202 84.8387 92.1686 84.9393" fill="#231F20"/>
<path d="M112.721 46.343L103.793 55.2708L106.926 58.4038L112.079 53.2535L112.721 61.9317L113.364 53.2517L118.516 58.4038L121.649 55.2708L112.721 46.343Z" fill="#F8B1B2"/>
<path d="M112.721 86.7872L121.649 77.8594L118.516 74.7264L113.364 79.8767L112.721 71.1985L112.079 79.8767L106.926 74.7264L103.793 77.8594L112.721 86.7872Z" fill="#F8B1B2"/>
<path d="M132.942 66.5641L124.015 57.6382L120.882 60.7712L126.032 65.9215L117.354 66.5641L126.034 67.2086L120.882 72.3589L124.015 75.4919L132.942 66.5641Z" fill="#EB2227"/>
<path d="M92.4983 66.5641L101.428 75.4919L104.559 72.3589L99.4088 67.2086L108.087 66.5641L99.4088 65.9215L104.559 60.7712L101.428 57.6382L92.4983 66.5641Z" fill="#EB2227"/>
</g>
</g>
<defs>
<clipPath id="clip0_482_20432">
<rect width="132.471" height="132.471" fill="white" transform="translate(0.942383)"/>
</clipPath>
<clipPath id="clip1_482_20432">
<rect width="132" height="40.4442" fill="white" transform="translate(0.942383 46.343)"/>
</clipPath>
</defs>
</svg>
