<svg width="133" height="133" viewBox="0 0 133 133" fill="none" xmlns="http://www.w3.org/2000/svg">
<g clip-path="url(#clip0_482_20402)">
<path d="M33.0067 91.4192H31.9299L34.1171 79.8848H35.1961L33.0067 91.4192Z" fill="#236D7D"/>
<path d="M43.04 91.419H41.9788L43.04 85.9165C43.3304 84.3773 43.04 83.678 42.1352 83.678C40.2541 83.678 38.3574 87.4893 37.9486 89.6943L37.6246 91.419H36.5657L38.0178 83.8478L38.0334 83.7964C37.6581 83.7294 37.0929 83.6579 36.5992 83.6244L36.702 83.0436C37.4034 82.9587 38.4959 82.8916 39.2644 82.9251C39.1438 83.5216 38.8891 84.6163 38.2055 86.77L38.239 86.7878C39.0432 84.7705 40.5133 82.771 42.3921 82.771C43.9314 82.771 44.4943 83.8478 44.1347 85.6954L43.04 91.419Z" fill="#236D7D"/>
<path d="M50.5464 83.7809H48.0175L47.0948 88.6512C46.8223 90.1726 47.0099 90.5814 47.9505 90.5814C48.4799 90.5814 48.8552 90.53 49.2149 90.4451L49.1814 91.3857C48.719 91.4706 48.1716 91.5398 47.7114 91.5398C46.018 91.5398 45.627 90.7557 45.9845 88.8925L46.9585 83.7809H45.0439L45.2137 82.9253H47.1283L47.6757 80.0545L48.8039 79.782L48.1895 82.9275H50.7185L50.5487 83.7832L50.5464 83.7809Z" fill="#236D7D"/>
<path d="M52.5303 87.4893C52.4789 87.7797 52.4275 88.327 52.4275 88.7024C52.4275 90.2751 52.9592 90.6505 54.4449 90.6505C55.2648 90.6505 56.1025 90.4628 56.804 90.1545V91.0615C56.069 91.3698 55.1464 91.5553 54.0517 91.5553C52.2577 91.5553 51.2993 90.856 51.2993 88.89C51.2993 85.7802 52.9056 82.7888 55.8635 82.7888C57.4363 82.7888 58.1713 83.6087 58.1713 84.6163C58.1713 86.2918 56.3952 87.3351 52.5303 87.487M55.725 83.6266C54.188 83.6266 53.1603 84.9246 52.7179 86.5822C55.7942 86.4638 57.0587 85.8472 57.0587 84.7369C57.0587 84.0198 56.5114 83.6266 55.725 83.6266Z" fill="#236D7D"/>
<path d="M65.2801 83.8658C63.4012 83.1665 61.5872 87.4559 61.2119 89.4375L60.8365 91.4213H59.7776L61.2297 83.8501L61.2476 83.7987C60.8723 83.7317 60.3071 83.6625 59.8111 83.629L59.9139 83.0481C60.6154 82.9632 61.71 82.8939 62.4607 82.9275C62.3065 83.7317 62.0496 84.7236 61.4688 86.4662L61.5023 86.4841C62.5098 84.2277 63.5353 82.3824 65.4856 82.8091L65.2801 83.868V83.8658Z" fill="#236D7D"/>
<path d="M72.697 91.419H71.638L72.697 85.9165C72.9874 84.3773 72.697 83.678 71.7922 83.678C69.9134 83.678 68.0144 87.4893 67.6033 89.6943L67.2794 91.419H66.2205L67.6726 83.8478L67.6905 83.7964C67.3152 83.7294 66.7499 83.6579 66.254 83.6244L66.3567 83.0436C67.0582 82.9587 68.1507 82.8916 68.9192 82.9251C68.8008 83.5216 68.5416 84.6163 67.8603 86.77L67.8938 86.7878C68.6958 84.7705 70.1658 82.771 72.0469 82.771C73.5862 82.771 74.1491 83.8478 73.7917 85.6954L72.697 91.419Z" fill="#236D7D"/>
<path d="M81.9931 90.5478C82.3685 90.6149 82.9337 90.6841 83.4118 90.7199L83.309 91.3007C82.6097 91.3856 81.5486 91.4549 80.7443 91.4191C80.8985 90.6149 81.2738 89.3169 81.8546 87.438L81.8211 87.4202C81.2738 88.7539 79.9065 91.5733 77.5809 91.5733C76.4013 91.5733 75.7534 90.8226 75.7534 89.0443C75.7534 85.968 77.2927 82.8247 81.0012 82.8247C81.9239 82.8247 82.7281 82.9096 83.4274 83.0637L81.9909 90.5501L81.9931 90.5478ZM80.8314 83.6602C77.9093 83.6602 76.8503 86.5154 76.8503 88.8567C76.8503 90.1569 77.2592 90.6685 77.8579 90.6685C79.7546 90.6685 81.6536 86.8393 82.078 84.6187L82.2322 83.8479C81.839 83.7451 81.3765 83.6602 80.8292 83.6602" fill="#236D7D"/>
<path d="M91.7001 84.0354C91.2041 83.8143 90.6567 83.6579 89.9575 83.6579C87.5648 83.6579 86.4187 86.4103 86.4187 88.5639C86.4187 89.5379 86.6935 90.5969 88.3847 90.5969C89.1354 90.5969 89.9396 90.3936 90.5205 90.1031L90.487 91.0593C89.8882 91.2984 89.0505 91.5195 88.1122 91.5195C85.9407 91.5195 85.2749 90.3243 85.2749 88.8186C85.2749 85.5881 87.0353 82.8022 90.0781 82.8022C90.8131 82.8022 91.394 82.9229 91.9413 83.1105L91.7023 84.0332L91.7001 84.0354Z" fill="#236D7D"/>
<path d="M93.9743 91.419H92.9131L94.3675 83.8478L94.3831 83.7964C94.0078 83.7294 93.4448 83.6579 92.9488 83.6244L93.0516 83.0436C93.7531 82.9587 94.8299 82.8916 95.5984 82.9251L93.9765 91.419H93.9743ZM95.4778 81.301C95.0667 81.301 94.7785 80.9592 94.7785 80.6174C94.7785 80.1035 95.1538 79.7617 95.5806 79.7617C96.0073 79.7617 96.2798 80.0857 96.2798 80.4297C96.2798 80.9592 95.9045 81.301 95.4778 81.301Z" fill="#236D7D"/>
<path d="M100.058 91.5575C98.0915 91.5575 97.084 90.5142 97.084 88.5661C97.084 85.2843 99.0678 82.7888 101.869 82.7888C103.972 82.7888 104.912 84.0198 104.912 85.8137C104.912 89.3346 102.537 91.5553 100.058 91.5553M101.715 83.678C99.6308 83.678 98.1943 85.8986 98.1943 88.3606C98.1943 89.8484 98.8087 90.6505 100.263 90.6505C102.057 90.6505 103.784 88.8051 103.784 85.9165C103.784 84.48 103.118 83.678 101.715 83.678Z" fill="#236D7D"/>
<path d="M113.167 91.419H112.106L113.167 85.9165C113.457 84.3773 113.167 83.678 112.26 83.678C110.379 83.678 108.482 87.4893 108.071 89.6943L107.747 91.419H106.688L108.14 83.8478L108.158 83.7964C107.783 83.7294 107.218 83.6579 106.722 83.6244L106.825 83.0436C107.524 82.9587 108.618 82.8916 109.387 82.9251C109.269 83.5216 109.012 84.6163 108.328 86.77L108.362 86.7878C109.166 84.7705 110.634 82.771 112.515 82.771C114.054 82.771 114.619 83.8478 114.257 85.6954L113.165 91.419H113.167Z" fill="#236D7D"/>
<path d="M122.465 90.5478C122.84 90.6149 123.406 90.6841 123.881 90.7199L123.779 91.3007C123.079 91.3856 122.018 91.4549 121.214 91.4191C121.368 90.6149 121.744 89.3169 122.324 87.438L122.291 87.4202C121.744 88.7539 120.378 91.5733 118.053 91.5733C116.873 91.5733 116.223 90.8226 116.223 89.0443C116.223 85.968 117.762 82.8247 121.471 82.8247C122.394 82.8247 123.198 82.9096 123.899 83.0637L122.463 90.5501L122.465 90.5478ZM121.301 83.6602C118.379 83.6602 117.32 86.5154 117.32 88.8567C117.32 90.1569 117.731 90.6685 118.328 90.6685C120.224 90.6685 122.121 86.8393 122.548 84.6187L122.702 83.8479C122.309 83.7451 121.849 83.6602 121.299 83.6602" fill="#236D7D"/>
<path d="M127.094 91.4191H126.035L128.24 79.8668L128.258 79.8154C127.88 79.7462 127.3 79.6791 126.822 79.6434L126.924 79.0625C127.608 78.9754 128.703 78.9084 129.471 78.9419L127.094 91.4191Z" fill="#236D7D"/>
<path d="M40.2363 69.8894H37.7186L37.3991 71.4599H39.7717L39.4879 72.8539H37.102L36.4965 75.8007H34.6914L36.2106 68.4395H40.5446L40.2363 69.8894Z" fill="#236D7D"/>
<path d="M45.7186 69.867H43.107L42.8099 71.3281H45.2919L44.9948 72.7132H42.5261L42.1821 74.3374H44.7937L44.4966 75.7984H40.0798L41.599 68.4395H46.0157L45.7186 69.867Z" fill="#236D7D"/>
<path d="M52.9256 70.1197C52.5213 69.9789 52.0588 69.9119 51.6187 69.9119C49.6483 69.9119 49.054 71.7639 49.054 72.9636C49.054 73.8148 49.4338 74.3487 50.5732 74.3487C51.1317 74.3487 51.6522 74.2504 52.1035 74.0963L51.9628 75.6556C51.3931 75.7986 50.667 75.8969 50.0281 75.8969C47.4991 75.8969 46.9897 74.4358 46.9897 73.2898C46.9897 70.8368 48.605 68.3838 51.7729 68.3838C52.4029 68.3838 52.9591 68.4597 53.4104 68.5804L52.9234 70.1174L52.9256 70.1197Z" fill="#236D7D"/>
<path d="M56.3907 75.9416C54.313 75.9416 53.3635 74.896 53.3635 73.2384C53.3635 70.5999 55.4166 68.2966 58.1109 68.2966C60.0947 68.2966 61.1157 69.2886 61.1157 71.0244C61.1157 73.8706 58.9799 75.9416 56.3907 75.9416ZM57.816 69.8448C56.2499 69.8448 55.3116 71.4042 55.3116 72.9412C55.3116 73.8773 55.7741 74.38 56.6655 74.38C58.1489 74.38 59.1944 72.8854 59.1944 71.2188C59.1944 70.4123 58.7677 69.8448 57.8182 69.8448" fill="#236D7D"/>
<path d="M71.0752 75.8007H69.1182L69.2835 72.7802C69.3192 72.1815 69.355 71.6252 69.4131 71.0578H69.3885C69.1629 71.6029 68.9149 72.1681 68.582 72.7914L66.9914 75.8007H65.2577L64.9025 73.0528C64.8199 72.4205 64.7841 71.6565 64.7841 71.0578H64.7729C64.5942 71.7347 64.4043 72.3111 64.1921 72.921L63.2069 75.8007H61.3191L64.1094 68.4395H66.1871L66.6026 71.6677C66.6741 72.1793 66.7099 72.6931 66.6987 73.2717H66.721C66.9713 72.6819 67.1857 72.2239 67.494 71.6565L69.2746 68.4395H71.3187L71.0819 75.8007H71.0752Z" fill="#236D7D"/>
<path d="M77.6165 69.867H75.0049L74.71 71.3281H77.1898L76.8927 72.7132H74.4218L74.08 74.3374H76.6894L76.3945 75.7984H71.9778L73.4969 68.4395H77.9137L77.6165 69.867Z" fill="#236D7D"/>
<path d="M81.9372 72.691C82.0668 72.9412 82.212 73.2138 82.3528 73.4997L83.4944 75.8008H81.381L80.1098 72.9211H80.0383L79.444 75.8008H77.6389L79.1581 68.4396C79.835 68.3949 80.6772 68.386 81.5686 68.386C83.3737 68.386 84.1936 69.0071 84.1936 70.1196C84.1936 71.3729 83.4207 72.3224 81.9372 72.6932M81.2603 69.78C81.0347 69.78 80.809 69.7912 80.6906 69.8024L80.2997 71.6879C80.4069 71.6969 80.5499 71.708 80.751 71.708C81.6423 71.708 82.2478 71.1518 82.2478 70.4436C82.2478 70.0191 81.9641 69.7778 81.2626 69.7778" fill="#236D7D"/>
<path d="M90.5673 70.1197C90.1629 69.9789 89.7005 69.9119 89.2604 69.9119C87.2899 69.9119 86.6957 71.7639 86.6957 72.9636C86.6957 73.8148 87.0754 74.3487 88.2148 74.3487C88.7733 74.3487 89.2961 74.2504 89.7451 74.0963L89.6022 75.6556C89.0325 75.7986 88.3086 75.8969 87.6675 75.8969C85.1385 75.8969 84.6292 74.4358 84.6292 73.2898C84.6292 70.8368 86.2444 68.3838 89.4145 68.3838C90.0423 68.3838 90.6008 68.4597 91.0521 68.5804L90.565 70.1174L90.5673 70.1197Z" fill="#236D7D"/>
<path d="M92.5624 75.8007H90.7439L92.2653 68.4395H94.0816L92.5624 75.8007Z" fill="#236D7D"/>
<path d="M97.2493 75.9416C95.1716 75.9416 94.2222 74.896 94.2222 73.2384C94.2222 70.5999 96.2775 68.2966 98.9695 68.2966C100.953 68.2966 101.974 69.2886 101.974 71.0244C101.974 73.8706 99.8386 75.9416 97.2493 75.9416ZM98.6747 69.8448C97.1086 69.8448 96.1703 71.4042 96.1703 72.9412C96.1703 73.8773 96.6349 74.38 97.5241 74.38C99.0075 74.38 100.053 72.8854 100.053 71.2188C100.053 70.4123 99.6264 69.8448 98.6747 69.8448Z" fill="#236D7D"/>
<path d="M21.707 64.5904C20.8469 63.7191 19.4372 63.2678 17.8734 63.7727C14.7904 64.7691 11.8794 63.6365 9.87547 61.6079C8.90813 60.6249 8.15301 59.4342 7.69727 58.1675C7.83801 60.3814 8.2245 64.1481 11.6292 67.6377C11.6404 67.6466 11.6471 67.6555 11.6582 67.6645C14.1403 70.18 18.4319 71.2591 21.2803 69.0027C23.014 67.6287 22.8419 65.7432 21.707 64.5882" fill="#236D7D"/>
<path d="M29.2088 48.6281C30.1784 49.6088 30.9313 50.804 31.3871 52.0685C31.2441 49.8546 30.8598 46.0879 27.4551 42.5983C27.4462 42.5894 27.4372 42.5805 27.4261 42.5693C24.944 40.0537 20.6524 38.9747 17.8085 41.2311C16.0726 42.6028 16.2424 44.4951 17.3795 45.6478C18.2396 46.5191 19.6515 46.9704 21.2132 46.4655C24.2939 45.4713 27.2094 46.6018 29.2088 48.6281Z" fill="#236D7D"/>
<path d="M10.9343 53.5161C9.45755 48.943 12.6679 44.7363 16.535 43.3445C14.3256 43.4852 10.5589 43.8695 7.06935 47.2787C4.53146 49.7518 3.439 54.0657 5.7021 56.9209C5.79817 57.0482 5.90317 57.1621 6.00817 57.2694C8.43436 59.7291 12.058 56.9946 10.932 53.5139" fill="#236D7D"/>
<path d="M33.3889 53.3284C33.2906 53.2033 33.1879 53.0871 33.0829 52.9799C30.6544 50.5202 27.0286 53.2547 28.1545 56.7354C29.6312 61.3085 26.4231 65.513 22.5515 66.907C24.7677 66.764 28.5321 66.382 32.0217 62.9751C34.5596 60.4975 35.652 56.1835 33.3867 53.3262" fill="#236D7D"/>
<path d="M10.0341 58.6142C9.74365 58.7907 9.44429 58.9158 9.13599 59.0029C9.51578 59.7044 9.99163 60.3635 10.5568 60.9376C12.5519 62.9595 15.1099 63.661 17.5785 62.8634C19.3389 62.2937 21.1843 62.6981 22.3884 63.9179C22.8397 64.3736 23.1636 64.921 23.3424 65.5018C26.2868 63.9313 28.4025 60.6092 27.2453 57.0258C26.5616 54.9102 27.3078 52.6917 29.0526 51.6306C29.343 51.4541 29.6513 51.3334 29.9574 51.2418C29.5754 50.5381 29.0973 49.8724 28.5254 49.2937C26.5348 47.2719 23.9746 46.5704 21.5037 47.3702C19.7455 47.9399 17.9024 47.5355 16.6983 46.3135C16.2492 45.8578 15.9253 45.3171 15.7421 44.7407C12.7998 46.3135 10.6842 49.6355 11.8392 53.2167C12.5273 55.3324 11.7811 57.5508 10.0318 58.612" fill="#236D7D"/>
</g>
<defs>
<clipPath id="clip0_482_20402">
<rect width="125" height="51.5732" fill="white" transform="translate(4.47119 40)"/>
</clipPath>
</defs>
</svg>
