<svg width="133" height="133" viewBox="0 0 133 133" fill="none" xmlns="http://www.w3.org/2000/svg">
<path d="M61.1562 76.3883C60.7106 76.3269 60.4088 76.2617 60.2507 76.1926L60.2399 73.4636C60.4339 73.5404 60.6999 73.598 61.0376 73.6364C61.3754 73.6747 61.6952 73.6939 61.9971 73.6939C62.5505 73.6939 62.9745 73.5558 63.2692 73.2794C63.571 73.0107 63.722 72.5617 63.722 71.9322V58.0918H66.9561V72.0704C66.9561 73.4752 66.5321 74.5614 65.684 75.329C64.8431 76.1043 63.7148 76.492 62.299 76.492C61.9827 76.492 61.6018 76.4574 61.1562 76.3883Z" fill="#020203"/>
<path d="M63.9376 56.1458C63.6142 55.7774 63.4525 55.3206 63.4525 54.7756C63.4525 54.2383 63.6142 53.7892 63.9376 53.4284C64.2682 53.06 64.7353 52.8757 65.339 52.8757C65.9427 52.8757 66.4063 53.06 66.7297 53.4284C67.0603 53.7892 67.2256 54.2383 67.2256 54.7756C67.2256 55.3206 67.0603 55.7774 66.7297 56.1458C66.4063 56.5143 65.9427 56.6985 65.339 56.6985C64.7281 56.6985 64.261 56.5143 63.9376 56.1458Z" fill="#020203"/>
<path fill-rule="evenodd" clip-rule="evenodd" d="M18.0116 68.9039C16.6245 67.7908 15.931 66.2709 15.931 64.3442V63.9757C15.931 62.0413 16.6245 60.5214 18.0116 59.416C19.3987 58.3029 21.1631 57.7464 23.3048 57.7464C25.4537 57.7464 27.2217 58.3029 28.6088 59.416C29.9958 60.5214 30.6894 62.0413 30.6894 63.9757V64.3442C30.6894 66.2709 29.9958 67.7908 28.6088 68.9039C27.2217 70.017 25.4537 70.5735 23.3048 70.5735C21.1631 70.5735 19.3987 70.017 18.0116 68.9039ZM20.3186 61.3619C19.6071 61.8686 19.2514 62.6439 19.2514 63.6878V64.6205C19.2514 65.6645 19.6107 66.4436 20.3294 66.958C21.0481 67.4646 22.0399 67.7179 23.3048 67.7179C24.5769 67.7179 25.5723 67.4646 26.291 66.958C27.0097 66.4436 27.369 65.6645 27.369 64.6205V63.6878C27.369 62.6362 27.0097 61.8609 26.291 61.3619C25.5795 60.8553 24.5841 60.602 23.3048 60.602C22.0327 60.602 21.0373 60.8553 20.3186 61.3619Z" fill="#020203"/>
<path fill-rule="evenodd" clip-rule="evenodd" d="M35.4759 76.0199C34.3691 75.6975 33.4923 75.2446 32.8454 74.6611L34.1714 72.3928C34.6027 72.7996 35.2315 73.1259 36.058 73.3715C36.8845 73.6172 37.7972 73.74 38.7962 73.74C39.9821 73.74 40.9739 73.479 41.7716 72.957C42.5694 72.435 42.9682 71.6559 42.9682 70.6196V68.7542C42.5298 69.2916 41.9082 69.7022 41.1032 69.9863C40.2983 70.2703 39.3568 70.4123 38.2788 70.4123C36.4389 70.4123 34.9512 69.8634 33.8157 68.7657C32.6801 67.6603 32.1124 66.1865 32.1124 64.3442V63.9757C32.1124 62.1564 32.6873 60.6826 33.8372 59.5541C34.9872 58.4257 36.482 57.8615 38.3219 57.8615C39.3856 57.8615 40.3378 58.0342 41.1787 58.3797C42.0191 58.722 42.6231 59.1473 42.9907 59.6555L43.0868 58.0918H46.2024V70.4929C46.2024 72.4273 45.516 73.9127 44.1433 74.949C42.7706 75.9853 41.0529 76.5035 38.9903 76.5035C37.7541 76.5035 36.5827 76.3423 35.4759 76.0199ZM36.4138 61.5346C35.7526 62.0797 35.422 62.8127 35.422 63.7339V64.632C35.422 65.5455 35.7526 66.2709 36.4138 66.8083C37.075 67.3379 38.056 67.6028 39.3568 67.6028C40.2336 67.6028 40.9918 67.4185 41.6315 67.0501C42.2783 66.6816 42.7239 66.2479 42.9682 65.7489V62.617C42.6951 62.0182 42.2424 61.55 41.6099 61.2122C40.9775 60.8745 40.2372 60.7056 39.3892 60.7056C38.0739 60.7056 37.0821 60.9819 36.4138 61.5346Z" fill="#020203"/>
<path fill-rule="evenodd" clip-rule="evenodd" d="M48.2075 66.6701C48.2075 67.952 48.7214 68.9039 49.7491 69.5257C50.784 70.1475 51.9842 70.4584 53.3498 70.4584C54.6003 70.4584 55.7071 70.2972 56.6701 69.9748C57.6332 69.6447 58.2548 69.2493 58.5351 68.7888C58.5711 69.0344 58.6322 69.2992 58.7184 69.5833C58.8118 69.8596 58.9089 70.0745 59.0095 70.2281H62.1789V70.0438C61.9777 69.7521 61.8124 69.3798 61.683 68.9269C61.5608 68.4664 61.4997 67.9866 61.4997 67.4876V61.9837C61.4997 60.5252 60.9499 59.4543 59.8503 58.7712C58.7579 58.088 57.281 57.7464 55.4196 57.7464C53.5654 57.7464 52.0238 58.0995 50.7948 58.8057C49.5658 59.5042 48.9514 60.4177 48.9514 61.5461V61.8225H52.1747V61.5461C52.1747 61.17 52.4298 60.8668 52.9401 60.6365C53.4504 60.4062 54.2158 60.2911 55.2363 60.2911C56.3072 60.2911 57.0762 60.4408 57.5433 60.7401C58.0177 61.0318 58.2548 61.4233 58.2548 61.9146V62.5594H54.8375C52.976 62.5594 51.4057 62.9087 50.1264 63.6072C48.8472 64.3058 48.2075 65.3267 48.2075 66.6701ZM51.474 66.4859C51.474 65.9178 51.8082 65.4956 52.4765 65.2193C53.1521 64.9352 54.0756 64.7932 55.2471 64.7932H58.2548V65.9677C58.2548 66.5895 57.8524 67.0731 57.0474 67.4185C56.2497 67.7563 55.3729 67.9252 54.417 67.9252C53.4396 67.9252 52.7029 67.8062 52.207 67.5682C51.7183 67.3226 51.474 66.9618 51.474 66.4859Z" fill="#020203"/>
<path d="M69.3817 64.206C69.3817 66.4552 69.8416 68.0595 70.7616 69.019C71.6815 69.9786 72.8422 70.4584 74.2436 70.4584C75.2785 70.4584 76.2272 70.3048 77.0897 69.9978C77.9521 69.6907 78.6636 69.1687 79.2242 68.4318L79.3212 70.2281H82.4259V58.0918H79.1918V65.5186C78.8037 66.1251 78.2971 66.624 77.6718 67.0155C77.0465 67.407 76.3458 67.6028 75.5696 67.6028C74.6713 67.6028 73.9562 67.3533 73.4243 66.8543C72.8925 66.3554 72.6266 65.4995 72.6266 64.2866V58.0918H69.3817V64.206Z" fill="#020203"/>
<path d="M89.6812 61.3389C89.0487 61.7534 88.5564 62.26 88.2042 62.8588V70.2281H84.9701V58.0918H88.0749L88.1719 59.9802C88.6678 59.297 89.329 58.7712 90.1555 58.4027C90.9892 58.0265 91.9379 57.8385 93.0015 57.8385C94.4461 57.8385 95.6427 58.2607 96.5914 59.1051C97.5401 59.9495 98.0144 61.4962 98.0144 63.7454V70.2281H94.7803V63.5266C94.7803 62.4443 94.5216 61.7073 94.0041 61.3159C93.4866 60.9167 92.7464 60.7171 91.7833 60.7171C91.0215 60.7171 90.3208 60.9244 89.6812 61.3389Z" fill="#020203"/>
<path d="M105.259 67.4876C104.979 67.2727 104.838 66.8889 104.838 66.3362V60.8438H108.051V58.0918H104.838V55.1901H101.615V58.0918H99.1787V60.8438H101.615V66.3477C101.615 67.8062 101.982 68.877 102.715 69.5602C103.448 70.2357 104.404 70.5735 105.582 70.5735C105.992 70.5735 106.376 70.539 106.736 70.4699C107.102 70.4008 107.386 70.3163 107.587 70.2166V67.5797C107.393 67.6411 107.192 67.6949 106.984 67.7409C106.782 67.7793 106.581 67.7985 106.38 67.7985C105.913 67.7985 105.539 67.6949 105.259 67.4876Z" fill="#020203"/>
<path fill-rule="evenodd" clip-rule="evenodd" d="M110.972 68.9039C109.585 67.7908 108.892 66.2709 108.892 64.3442V63.9757C108.892 62.0413 109.585 60.5214 110.972 59.416C112.36 58.3029 114.124 57.7464 116.266 57.7464C118.415 57.7464 120.182 58.3029 121.57 59.416C122.957 60.5214 123.65 62.0413 123.65 63.9757V64.3442C123.65 66.2709 122.957 67.7908 121.57 68.9039C120.182 70.017 118.415 70.5735 116.266 70.5735C114.124 70.5735 112.36 70.017 110.972 68.9039ZM113.279 61.3619C112.568 61.8686 112.212 62.6439 112.212 63.6878V64.6205C112.212 65.6645 112.572 66.4436 113.29 66.958C114.009 67.4646 115.001 67.7179 116.266 67.7179C117.538 67.7179 118.533 67.4646 119.252 66.958C119.97 66.4436 120.33 65.6645 120.33 64.6205V63.6878C120.33 62.6362 119.97 61.8609 119.252 61.3619C118.54 60.8553 117.545 60.602 116.266 60.602C114.994 60.602 113.998 60.8553 113.279 61.3619Z" fill="#020203"/>
<path fill-rule="evenodd" clip-rule="evenodd" d="M127.712 57.3422L128.73 59.0872H129.827V58.9035L129.168 57.7289C129.113 57.6387 129.053 57.5581 128.988 57.4872C128.927 57.4131 128.846 57.3341 128.744 57.2503C129.018 57.1698 129.237 57.0215 129.403 56.8056C129.569 56.5897 129.652 56.319 129.652 55.9936C129.652 55.5424 129.495 55.1944 129.182 54.9494C128.869 54.7013 128.395 54.5772 127.762 54.5772H125.859V59.0872H127.053V57.3422H127.712ZM127.85 55.3216C128.01 55.3216 128.151 55.3732 128.274 55.4763C128.397 55.5795 128.458 55.739 128.458 55.9549C128.458 56.1837 128.405 56.3545 128.297 56.4673C128.193 56.5768 128.039 56.6316 127.836 56.6316H127.043V55.3216H127.85Z" fill="#020203"/>
<path fill-rule="evenodd" clip-rule="evenodd" d="M123.642 56.854C123.642 58.0076 124.018 58.9647 124.771 59.7253C125.527 60.4858 126.478 60.866 127.624 60.866C128.816 60.866 129.793 60.4858 130.555 59.7253C131.317 58.9647 131.698 58.0076 131.698 56.854C131.698 55.7003 131.317 54.7496 130.555 54.002C129.793 53.2512 128.816 52.8757 127.624 52.8757C126.478 52.8757 125.527 53.2512 124.771 54.002C124.018 54.7496 123.642 55.7003 123.642 56.854ZM124.26 56.854C124.26 55.8195 124.576 54.9946 125.209 54.3791C125.842 53.7603 126.649 53.451 127.629 53.451C128.63 53.451 129.457 53.7603 130.108 54.3791C130.76 54.9946 131.085 55.8195 131.085 56.854C131.085 57.8981 130.76 58.7327 130.108 59.3579C129.457 59.9798 128.63 60.2908 127.629 60.2908C126.652 60.2908 125.845 59.9798 125.209 59.3579C124.576 58.7327 124.26 57.8981 124.26 56.854Z" fill="#020203"/>
<path d="M3.46733 69.1111C2.36773 68.1516 1.81793 66.6279 1.81793 64.5399V64.3902H5.12751V64.7472C5.12751 65.8679 5.36468 66.6279 5.83902 67.027C6.32054 67.4185 7.03564 67.6143 7.98432 67.6143C8.93299 67.6143 9.64809 67.3571 10.1296 66.8428C10.6111 66.3208 10.8519 65.4649 10.8519 64.2751V54.6605H14.1938V63.9181C14.1938 66.0521 13.644 67.691 12.5444 68.8348C11.4448 69.9709 9.93198 70.5389 8.00588 70.5389C6.08697 70.5389 4.57412 70.063 3.46733 69.1111Z" fill="#020203"/>
</svg>
