<svg width="84" height="50" viewBox="0 0 84 50" fill="none" xmlns="http://www.w3.org/2000/svg">
<g clip-path="url(#clip0_3147_6828)">
<mask id="mask0_3147_6828" style="mask-type:luminance" maskUnits="userSpaceOnUse" x="0" y="0" width="84" height="50">
<path d="M83.4001 0.858276H0.600098V49.1418H83.4001V0.858276Z" fill="white"/>
</mask>
<g mask="url(#mask0_3147_6828)">
<path d="M83.4001 0.858276H0.600098V49.1418H83.4001V0.858276Z" fill="#CB1D23"/>
<path d="M8.56932 18.3509L10.1237 13.5152L6.02808 10.5298L11.0859 10.5052L12.6649 5.71875L14.2439 10.5052L19.3017 10.5298L15.2308 13.5152L16.7605 18.3509L12.6649 15.3656L8.56932 18.3509Z" fill="#F7DE29"/>
<path d="M22.6822 20.9418L24.3846 21.6326L25.5936 20.2263L25.4455 22.0521L27.1726 22.7676L25.3715 23.2117L25.2482 25.0374L24.2613 23.4831L22.4849 23.9025L23.6691 22.4962L22.6822 20.9418Z" fill="#F7DE29"/>
<path d="M31.9343 11.6894L30.1333 11.3686L29.2451 12.997L28.9984 11.1712L27.1726 10.8258L28.8256 10.0363L28.5789 8.21057L29.8619 9.5182L31.5149 8.72869L30.6514 10.3571L31.9343 11.6894Z" fill="#F7DE29"/>
<path d="M28.0855 19.9302L28.6529 18.1785L27.1726 17.0929H28.9984L29.5658 15.3412L30.1579 17.0929H31.9837L30.5034 18.1785L31.0708 19.9302L29.5658 18.8446L28.0855 19.9302Z" fill="#F7DE29"/>
<path d="M22.7805 3.91793L24.4335 4.70744L25.7165 3.35046L25.4944 5.17621L27.1475 5.96572L25.3464 6.31113L25.1243 8.16155L24.2115 6.55785L22.4104 6.87859L23.6687 5.54629L22.7805 3.91793Z" fill="#F7DE29"/>
</g>
</g>
<rect x="0.750098" y="1.00828" width="82.5" height="47.9835" stroke="#A2D5D6" stroke-width="0.3"/>
<defs>
<clipPath id="clip0_3147_6828">
<rect x="0.600098" y="0.858276" width="82.8" height="48.2835" fill="white"/>
</clipPath>
</defs>
</svg>
