<svg width="83" height="50" viewBox="0 0 83 50" fill="none" xmlns="http://www.w3.org/2000/svg">
<g clip-path="url(#clip0_3147_7000)">
<mask id="mask0_3147_7000" style="mask-type:luminance" maskUnits="userSpaceOnUse" x="0" y="0" width="83" height="50">
<path d="M83 0.845947H0.199951V49.1541H83V0.845947Z" fill="white"/>
</mask>
<g mask="url(#mask0_3147_7000)">
<path d="M83 45.4287H0.199951V49.1542H83V45.4287Z" fill="#CB001C"/>
<path d="M83 41.7279H0.199951V45.4534H83V41.7279Z" fill="white"/>
<path d="M83 38.0022H0.199951V41.703H83V38.0022Z" fill="#CB001C"/>
<path d="M83 34.3015H0.199951V38.027H83V34.3015Z" fill="white"/>
<path d="M83 30.576H0.199951V34.3016H83V30.576Z" fill="#CB001C"/>
<path d="M83 26.8506H0.199951V30.5514H83V26.8506Z" fill="white"/>
<path d="M83 23.1497H0.199951V26.8752H83V23.1497Z" fill="#CB001C"/>
<path d="M83 19.4242H0.199951V23.125H83V19.4242Z" fill="white"/>
<path d="M83 15.7231H0.199951V19.4487H83V15.7231Z" fill="#CB001C"/>
<path d="M83 11.9979H0.199951V15.7234H83V11.9979Z" fill="white"/>
<path d="M83 8.27222H0.199951V11.9977H83V8.27222Z" fill="#CB001C"/>
<path d="M83 4.57153H0.199951V8.29704H83V4.57153Z" fill="white"/>
<path d="M83 0.845947H0.199951V4.57145H83V0.845947Z" fill="#CB001C"/>
<path d="M38.0225 0.845947H0.199951V26.8505H38.0225V0.845947Z" fill="#2A3560"/>
<path d="M3.62895 3.70764L3.94968 4.69453H4.98592L4.14706 5.31134L4.4678 6.29823L3.62895 5.68142L2.76542 6.29823L3.11083 5.31134L2.27197 4.69453H3.28353L3.62895 3.70764Z" fill="white"/>
<path d="M3.62895 8.05005L3.94968 9.03694H4.98592L4.14706 9.62907L4.4678 10.6406L3.62895 10.0238L2.76542 10.6406L3.11083 9.62907L2.27197 9.03694H3.28353L3.62895 8.05005Z" fill="white"/>
<path d="M3.62895 12.3923L3.94968 13.3792H4.98592L4.14706 13.996L4.4678 14.9829L3.62895 14.3661L2.76542 14.9829L3.11083 13.996L2.27197 13.3792H3.28353L3.62895 12.3923Z" fill="white"/>
<path d="M3.62895 16.7345L3.94968 17.7214H4.98592L4.14706 18.3382L4.4678 19.3004L3.62895 18.7083L2.76542 19.3004L3.11083 18.3382L2.27197 17.7214H3.28353L3.62895 16.7345Z" fill="white"/>
<path d="M3.62895 21.077L3.94968 22.0639H4.98592L4.14706 22.6807L4.4678 23.6429L3.62895 23.0508L2.76542 23.6429L3.11083 22.6807L2.27197 22.0639H3.28353L3.62895 21.077Z" fill="white"/>
<path d="M6.63993 6.00269L6.96067 6.98958H7.99691L7.15805 7.58171L7.47879 8.5686L6.63993 7.97646L5.80108 8.5686L6.12182 7.58171L5.28296 6.98958H6.31919L6.63993 6.00269Z" fill="white"/>
<path d="M6.63993 10.3448L6.96067 11.3317H7.99691L7.15805 11.9239L7.47879 12.9108L6.63993 12.3186L5.80108 12.9108L6.12182 11.9239L5.28296 11.3317H6.31919L6.63993 10.3448Z" fill="white"/>
<path d="M6.63993 14.6873L6.96067 15.6741H7.99691L7.15805 16.2663L7.47879 17.2532L6.63993 16.661L5.80108 17.2532L6.12182 16.2663L5.28296 15.6741H6.31919L6.63993 14.6873Z" fill="white"/>
<path d="M6.63993 19.0297L6.96067 20.0166H7.99691L7.15805 20.6087L7.47879 21.5956L6.63993 20.9788L5.80108 21.5956L6.12182 20.6087L5.28296 20.0166H6.31919L6.63993 19.0297Z" fill="white"/>
<path d="M9.69853 3.70764L10.0193 4.69453H11.0555L10.2166 5.31134L10.5374 6.29823L9.69853 5.68142L8.85967 6.29823L9.18041 5.31134L8.34155 4.69453H9.37779L9.69853 3.70764Z" fill="white"/>
<path d="M9.69853 8.05005L10.0193 9.03694H11.0555L10.2166 9.62907L10.5374 10.6406L9.69853 10.0238L8.85967 10.6406L9.18041 9.62907L8.34155 9.03694H9.37779L9.69853 8.05005Z" fill="white"/>
<path d="M9.69853 12.3923L10.0193 13.3792H11.0555L10.2166 13.996L10.5374 14.9829L9.69853 14.3661L8.85967 14.9829L9.18041 13.996L8.34155 13.3792H9.37779L9.69853 12.3923Z" fill="white"/>
<path d="M9.69853 16.7345L10.0193 17.7214H11.0555L10.2166 18.3382L10.5374 19.3004L9.69853 18.7083L8.85967 19.3004L9.18041 18.3382L8.34155 17.7214H9.37779L9.69853 16.7345Z" fill="white"/>
<path d="M9.69853 21.077L10.0193 22.0639H11.0555L10.2166 22.6807L10.5374 23.6429L9.69853 23.0508L8.85967 23.6429L9.18041 22.6807L8.34155 22.0639H9.37779L9.69853 21.077Z" fill="white"/>
<path d="M12.7329 6.00269L13.0537 6.98958H14.0899L13.2511 7.58171L13.5718 8.5686L12.7329 7.97646L11.8941 8.5686L12.2148 7.58171L11.376 6.98958H12.4122L12.7329 6.00269Z" fill="white"/>
<path d="M12.7329 10.3448L13.0537 11.3317H14.0899L13.2511 11.9239L13.5718 12.9108L12.7329 12.3186L11.8941 12.9108L12.2148 11.9239L11.376 11.3317H12.4122L12.7329 10.3448Z" fill="white"/>
<path d="M12.7329 14.6873L13.0537 15.6741H14.0899L13.2511 16.2663L13.5718 17.2532L12.7329 16.661L11.8941 17.2532L12.2148 16.2663L11.376 15.6741H12.4122L12.7329 14.6873Z" fill="white"/>
<path d="M12.7329 19.0297L13.0537 20.0166H14.0899L13.2511 20.6087L13.5718 21.5956L12.7329 20.9788L11.8941 21.5956L12.2148 20.6087L11.376 20.0166H12.4122L12.7329 19.0297Z" fill="white"/>
<path d="M15.793 3.70764L16.1137 4.69453H17.15L16.3111 5.31134L16.6319 6.29823L15.793 5.68142L14.9542 6.29823L15.2749 5.31134L14.436 4.69453H15.4723L15.793 3.70764Z" fill="white"/>
<path d="M15.793 8.05005L16.1137 9.03694H17.15L16.3111 9.62907L16.6319 10.6406L15.793 10.0238L14.9542 10.6406L15.2749 9.62907L14.436 9.03694H15.4723L15.793 8.05005Z" fill="white"/>
<path d="M15.793 12.3923L16.1137 13.3792H17.15L16.3111 13.996L16.6319 14.9829L15.793 14.3661L14.9542 14.9829L15.2749 13.996L14.436 13.3792H15.4723L15.793 12.3923Z" fill="white"/>
<path d="M15.793 16.7345L16.1137 17.7214H17.15L16.3111 18.3382L16.6319 19.3004L15.793 18.7083L14.9542 19.3004L15.2749 18.3382L14.436 17.7214H15.4723L15.793 16.7345Z" fill="white"/>
<path d="M15.793 21.077L16.1137 22.0639H17.15L16.3111 22.6807L16.6319 23.6429L15.793 23.0508L14.9542 23.6429L15.2749 22.6807L14.436 22.0639H15.4723L15.793 21.077Z" fill="white"/>
<path d="M18.803 6.00269L19.1237 6.98958H20.16L19.3211 7.58171L19.6419 8.5686L18.803 7.97646L17.9888 8.5686L18.2849 7.58171L17.4707 6.98958H18.4823L18.803 6.00269Z" fill="white"/>
<path d="M18.803 10.3448L19.1237 11.3317H20.16L19.3211 11.9239L19.6419 12.9108L18.803 12.3186L17.9888 12.9108L18.2849 11.9239L17.4707 11.3317H18.4823L18.803 10.3448Z" fill="white"/>
<path d="M18.803 14.6873L19.1237 15.6741H20.16L19.3211 16.2663L19.6419 17.2532L18.803 16.661L17.9888 17.2532L18.2849 16.2663L17.4707 15.6741H18.4823L18.803 14.6873Z" fill="white"/>
<path d="M18.803 19.0297L19.1237 20.0166H20.16L19.3211 20.6087L19.6419 21.5956L18.803 20.9788L17.9888 21.5956L18.2849 20.6087L17.4707 20.0166H18.4823L18.803 19.0297Z" fill="white"/>
<path d="M21.8623 3.70764L22.1831 4.69453H23.2193L22.3804 5.31134L22.7259 6.29823L21.8623 5.68142L21.0481 6.29823L21.3442 5.31134L20.53 4.69453H21.5416L21.8623 3.70764Z" fill="white"/>
<path d="M21.8623 8.05005L22.1831 9.03694H23.2193L22.3804 9.62907L22.7259 10.6406L21.8623 10.0238L21.0481 10.6406L21.3442 9.62907L20.53 9.03694H21.5416L21.8623 8.05005Z" fill="white"/>
<path d="M21.8623 12.3923L22.1831 13.3792H23.2193L22.3804 13.996L22.7259 14.9829L21.8623 14.3661L21.0481 14.9829L21.3442 13.996L20.53 13.3792H21.5416L21.8623 12.3923Z" fill="white"/>
<path d="M21.8623 16.7345L22.1831 17.7214H23.2193L22.3804 18.3382L22.7259 19.3004L21.8623 18.7083L21.0481 19.3004L21.3442 18.3382L20.53 17.7214H21.5416L21.8623 16.7345Z" fill="white"/>
<path d="M21.8623 21.077L22.1831 22.0639H23.2193L22.3804 22.6807L22.7259 23.6429L21.8623 23.0508L21.0481 23.6429L21.3442 22.6807L20.53 22.0639H21.5416L21.8623 21.077Z" fill="white"/>
<path d="M24.8965 6.00269L25.2173 6.98958H26.2535L25.4146 7.58171L25.7354 8.5686L24.8965 7.97646L24.0577 8.5686L24.3784 7.58171L23.5396 6.98958H24.5758L24.8965 6.00269Z" fill="white"/>
<path d="M24.8965 10.3448L25.2173 11.3317H26.2535L25.4146 11.9239L25.7354 12.9108L24.8965 12.3186L24.0577 12.9108L24.3784 11.9239L23.5396 11.3317H24.5758L24.8965 10.3448Z" fill="white"/>
<path d="M24.8965 14.6873L25.2173 15.6741H26.2535L25.4146 16.2663L25.7354 17.2532L24.8965 16.661L24.0577 17.2532L24.3784 16.2663L23.5396 15.6741H24.5758L24.8965 14.6873Z" fill="white"/>
<path d="M24.8965 19.0297L25.2173 20.0166H26.2535L25.4146 20.6087L25.7354 21.5956L24.8965 20.9788L24.0577 21.5956L24.3784 20.6087L23.5396 20.0166H24.5758L24.8965 19.0297Z" fill="white"/>
<path d="M27.9566 3.70764L28.2773 4.69453H29.3135L28.4747 5.31134L28.7954 6.29823L27.9566 5.68142L27.1424 6.29823L27.4385 5.31134L26.6243 4.69453H27.6358L27.9566 3.70764Z" fill="white"/>
<path d="M27.9566 8.05005L28.2773 9.03694H29.3135L28.4747 9.62907L28.7954 10.6406L27.9566 10.0238L27.1424 10.6406L27.4385 9.62907L26.6243 9.03694H27.6358L27.9566 8.05005Z" fill="white"/>
<path d="M27.9566 12.3923L28.2773 13.3792H29.3135L28.4747 13.996L28.7954 14.9829L27.9566 14.3661L27.1424 14.9829L27.4385 13.996L26.6243 13.3792H27.6358L27.9566 12.3923Z" fill="white"/>
<path d="M27.9566 16.7345L28.2773 17.7214H29.3135L28.4747 18.3382L28.7954 19.3004L27.9566 18.7083L27.1424 19.3004L27.4385 18.3382L26.6243 17.7214H27.6358L27.9566 16.7345Z" fill="white"/>
<path d="M27.9566 21.077L28.2773 22.0639H29.3135L28.4747 22.6807L28.7954 23.6429L27.9566 23.0508L27.1424 23.6429L27.4385 22.6807L26.6243 22.0639H27.6358L27.9566 21.077Z" fill="white"/>
<path d="M30.991 6.00269L31.3117 6.98958H32.348L31.5091 7.58171L31.8052 8.5686L30.991 7.97646L30.1522 8.5686L30.4729 7.58171L29.634 6.98958H30.6703L30.991 6.00269Z" fill="white"/>
<path d="M30.991 10.3448L31.3117 11.3317H32.348L31.5091 11.9239L31.8052 12.9108L30.991 12.3186L30.1522 12.9108L30.4729 11.9239L29.634 11.3317H30.6703L30.991 10.3448Z" fill="white"/>
<path d="M30.991 14.6873L31.3117 15.6741H32.348L31.5091 16.2663L31.8052 17.2532L30.991 16.661L30.1522 17.2532L30.4729 16.2663L29.634 15.6741H30.6703L30.991 14.6873Z" fill="white"/>
<path d="M30.991 19.0297L31.3117 20.0166H32.348L31.5091 20.6087L31.8052 21.5956L30.991 20.9788L30.1522 21.5956L30.4729 20.6087L29.634 20.0166H30.6703L30.991 19.0297Z" fill="white"/>
<path d="M34.0496 3.70764L34.3703 4.69453H35.4066L34.5677 5.31134L34.8885 6.29823L34.0496 5.68142L33.2107 6.29823L33.5315 5.31134L32.6926 4.69453H33.7289L34.0496 3.70764Z" fill="white"/>
<path d="M34.0496 8.05005L34.3703 9.03694H35.4066L34.5677 9.62907L34.8885 10.6406L34.0496 10.0238L33.2107 10.6406L33.5315 9.62907L32.6926 9.03694H33.7289L34.0496 8.05005Z" fill="white"/>
<path d="M34.0496 12.3923L34.3703 13.3792H35.4066L34.5677 13.996L34.8885 14.9829L34.0496 14.3661L33.2107 14.9829L33.5315 13.996L32.6926 13.3792H33.7289L34.0496 12.3923Z" fill="white"/>
<path d="M34.0496 16.7345L34.3703 17.7214H35.4066L34.5677 18.3382L34.8885 19.3004L34.0496 18.7083L33.2107 19.3004L33.5315 18.3382L32.6926 17.7214H33.7289L34.0496 16.7345Z" fill="white"/>
<path d="M34.0496 21.077L34.3703 22.0639H35.4066L34.5677 22.6807L34.8885 23.6429L34.0496 23.0508L33.2107 23.6429L33.5315 22.6807L32.6926 22.0639H33.7289L34.0496 21.077Z" fill="white"/>
</g>
</g>
<rect x="0.349951" y="0.995947" width="82.5" height="48.0082" stroke="#A2D5D6" stroke-width="0.3"/>
<defs>
<clipPath id="clip0_3147_7000">
<rect x="0.199951" y="0.845947" width="82.8" height="48.3082" fill="white"/>
</clipPath>
</defs>
</svg>
