<svg width="84" height="50" viewBox="0 0 84 50" fill="none" xmlns="http://www.w3.org/2000/svg">
<g clip-path="url(#clip0_3147_6839)">
<path d="M83.1999 0.849731H0.399902V49.1503H83.1999V0.849731Z" fill="white"/>
<path d="M55.197 8.81018L58.2616 13.4173L56.5916 14.5343L53.5225 9.92725L55.197 8.81018Z" fill="black"/>
<path d="M58.8189 14.2544L61.897 18.8615L60.2203 19.9696L57.1489 15.3737L58.8189 14.2544Z" fill="black"/>
<path d="M57.711 7.13342L64.4089 17.1848L62.7322 18.3019L56.032 8.2505L57.711 7.13342Z" fill="black"/>
<path d="M60.2202 5.45667L63.2916 10.0727L61.6149 11.1808L58.5435 6.57374L60.2202 5.45667Z" fill="black"/>
<path d="M63.8446 10.9098L66.9138 15.5169L65.2415 16.634L62.1724 12.0291L63.8446 10.9098Z" fill="black"/>
<path d="M23.3796 30.0324L21.7053 31.149L28.4027 41.1913L30.077 40.0746L23.3796 30.0324Z" fill="black"/>
<path d="M20.8698 31.6979L23.9345 36.296L22.2645 37.4131L19.1953 32.8149L20.8698 31.6979Z" fill="black"/>
<path d="M24.4962 37.1421L27.5631 41.7492L25.8931 42.8663L22.824 38.2614L24.4962 37.1421Z" fill="black"/>
<path d="M18.3584 33.3745L25.0519 43.417L23.3796 44.5341L16.6816 34.4916L18.3584 33.3745Z" fill="black"/>
<path d="M21.7046 18.8616L28.4026 8.81018L30.077 9.92725L23.3791 19.9697L21.7046 18.8616Z" fill="black"/>
<path d="M19.1953 17.1848L25.8933 7.13342L27.5633 8.2505L20.8698 18.3019L19.1953 17.1848Z" fill="black"/>
<path d="M16.6816 15.517L23.3796 5.45667L25.0519 6.57374L18.3584 16.6341L16.6816 15.517Z" fill="black"/>
<path d="M53.5225 40.0636L56.5916 35.4655L58.2616 36.5848L55.197 41.1807L53.5225 40.0636Z" fill="black"/>
<path d="M57.1489 34.637L60.2203 30.021L61.897 31.1381L58.8189 35.7452L57.1489 34.637Z" fill="black"/>
<path d="M56.032 41.7492L59.1011 37.1421L60.7779 38.2614L57.711 42.8663L56.032 41.7492Z" fill="black"/>
<path d="M59.6606 36.296L62.732 31.6979L64.4088 32.8149L61.3374 37.4131L59.6606 36.296Z" fill="black"/>
<path d="M58.5435 43.417L61.6149 38.8188L63.2916 39.927L60.2202 44.5341L58.5435 43.417Z" fill="black"/>
<path d="M62.1724 37.9816L65.2415 33.3745L66.9138 34.4916L63.8446 39.0897L62.1724 37.9816Z" fill="black"/>
<path d="M31.7541 18.3041C31.7047 18.3666 31.6619 18.4342 31.6265 18.5055C31.6644 18.4356 31.707 18.3683 31.7541 18.3041Z" fill="#B50037"/>
<path d="M48.5016 14.9506C45.8347 13.178 42.5733 12.536 39.4335 13.1655C36.2936 13.7951 33.5319 15.6448 31.7545 18.3085C31.2659 18.9665 30.9162 19.7169 30.7266 20.5142C30.5371 21.3115 30.5117 22.139 30.6519 22.9464C30.7921 23.7539 31.0951 24.5244 31.5424 25.2111C31.9897 25.8977 32.5719 26.4863 33.2537 26.941C33.9356 27.3956 34.7027 27.7069 35.5086 27.8558C36.3145 28.0047 37.1422 27.9882 37.9415 27.8073C38.7408 27.6264 39.495 27.2847 40.1581 26.8033C40.8213 26.3218 41.3796 25.7105 41.7992 25.0065C42.2177 24.3008 42.7756 23.6876 43.4388 23.2044C44.102 22.7213 44.8566 22.3782 45.6567 22.1961C46.4567 22.014 47.2855 21.9968 48.0925 22.1453C48.8994 22.2939 49.6677 22.6053 50.3505 23.0604C51.0332 23.5155 51.6161 24.1049 52.0637 24.7926C52.5113 25.4802 52.8142 26.2519 52.9539 27.0604C53.0937 27.869 53.0673 28.6975 52.8765 29.4955C52.6856 30.2936 52.3343 31.0444 51.8439 31.7022C52.7248 30.383 53.3372 28.9031 53.646 27.3471C53.9548 25.7912 53.954 24.1896 53.6436 22.6339C53.3332 21.0783 52.7193 19.599 51.837 18.2807C50.9548 16.9623 49.8214 15.8308 48.5016 14.9506Z" fill="#B50037"/>
<path d="M31.754 18.3041C31.2654 18.962 30.9157 19.7124 30.7262 20.5097C30.5366 21.307 30.5112 22.1346 30.6514 22.942C30.7917 23.7494 31.0946 24.5199 31.5419 25.2066C31.9892 25.8933 32.5715 26.4818 33.2533 26.9365C33.9351 27.3912 34.7023 27.7024 35.5081 27.8513C36.314 28.0003 37.1418 27.9838 37.9411 27.8028C38.7404 27.6219 39.4945 27.2803 40.1577 26.7988C40.8208 26.3173 41.3792 25.706 41.7987 25.002C42.2173 24.2963 42.7751 23.6831 43.4383 23.2C44.1015 22.7168 44.8561 22.3737 45.6562 22.1917C46.4563 22.0096 47.2851 21.9923 48.092 22.1409C48.899 22.2895 49.6672 22.6008 50.35 23.0559C51.0327 23.511 51.6157 24.1004 52.0633 24.7881C52.5109 25.4758 52.8138 26.2474 52.9535 27.056C53.0932 27.8645 53.0669 28.693 52.876 29.4911C52.6852 30.2891 52.3339 31.0399 51.8434 31.6978C50.9706 33.0319 49.8422 34.18 48.5234 35.0757C47.2045 35.9715 45.7213 36.5971 44.1593 36.9165C42.5974 37.236 40.9876 37.2429 39.423 36.9368C37.8583 36.6308 36.3698 36.0179 35.0433 35.1335C33.7168 34.2491 32.5786 33.1108 31.6944 31.7842C30.8102 30.4575 30.1975 28.9689 29.8917 27.4042C29.5859 25.8395 29.593 24.2298 29.9126 22.6679C30.2323 21.106 30.8581 19.6228 31.754 18.3041Z" fill="#1E3476"/>
</g>
<rect x="0.549902" y="0.999731" width="82.5" height="48.0006" stroke="#A2D5D6" stroke-width="0.3"/>
<defs>
<clipPath id="clip0_3147_6839">
<rect x="0.399902" y="0.849731" width="82.8" height="48.3006" fill="white"/>
</clipPath>
</defs>
</svg>
