<svg width="84" height="50" viewBox="0 0 84 50" fill="none" xmlns="http://www.w3.org/2000/svg">
<g clip-path="url(#clip0_3147_6525)">
<mask id="mask0_3147_6525" style="mask-type:luminance" maskUnits="userSpaceOnUse" x="0" y="0" width="84" height="50">
<path d="M83.6001 0.845825H0.800049V49.1541H83.6001V0.845825Z" fill="white"/>
</mask>
<g mask="url(#mask0_3147_6525)">
<path d="M83.6001 0.845825H0.800049V49.1541H83.6001V0.845825Z" fill="#3C9242"/>
<path d="M13.5808 24.9995L42.2006 43.2817L70.8451 24.9995L42.2006 6.71741L13.5808 24.9995Z" fill="#EDC226"/>
<mask id="mask1_3147_6525" style="mask-type:luminance" maskUnits="userSpaceOnUse" x="0" y="0" width="84" height="50">
<path d="M83.6001 0.845825H0.800049V49.1541H83.6001V0.845825Z" fill="white"/>
</mask>
<g mask="url(#mask1_3147_6525)">
<path d="M54.2654 24.9749C54.2654 27.3611 53.5579 29.6936 52.2322 31.6777C50.9065 33.6617 49.0222 35.2081 46.8177 36.1212C44.6131 37.0344 42.1873 37.2733 39.847 36.8078C37.5067 36.3422 35.357 35.1932 33.6697 33.5059C31.9824 31.8186 30.8333 29.6689 30.3678 27.3286C29.9023 24.9883 30.1412 22.5624 31.0543 20.3579C31.9675 18.1534 33.5139 16.2691 35.498 14.9434C37.482 13.6177 39.8146 12.9102 42.2007 12.9102C45.4005 12.9102 48.4692 14.1813 50.7317 16.4438C52.9943 18.7064 54.2654 21.7751 54.2654 24.9749Z" fill="#2D146E"/>
<path d="M35.2923 19.8187C33.9053 19.8174 32.5201 19.9163 31.1474 20.1148C30.8861 20.7056 30.6715 21.3161 30.5059 21.9405C32.087 21.6714 33.6884 21.5393 35.2923 21.5458C42.0974 21.5351 48.6644 24.0494 53.7224 28.602C53.9261 27.9761 54.0666 27.3314 54.1419 26.6776C48.8696 22.2306 42.1896 19.8 35.2923 19.8187Z" fill="white"/>
<path fill-rule="evenodd" clip-rule="evenodd" d="M31.8867 21.3479C31.9575 21.3391 32.0258 21.3158 32.0872 21.2794C32.1486 21.2431 32.2017 21.1944 32.2434 21.1365C32.2851 21.0786 32.3144 21.0127 32.3295 20.9429C32.3445 20.8732 32.345 20.8011 32.3308 20.7311C32.3277 20.6598 32.3105 20.5898 32.2802 20.5252C32.25 20.4605 32.2073 20.4025 32.1546 20.3544C32.1019 20.3062 32.0402 20.269 31.973 20.2447C31.9059 20.2205 31.8346 20.2097 31.7633 20.213C31.6915 20.2248 31.6228 20.251 31.5613 20.2899C31.4998 20.3289 31.4468 20.3798 31.4053 20.4396C31.3639 20.4995 31.335 20.567 31.3202 20.6383C31.3054 20.7096 31.3051 20.7831 31.3193 20.8545C31.3223 20.9248 31.3396 20.9937 31.3702 21.0571C31.4007 21.1205 31.4438 21.177 31.4969 21.2232C31.55 21.2694 31.6119 21.3042 31.6789 21.3257C31.746 21.3471 31.8166 21.3547 31.8867 21.3479ZM31.8867 21.1505C31.9714 21.1276 32.0452 21.0753 32.0949 21.003C32.1446 20.9307 32.167 20.8431 32.1581 20.7558C32.1717 20.708 32.1741 20.6578 32.165 20.609C32.156 20.5602 32.1357 20.5142 32.1058 20.4746C32.0759 20.4349 32.0372 20.4028 31.9928 20.3806C31.9483 20.3585 31.8993 20.347 31.8497 20.347C31.8001 20.347 31.7511 20.3585 31.7066 20.3806C31.6622 20.4028 31.6235 20.4349 31.5936 20.4746C31.5637 20.5142 31.5435 20.5602 31.5344 20.609C31.5253 20.6578 31.5277 20.708 31.5413 20.7558C31.5476 20.843 31.5867 20.9247 31.6508 20.9842C31.7149 21.0438 31.7992 21.0768 31.8867 21.0765" fill="#3C9242"/>
<path fill-rule="evenodd" clip-rule="evenodd" d="M32.8247 21.348H33.0467V20.9039H33.5155C33.6069 20.8865 33.6893 20.8373 33.748 20.7651C33.8066 20.6929 33.8379 20.6022 33.8363 20.5092C33.8239 20.4154 33.7762 20.3299 33.7028 20.2702C33.6294 20.2106 33.5358 20.1813 33.4415 20.1884H32.7754L32.8247 21.348ZM32.9974 20.7066H33.4415C33.4764 20.6925 33.5065 20.6688 33.5284 20.6382C33.5503 20.6076 33.5629 20.5714 33.5649 20.5338H33.4169H32.9727L32.9974 20.7066Z" fill="#3C9242"/>
<path d="M33.8119 21.3481C33.8119 21.2001 33.8118 20.83 33.5158 20.8547H33.2197C33.5651 20.8547 33.5898 21.1754 33.6145 21.3481" fill="#3C9242"/>
<path fill-rule="evenodd" clip-rule="evenodd" d="M34.3062 21.348H34.8243C34.89 21.3515 34.9558 21.3412 35.0173 21.3176C35.0787 21.2941 35.1346 21.2579 35.1812 21.2113C35.2277 21.1648 35.264 21.1089 35.2875 21.0475C35.311 20.986 35.3213 20.9203 35.3178 20.8545V20.6818C35.3114 20.5487 35.254 20.4232 35.1575 20.3313C35.061 20.2394 34.9329 20.1882 34.7997 20.1884H34.2815L34.3062 21.348ZM34.5036 21.1259H34.7997C34.8406 21.1293 34.8817 21.1242 34.9205 21.1109C34.9593 21.0975 34.995 21.0763 35.0252 21.0484C35.0553 21.0206 35.0793 20.9868 35.0957 20.9491C35.1121 20.9115 35.1206 20.8709 35.1204 20.8298V20.7065C35.1142 20.6258 35.0777 20.5504 35.0182 20.4955C34.9587 20.4406 34.8806 20.4102 34.7997 20.4104H34.4789L34.5036 21.1259Z" fill="#3C9242"/>
<path d="M35.761 21.2494L36.7972 21.2988V21.0767L35.9584 21.052L35.983 20.756L36.6492 20.7807V20.5833L35.983 20.5586V20.3366L36.7725 20.3612V20.1392L35.8103 20.1145L35.761 21.2494Z" fill="#3C9242"/>
<path d="M37.217 21.3233H37.4144L37.4884 20.5585L37.6365 21.348L37.8338 21.3726L38.1299 20.6078L38.0559 21.3973L38.2533 21.422L38.352 20.2624L38.0806 20.2377L37.7598 21.0026L37.6118 20.1884L37.3157 20.1637L37.217 21.3233Z" fill="#3C9242"/>
<path d="M39.5859 21.5951L40.4495 21.7184L40.4741 21.5457L39.8327 21.4224L39.882 21.1756L40.4248 21.2497L40.4495 21.0523L39.9067 20.9783L39.9313 20.8056L40.5728 20.9042L40.5975 20.7069L39.7833 20.5588L39.5859 21.5951Z" fill="#3C9242"/>
<path fill-rule="evenodd" clip-rule="evenodd" d="M41.7817 22.0142H41.9792L42.1025 21.5947H42.522C42.5689 21.6077 42.618 21.6113 42.6664 21.6052C42.7147 21.5992 42.7614 21.5838 42.8038 21.5597C42.8462 21.5357 42.8834 21.5035 42.9133 21.4651C42.9433 21.4266 42.9654 21.3826 42.9784 21.3357C42.9913 21.2887 42.9949 21.2396 42.9889 21.1912C42.9829 21.1429 42.9674 21.0962 42.9434 21.0538C42.9193 21.0114 42.8871 20.9742 42.8486 20.9442C42.8102 20.9143 42.7663 20.8922 42.7193 20.8792L42.0778 20.7312L41.7817 22.0142ZM42.1518 21.4467H42.5713C42.5964 21.4648 42.6266 21.4745 42.6576 21.4745C42.6886 21.4745 42.7188 21.4648 42.744 21.4467V21.274L42.3245 21.1506L42.1518 21.4467Z" fill="#3C9242"/>
<path fill-rule="evenodd" clip-rule="evenodd" d="M43.1875 22.3847H43.3848L43.5329 21.9899L43.9523 22.138C44.0472 22.1623 44.1476 22.1505 44.2342 22.1049C44.3209 22.0593 44.3875 21.9831 44.4211 21.8912C44.4361 21.8459 44.4415 21.7979 44.437 21.7504C44.4325 21.7029 44.4182 21.6568 44.3951 21.6151C44.3719 21.5734 44.3403 21.5369 44.3023 21.508C44.2643 21.4791 44.2208 21.4583 44.1744 21.4471L43.5329 21.2498L43.1875 22.3847ZM43.5823 21.8419L44.0017 21.9652C44.0288 21.9895 44.0639 22.0029 44.1004 22.0029C44.1368 22.0029 44.1719 21.9895 44.1991 21.9652C44.2171 21.9401 44.2269 21.9099 44.2269 21.8789C44.2269 21.8479 44.2171 21.8177 44.1991 21.7925L43.7796 21.6445L43.5823 21.8419Z" fill="#3C9242"/>
<path d="M44.1247 22.6805C44.1247 22.5078 44.2727 22.1871 44.1247 22.113H43.8286C44.1494 22.113 44.0506 22.5572 44.0013 22.7052" fill="#3C9242"/>
<path fill-rule="evenodd" clip-rule="evenodd" d="M45.0622 23.0258C45.2026 23.0589 45.3504 23.0396 45.4776 22.9714C45.6048 22.9033 45.7027 22.7911 45.753 22.6558C45.7773 22.591 45.7885 22.522 45.7862 22.4529C45.7839 22.3837 45.7679 22.3157 45.7393 22.2527C45.7107 22.1897 45.6699 22.1329 45.6194 22.0857C45.5688 22.0384 45.5094 22.0016 45.4446 21.9773C45.3798 21.953 45.3108 21.9417 45.2417 21.944C45.1725 21.9464 45.1045 21.9623 45.0415 21.991C44.9785 22.0196 44.9217 22.0604 44.8745 22.111C44.8272 22.1615 44.7903 22.2209 44.766 22.2857C44.7144 22.4238 44.7161 22.5762 44.7709 22.7131C44.8256 22.85 44.9295 22.9615 45.0622 23.0258ZM45.0622 22.8038C45.1042 22.819 45.1489 22.8252 45.1935 22.822C45.2381 22.8189 45.2815 22.8065 45.321 22.7855C45.3604 22.7646 45.3951 22.7357 45.4228 22.7006C45.4504 22.6655 45.4705 22.625 45.4816 22.5818C45.5018 22.5416 45.5133 22.4977 45.5154 22.4529C45.5176 22.408 45.5103 22.3632 45.494 22.3213C45.4777 22.2794 45.4528 22.2414 45.421 22.2098C45.3891 22.1782 45.3508 22.1536 45.3088 22.1377C45.224 22.1197 45.1355 22.132 45.0589 22.1726C44.9822 22.2132 44.9223 22.2794 44.8895 22.3597C44.8557 22.4418 44.8548 22.5336 44.887 22.6163C44.9191 22.699 44.9819 22.7661 45.0622 22.8038Z" fill="#3C9242"/>
<path fill-rule="evenodd" clip-rule="evenodd" d="M46.4196 23.569C46.5576 23.6068 46.7044 23.5955 46.8349 23.537C46.9654 23.4785 47.0716 23.3764 47.1352 23.2483C47.1887 23.1131 47.1906 22.963 47.1405 22.8265C47.0905 22.69 46.9919 22.5767 46.8637 22.5081C46.7976 22.4808 46.7265 22.4676 46.6549 22.4691C46.5834 22.4707 46.513 22.4871 46.4481 22.5172C46.3832 22.5473 46.3252 22.5906 46.2779 22.6442C46.2305 22.6979 46.1948 22.7607 46.1729 22.8289C46.1393 22.8934 46.119 22.9641 46.1133 23.0366C46.1075 23.1092 46.1164 23.1822 46.1394 23.2512C46.1624 23.3203 46.1991 23.384 46.2472 23.4386C46.2954 23.4932 46.354 23.5375 46.4196 23.569ZM46.4196 23.3717C46.5041 23.3927 46.5933 23.3833 46.6715 23.3451C46.7497 23.3069 46.812 23.2424 46.8473 23.1628C46.8827 23.0833 46.8888 22.9939 46.8648 22.9102C46.8407 22.8266 46.7879 22.7541 46.7157 22.7055C46.6753 22.6899 46.6321 22.6827 46.5888 22.6843C46.5455 22.6858 46.503 22.6961 46.4638 22.7146C46.4246 22.733 46.3896 22.7592 46.3608 22.7916C46.332 22.8239 46.3101 22.8618 46.2963 22.9029C46.2422 22.969 46.2126 23.0518 46.2126 23.1373C46.2126 23.2227 46.2422 23.3055 46.2963 23.3717" fill="#3C9242"/>
<path d="M46.7158 23.0757L47.1353 23.2484L47.0613 23.3964L46.6665 23.2237L46.7158 23.0757Z" fill="#3C9242"/>
<path d="M46.9877 23.1737L47.1357 23.2477L46.889 23.7658L46.7656 23.7165L46.9877 23.1737Z" fill="#3C9242"/>
<path fill-rule="evenodd" clip-rule="evenodd" d="M47.2837 23.9387H47.481L47.6538 23.5686L48.0732 23.766C48.1137 23.7874 48.1579 23.8005 48.2035 23.8046C48.249 23.8087 48.2949 23.8037 48.3385 23.79C48.3821 23.7762 48.4225 23.7539 48.4574 23.7244C48.4924 23.6949 48.5211 23.6587 48.5419 23.618C48.5674 23.5765 48.5838 23.5302 48.59 23.482C48.5963 23.4337 48.5923 23.3847 48.5784 23.3382C48.5644 23.2916 48.5407 23.2485 48.5089 23.2117C48.4772 23.1749 48.4379 23.1452 48.3939 23.1245L47.8018 22.8285L47.2837 23.9387ZM47.7525 23.47L48.1472 23.6673C48.1744 23.6916 48.2095 23.705 48.2459 23.705C48.2823 23.705 48.3174 23.6916 48.3446 23.6673C48.3689 23.6402 48.3823 23.605 48.3823 23.5686C48.3823 23.5322 48.3689 23.4971 48.3446 23.47L47.9251 23.2726L47.7525 23.47Z" fill="#3C9242"/>
<path d="M48.1474 24.3831C48.1474 24.235 48.3695 23.9143 48.1474 23.8156L47.8513 23.6676C48.1967 23.8156 48.024 24.1364 47.8513 24.2844" fill="#3C9242"/>
<path d="M48.5911 24.6298L49.5039 25.1233L49.578 24.9506L48.8625 24.5312L49.0105 24.2598L49.578 24.6052L49.6766 24.4078L49.1092 24.1117L49.2325 23.8897L49.8987 24.2844L50.0221 24.1117L49.1585 23.6183L48.5911 24.6298Z" fill="#3C9242"/>
<path d="M50.2686 25.1724C50.2686 25.1724 50.2686 25.3697 50.392 25.4684C50.5153 25.5671 50.6387 25.4684 50.6634 25.4684C50.6881 25.4684 50.0713 24.975 50.2933 24.6296C50.5154 24.2842 50.8114 24.6296 50.9347 24.6296C50.9817 24.6505 51.0238 24.6809 51.0583 24.719C51.0928 24.7571 51.119 24.8019 51.1353 24.8506C51.1515 24.8994 51.1574 24.9509 51.1526 25.0021C51.1479 25.0532 51.1325 25.1028 51.1075 25.1477L50.8854 24.9997C50.8854 24.9997 50.8854 24.8023 50.8854 24.753C50.8854 24.7036 50.6881 24.6296 50.6141 24.753C50.5401 24.8763 51.2308 25.197 51.0088 25.5425C50.7867 25.8879 50.5647 25.6905 50.392 25.5425C50.2192 25.3944 49.9726 25.1971 50.1206 24.9503L50.2686 25.1724Z" fill="#3C9242"/>
<path d="M51.5011 25.9866C51.5011 25.9866 51.5011 26.184 51.5011 26.2827C51.5011 26.3814 51.7478 26.2827 51.7972 26.2827C51.8465 26.2827 51.2051 25.7646 51.4518 25.4191C51.6985 25.0737 51.9945 25.4191 52.0932 25.4191C52.1919 25.4191 52.414 25.7399 52.2413 25.9619L52.0439 25.8139C52.0439 25.8139 52.0439 25.6165 51.9206 25.5179C51.7972 25.4192 51.7479 25.5179 51.6739 25.5179C51.5998 25.5179 52.2413 26.0113 52.0192 26.332C51.7972 26.6528 51.5505 26.4554 51.4024 26.332C51.2544 26.2087 51.0077 25.9619 51.1804 25.7399L51.5011 25.9866Z" fill="#3C9242"/>
<path fill-rule="evenodd" clip-rule="evenodd" d="M52.6622 27.3188C52.7668 27.4142 52.9031 27.467 53.0446 27.467C53.1861 27.467 53.3225 27.4142 53.427 27.3188C53.5295 27.213 53.5869 27.0714 53.5869 26.924C53.5869 26.7767 53.5295 26.6352 53.427 26.5293C53.3225 26.434 53.1861 26.3811 53.0446 26.3811C52.9031 26.3811 52.7668 26.434 52.6622 26.5293C52.5597 26.6352 52.5024 26.7767 52.5024 26.924C52.5024 27.0714 52.5597 27.213 52.6622 27.3188ZM52.7855 27.1461C52.8156 27.1782 52.8518 27.2038 52.8922 27.2213C52.9325 27.2389 52.976 27.2479 53.0199 27.2479C53.0639 27.2479 53.1074 27.2389 53.1477 27.2213C53.188 27.2038 53.2243 27.1782 53.2543 27.1461C53.3133 27.0823 53.346 26.9986 53.346 26.9117C53.346 26.8249 53.3133 26.7412 53.2543 26.6773C53.1946 26.62 53.115 26.588 53.0323 26.588C52.9495 26.588 52.87 26.62 52.8102 26.6773C52.7781 26.7074 52.7525 26.7436 52.735 26.784C52.7175 26.8243 52.7084 26.8678 52.7084 26.9117C52.7084 26.9557 52.7175 26.9992 52.735 27.0395C52.7525 27.0798 52.7781 27.1161 52.8102 27.1461" fill="#3C9242"/>
<path d="M32.3563 22.3105L32.1836 22.804L32.4303 22.878L32.3563 22.3105Z" fill="white"/>
<path d="M32.356 22.3105L32.504 22.804L32.2573 22.878L32.356 22.3105Z" fill="white"/>
<path d="M32.8252 22.6804H32.3318V22.9271L32.8252 22.6804Z" fill="white"/>
<path d="M32.8248 22.6804L32.43 22.9765L32.2573 22.7544L32.8248 22.6804Z" fill="white"/>
<path d="M31.8638 22.6804L32.2832 22.9765L32.4312 22.7544L31.8638 22.6804Z" fill="white"/>
<path d="M31.8638 22.6804H32.3819V22.9271L31.8638 22.6804Z" fill="white"/>
<path d="M32.6521 23.2481L32.4794 22.7546L32.2573 22.8287L32.6521 23.2481Z" fill="white"/>
<path d="M32.6528 23.2479L32.2334 22.9271L32.3814 22.7297L32.6528 23.2479Z" fill="white"/>
<path d="M32.0359 23.2479L32.4553 22.9271L32.3073 22.7297L32.0359 23.2479Z" fill="white"/>
<path d="M32.0359 23.2481L32.2086 22.7546L32.4553 22.8287L32.0359 23.2481Z" fill="white"/>
<path d="M33.4166 27.3931L33.2439 27.8865L33.5153 27.9605L33.4166 27.3931Z" fill="white"/>
<path d="M33.4168 27.3931L33.5648 27.8865L33.3428 27.9605L33.4168 27.3931Z" fill="white"/>
<path d="M33.9102 27.7383H33.3921V28.0097L33.9102 27.7383Z" fill="white"/>
<path d="M33.9102 27.7383L33.4908 28.059L33.3428 27.837L33.9102 27.7383Z" fill="white"/>
<path d="M32.9231 27.7383L33.3425 28.059L33.4906 27.837L32.9231 27.7383Z" fill="white"/>
<path d="M32.9231 27.7383H33.4412V28.0097L32.9231 27.7383Z" fill="white"/>
<path d="M33.7131 28.3304L33.5651 27.8369L33.3184 27.9109L33.7131 28.3304Z" fill="white"/>
<path d="M33.7124 28.3305L33.293 28.0098L33.441 27.8124L33.7124 28.3305Z" fill="white"/>
<path d="M33.0967 28.3305L33.5408 28.0098L33.3681 27.8124L33.0967 28.3305Z" fill="white"/>
<path d="M33.0967 28.3304L33.2694 27.8369L33.5161 27.9109L33.0967 28.3304Z" fill="white"/>
<path d="M31.9368 28.6509L31.8381 28.9716L31.9862 29.021L31.9368 28.6509Z" fill="white"/>
<path d="M31.9368 28.6509L32.0355 28.9716L31.8875 29.021L31.9368 28.6509Z" fill="white"/>
<path d="M32.2583 28.8732H31.9128V29.0459L32.2583 28.8732Z" fill="white"/>
<path d="M32.2575 28.8732L31.9861 29.0952L31.8875 28.9472L32.2575 28.8732Z" fill="white"/>
<path d="M31.6167 28.8732L31.8881 29.0952L31.9868 28.9472L31.6167 28.8732Z" fill="white"/>
<path d="M31.6167 28.8732H31.9621V29.0459L31.6167 28.8732Z" fill="white"/>
<path d="M32.1352 29.2679L32.0365 28.9471L31.8638 28.9965L32.1352 29.2679Z" fill="white"/>
<path d="M32.1352 29.268L31.8638 29.0706L31.9625 28.9226L32.1352 29.268Z" fill="white"/>
<path d="M31.7393 29.268L32.0107 29.0706L31.912 28.9226L31.7393 29.268Z" fill="white"/>
<path d="M31.7393 29.2679L31.8379 28.9471L31.986 28.9965L31.7393 29.2679Z" fill="white"/>
<path d="M34.6011 26.9238L34.5271 27.1459L34.6258 27.1952L34.6011 26.9238Z" fill="white"/>
<path d="M34.6016 26.9238L34.6756 27.1459L34.5522 27.1952L34.6016 26.9238Z" fill="white"/>
<path d="M34.8236 27.0968H34.6016V27.2202L34.8236 27.0968Z" fill="white"/>
<path d="M34.8229 27.0968L34.6255 27.2448L34.5762 27.1215L34.8229 27.0968Z" fill="white"/>
<path d="M34.3547 27.0968L34.5768 27.2448L34.6261 27.1215L34.3547 27.0968Z" fill="white"/>
<path d="M34.3547 27.0968H34.6015V27.2202L34.3547 27.0968Z" fill="white"/>
<path d="M34.7496 27.3682L34.6509 27.1215L34.5522 27.1708L34.7496 27.3682Z" fill="white"/>
<path d="M34.7496 27.3682L34.5522 27.2201L34.6263 27.1215L34.7496 27.3682Z" fill="white"/>
<path d="M34.4531 27.3682L34.6505 27.2201L34.5765 27.1215L34.4531 27.3682Z" fill="white"/>
<path d="M34.4531 27.3682L34.5271 27.1215L34.6505 27.1708L34.4531 27.3682Z" fill="white"/>
<path d="M35.9337 28.6755L35.8103 29.0703L35.983 29.1443L35.9337 28.6755Z" fill="white"/>
<path d="M35.9334 28.6755L36.0568 29.0703L35.8594 29.1443L35.9334 28.6755Z" fill="white"/>
<path d="M36.3281 28.9718H35.9087V29.1692L36.3281 28.9718Z" fill="white"/>
<path d="M36.3281 28.9718L35.9827 29.2185L35.8594 29.0458L36.3281 28.9718Z" fill="white"/>
<path d="M35.5149 28.9718L35.8603 29.2185L35.9837 29.0458L35.5149 28.9718Z" fill="white"/>
<path d="M35.5149 28.9718H35.959V29.1692L35.5149 28.9718Z" fill="white"/>
<path d="M36.1809 29.4408L36.0575 29.046L35.8354 29.12L36.1809 29.4408Z" fill="white"/>
<path d="M36.1809 29.4409L35.8354 29.1942L35.9588 29.0215L36.1809 29.4409Z" fill="white"/>
<path d="M35.6873 29.4409L36.0327 29.1942L35.8846 29.0215L35.6873 29.4409Z" fill="white"/>
<path d="M35.6873 29.4408L35.8106 29.046L36.008 29.12L35.6873 29.4408Z" fill="white"/>
<path d="M35.5635 29.8604L35.4402 30.2798L35.6376 30.3538L35.5635 29.8604Z" fill="white"/>
<path d="M35.5635 29.8604L35.6869 30.2798L35.4895 30.3538L35.5635 29.8604Z" fill="white"/>
<path d="M35.9827 30.181H35.5386V30.3784L35.9827 30.181Z" fill="white"/>
<path d="M35.9829 30.181L35.6375 30.4278L35.4895 30.255L35.9829 30.181Z" fill="white"/>
<path d="M35.1689 30.181L35.5144 30.4278L35.6377 30.255L35.1689 30.181Z" fill="white"/>
<path d="M35.1689 30.181H35.5884V30.3784L35.1689 30.181Z" fill="white"/>
<path d="M35.8102 30.6498L35.6869 30.2303L35.4895 30.3044L35.8102 30.6498Z" fill="white"/>
<path d="M35.8112 30.6498L35.4658 30.4031L35.6139 30.2303L35.8112 30.6498Z" fill="white"/>
<path d="M35.3171 30.6498L35.6626 30.4031L35.5392 30.2303L35.3171 30.6498Z" fill="white"/>
<path d="M35.3171 30.6498L35.4405 30.2303L35.6626 30.3044L35.3171 30.6498Z" fill="white"/>
<path d="M45.9503 20.7312L45.7776 21.2246L46.049 21.2987L45.9503 20.7312Z" fill="white"/>
<path d="M45.951 20.7312L46.099 21.2246L45.8523 21.2987L45.951 20.7312Z" fill="white"/>
<path d="M46.4434 21.0769H45.9253V21.3483L46.4434 21.0769Z" fill="white"/>
<path d="M46.4444 21.0769L46.025 21.3976L45.877 21.1756L46.4444 21.0769Z" fill="white"/>
<path d="M45.457 21.0769L45.8765 21.3976L46.0245 21.1756L45.457 21.0769Z" fill="white"/>
<path d="M45.457 21.0769H45.9751V21.3483L45.457 21.0769Z" fill="white"/>
<path d="M46.2471 21.6691L46.099 21.1757L45.8523 21.2497L46.2471 21.6691Z" fill="white"/>
<path d="M46.2463 21.669L45.8269 21.3729L45.9749 21.1509L46.2463 21.669Z" fill="white"/>
<path d="M45.6545 21.669L46.074 21.3729L45.9259 21.1509L45.6545 21.669Z" fill="white"/>
<path d="M45.6545 21.6691L45.8026 21.1757L46.0493 21.2497L45.6545 21.6691Z" fill="white"/>
<path d="M50.6634 28.725L50.4907 29.2184L50.7621 29.2924L50.6634 28.725Z" fill="white"/>
<path d="M50.6631 28.725L50.8112 29.2184L50.5891 29.2924L50.6631 28.725Z" fill="white"/>
<path d="M51.1563 29.0707H50.6382V29.3174L51.1563 29.0707Z" fill="white"/>
<path d="M51.1566 29.0707L50.7371 29.3667L50.5891 29.1694L51.1566 29.0707Z" fill="white"/>
<path d="M50.1702 29.0707L50.5896 29.3667L50.7376 29.1694L50.1702 29.0707Z" fill="white"/>
<path d="M50.1702 29.0707H50.6883V29.3174L50.1702 29.0707Z" fill="white"/>
<path d="M50.9834 29.6629L50.8107 29.1694L50.564 29.2435L50.9834 29.6629Z" fill="white"/>
<path d="M50.9834 29.6628L50.564 29.342L50.712 29.1447L50.9834 29.6628Z" fill="white"/>
<path d="M50.3677 29.6628L50.7871 29.342L50.6391 29.1447L50.3677 29.6628Z" fill="white"/>
<path d="M50.3677 29.6629L50.5157 29.1694L50.7624 29.2435L50.3677 29.6629Z" fill="white"/>
<path d="M52.3409 28.9965L52.2422 29.3172L52.4149 29.3912L52.3409 28.9965Z" fill="white"/>
<path d="M52.3416 28.9965L52.4403 29.3172L52.2676 29.3912L52.3416 28.9965Z" fill="white"/>
<path d="M52.6616 29.2437H52.3408V29.4164L52.6616 29.2437Z" fill="white"/>
<path d="M52.6616 29.2437L52.3902 29.441L52.2915 29.293L52.6616 29.2437Z" fill="white"/>
<path d="M52.0208 29.2437L52.2921 29.441L52.3908 29.293L52.0208 29.2437Z" fill="white"/>
<path d="M52.0208 29.2437H52.3662V29.4164L52.0208 29.2437Z" fill="white"/>
<path d="M52.539 29.613L52.4403 29.2922L52.2676 29.3416L52.539 29.613Z" fill="white"/>
<path d="M52.539 29.613L52.2676 29.4156L52.3663 29.2922L52.539 29.613Z" fill="white"/>
<path d="M52.1431 29.613L52.4145 29.4156L52.3158 29.2922L52.1431 29.613Z" fill="white"/>
<path d="M52.1431 29.613L52.2418 29.2922L52.4145 29.3416L52.1431 29.613Z" fill="white"/>
<path d="M51.1568 29.8604L51.0334 30.2798L51.2308 30.3538L51.1568 29.8604Z" fill="white"/>
<path d="M51.1568 29.8604L51.2801 30.2798L51.1074 30.3538L51.1568 29.8604Z" fill="white"/>
<path d="M51.5754 30.181H51.1313V30.3784L51.5754 30.181Z" fill="white"/>
<path d="M51.5762 30.181L51.2308 30.4278L51.1074 30.255L51.5762 30.181Z" fill="white"/>
<path d="M50.7612 30.181L51.1066 30.4278L51.23 30.255L50.7612 30.181Z" fill="white"/>
<path d="M50.7612 30.181H51.1807V30.3784L50.7612 30.181Z" fill="white"/>
<path d="M51.4042 30.6498L51.2809 30.2303L51.0835 30.3044L51.4042 30.6498Z" fill="white"/>
<path d="M51.4035 30.6498L51.0581 30.4031L51.1815 30.2303L51.4035 30.6498Z" fill="white"/>
<path d="M50.9099 30.6498L51.2553 30.4031L51.132 30.2303L50.9099 30.6498Z" fill="white"/>
<path d="M50.9099 30.6498L51.0333 30.2303L51.2553 30.3044L50.9099 30.6498Z" fill="white"/>
<path d="M48.2454 32.4011L48.1221 32.7959L48.3194 32.8699L48.2454 32.4011Z" fill="white"/>
<path d="M48.2452 32.4011L48.3932 32.7959L48.1711 32.8699L48.2452 32.4011Z" fill="white"/>
<path d="M48.6645 32.6974H48.2451V32.9194L48.6645 32.6974Z" fill="white"/>
<path d="M48.6646 32.6974L48.3192 32.9441L48.1711 32.7714L48.6646 32.6974Z" fill="white"/>
<path d="M47.8513 32.6974L48.1967 32.9441L48.3201 32.7714L47.8513 32.6974Z" fill="white"/>
<path d="M47.8513 32.6974H48.2707V32.9194L47.8513 32.6974Z" fill="white"/>
<path d="M48.4919 33.1907L48.3685 32.7712L48.1711 32.8453L48.4919 33.1907Z" fill="white"/>
<path d="M48.4912 33.191L48.1458 32.9197L48.2691 32.7469L48.4912 33.191Z" fill="white"/>
<path d="M47.9995 33.191L48.3449 32.9197L48.2216 32.7469L47.9995 33.191Z" fill="white"/>
<path d="M47.9995 33.1907L48.1229 32.7712L48.3449 32.8453L47.9995 33.1907Z" fill="white"/>
<path d="M48.2454 33.7089L48.1221 34.0296L48.2948 34.0789L48.2454 33.7089Z" fill="white"/>
<path d="M48.2452 33.7089L48.3438 34.0296L48.1711 34.0789L48.2452 33.7089Z" fill="white"/>
<path d="M48.5664 33.9309H48.2209V34.1036L48.5664 33.9309Z" fill="white"/>
<path d="M48.5659 33.9309L48.2698 34.1283L48.1711 34.0049L48.5659 33.9309Z" fill="white"/>
<path d="M47.9004 33.9309L48.1718 34.1283L48.2951 34.0049L47.9004 33.9309Z" fill="white"/>
<path d="M47.9004 33.9309H48.2458V34.1036L47.9004 33.9309Z" fill="white"/>
<path d="M48.4425 34.3259L48.3192 34.0051L48.1711 34.0545L48.4425 34.3259Z" fill="white"/>
<path d="M48.4418 34.3259L48.1458 34.1285L48.2444 33.9805L48.4418 34.3259Z" fill="white"/>
<path d="M48.0234 34.3259L48.3195 34.1285L48.1961 33.9805L48.0234 34.3259Z" fill="white"/>
<path d="M48.0234 34.3259L48.1468 34.0051L48.2948 34.0545L48.0234 34.3259Z" fill="white"/>
<path d="M49.4532 31.5378L49.3298 31.8586L49.5025 31.9079L49.4532 31.5378Z" fill="white"/>
<path d="M49.4546 31.5378L49.5533 31.8586L49.4053 31.9079L49.4546 31.5378Z" fill="white"/>
<path d="M49.7744 31.7596H49.429V31.957L49.7744 31.7596Z" fill="white"/>
<path d="M49.7754 31.7596L49.504 31.9817L49.4053 31.8337L49.7754 31.7596Z" fill="white"/>
<path d="M49.1345 31.7596L49.4059 31.9817L49.5046 31.8337L49.1345 31.7596Z" fill="white"/>
<path d="M49.1345 31.7596H49.4799V31.957L49.1345 31.7596Z" fill="white"/>
<path d="M49.651 32.1545L49.5523 31.8337L49.3796 31.8831L49.651 32.1545Z" fill="white"/>
<path d="M49.651 32.1542L49.3796 31.9569L49.4783 31.8088L49.651 32.1542Z" fill="white"/>
<path d="M49.2566 32.1542L49.528 31.9569L49.4293 31.8088L49.2566 32.1542Z" fill="white"/>
<path d="M49.2566 32.1545L49.3553 31.8337L49.528 31.8831L49.2566 32.1545Z" fill="white"/>
<path d="M50.4166 30.847L50.2932 31.2418L50.4906 31.3158L50.4166 30.847Z" fill="white"/>
<path d="M50.4163 30.847L50.5643 31.2418L50.3423 31.3158L50.4163 30.847Z" fill="white"/>
<path d="M50.811 31.1426H50.3916V31.34L50.811 31.1426Z" fill="white"/>
<path d="M50.8118 31.1426L50.491 31.3893L50.3677 31.2166L50.8118 31.1426Z" fill="white"/>
<path d="M50.022 31.1426L50.3674 31.3893L50.4907 31.2166L50.022 31.1426Z" fill="white"/>
<path d="M50.022 31.1426H50.4414V31.34L50.022 31.1426Z" fill="white"/>
<path d="M50.663 31.6116L50.5397 31.2168L50.3423 31.2661L50.663 31.6116Z" fill="white"/>
<path d="M50.6638 31.6117L50.3184 31.365L50.4417 31.1923L50.6638 31.6117Z" fill="white"/>
<path d="M50.1702 31.6117L50.5156 31.365L50.3922 31.1923L50.1702 31.6117Z" fill="white"/>
<path d="M50.1702 31.6116L50.2935 31.2168L50.4909 31.2661L50.1702 31.6116Z" fill="white"/>
<path d="M48.1951 31.3154L48.0964 31.6362L48.2445 31.6855L48.1951 31.3154Z" fill="white"/>
<path d="M48.1951 31.3154L48.3185 31.6362L48.1458 31.6855L48.1951 31.3154Z" fill="white"/>
<path d="M48.5412 31.5378H48.1711V31.7105L48.5412 31.5378Z" fill="white"/>
<path d="M48.5405 31.5378L48.2444 31.7352L48.1458 31.6119L48.5405 31.5378Z" fill="white"/>
<path d="M47.875 31.5378L48.1464 31.7352L48.2451 31.6119L47.875 31.5378Z" fill="white"/>
<path d="M47.875 31.5378H48.2204V31.7105L47.875 31.5378Z" fill="white"/>
<path d="M48.4181 31.9327L48.2948 31.5873L48.1221 31.6366L48.4181 31.9327Z" fill="white"/>
<path d="M48.4181 31.9327L48.1221 31.7353L48.2208 31.5873L48.4181 31.9327Z" fill="white"/>
<path d="M47.9995 31.9327L48.2709 31.7353L48.1722 31.5873L47.9995 31.9327Z" fill="white"/>
<path d="M47.9995 31.9327L48.0982 31.5873L48.2709 31.6366L47.9995 31.9327Z" fill="white"/>
<path d="M37.6121 25.0488L37.4641 25.4683L37.6862 25.5423L37.6121 25.0488Z" fill="white"/>
<path d="M37.6119 25.0488L37.7352 25.4683L37.5378 25.5423L37.6119 25.0488Z" fill="white"/>
<path d="M38.0066 25.3451H37.5872V25.5671L38.0066 25.3451Z" fill="white"/>
<path d="M38.0066 25.3451L37.6612 25.6165L37.5378 25.4438L38.0066 25.3451Z" fill="white"/>
<path d="M37.1919 25.3451L37.5373 25.6165L37.6607 25.4438L37.1919 25.3451Z" fill="white"/>
<path d="M37.1919 25.3451H37.6113V25.5671L37.1919 25.3451Z" fill="white"/>
<path d="M37.8586 25.8387L37.7352 25.4193L37.5132 25.4933L37.8586 25.8387Z" fill="white"/>
<path d="M37.8586 25.8387L37.5132 25.592L37.6365 25.4193L37.8586 25.8387Z" fill="white"/>
<path d="M37.3401 25.8387L37.7102 25.592L37.5868 25.4193L37.3401 25.8387Z" fill="white"/>
<path d="M37.3401 25.8387L37.4881 25.4193L37.6855 25.4933L37.3401 25.8387Z" fill="white"/>
<path d="M45.4825 24.0375L45.3838 24.3582L45.5565 24.4076L45.4825 24.0375Z" fill="white"/>
<path d="M45.4825 24.0375L45.6058 24.3582L45.4331 24.4076L45.4825 24.0375Z" fill="white"/>
<path d="M45.8278 24.2845H45.4824V24.4573L45.8278 24.2845Z" fill="white"/>
<path d="M45.8279 24.2845L45.5318 24.4819L45.4331 24.3339L45.8279 24.2845Z" fill="white"/>
<path d="M45.1609 24.2845L45.4323 24.4819L45.531 24.3339L45.1609 24.2845Z" fill="white"/>
<path d="M45.1609 24.2845H45.5063V24.4573L45.1609 24.2845Z" fill="white"/>
<path d="M45.7045 24.654L45.5811 24.3333L45.4331 24.3826L45.7045 24.654Z" fill="white"/>
<path d="M45.704 24.654L45.408 24.4566L45.5067 24.3333L45.704 24.654Z" fill="white"/>
<path d="M45.2849 24.654L45.5563 24.4566L45.4576 24.3333L45.2849 24.654Z" fill="white"/>
<path d="M45.2849 24.654L45.3836 24.3333L45.5563 24.3826L45.2849 24.654Z" fill="white"/>
<path d="M42.2001 29.9092L42.0273 30.378L42.2987 30.4766L42.2001 29.9092Z" fill="white"/>
<path d="M42.2005 29.9092L42.3732 30.378L42.1265 30.4766L42.2005 29.9092Z" fill="white"/>
<path d="M42.6937 30.255H42.1755V30.5264L42.6937 30.255Z" fill="white"/>
<path d="M42.6939 30.255L42.2745 30.5511L42.1265 30.3537L42.6939 30.255Z" fill="white"/>
<path d="M41.7065 30.255L42.1506 30.5511L42.274 30.3537L41.7065 30.255Z" fill="white"/>
<path d="M41.7065 30.255H42.2247V30.5264L41.7065 30.255Z" fill="white"/>
<path d="M42.4966 30.8225L42.3485 30.3538L42.1018 30.4278L42.4966 30.8225Z" fill="white"/>
<path d="M42.4966 30.8223L42.1018 30.5262L42.2498 30.3289L42.4966 30.8223Z" fill="white"/>
<path d="M41.9048 30.8223L42.3242 30.5262L42.1762 30.3289L41.9048 30.8223Z" fill="white"/>
<path d="M41.9048 30.8225L42.0528 30.3538L42.2995 30.4278L41.9048 30.8225Z" fill="white"/>
<path d="M43.6073 27.5901L43.4839 28.0095L43.6813 28.0589L43.6073 27.5901Z" fill="white"/>
<path d="M43.6072 27.5901L43.7306 28.0095L43.5332 28.0589L43.6072 27.5901Z" fill="white"/>
<path d="M44.0019 27.8864H43.5825V28.0837L44.0019 27.8864Z" fill="white"/>
<path d="M44.002 27.8864L43.6566 28.1331L43.5332 27.9604L44.002 27.8864Z" fill="white"/>
<path d="M43.1875 27.8864L43.5329 28.1331L43.6809 27.9604L43.1875 27.8864Z" fill="white"/>
<path d="M43.1875 27.8864H43.6316V28.0837L43.1875 27.8864Z" fill="white"/>
<path d="M43.8535 28.3551L43.7301 27.9603L43.5081 28.0343L43.8535 28.3551Z" fill="white"/>
<path d="M43.8535 28.3553L43.5081 28.1086L43.6314 27.9359L43.8535 28.3553Z" fill="white"/>
<path d="M43.3357 28.3553L43.7058 28.1086L43.5824 27.9359L43.3357 28.3553Z" fill="white"/>
<path d="M43.3357 28.3551L43.4837 27.9603L43.6811 28.0343L43.3357 28.3551Z" fill="white"/>
<path d="M42.2 26.5045L42.0767 26.8993L42.274 26.9733L42.2 26.5045Z" fill="white"/>
<path d="M42.201 26.5045L42.3243 26.8993L42.1516 26.9733L42.201 26.5045Z" fill="white"/>
<path d="M42.6196 26.8005H42.1755V27.0226L42.6196 26.8005Z" fill="white"/>
<path d="M42.6204 26.8005L42.275 27.0473L42.1516 26.8746L42.6204 26.8005Z" fill="white"/>
<path d="M41.8059 26.8005L42.1513 27.0473L42.2747 26.8746L41.8059 26.8005Z" fill="white"/>
<path d="M41.8059 26.8005H42.2253V27.0226L41.8059 26.8005Z" fill="white"/>
<path d="M42.4719 27.2693L42.3238 26.8745L42.1265 26.9239L42.4719 27.2693Z" fill="white"/>
<path d="M42.4719 27.269L42.1018 27.0223L42.2498 26.8496L42.4719 27.269Z" fill="white"/>
<path d="M41.9541 27.269L42.2995 27.0223L42.1762 26.8496L41.9541 27.269Z" fill="white"/>
<path d="M41.9541 27.2693L42.0775 26.8745L42.2995 26.9239L41.9541 27.2693Z" fill="white"/>
<path d="M40.9918 27.6641L40.8684 28.0095L41.0411 28.0588L40.9918 27.6641Z" fill="white"/>
<path d="M40.9915 27.6641L41.0902 28.0095L40.9421 28.0588L40.9915 27.6641Z" fill="white"/>
<path d="M41.3122 27.9113H40.9668V28.084L41.3122 27.9113Z" fill="white"/>
<path d="M41.3122 27.9113L41.0408 28.1086L40.9421 27.9606L41.3122 27.9113Z" fill="white"/>
<path d="M40.6709 27.9113L40.9423 28.1086L41.041 27.9606L40.6709 27.9113Z" fill="white"/>
<path d="M40.6709 27.9113H41.0163V28.084L40.6709 27.9113Z" fill="white"/>
<path d="M41.1889 28.3057L41.0902 27.9603L40.9175 28.0343L41.1889 28.3057Z" fill="white"/>
<path d="M41.1889 28.3057L40.9175 28.0837L41.0162 27.9603L41.1889 28.3057Z" fill="white"/>
<path d="M40.7939 28.3057L41.0653 28.0837L40.9667 27.9603L40.7939 28.3057Z" fill="white"/>
<path d="M40.7939 28.3057L40.8926 27.9603L41.0653 28.0343L40.7939 28.3057Z" fill="white"/>
<path d="M41.6092 28.6022L41.5352 28.8489L41.6338 28.8736L41.6092 28.6022Z" fill="white"/>
<path d="M41.6082 28.6022L41.6822 28.8489L41.5588 28.8736L41.6082 28.6022Z" fill="white"/>
<path d="M41.8312 28.7744H41.5845V28.8978L41.8312 28.7744Z" fill="white"/>
<path d="M41.8302 28.7744L41.6329 28.9224L41.5588 28.8238L41.8302 28.7744Z" fill="white"/>
<path d="M41.3613 28.7744L41.5587 28.9224L41.6327 28.8238L41.3613 28.7744Z" fill="white"/>
<path d="M41.3613 28.7744H41.6081V28.8978L41.3613 28.7744Z" fill="white"/>
<path d="M41.7315 29.0703L41.6575 28.8236L41.5588 28.8483L41.7315 29.0703Z" fill="white"/>
<path d="M41.7325 29.0705L41.5352 28.9224L41.6338 28.7991L41.7325 29.0705Z" fill="white"/>
<path d="M41.46 29.0705L41.6573 28.9224L41.5833 28.7991L41.46 29.0705Z" fill="white"/>
<path d="M41.46 29.0703L41.534 28.8236L41.6573 28.8483L41.46 29.0703Z" fill="white"/>
<path d="M45.8272 32.6974L45.6792 33.0921L45.9012 33.1662L45.8272 32.6974Z" fill="white"/>
<path d="M45.8279 32.6974L45.9513 33.0921L45.7539 33.1662L45.8279 32.6974Z" fill="white"/>
<path d="M46.2227 32.9932H45.8032V33.2152L46.2227 32.9932Z" fill="white"/>
<path d="M46.2227 32.9932L45.8773 33.2399L45.7539 33.0672L46.2227 32.9932Z" fill="white"/>
<path d="M45.408 32.9932L45.7534 33.2399L45.8767 33.0672L45.408 32.9932Z" fill="white"/>
<path d="M45.408 32.9932H45.8521V33.2152L45.408 32.9932Z" fill="white"/>
<path d="M46.0739 33.4868L45.9506 33.0674L45.7285 33.1414L46.0739 33.4868Z" fill="white"/>
<path d="M46.0739 33.4867L45.7285 33.2153L45.8519 33.0426L46.0739 33.4867Z" fill="white"/>
<path d="M45.5562 33.4867L45.9262 33.2153L45.7782 33.0426L45.5562 33.4867Z" fill="white"/>
<path d="M45.5562 33.4868L45.7042 33.0674L45.9016 33.1414L45.5562 33.4868Z" fill="white"/>
<path d="M46.8636 31.7107L46.7402 32.0314L46.9129 32.1054L46.8636 31.7107Z" fill="white"/>
<path d="M46.8636 31.7107L46.9623 32.0314L46.7896 32.1054L46.8636 31.7107Z" fill="white"/>
<path d="M47.1843 31.957H46.8389V32.1297L47.1843 31.957Z" fill="white"/>
<path d="M47.1843 31.957L46.9129 32.1544L46.7896 32.0064L47.1843 31.957Z" fill="white"/>
<path d="M46.5188 31.957L46.7902 32.1544L46.9136 32.0064L46.5188 31.957Z" fill="white"/>
<path d="M46.5188 31.957H46.8642V32.1297L46.5188 31.957Z" fill="white"/>
<path d="M47.0609 32.3275L46.9376 32.0067L46.7896 32.0561L47.0609 32.3275Z" fill="white"/>
<path d="M47.0609 32.3275L46.7896 32.1301L46.8882 32.0067L47.0609 32.3275Z" fill="white"/>
<path d="M46.6665 32.3275L46.9379 32.1301L46.8145 32.0067L46.6665 32.3275Z" fill="white"/>
<path d="M46.6665 32.3275L46.7652 32.0067L46.9379 32.0561L46.6665 32.3275Z" fill="white"/>
<path d="M44.8653 31.4147L44.7666 31.7354L44.9146 31.8094L44.8653 31.4147Z" fill="white"/>
<path d="M44.8658 31.4147L44.9644 31.7354L44.8164 31.8094L44.8658 31.4147Z" fill="white"/>
<path d="M45.1857 31.6615H44.8403V31.8342L45.1857 31.6615Z" fill="white"/>
<path d="M45.1865 31.6615L44.9151 31.8589L44.8164 31.7108L45.1865 31.6615Z" fill="white"/>
<path d="M44.5444 31.6615L44.8158 31.8589L44.9145 31.7108L44.5444 31.6615Z" fill="white"/>
<path d="M44.5444 31.6615H44.8898V31.8342L44.5444 31.6615Z" fill="white"/>
<path d="M45.0627 32.0314L44.964 31.7107L44.7913 31.76L45.0627 32.0314Z" fill="white"/>
<path d="M45.0627 32.0314L44.7913 31.8341L44.89 31.7107L45.0627 32.0314Z" fill="white"/>
<path d="M44.6682 32.0314L44.9396 31.8341L44.8409 31.7107L44.6682 32.0314Z" fill="white"/>
<path d="M44.6682 32.0314L44.7669 31.7107L44.9396 31.76L44.6682 32.0314Z" fill="white"/>
<path d="M37.3646 30.8965L37.1919 31.3653L37.4386 31.4639L37.3646 30.8965Z" fill="white"/>
<path d="M37.365 30.8965L37.5131 31.3653L37.2664 31.4639L37.365 30.8965Z" fill="white"/>
<path d="M37.8582 31.2416H37.3401V31.513L37.8582 31.2416Z" fill="white"/>
<path d="M37.8585 31.2416L37.4391 31.5376L37.291 31.3403L37.8585 31.2416Z" fill="white"/>
<path d="M36.8711 31.2416L37.2905 31.5376L37.4386 31.3403L36.8711 31.2416Z" fill="white"/>
<path d="M36.8711 31.2416H37.3892V31.513L36.8711 31.2416Z" fill="white"/>
<path d="M37.6611 31.8091L37.5131 31.3403L37.2664 31.4144L37.6611 31.8091Z" fill="white"/>
<path d="M37.6606 31.8089L37.2412 31.5128L37.3892 31.3154L37.6606 31.8089Z" fill="white"/>
<path d="M37.0435 31.8089L37.4629 31.5128L37.3149 31.3154L37.0435 31.8089Z" fill="white"/>
<path d="M37.0435 31.8091L37.2162 31.3403L37.4629 31.4144L37.0435 31.8091Z" fill="white"/>
<path d="M42.201 34.276L42.1516 34.424L42.2256 34.4487L42.201 34.276Z" fill="white"/>
<path d="M42.2002 34.276L42.2496 34.424L42.1755 34.4487L42.2002 34.276Z" fill="white"/>
<path d="M42.3734 34.3998H42.2007V34.4738L42.3734 34.3998Z" fill="white"/>
<path d="M42.3729 34.3998L42.2249 34.4985L42.1755 34.4245L42.3729 34.3998Z" fill="white"/>
<path d="M42.0273 34.3998L42.1754 34.4985L42.2247 34.4245L42.0273 34.3998Z" fill="white"/>
<path d="M42.0273 34.3998H42.2001V34.4738L42.0273 34.3998Z" fill="white"/>
<path d="M42.2989 34.5722L42.2496 34.4242L42.1755 34.4489L42.2989 34.5722Z" fill="white"/>
<path d="M42.2989 34.5722L42.1755 34.4735L42.2002 34.4242L42.2989 34.5722Z" fill="white"/>
<path d="M42.1018 34.5722L42.2498 34.4735L42.2005 34.4242L42.1018 34.5722Z" fill="white"/>
<path d="M42.1018 34.5722L42.1512 34.4242L42.2498 34.4489L42.1018 34.5722Z" fill="white"/>
</g>
</g>
</g>
<rect x="0.950049" y="0.995825" width="82.5" height="48.0082" stroke="#A2D5D6" stroke-width="0.3"/>
<defs>
<clipPath id="clip0_3147_6525">
<rect x="0.800049" y="0.845825" width="82.8" height="48.3082" fill="white"/>
</clipPath>
</defs>
</svg>
