<svg width="83" height="50" viewBox="0 0 83 50" fill="none" xmlns="http://www.w3.org/2000/svg">
<g clip-path="url(#clip0_3147_6506)">
<mask id="mask0_3147_6506" style="mask-type:luminance" maskUnits="userSpaceOnUse" x="0" y="0" width="83" height="50">
<path d="M83 0.858276H0.199951V49.1418H83V0.858276Z" fill="white"/>
</mask>
<g mask="url(#mask0_3147_6506)">
<path d="M83 0.858276H0.199951V49.1418H83V0.858276Z" fill="#2D6B4F"/>
<mask id="mask1_3147_6506" style="mask-type:luminance" maskUnits="userSpaceOnUse" x="0" y="0" width="83" height="50">
<path d="M83 0.858276H0.199951V49.1418H83V0.858276Z" fill="white"/>
</mask>
<g mask="url(#mask1_3147_6506)">
<path d="M37.4796 8.38344C40.7609 8.37856 43.9699 9.34742 46.7002 11.1674C49.4305 12.9873 51.5593 15.5764 52.8173 18.607C54.0752 21.6375 54.4057 24.9733 53.7667 28.1917C53.1278 31.4102 51.5481 34.3666 49.2279 36.6868C46.9077 39.007 43.9513 40.5866 40.7328 41.2256C37.5144 41.8645 34.1787 41.5341 31.1481 40.2761C28.1175 39.0182 25.5284 36.8893 23.7085 34.159C21.8886 31.4287 20.9197 28.2197 20.9246 24.9385C20.9213 22.7635 21.3473 20.6093 22.1781 18.5993C23.009 16.5893 24.2283 14.763 25.7662 13.2251C27.3041 11.6871 29.1304 10.4678 31.1404 9.63701C33.1504 8.80619 35.3047 8.38019 37.4796 8.38344Z" fill="#E01748"/>
</g>
</g>
</g>
<rect x="0.349951" y="1.00828" width="82.5" height="47.9835" stroke="#A2D5D6" stroke-width="0.3"/>
<defs>
<clipPath id="clip0_3147_6506">
<rect x="0.199951" y="0.858276" width="82.8" height="48.2835" fill="white"/>
</clipPath>
</defs>
</svg>
