<svg width="134" height="133" viewBox="0 0 134 133" fill="none" xmlns="http://www.w3.org/2000/svg">
<path d="M20.8012 65.7076C20.8012 67.3385 21.4303 68.6251 22.6884 69.5673C23.9466 70.5094 25.5469 70.9805 27.4895 70.9805C29.4386 70.9805 31.0422 70.5094 32.3004 69.5673C33.5585 68.6251 34.1875 67.3385 34.1875 65.7076V65.3957C34.1875 63.7583 33.5585 62.4717 32.3004 61.5361C31.0422 60.5939 29.4386 60.1228 27.4895 60.1228C25.5469 60.1228 23.9466 60.5939 22.6884 61.5361C21.4303 62.4717 20.8012 63.7583 20.8012 65.3957V65.7076ZM23.8129 65.152C23.8129 64.2684 24.1356 63.6121 24.781 63.1832C25.4328 62.7544 26.3357 62.54 27.4895 62.54C28.6498 62.54 29.5527 62.7544 30.1981 63.1832C30.8499 63.6056 31.1759 64.2619 31.1759 65.152V65.9415C31.1759 66.8252 30.8499 67.4847 30.1981 67.9201C29.5462 68.3489 28.6433 68.5634 27.4895 68.5634C26.3422 68.5634 25.4426 68.3489 24.7907 67.9201C24.1389 67.4847 23.8129 66.8252 23.8129 65.9415V65.152Z" fill="black"/>
<path d="M36.1432 74.4405C36.7299 74.9344 37.5252 75.3177 38.529 75.5906C39.5329 75.8635 40.5955 76 41.7167 76C43.5876 76 45.1456 75.5614 46.3907 74.6842C47.6358 73.807 48.2583 72.5497 48.2583 70.9123V60.4152H45.4324L45.3444 61.7505H45.3542C45.0217 61.3151 44.4709 60.9513 43.7017 60.6589C42.939 60.3665 42.0753 60.2203 41.1105 60.2203C39.4417 60.2203 38.0858 60.6979 37.0428 61.653C35.9998 62.6082 35.4783 63.8558 35.4783 65.3957V65.7076C35.4783 67.2671 35.9932 68.5146 37.0232 69.4503C38.0532 70.3795 39.4026 70.8441 41.0714 70.8441C42.0492 70.8441 42.9031 70.7238 43.6332 70.4834C44.3633 70.243 44.9272 69.8954 45.3249 69.4405V71.0195C45.3249 71.8967 44.9631 72.5562 44.2395 72.9981C43.5159 73.4399 42.6163 73.6608 41.5407 73.6608C40.6346 73.6608 39.8067 73.5569 39.0571 73.3489C38.3074 73.141 37.737 72.8648 37.3459 72.5205L36.1432 74.4405ZM38.4802 65.9513V65.191C38.4802 64.4113 38.78 63.7908 39.3797 63.3294C39.986 62.8616 40.8856 62.6277 42.0785 62.6277C42.8477 62.6277 43.5192 62.7706 44.0928 63.0565C44.6665 63.3424 45.0771 63.7388 45.3249 64.2456V66.8967C45.1032 67.319 44.6991 67.6862 44.1124 67.9981C43.5322 68.3099 42.8445 68.4659 42.0492 68.4659C40.8693 68.4659 39.9795 68.2417 39.3797 67.7934C38.78 67.3385 38.4802 66.7245 38.4802 65.9513Z" fill="black"/>
<path d="M50.077 67.6764C50.077 68.7615 50.5431 69.5673 51.4753 70.0936C52.414 70.6199 53.5027 70.883 54.7412 70.883C55.8755 70.883 56.8794 70.7466 57.7529 70.4737C58.6264 70.1943 59.1903 69.8596 59.4445 69.4698C59.4771 69.6777 59.5325 69.9019 59.6107 70.1423C59.6955 70.3762 59.7835 70.5582 59.8748 70.6881H62.7495V70.5322C62.567 70.2853 62.4171 69.9701 62.2997 69.5867C62.1889 69.1969 62.1335 68.7908 62.1335 68.3684V63.7096C62.1335 62.475 61.6348 61.5686 60.6375 60.9903C59.6466 60.412 58.307 60.1228 56.6186 60.1228C54.9368 60.1228 53.5385 60.4217 52.4238 61.0195C51.3091 61.6108 50.7517 62.384 50.7517 63.3392V63.5731H53.6754V63.3392C53.6754 63.0208 53.9068 62.7641 54.3697 62.5692C54.8325 62.3743 55.5267 62.2768 56.4524 62.2768C57.4237 62.2768 58.1212 62.4035 58.5449 62.6569C58.9752 62.9038 59.1903 63.2352 59.1903 63.6511V64.1969H56.0906C54.4022 64.1969 52.9779 64.4925 51.8176 65.0838C50.6572 65.6751 50.077 66.5393 50.077 67.6764ZM53.0398 67.5205C53.0398 67.0396 53.3429 66.6823 53.9492 66.4483C54.562 66.2079 55.3996 66.0877 56.4622 66.0877H59.1903V67.0819C59.1903 67.6082 58.8252 68.0175 58.0951 68.3099C57.3715 68.5958 56.5763 68.7388 55.7093 68.7388C54.8227 68.7388 54.1545 68.6381 53.7047 68.4366C53.2615 68.2287 53.0398 67.9233 53.0398 67.5205Z" fill="black"/>
<path d="M61.0006 75.7368C61.144 75.7953 61.4178 75.8505 61.8219 75.9025C62.2261 75.961 62.5716 75.9903 62.8584 75.9903C64.1426 75.9903 65.1661 75.6621 65.9288 75.0058C66.698 74.3561 67.0826 73.4366 67.0826 72.2476V60.4152H64.1491V72.1306C64.1491 72.6634 64.0122 73.0435 63.7385 73.271C63.4712 73.5049 63.0866 73.6218 62.5846 73.6218C62.3108 73.6218 62.0208 73.6056 61.7144 73.5731C61.408 73.5406 61.1668 73.4919 60.9908 73.4269L61.0006 75.7368ZM63.9047 57.6082C63.9047 58.0695 64.0514 58.4561 64.3447 58.768C64.638 59.0799 65.0618 59.2359 65.6159 59.2359C66.1634 59.2359 66.5839 59.0799 66.8772 58.768C67.1771 58.4561 67.327 58.0695 67.327 57.6082C67.327 57.1533 67.1771 56.7732 66.8772 56.4678C66.5839 56.1559 66.1634 56 65.6159 56C65.0683 56 64.6446 56.1559 64.3447 56.4678C64.0514 56.7732 63.9047 57.1533 63.9047 57.6082Z" fill="black"/>
<path d="M69.2827 65.5906C69.2827 67.4945 69.6999 68.8525 70.5343 69.6647C71.3687 70.4769 72.4215 70.883 73.6926 70.883C74.6313 70.883 75.4918 70.7531 76.274 70.4932C77.0563 70.2333 77.7016 69.7914 78.2101 69.1676L78.2981 70.6881H81.1142V60.4152H78.1808V66.7018C77.8288 67.2151 77.3692 67.6374 76.8021 67.9688C76.2349 68.3002 75.5994 68.4659 74.8953 68.4659C74.0805 68.4659 73.4319 68.2547 72.9495 67.8324C72.4671 67.41 72.2259 66.6855 72.2259 65.6589V60.4152H69.2827V65.5906Z" fill="black"/>
<path d="M83.4219 70.6881H86.3553V64.4503C86.6747 63.9435 87.1213 63.5146 87.6949 63.1637C88.2751 62.8129 88.9107 62.6374 89.6017 62.6374C90.4752 62.6374 91.1466 62.8064 91.616 63.1442C92.0853 63.4756 92.32 64.0994 92.32 65.0156V70.6881H95.2534V65.2008C95.2534 63.2969 94.8232 61.9877 93.9627 61.2729C93.1022 60.5582 92.0169 60.2008 90.7066 60.2008C89.7418 60.2008 88.8813 60.36 88.1252 60.6784C87.3755 60.9903 86.7758 61.4353 86.326 62.0136L86.238 60.4152H83.4219V70.6881Z" fill="black"/>
<path d="M96.3095 62.7446H104.357V60.4152H96.3095V62.7446ZM98.5193 67.4035C98.5193 68.6381 98.8518 69.5445 99.5167 70.1228C100.182 70.6946 101.049 70.9805 102.118 70.9805C102.489 70.9805 102.838 70.9513 103.164 70.8928C103.496 70.8343 103.754 70.7628 103.936 70.6784V68.4464C103.76 68.4984 103.578 68.5439 103.389 68.5828C103.206 68.6153 103.024 68.6316 102.841 68.6316C102.418 68.6316 102.079 68.5439 101.824 68.3684C101.57 68.1865 101.443 67.8616 101.443 67.3938V57.9591H98.5193V67.4035Z" fill="black"/>
<path d="M105.12 65.7076C105.12 67.3385 105.749 68.6251 107.007 69.5672C108.265 70.5094 109.865 70.9805 111.808 70.9805C113.757 70.9805 115.361 70.5094 116.619 69.5672C117.877 68.6251 118.506 67.3385 118.506 65.7076V65.3957C118.506 63.7583 117.877 62.4717 116.619 61.5361C115.361 60.5939 113.757 60.1228 111.808 60.1228C109.865 60.1228 108.265 60.5939 107.007 61.5361C105.749 62.4717 105.12 63.7583 105.12 65.3957V65.7076ZM108.131 65.152C108.131 64.2684 108.454 63.6121 109.099 63.1832C109.751 62.7544 110.654 62.54 111.808 62.54C112.968 62.54 113.871 62.7544 114.516 63.1832C115.168 63.6056 115.494 64.2619 115.494 65.152V65.9415C115.494 66.8252 115.168 67.4847 114.516 67.9201C113.865 68.3489 112.962 68.5634 111.808 68.5634C110.661 68.5634 109.761 68.3489 109.109 67.9201C108.457 67.4847 108.131 66.8252 108.131 65.9415V65.152Z" fill="black"/>
<path d="M118.499 59.3674C118.499 60.344 118.84 61.1541 119.523 61.7979C120.208 62.4416 121.071 62.7635 122.11 62.7635C123.192 62.7635 124.078 62.4416 124.769 61.7979C125.46 61.1541 125.806 60.344 125.806 59.3674C125.806 58.3909 125.46 57.5862 124.769 56.9534C124.078 56.3178 123.192 56 122.11 56C121.071 56 120.208 56.3178 119.523 56.9534C118.84 57.5862 118.499 58.3909 118.499 59.3674ZM119.059 59.3674C119.059 58.4918 119.346 57.7935 119.92 57.2725C120.494 56.7488 121.226 56.4869 122.115 56.4869C123.023 56.4869 123.773 56.7488 124.364 57.2725C124.955 57.7935 125.25 58.4918 125.25 59.3674C125.25 60.2512 124.955 60.9577 124.364 61.4869C123.773 62.0134 123.023 62.2766 122.115 62.2766C121.228 62.2766 120.497 62.0134 119.92 61.4869C119.346 60.9577 119.059 60.2512 119.059 59.3674ZM122.19 59.7807L123.114 61.2578H124.109V61.1023L123.511 60.108C123.461 60.0316 123.406 59.9634 123.348 59.9034C123.292 59.8407 123.218 59.7739 123.126 59.7029C123.374 59.6348 123.574 59.5093 123.724 59.3265C123.875 59.1438 123.95 58.9146 123.95 58.6391C123.95 58.2572 123.808 57.9626 123.523 57.7553C123.239 57.5453 122.81 57.4403 122.236 57.4403H120.509V61.2578H121.592V59.7807H122.19ZM122.315 58.0704C122.46 58.0704 122.588 58.114 122.7 58.2013C122.811 58.2886 122.867 58.4236 122.867 58.6064C122.867 58.8001 122.818 58.9446 122.721 59.0401C122.626 59.1328 122.487 59.1792 122.303 59.1792H121.584V58.0704H122.315Z" fill="black"/>
<path d="M8.00024 65.8733C8.00024 67.6407 8.49893 68.9305 9.4963 69.7427C10.5002 70.5484 11.8724 70.9513 13.6129 70.9513C15.3599 70.9513 16.7321 70.4704 17.7295 69.5088C18.7269 68.5406 19.2256 67.1533 19.2256 65.347V57.5107H16.1943V65.6491C16.1943 66.6563 15.976 67.3808 15.5392 67.8226C15.1024 68.2579 14.4538 68.4756 13.5933 68.4756C12.7329 68.4756 12.0843 68.3099 11.6475 67.9785C11.2173 67.6407 11.0021 66.9974 11.0021 66.0487V65.7466H8.00024V65.8733Z" fill="black"/>
</svg>
