<svg width="189" height="238" viewBox="0 0 189 238" fill="none" xmlns="http://www.w3.org/2000/svg">
<g clip-path="url(#clip0_3049_14009)">
<path d="M19.2752 173.005H35.7724V192.813H32.0157L31.037 187.616C28.1492 191.674 23.9009 193.677 18.3492 193.677C12.7975 193.677 8.38682 191.84 5.06457 188.105C1.74231 184.37 0 179.554 0 173.546C0 167.538 1.68965 162.665 5.0119 158.93C8.33416 155.195 12.7975 153.411 18.4019 153.411C23.032 153.411 26.8414 154.654 29.8389 157.089C32.8364 159.523 34.6665 162.826 35.3379 166.888H30.5981C30.1835 164.163 28.7022 161.712 26.4771 160.069C24.2476 158.389 21.5266 157.577 18.4194 157.577C14.2853 157.577 10.9586 159.039 8.5141 161.91C6.06959 164.781 4.81003 168.672 4.81003 173.546C4.81003 178.419 6.06081 182.311 8.5141 185.182C10.9674 188.053 14.2853 189.51 18.4194 189.51C21.88 189.579 25.2343 188.319 27.785 185.993C29.0407 184.882 30.0372 183.512 30.7051 181.979C31.3729 180.445 31.6959 178.785 31.6514 177.115H19.2752V173.005Z" fill="white"/>
<path d="M59.3925 193.677C53.7837 193.677 49.3204 191.84 45.9454 188.105C42.5705 184.37 40.8282 179.554 40.8282 173.546C40.8282 167.538 42.5135 162.665 45.9454 158.93C49.3774 155.195 53.7837 153.411 59.3925 153.411C65.0013 153.411 69.4646 155.252 72.8922 158.93C76.3197 162.608 77.9567 167.538 77.9567 173.546C77.9567 179.554 76.2671 184.423 72.8922 188.105C69.5172 191.787 65.0056 193.677 59.3925 193.677ZM59.3925 189.51C63.5837 189.51 66.906 188.048 69.4075 185.182C71.9091 182.315 73.1643 178.415 73.1643 173.546C73.1643 168.677 71.9135 164.776 69.4075 161.91C66.9016 159.043 63.5837 157.577 59.3925 157.577C55.2012 157.577 51.879 159.039 49.373 161.91C46.8671 164.781 45.6163 168.672 45.6163 173.546C45.6163 178.419 46.8715 182.311 49.373 185.182C51.8746 188.053 55.2056 189.51 59.3925 189.51Z" fill="white"/>
<path d="M114.3 154.275V163.912H102.867V192.813H91.9743V163.912H80.5417V154.275H114.3Z" fill="white"/>
<path d="M147.882 163.912H128.172V169H146.14V177.983H128.172V183.179H147.882V192.813H117.284V154.275H147.882V163.912Z" fill="white"/>
<path d="M175.772 173.101L189.004 192.804H176.369L174.083 189.287C172.235 186.473 170.655 183.982 169.295 181.761C168.641 182.791 167.061 185.335 164.559 189.287L162.273 192.804H149.91L163.142 173.21L150.73 154.266H163.251L165.376 157.621C166.626 159.624 168.039 161.901 169.619 164.549C170.875 162.368 172.253 160.06 173.811 157.621L175.935 154.266H188.184L175.772 173.101Z" fill="white"/>
<path d="M20.6752 228.471H24.7611C24.8357 232.533 27.3197 234.545 32.1693 234.545C36.1762 234.545 38.432 232.952 38.432 230.029C38.432 227.634 36.8652 226.573 32.2878 225.548L29.9574 225.055C24.5724 223.991 21.4828 221.674 21.4828 217.084C21.4828 212.642 25.1473 209.759 31.1028 209.759C38.4715 209.759 41.7937 213.175 41.9078 218.297H37.8614C37.5937 214.92 35.8382 213.21 31.1423 213.21C27.5128 213.21 25.6433 214.614 25.6433 217.005C25.6126 217.54 25.7109 218.073 25.93 218.562C26.1491 219.051 26.4827 219.481 26.9028 219.815C27.706 220.461 29.2683 221.067 31.5636 221.56L33.9379 222.053C40.2006 223.362 42.6803 225.775 42.6803 229.907C42.6803 234.92 38.7304 237.996 32.1034 237.996C25.0288 238 20.7147 234.811 20.6752 228.471Z" fill="white"/>
<path d="M75.2445 210.365H79.3304V237.389H75.2445V225.356H61.2313V237.389H57.1455V210.365H61.2313V221.639H75.2445V210.365Z" fill="white"/>
<path d="M97.548 234.091C95.1078 231.508 93.8834 228.092 93.8834 223.877C93.8834 219.662 95.1078 216.246 97.548 213.628C99.9881 211.011 103.161 209.75 107.172 209.75C111.184 209.75 114.352 211.059 116.792 213.62C119.233 216.181 120.422 219.654 120.422 223.868C120.422 228.083 119.202 231.499 116.792 234.082C114.383 236.665 111.144 238.009 107.172 238.009C103.201 238.009 99.9574 236.709 97.548 234.091ZM113.738 231.508C115.384 229.649 116.182 227.106 116.182 223.877C116.182 220.648 115.384 218.109 113.738 216.211C112.092 214.313 109.885 213.402 107.155 213.402C104.425 213.402 102.231 214.348 100.572 216.211C98.9128 218.074 98.0921 220.653 98.0921 223.877C98.0921 227.101 98.9304 229.649 100.572 231.508C102.213 233.367 104.39 234.353 107.155 234.353C109.92 234.353 112.097 233.406 113.738 231.508Z" fill="white"/>
<path d="M163.651 210.365H167.89L160.254 237.389H155.672L152.236 224.737C151.279 221.207 150.515 218.057 149.866 215.361C149.216 218.057 148.453 221.207 147.5 224.737L144.064 237.389H139.482L131.846 210.365H136.081L139.403 222.625C140.588 227.18 141.426 230.522 141.927 232.607C143.186 227.446 143.985 224.104 144.406 222.573L147.689 210.387H152.043L155.325 222.573C155.764 224.126 156.55 227.468 157.809 232.607C158.305 230.522 159.126 227.18 160.329 222.625L163.651 210.365Z" fill="white"/>
<path d="M141.865 56.4089C138.38 54.721 134.742 53.3667 130.999 52.3644C130.999 52.3644 121.725 50.5581 109.402 54.5459C107.94 55.0171 103.069 56.7273 101.063 57.504C99.6326 58.0537 98.6759 58.4202 96.758 59.1401C95.5072 59.6113 94.2608 60.0737 93.0144 60.5057L91.6978 60.9682C89.5112 61.7005 87.2726 62.2693 85.0006 62.6697C82.2765 63.1327 79.5179 63.3662 76.7543 63.3678C74.3809 63.4084 72.007 63.3137 69.6445 63.0842C70.768 67.4254 72.7869 69.3145 74.0815 70.1958C78.1455 72.9751 84.3424 71.7621 96.8326 69.188C101.388 68.2499 105.43 67.2072 105.43 67.2072C105.935 67.0676 106.668 66.8669 107.559 66.64C113.005 65.2526 115.59 64.8948 116.775 64.7509H116.863C120.698 64.3146 123.182 64.0135 124.956 64.3713C128.352 65.0519 131.885 68.6121 131.885 72.4122C131.915 73.6365 131.663 74.8513 131.148 75.9637C130.155 78.8284 128.802 81.5567 127.119 84.0832C125.083 87.1483 122.589 89.8876 119.724 92.207C113.259 97.4583 105.168 100.327 96.8195 100.327H96.758C88.3861 100.34 80.2677 97.4712 73.7831 92.207C72.8395 91.4391 71.9311 90.6276 71.0709 89.7725C67.6848 86.4258 64.9973 82.447 63.1626 78.0647C61.3279 73.6823 60.3822 68.9828 60.38 64.236V64.1706C60.3723 62.2496 60.5191 60.331 60.8188 58.4333C60.8978 57.9228 60.99 57.4167 61.0953 56.9106C62.0184 52.3963 63.8063 48.1007 66.3618 44.258C67.7045 42.2346 69.2483 40.3505 70.9699 38.6341C71.8542 37.7544 72.7828 36.92 73.7524 36.1341L73.8621 36.0425C80.3304 30.8352 88.4041 27.9991 96.7273 28.0103C100.36 28.022 103.972 28.5599 107.449 29.6071C112.267 31.0993 116.727 33.5567 120.554 36.8278C121.532 37.6646 122.793 38.1037 124.083 38.0576C125.373 38.0115 126.598 37.4836 127.514 36.5792L127.637 36.457C128.112 35.985 128.489 35.4245 128.746 34.8077C129.003 34.1908 129.136 33.5296 129.136 32.8619C129.136 32.1942 129.003 31.533 128.746 30.9161C128.489 30.2993 128.112 29.7388 127.637 29.2668L99.716 1.5096C99.2415 1.0368 98.6778 0.661704 98.0573 0.405769C97.4368 0.149833 96.7715 0.0180969 96.0997 0.0180969C95.4279 0.0180969 94.7627 0.149833 94.1421 0.405769C93.5216 0.661704 92.9579 1.0368 92.4834 1.5096L32.8452 60.798C32.3701 61.27 31.9933 61.8305 31.7361 62.4473C31.479 63.0642 31.3467 63.7254 31.3467 64.3931C31.3467 65.0608 31.479 65.722 31.7361 66.3389C31.9933 66.9557 32.3701 67.5162 32.8452 67.9882L92.501 127.29C92.9758 127.762 93.5395 128.137 94.16 128.392C94.7805 128.648 95.4456 128.779 96.1173 128.779C96.7889 128.779 97.454 128.648 98.0745 128.392C98.695 128.137 99.2588 127.762 99.7336 127.29L155.066 72.2901C155.565 71.7936 155.955 71.2002 156.212 70.5469C156.469 69.8936 156.587 69.1946 156.559 68.4937C156.532 67.7928 156.359 67.1051 156.051 66.4738C155.744 65.8425 155.308 65.2812 154.772 64.825C150.843 61.4916 146.506 58.6639 141.865 56.4089Z" fill="white"/>
</g>
<defs>
<clipPath id="clip0_3049_14009">
<rect width="189" height="238" fill="white"/>
</clipPath>
</defs>
</svg>
