<svg width="126" height="129" viewBox="0 0 126 129" fill="none" xmlns="http://www.w3.org/2000/svg">
<g clip-path="url(#clip0_3004_1123)">
<path d="M111.131 56.5371C107.633 54.8454 103.98 53.4881 100.223 52.4834C100.223 52.4834 90.9138 50.6731 78.5429 54.6699C77.0759 55.1422 72.1856 56.8563 70.1723 57.6347C68.7361 58.1857 67.7757 58.553 65.8504 59.2745C64.5948 59.7468 63.3436 60.2103 62.0924 60.6432L60.7707 61.1068C58.5757 61.8408 56.3285 62.4109 54.0478 62.8122C51.3132 63.2762 48.544 63.5103 45.7697 63.5118C43.3872 63.5525 41.0042 63.4576 38.6326 63.2276C39.7605 67.5786 41.787 69.4721 43.0867 70.3554C47.1663 73.1409 53.387 71.9253 65.9253 69.3453C70.4983 68.4051 74.5559 67.36 74.5559 67.36C75.0625 67.2201 75.7982 67.0189 76.6926 66.7915C82.1599 65.4009 84.7548 65.0424 85.9443 64.8981H86.0324C89.8829 64.4608 92.3765 64.159 94.1563 64.5176C97.5663 65.1998 101.113 68.7681 101.113 72.5768C101.143 73.8039 100.89 75.0215 100.373 76.1364C99.3762 79.0076 98.0172 81.742 96.3283 84.2743C94.2842 87.3464 91.7811 90.0919 88.9049 92.4166C82.4153 97.6798 74.2925 100.555 65.9121 100.555H65.8504C57.4463 100.568 49.2966 97.6928 42.7871 92.4166C41.8399 91.647 40.9279 90.8336 40.0644 89.9765C36.6654 86.6222 33.9675 82.6344 32.1257 78.2421C30.284 73.8498 29.3347 69.1396 29.3324 64.3821V64.3165C29.3247 62.3911 29.4721 60.4682 29.773 58.5661C29.8523 58.0545 29.9448 57.5472 30.0505 57.04C30.9771 52.5155 32.772 48.2101 35.3373 44.3586C36.6851 42.3307 38.2348 40.4423 39.9631 38.722C40.8507 37.8403 41.783 37.004 42.7563 36.2163L42.8664 36.1245C49.3596 30.9054 57.4643 28.0628 65.8196 28.074C69.4665 28.0858 73.0922 28.6249 76.5824 29.6745C81.4193 31.17 85.8963 33.633 89.7375 36.9116C90.7202 37.7503 91.9852 38.1904 93.2803 38.1442C94.5754 38.098 95.8054 37.5689 96.7248 36.6624L96.8482 36.5399C97.3251 36.0668 97.7034 35.5051 97.9615 34.8868C98.2196 34.2686 98.3524 33.6059 98.3524 32.9367C98.3524 32.2674 98.2196 31.6047 97.9615 30.9865C97.7034 30.3682 97.3251 29.8065 96.8482 29.3334L68.8198 1.51314C68.3434 1.03927 67.7776 0.663318 67.1547 0.406802C66.5318 0.150285 65.864 0.0182495 65.1896 0.0182495C64.5152 0.0182495 63.8474 0.150285 63.2244 0.406802C62.6015 0.663318 62.0357 1.03927 61.5594 1.51314L1.69174 60.9362C1.21485 61.4093 0.836544 61.9711 0.578439 62.5893C0.320334 63.2076 0.187477 63.8702 0.187477 64.5395C0.187477 65.2087 0.320334 65.8714 0.578439 66.4897C0.836544 67.1079 1.21485 67.6696 1.69174 68.1427L61.577 127.579C62.0536 128.052 62.6195 128.428 63.2424 128.684C63.8653 128.94 64.5329 129.072 65.2072 129.072C65.8814 129.072 66.5491 128.94 67.172 128.684C67.7948 128.428 68.3607 128.052 68.8374 127.579L124.383 72.4544C124.884 71.9568 125.275 71.362 125.533 70.7073C125.791 70.0525 125.91 69.3519 125.882 68.6494C125.854 67.9469 125.68 67.2577 125.372 66.6249C125.063 65.9922 124.626 65.4296 124.088 64.9724C120.143 61.6314 115.79 58.7973 111.131 56.5371Z" fill="#009C37"/>
</g>
<defs>
<clipPath id="clip0_3004_1123">
<rect width="126" height="129" fill="white"/>
</clipPath>
</defs>
</svg>
