<svg width="333" height="129" viewBox="0 0 333 129" fill="none" xmlns="http://www.w3.org/2000/svg">
<g clip-path="url(#clip0_3049_14006)">
<path d="M162.684 44.9535H180.815V46.1467C180.815 52.4924 179.181 57.4266 175.913 60.9491C172.647 64.5284 168.183 66.3159 162.464 66.3159C156.965 66.3159 152.501 64.4716 149.126 60.7306C145.75 56.9895 144.06 52.1647 144.06 46.1467C144.06 40.1287 145.746 35.1945 149.178 31.5103C152.611 27.8261 157.079 25.9774 162.684 25.9774C167.512 25.9774 171.462 27.2274 174.534 29.666C177.607 32.1047 179.49 35.413 180.144 39.4775H175.403C174.372 33.796 169.36 30.1555 162.675 30.1555C154.397 30.1555 148.845 35.7933 148.845 46.1467C148.845 51.0284 150.096 54.9311 152.545 57.8024C154.994 60.6737 158.316 62.1422 162.455 62.1422C170.242 62.1422 175.14 57.5315 176.013 49.0748H162.684V44.9535Z" fill="white"/>
<path d="M203.367 66.3159C197.757 66.3159 193.294 64.4716 189.918 60.7306C186.543 56.9895 184.796 52.1647 184.796 46.1467C184.796 40.1287 186.486 35.2514 189.918 31.5103C193.351 27.7693 197.757 25.9774 203.367 25.9774C208.976 25.9774 213.462 27.8217 216.868 31.5103C220.274 35.1989 221.933 40.1287 221.933 46.1467C221.933 52.1647 220.243 57.0463 216.868 60.7306C213.492 64.4148 208.985 66.3159 203.367 66.3159ZM203.367 62.1422C207.558 62.1422 210.881 60.6781 213.383 57.8024C215.884 54.9267 217.14 51.0284 217.14 46.1467C217.14 41.265 215.889 37.3666 213.383 34.4909C210.876 31.6152 207.558 30.1555 203.367 30.1555C199.175 30.1555 195.852 31.6196 193.346 34.4909C190.84 37.3622 189.589 41.2693 189.589 46.1467C189.589 51.024 190.84 54.9311 193.346 57.8024C195.852 60.6737 199.184 62.1422 203.367 62.1422Z" fill="white"/>
<path d="M258.284 26.8471V36.4969H246.872V65.4505H235.96V36.4969H224.549V26.8471H258.284Z" fill="white"/>
<path d="M291.869 36.4969H272.162V41.5927H290.127V50.5957H272.162V55.7964H291.869V65.4505H261.273V26.8471H291.869V36.4969Z" fill="white"/>
<path d="M319.767 45.7096L332.996 65.4462H320.364L318.077 61.9193C316.229 59.1004 314.649 56.6093 313.288 54.3848C312.634 55.4162 311.054 57.9641 308.548 61.9193L306.261 65.4462H293.902L307.135 45.8189L294.718 26.8428H307.244L309.364 30.2036C310.62 32.2096 312.033 34.4865 313.613 37.1437C314.864 34.9585 316.247 32.6422 317.805 30.2036L319.929 26.8428H332.179L319.767 45.7096Z" fill="white"/>
<path d="M164.106 101.17H168.192C168.267 105.234 170.751 107.253 175.601 107.253C179.608 107.253 181.864 105.654 181.864 102.725C181.864 100.33 180.297 99.2684 175.719 98.2414L173.389 97.7432C168.003 96.6812 164.913 94.3605 164.913 89.7585C164.913 85.3095 168.578 82.4207 174.534 82.4207C181.904 82.4207 185.226 85.8427 185.34 90.9779H181.289C181.021 87.5908 179.266 85.882 174.569 85.882C170.94 85.882 169.07 87.2893 169.07 89.6842C169.04 90.2193 169.138 90.7539 169.357 91.2435C169.576 91.733 169.91 92.1634 170.33 92.4987C171.133 93.1455 172.7 93.753 174.991 94.2469L177.357 94.7407C183.62 96.0518 186.1 98.4686 186.1 102.607C186.1 107.629 182.149 110.706 175.522 110.706C168.46 110.71 164.145 107.52 164.106 101.17Z" fill="white"/>
<path d="M218.68 83.0281H222.767V110.124H218.68V98.0491H204.683V110.103H200.597V83.0063H204.683V94.2993H218.698L218.68 83.0281Z" fill="white"/>
<path d="M240.986 106.794C238.546 104.211 237.321 100.789 237.321 96.5675C237.321 92.3458 238.546 88.9238 240.986 86.3016C243.426 83.6793 246.6 82.4207 250.611 82.4207C254.623 82.4207 257.792 83.7318 260.237 86.3016C262.682 88.8713 263.862 92.3458 263.862 96.5675C263.862 100.789 262.642 104.211 260.237 106.794C257.832 109.377 254.584 110.728 250.611 110.728C246.639 110.728 243.396 109.421 240.986 106.794ZM257.182 104.211C258.823 102.345 259.622 99.7972 259.622 96.5675C259.622 93.3378 258.823 90.7855 257.182 88.8844C255.54 86.9833 253.324 86.0699 250.598 86.0699C247.873 86.0699 245.674 87.0227 244.014 88.8844C242.355 90.7462 241.552 93.3466 241.552 96.5675C241.552 99.7885 242.39 102.345 244.036 104.211C245.682 106.077 247.855 107.061 250.62 107.061C253.385 107.061 255.536 106.112 257.182 104.211Z" fill="white"/>
<path d="M307.095 83.0282H311.34L303.702 110.124H299.116L295.679 97.4504C294.722 93.9147 293.959 90.7593 293.309 88.0584C292.659 90.7593 291.896 93.9147 290.943 97.4504L287.507 110.124H282.924L275.287 83.0282H279.523L282.845 95.3132C284.03 99.8759 284.873 103.219 285.369 105.313C286.629 100.142 287.432 96.7948 287.849 95.2346L291.15 83.0282H295.504L298.791 95.2346C299.23 96.7948 300.011 100.142 301.271 105.313C301.767 103.219 302.61 99.8759 303.79 95.3132L307.095 83.0282Z" fill="white"/>
<path d="M110.523 56.5046C107.039 54.8133 103.402 53.4567 99.6598 52.4533C99.6598 52.4533 90.3855 50.644 78.0564 54.6385C76.5948 55.1105 71.7272 56.8237 69.717 57.6059C68.2906 58.1522 67.3293 58.5194 65.4113 59.2405C64.1648 59.7125 62.9182 60.1757 61.6717 60.6084L60.355 61.0717C58.1668 61.8058 55.9265 62.3755 53.6528 62.7761C50.9298 63.24 48.1724 63.4739 45.4099 63.4754C43.0363 63.516 40.6623 63.4212 38.2995 63.1913C39.4231 67.5398 41.4378 69.4322 42.737 70.315C46.8013 73.0989 52.9988 71.8839 65.4903 69.3054C70.0462 68.3702 74.0886 67.3213 74.0886 67.3213C74.5934 67.1814 75.3263 66.9804 76.2173 66.7531C81.6599 65.3634 84.2451 65.005 85.4345 64.8608H85.5223C89.3585 64.4237 91.8427 64.1222 93.6159 64.4805C97.0131 65.1623 100.546 68.7285 100.546 72.5351C100.576 73.7614 100.324 74.9783 99.809 76.0926C98.8162 78.9622 97.4624 81.6951 95.7798 84.2258C93.7379 87.2909 91.2397 90.0289 88.3709 92.346C81.9056 97.6061 73.813 100.479 65.4639 100.479H65.3981C57.0266 100.493 48.9087 97.6194 42.4253 92.346C41.4817 91.5768 40.5731 90.7639 39.7084 89.9073C37.9608 88.1751 36.3933 86.2716 35.0296 84.2258C31.1127 78.3288 29.0231 71.4152 29.0209 64.3451V64.2795C29.0132 62.3552 29.16 60.4335 29.4598 58.5325C29.5388 58.0226 29.631 57.5156 29.7363 57.0116C30.0488 55.4704 30.4653 53.9519 30.9828 52.4664C33.1996 46.0949 37.1504 40.4619 42.3946 36.1956L42.5043 36.1038C48.9721 30.8886 57.0449 28.0477 65.3674 28.0579C69.0007 28.0691 72.613 28.608 76.0901 29.6575C80.9275 31.1393 85.4067 33.5969 89.2487 36.8773C90.2287 37.714 91.4891 38.1525 92.7791 38.1055C94.069 38.0585 95.2939 37.5295 96.2099 36.6238L96.3328 36.5015C96.8079 36.0286 97.1848 35.4672 97.4419 34.8493C97.6991 34.2314 97.8314 33.5691 97.8314 32.9003C97.8314 32.2314 97.6991 31.5691 97.4419 30.9512C97.1848 30.3333 96.8079 29.7719 96.3328 29.2991L68.4091 1.49486C67.9342 1.02179 67.3704 0.64651 66.7498 0.390469C66.1293 0.134428 65.4641 0.0026474 64.7924 0.0026474C64.1207 0.0026474 63.4555 0.134428 62.835 0.390469C62.2144 0.64651 61.6506 1.02179 61.1758 1.49486L1.49656 60.9012C1.02145 61.374 0.644554 61.9354 0.387413 62.5533C0.130272 63.1712 -0.0020752 63.8335 -0.0020752 64.5024C-0.0020752 65.1712 0.130272 65.8335 0.387413 66.4514C0.644554 67.0694 1.02145 67.6307 1.49656 68.1036L61.1582 127.51C61.633 127.983 62.1969 128.358 62.8174 128.614C63.438 128.87 64.1031 129.002 64.7748 129.002C65.4466 129.002 66.1117 128.87 66.7323 128.614C67.3528 128.358 67.9167 127.983 68.3915 127.51L123.73 72.4127C124.23 71.9161 124.621 71.3219 124.878 70.6673C125.136 70.0128 125.255 69.3123 125.227 68.6098C125.199 67.9073 125.026 67.2181 124.718 66.5857C124.409 65.9533 123.973 65.3912 123.436 64.9351C119.504 61.5962 115.166 58.7637 110.523 56.5046Z" fill="white"/>
</g>
<defs>
<clipPath id="clip0_3049_14006">
<rect width="333" height="129" fill="white"/>
</clipPath>
</defs>
</svg>
