<svg width="134" height="133" viewBox="0 0 134 133" fill="none" xmlns="http://www.w3.org/2000/svg">
<g clip-path="url(#clip0_482_20534)">
<path fill-rule="evenodd" clip-rule="evenodd" d="M65.1642 27.4504L63.1282 28.2287L60.8058 29.3993L58.3837 30.738L56.0239 32.3382L54.0065 33.9197L51.9456 35.8872L49.7601 38.658L48.1599 41.2419L47.2633 43.0102L46.5597 44.7101L46.0118 46.3165L45.4639 48.5642L45.109 51.1233L45.0156 53.5578L45.1961 56.1231L45.6444 58.8316L46.018 60.2263L46.759 62.4865L49.4052 62.3184L53.4524 61.8327L55.6129 61.428L58.0786 60.8116L60.2578 60.2138L62.985 59.3172L65.0958 58.4704L67.4743 57.4306L70.1267 56.0982L73.0282 54.554L75.8114 52.8542L77.4676 51.7023L79.8959 49.9091L81.9507 48.0972L83.638 46.3787L85.0514 44.5108L85.9854 42.9916L86.6952 41.6218L87.2929 40.0838L87.6229 38.6144L87.679 37.3691L87.6105 36.1238L87.4797 35.0716L87.0999 33.8512L86.5644 32.6993L85.6616 31.1302L84.958 29.9472L83.9867 28.7393L83.3392 28.0606L82.4488 27.3197L80.8673 26.1304L78.6818 25.8129L77.2061 25.6448L76.2224 25.6136L76.3531 24.8478L78.8686 25.4704L80.8673 26.1304L83.7937 26.9772L86.0103 27.8676L87.5233 28.6957L89.2356 29.7293L91.0101 31.1178L92.3425 32.4378L93.1831 33.4527L94.1046 35.0031L94.802 36.678L95.0822 38.2097L95.0946 40.171L94.8892 41.5533L94.4159 43.0912L93.6127 45.0276L92.6414 46.5655L91.1346 48.4957L89.8146 49.934L87.9405 51.7148L85.9978 53.1718L84.3229 54.305L82.3242 55.625L80.2509 56.6959L78.0716 57.7793L75.3693 58.9686L74.2735 59.367L72.3807 60.0831L70.5127 60.6933L69.1305 61.0918L67.5614 61.4902L66.9761 61.6584L65.8803 61.9323L65.1518 62.0818L63.9065 62.2561L62.9601 62.4927L61.6276 62.7231L60.1893 62.941L59.1309 63.078L58.4273 63.215L58.0039 63.2461L55.9678 63.4453L53.3403 63.5512L50.4512 63.5948L49.1437 63.5263L47.1824 63.464L47.9482 65.1078L48.8759 66.7702L49.8971 68.4016L51.0739 70.0702L52.5931 71.9195L54.7412 74.105L56.9516 76.0289L58.9503 77.4112L60.538 78.4635L62.7795 79.7523L64.828 80.7112L66.7084 81.3961L68.7195 82.0685L71.235 82.7285L73.4827 83.1395L75.525 83.3325L78.2771 83.3263L79.9084 83.2267L85.6243 82.467L84.3603 83.015L81.658 84.1233L79.622 84.8082L76.9882 85.325L74.8214 85.6363L72.9473 85.8418L70.8988 86.0285L68.8565 86.0223L66.9512 85.9165L64.9899 85.6425L62.5865 85.2004L60.6439 84.6899L58.172 83.8244L55.8246 82.8282L53.4835 81.5767L50.5197 79.6153L48.2159 77.7661L46.0678 75.7985L44.4614 74.1548L42.911 72.2495L41.0867 69.6282L39.7916 67.3057L38.4778 64.2984L37.5937 61.7891L36.8092 58.5763L36.448 55.7619L36.2799 54.2053L36.2675 51.2353L36.5352 48.5953L37.1952 45.7374L37.6373 44.1995L37.9859 43.2842L38.3907 42.1946L38.9573 40.9618L39.8788 39.1561L40.9622 37.4002L42.2386 35.6195L43.7516 33.9384L45.8126 31.9085L47.8673 30.1652L50.059 28.6459L51.8833 27.6372L54.0127 26.6659L57.2692 25.4269L59.9403 24.6361L62.8418 24.0757L64.5105 23.9014L65.8803 23.8142L65.1642 27.4504Z" fill="#ED1C24"/>
<path fill-rule="evenodd" clip-rule="evenodd" d="M58.0039 63.2459L56.8147 69.2855H67.4556L69.1305 61.0916L67.5615 61.49L66.9762 61.6582L65.8804 61.9321L65.1519 62.0816L64.2739 62.2061L63.9066 62.2559L62.9602 62.4925L61.6277 62.7229L60.1894 62.9408L59.1309 63.0778L58.4273 63.2148L58.0039 63.2459Z" fill="#00A651"/>
<path fill-rule="evenodd" clip-rule="evenodd" d="M67.4058 16L65.8803 23.8142L65.1643 27.4504L59.0935 58.4953L60.8307 58.0096L61.995 57.6236L63.6699 56.976L65.376 56.2351L67.2812 55.3323L68.6012 54.6785L69.8216 54.0683L70.8552 53.5515L76.2224 25.6136L76.4029 24.8602L78.0405 16.0623L67.4058 16Z" fill="#00A651"/>
<path d="M49.399 105.903V97.2048H51.5098V100.779H59.7723V97.2048H61.883V105.903H59.7723V101.806H51.5098V105.903H49.399Z" fill="#231F20"/>
<path d="M44.6669 102.821L46.7776 103.114C46.3356 104.054 45.5386 104.776 44.3929 105.274C43.241 105.773 41.8463 106.015 40.1839 106.015C38.5214 106.015 37.0769 105.822 35.9997 105.443C34.9288 105.056 34.1069 104.509 33.5527 103.78C32.9923 103.058 32.7122 102.28 32.7122 101.445C32.7122 100.536 33.0235 99.7454 33.6586 99.0729C34.2937 98.4005 35.1965 97.8837 36.3608 97.535C37.5252 97.1863 38.814 97.012 40.215 97.012C41.809 97.012 43.1414 97.2361 44.231 97.6782C45.3206 98.1265 46.074 98.7429 46.4974 99.5461L44.424 99.8138C44.0567 99.1788 43.5212 98.718 42.8176 98.4316C42.114 98.1452 41.2361 98.002 40.1714 98.002C38.951 98.002 37.9299 98.1576 37.108 98.4814C36.2861 98.8052 35.7071 99.2348 35.3771 99.7765C35.0408 100.318 34.879 100.872 34.879 101.445C34.879 102.186 35.0782 102.827 35.4642 103.388C35.8627 103.936 36.4729 104.353 37.3073 104.627C38.1416 104.901 39.0444 105.038 40.0095 105.038C41.1863 105.038 42.1825 104.851 43.0044 104.484C43.8201 104.11 44.3742 103.556 44.6606 102.827L44.6669 102.821Z" fill="#231F20"/>
<path d="M65.6313 105.903V97.2048H67.7359V105.903H65.6313Z" fill="#231F20"/>
<path d="M71.3844 105.903V97.2048H73.5387L81.8946 104.035V97.2048H83.9119V105.903H81.7514L73.4018 99.0665V105.903H71.3844Z" fill="#231F20"/>
<path d="M85.6118 105.903L91.7199 97.2048H93.9863L100.499 105.903H98.0958L96.2403 103.263H89.5905L87.8471 105.903H85.6118ZM90.2007 102.329H95.599L93.9365 99.9196C93.4322 99.1848 93.0524 98.5871 92.8096 98.1139C92.6041 98.6743 92.3177 99.2222 91.9503 99.7763L90.2007 102.329Z" fill="#231F20"/>
<path d="M35.6636 116.55V111.389H32.9426V110.698H39.4866V111.389H36.7532V116.55H35.6636Z" fill="#231F20"/>
<path d="M40.0221 116.551V112.31H40.9312V112.952C41.1678 112.653 41.3795 112.454 41.5787 112.354C41.7779 112.261 41.9896 112.211 42.2262 112.211C42.5687 112.211 42.9174 112.292 43.2661 112.447L42.9174 113.114C42.6745 113.008 42.4255 112.958 42.1764 112.958C41.9523 112.958 41.753 113.008 41.5787 113.101C41.4044 113.201 41.2736 113.331 41.1989 113.493C41.0868 113.749 41.0308 114.029 41.0308 114.334V116.557H40.0159L40.0221 116.551Z" fill="#231F20"/>
<path d="M47.8237 116.027C47.4439 116.252 47.089 116.414 46.7403 116.507C46.3916 116.6 46.018 116.644 45.6195 116.644C44.9595 116.644 44.4614 116.532 44.1003 116.301C43.7516 116.077 43.571 115.785 43.571 115.43C43.571 115.224 43.6395 115.031 43.7703 114.863C43.9073 114.689 44.0816 114.552 44.2933 114.452C44.5112 114.346 44.7541 114.272 45.0218 114.216C45.221 114.178 45.5199 114.141 45.9246 114.104C46.7465 114.035 47.3505 113.954 47.7365 113.861C47.7365 113.761 47.7365 113.699 47.7365 113.674C47.7365 113.381 47.6431 113.176 47.4501 113.057C47.1886 112.896 46.8026 112.808 46.292 112.808C45.8188 112.808 45.4639 112.871 45.2335 112.989C45.0031 113.107 44.8412 113.319 44.7292 113.618L43.7392 113.518C43.8263 113.219 43.9758 112.977 44.1812 112.79C44.3867 112.603 44.6856 112.46 45.0778 112.36C45.4701 112.26 45.9184 112.211 46.4352 112.211C46.952 112.211 47.3567 112.254 47.6743 112.341C47.9918 112.429 48.2284 112.534 48.3841 112.665C48.5335 112.796 48.6393 112.958 48.7016 113.157C48.7327 113.282 48.7514 113.5 48.7514 113.823V114.782C48.7514 115.448 48.7701 115.872 48.8199 116.046C48.8635 116.227 48.9507 116.395 49.0752 116.557H48.0167C47.9109 116.407 47.8424 116.233 47.8112 116.034L47.8237 116.027ZM47.7365 114.427C47.3692 114.533 46.815 114.627 46.0803 114.695C45.6631 114.739 45.3643 114.782 45.1961 114.838C45.0218 114.888 44.8848 114.969 44.7976 115.075C44.7043 115.174 44.6544 115.287 44.6544 115.411C44.6544 115.604 44.7603 115.76 44.9595 115.89C45.165 116.015 45.4639 116.084 45.8561 116.084C46.2484 116.084 46.5909 116.021 46.896 115.903C47.201 115.785 47.4252 115.617 47.5622 115.405C47.6743 115.243 47.7241 115.006 47.7241 114.689V114.427H47.7365Z" fill="#231F20"/>
<path d="M54.1995 116.55V116.015C53.8197 116.438 53.2594 116.644 52.5246 116.644C52.0452 116.644 51.6094 116.55 51.2046 116.364C50.8061 116.177 50.4948 115.915 50.2707 115.585C50.0527 115.249 49.9407 114.869 49.9407 114.433C49.9407 113.998 50.0403 113.624 50.2395 113.282C50.4388 112.933 50.7377 112.671 51.1361 112.491C51.5346 112.304 51.9829 112.211 52.4748 112.211C52.8297 112.211 53.1535 112.267 53.4337 112.379C53.7139 112.485 53.9443 112.628 54.1248 112.802V110.704H55.1335V116.557H54.1933L54.1995 116.55ZM50.9929 114.433C50.9929 114.975 51.1548 115.386 51.4786 115.654C51.8024 115.922 52.1822 116.059 52.6243 116.059C53.0663 116.059 53.4461 115.928 53.7512 115.673C54.0626 115.417 54.2182 115.025 54.2182 114.496C54.2182 113.917 54.0626 113.487 53.745 113.219C53.4275 112.945 53.0414 112.808 52.5744 112.808C52.1075 112.808 51.7463 112.939 51.4475 113.201C51.1424 113.456 50.9929 113.873 50.9929 114.433Z" fill="#231F20"/>
<path d="M60.8244 115.187L61.8705 115.28C61.7024 115.716 61.3973 116.052 60.9552 116.295C60.5069 116.532 59.9403 116.656 59.2429 116.656C58.365 116.656 57.6739 116.463 57.1633 116.083C56.6527 115.703 56.3912 115.168 56.3912 114.477C56.3912 113.786 56.6527 113.213 57.1695 112.814C57.6926 112.422 58.3588 112.223 59.1869 112.223C60.015 112.223 60.6377 112.416 61.1482 112.802C61.6588 113.188 61.9078 113.736 61.9078 114.433C61.9078 114.477 61.9078 114.539 61.9016 114.626H57.4435C57.4809 115.093 57.6614 115.448 57.9977 115.697C58.3277 115.94 58.751 116.071 59.2492 116.071C59.6165 116.071 59.9403 115.996 60.2018 115.859C60.4695 115.722 60.675 115.498 60.8307 115.199L60.8244 115.187ZM57.4933 114.029H60.8369C60.7933 113.667 60.6626 113.4 60.4509 113.225C60.1271 112.951 59.7099 112.808 59.1931 112.808C58.7261 112.808 58.3339 112.914 58.0163 113.138C57.6988 113.362 57.5244 113.655 57.4871 114.029H57.4933Z" fill="#231F20"/>
<path d="M72.443 114.502L73.5388 114.695C73.3084 115.33 72.8975 115.816 72.2998 116.152C71.7082 116.488 70.9798 116.65 70.1143 116.65C69.2488 116.65 68.5016 116.525 67.9413 116.27C67.3871 116.009 66.9575 115.641 66.6711 115.149C66.3847 114.658 66.2352 114.141 66.2352 113.58C66.2352 112.97 66.3971 112.441 66.7271 111.986C67.0571 111.532 67.5241 111.183 68.1343 110.953C68.7382 110.716 69.4045 110.598 70.133 110.598C70.9611 110.598 71.6522 110.747 72.2126 111.046C72.773 111.345 73.1715 111.768 73.3894 112.304L72.3122 112.485C72.1192 112.055 71.8452 111.75 71.4779 111.557C71.1105 111.364 70.656 111.264 70.1018 111.264C69.4667 111.264 68.9375 111.376 68.5141 111.588C68.0907 111.806 67.7856 112.092 67.6175 112.453C67.4432 112.815 67.356 113.188 67.356 113.574C67.356 114.072 67.4556 114.508 67.6611 114.875C67.8666 115.243 68.1841 115.523 68.6137 115.71C69.0433 115.89 69.5103 115.984 70.0147 115.984C70.6249 115.984 71.1416 115.859 71.5713 115.61C71.9947 115.361 72.2811 114.988 72.4305 114.496L72.443 114.502Z" fill="#231F20"/>
<path d="M78.8061 115.187L79.8522 115.28C79.6903 115.716 79.379 116.052 78.9307 116.295C78.4824 116.532 77.9158 116.656 77.2184 116.656C76.3405 116.656 75.6493 116.463 75.1388 116.083C74.6282 115.703 74.3667 115.168 74.3667 114.477C74.3667 113.786 74.6282 113.213 75.145 112.814C75.6618 112.422 76.3342 112.223 77.1624 112.223C77.9905 112.223 78.6193 112.416 79.1237 112.802C79.6342 113.188 79.8895 113.736 79.8895 114.433C79.8895 114.477 79.8895 114.539 79.8895 114.626H75.4252C75.4625 115.093 75.6493 115.448 75.9793 115.697C76.3156 115.94 76.7327 116.071 77.2308 116.071C77.6044 116.071 77.922 115.996 78.1835 115.859C78.445 115.722 78.6567 115.498 78.8061 115.199V115.187ZM75.475 114.029H78.8186C78.775 113.667 78.6442 113.4 78.4325 113.225C78.1088 112.951 77.6916 112.808 77.1748 112.808C76.7078 112.808 76.3156 112.914 75.998 113.138C75.6805 113.362 75.5061 113.655 75.4688 114.029H75.475Z" fill="#231F20"/>
<path d="M97.2241 116.551V112.31H98.1332V112.952C98.3636 112.653 98.5815 112.454 98.7807 112.354C98.9737 112.261 99.1917 112.211 99.4283 112.211C99.7707 112.211 100.113 112.292 100.468 112.447L100.119 113.114C99.8704 113.008 99.6275 112.958 99.3785 112.958C99.1605 112.958 98.9551 113.008 98.7807 113.101C98.6064 113.201 98.4819 113.331 98.4009 113.493C98.2888 113.749 98.2328 114.029 98.2328 114.334V116.557H97.2179L97.2241 116.551Z" fill="#231F20"/>
<path d="M94.914 115.187L95.9601 115.28C95.792 115.716 95.4869 116.052 95.0448 116.295C94.5965 116.532 94.0299 116.656 93.3325 116.656C92.4608 116.656 91.7635 116.463 91.2529 116.083C90.7361 115.703 90.4871 115.168 90.4871 114.477C90.4871 113.786 90.7423 113.213 91.2591 112.814C91.7759 112.422 92.4484 112.223 93.2765 112.223C94.1046 112.223 94.7272 112.416 95.2378 112.802C95.7422 113.188 95.9974 113.736 95.9974 114.433C95.9974 114.477 95.9974 114.539 95.9974 114.626H91.5393C91.5767 115.093 91.7573 115.448 92.0935 115.697C92.4235 115.94 92.8406 116.071 93.3388 116.071C93.7123 116.071 94.0299 115.996 94.2914 115.859C94.5529 115.722 94.7646 115.498 94.914 115.199V115.187ZM91.5829 114.029H94.9265C94.8829 113.667 94.7522 113.4 94.5405 113.225C94.2167 112.951 93.7995 112.808 93.2827 112.808C92.8157 112.808 92.4235 112.914 92.1059 113.138C91.7884 113.362 91.614 113.655 91.5767 114.029H91.5829Z" fill="#231F20"/>
<path d="M89.8209 115.909L89.9641 116.544C89.6777 116.588 89.4287 116.606 89.1983 116.606C88.8309 116.606 88.5445 116.563 88.339 116.482C88.1336 116.401 87.9966 116.289 87.9156 116.158C87.8347 116.027 87.7911 115.741 87.7911 115.311V112.871H87.0439V112.316H87.7911V111.264L88.7998 110.834V112.316H89.8209V112.871H88.7998V115.349C88.7998 115.554 88.8185 115.685 88.8496 115.747C88.887 115.803 88.943 115.853 89.0239 115.884C89.1049 115.915 89.2232 115.934 89.3664 115.934C89.4785 115.934 89.6279 115.921 89.8147 115.903L89.8209 115.909Z" fill="#231F20"/>
<path d="M81.2284 116.551V112.31H82.1374V112.908C82.5795 112.441 83.2084 112.211 84.0427 112.211C84.4039 112.211 84.7339 112.261 85.039 112.354C85.3441 112.447 85.5682 112.566 85.7176 112.715C85.8733 112.864 85.9729 113.039 86.0352 113.244C86.0725 113.375 86.0912 113.612 86.0912 113.942V116.551H85.0763V113.967C85.0763 113.68 85.039 113.456 84.958 113.313C84.8771 113.17 84.7401 113.051 84.5408 112.964C84.3354 112.877 84.105 112.833 83.831 112.833C83.3952 112.833 83.0278 112.933 82.7103 113.126C82.399 113.325 82.2433 113.693 82.2433 114.234V116.551H81.2284Z" fill="#231F20"/>
<path fill-rule="evenodd" clip-rule="evenodd" d="M32.9238 107.329H99.4842V108.537H32.9238V107.329Z" fill="#231F20"/>
</g>
<defs>
<clipPath id="clip0_482_20534">
<rect width="67.787" height="100.65" fill="white" transform="translate(32.7122 16)"/>
</clipPath>
</defs>
</svg>
