<svg width="112" height="112" viewBox="0 0 112 112" fill="none" xmlns="http://www.w3.org/2000/svg">
<path d="M25.1826 24.2902C26.1817 24.6573 27.1995 24.9989 28.2614 25.294C28.7341 24.6288 29.2405 23.9882 29.7787 23.3747L28.3357 23.7047L25.1826 24.2902ZM32.5205 22.7427C31.5007 23.6389 30.582 24.644 29.781 25.7401C36.5798 27.4131 44.264 27.9406 51.4694 28.4192L56.2165 28.8561V21.007H39.9723C38.7547 21.2904 37.541 21.577 36.3312 21.8667L32.5205 22.7427ZM20.2636 23.7047C18.7944 22.9386 17.401 22.0354 16.102 21.007H13V28.4727C13.5786 26.953 14.3012 25.6844 15.219 24.7967C15.3817 24.6155 15.4142 24.5969 20.2636 23.7047ZM21.5276 22.7752L21.5531 21.007H18.565C19.5126 21.6615 20.5023 22.253 21.5276 22.7775V22.7752ZM17.7169 58.0938C16.1446 58.5477 14.5723 58.9962 13 59.4392V76.8917H16.9919C16.9919 76.1667 16.9641 75.4511 16.9641 74.7238C16.9364 69.1752 17.1877 63.6288 17.7169 58.1055V58.0938ZM21.3487 32.4112C21.3487 32.4112 21.4439 27.3783 21.4881 24.9617L16.1671 25.9469C14.5127 27.6617 13.553 30.9519 13 34.8672V57.9149L17.9051 56.5208C18.436 51.5889 19.3756 46.7096 20.7143 41.9332C21.0606 36.7632 21.3487 32.4228 21.3487 32.4228V32.4112ZM52.536 49.1875C50.8885 49.5384 48.9832 49.8846 46.7804 50.2447L40.3975 51.4925L32.474 53.8138C28.6703 54.9245 24.9131 56.0189 21.1674 57.104C21.0675 58.6097 21.0071 59.5298 21.0071 59.5298C20.5424 65.2575 20.1009 71.0688 19.7314 76.9033H30.2178V55.6099H52.5243L52.536 49.1875ZM28.8957 27.0204C27.4165 29.307 26.1191 31.7061 25.0153 34.1957C23.8535 36.7516 22.9682 39.4749 22.1643 42.2376C21.8506 46.9406 21.5067 52.0966 21.279 55.5472C24.855 54.5109 28.4403 53.4559 32.0697 52.4057L39.9862 50.0937L46.5388 48.8088C48.1049 48.5462 50.4378 48.1581 52.536 47.6981V42.3004H30.2295V35.3296H56.2165V30.3292L51.3718 29.8831C43.9061 29.3858 35.9594 28.8305 28.8957 27.0204ZM22.9868 23.2028L28.0313 22.2733L31.7491 21.4182C31.9164 21.2765 32.086 21.1417 32.2556 21.0093H23.0124C23.0124 21.6576 22.9984 22.3082 22.9938 22.9541C22.9938 22.9518 22.9914 23.0796 22.9868 23.2028ZM20.0614 51.7318C19.829 53.1632 19.6548 54.6154 19.4782 56.0677L19.7779 55.9817C19.8592 54.7711 19.9568 53.3165 20.0614 51.7318ZM22.8149 32.4832C22.8149 32.4832 22.6034 35.6619 22.5244 36.8399C22.9357 35.7687 23.2052 34.6232 23.6862 33.5869C24.7692 31.1637 26.0281 28.823 27.4528 26.5836C25.9212 26.1477 24.4168 25.6216 22.9473 25.0082C22.9078 27.5386 22.8149 32.4832 22.8149 32.4832ZM18.4302 74.7517C18.4302 74.7656 18.4302 74.7772 18.4302 74.7912C18.7741 69.6351 19.1459 64.4791 19.5479 59.4136C19.5479 59.4136 19.5944 58.6956 19.6734 57.5385L19.2737 57.6547C18.6878 63.3346 18.4062 69.0417 18.4302 74.7517Z" fill="#231F20"/>
<path d="M95.7777 29.4857C94.8928 27.6384 93.5935 26.0203 91.981 24.7572C90.3131 23.5053 88.3978 22.623 86.3625 22.1687C84.077 21.6401 81.7375 21.3804 79.3917 21.395C77.389 21.4033 75.3914 21.5977 73.4247 21.9759C71.4424 22.3276 69.5365 23.0219 67.7923 24.0276C66.1276 24.9961 64.7089 26.336 63.6471 27.9428C62.5627 29.5694 62.0205 31.6226 62.0205 34.1027C62.0205 36.5827 62.5782 38.5686 63.6935 40.0604C64.8399 41.5904 66.3216 42.8375 68.0247 43.7061C69.9539 44.6866 72.0016 45.4137 74.1172 45.8694C76.3896 46.3868 78.7132 46.9289 81.0879 47.4959C83.6687 48.1666 86.1092 48.8126 88.4096 49.4338C90.52 49.9722 92.5437 50.8061 94.4207 51.9107C96.0987 52.9178 97.4976 54.3294 98.4893 56.0165C99.4978 57.7205 100.001 60.0201 99.9997 62.9153C99.9997 65.5487 99.432 67.7948 98.2965 69.6537C97.1636 71.5096 95.6267 73.0861 93.8003 74.266C91.8798 75.505 89.7562 76.3962 87.5266 76.8987C85.2151 77.4407 82.8488 77.7143 80.4745 77.7142C77.5332 77.7404 74.6015 77.3755 71.7564 76.6291C69.2401 75.979 66.8898 74.8039 64.86 73.1809C62.8829 71.5577 61.3363 69.4724 60.3569 67.1094C59.2973 64.6309 58.7938 61.6342 58.8465 58.1194H60.3963C60.3963 61.4266 60.8874 64.2289 61.8695 66.5261C62.766 68.7126 64.1902 70.6429 66.0148 72.1446C67.8832 73.6351 70.0507 74.7058 72.3698 75.2838C75.0162 75.9534 77.7379 76.279 80.4675 76.2527C82.6455 76.2525 84.8165 76.0054 86.9388 75.5161C88.9843 75.0662 90.9368 74.2667 92.7106 73.153C94.3929 72.0921 95.8114 70.6617 96.8582 68.9706C97.9146 67.2666 98.4436 65.2257 98.4452 62.8479C98.4452 60.0596 97.8387 57.8514 96.6258 56.2233C95.4002 54.5867 93.8088 53.2594 91.9786 52.3476C89.9895 51.3573 87.8808 50.6279 85.7049 50.1773C83.4046 49.6863 81.1964 49.1828 79.0804 48.667C76.8559 48.1511 74.6338 47.609 72.414 47.0405C70.3128 46.5209 68.2899 45.7247 66.3982 44.6727C64.6553 43.7035 63.1781 42.3196 62.0972 40.6436C61.0129 38.966 60.4707 36.7833 60.4707 34.0957C60.4707 31.3585 61.0392 29.0729 62.1762 27.2388C63.2728 25.4439 64.7876 23.9412 66.5911 22.8588C68.4728 21.7458 70.5297 20.9601 72.6742 20.5352C74.8791 20.0749 77.1253 19.8414 79.3778 19.8381C81.9241 19.8163 84.4629 20.1161 86.9341 20.7304C89.1196 21.2719 91.174 22.247 92.9755 23.5977C94.7522 24.9729 96.1736 26.7536 97.1207 28.791C98.1555 30.9333 98.7496 33.5551 98.9029 36.6563H97.3531C97.2586 33.8138 96.7335 31.4236 95.7777 29.4857Z" fill="#231F20"/>
<path d="M65.701 86.86C65.6476 85.3473 64.6345 84.8175 63.2961 84.8175C62.2505 84.8175 60.9725 85.1916 60.9725 86.5184C60.9725 87.8452 62.2575 88.0101 63.5285 88.3099C64.9064 88.6631 66.0588 88.828 66.0588 90.3732C66.0588 91.7674 64.7112 92.3622 63.4471 92.3622C61.7672 92.3622 60.524 91.5954 60.5542 89.7296H60.7634C60.7634 91.5025 61.8717 92.1554 63.4471 92.1554C64.6089 92.1554 65.8497 91.6373 65.8497 90.3616C65.8497 88.8699 64.3998 88.7351 63.2589 88.4656C62.0576 88.1867 60.7727 87.9683 60.7727 86.5184C60.7727 85.0685 62.1087 84.6107 63.3007 84.6107C64.753 84.6107 65.8404 85.2009 65.9125 86.86H65.701Z" fill="#231F20"/>
<path d="M67.0957 84.7874H67.4047L72.4632 91.9278H72.4841V84.7874H72.6909V92.1857H72.3796L67.3281 85.0453H67.3095V92.1857H67.0957V84.7874Z" fill="#231F20"/>
<path d="M76.9911 84.6108C79.2078 84.6108 80.3998 86.3837 80.3998 88.4866C80.3998 90.5894 79.2078 92.3623 76.9911 92.3623C74.7744 92.3623 73.5801 90.5894 73.5801 88.4866C73.5801 86.3837 74.7628 84.6108 76.9911 84.6108ZM76.9911 92.1555C78.9801 92.1555 80.1721 90.622 80.193 88.4866C80.1721 86.3512 78.9801 84.8176 76.9911 84.8176C75.0021 84.8176 73.8078 86.3512 73.7869 88.4866C73.8078 90.622 74.9952 92.1555 76.9911 92.1555Z" fill="#231F20"/>
<path d="M84.4614 84.6107C86.6805 84.6107 87.8702 86.3836 87.8702 88.4865C87.8702 90.5893 86.6805 92.3622 84.4614 92.3622C82.2424 92.3622 81.0527 90.5893 81.0527 88.4865C81.0527 86.3836 82.2447 84.6107 84.4614 84.6107ZM84.4614 92.1554C86.4504 92.1554 87.6425 90.6219 87.6634 88.4865C87.6425 86.3511 86.4504 84.8175 84.4614 84.8175C82.4724 84.8175 81.2805 86.3511 81.2595 88.4865C81.2805 90.6219 82.4724 92.1554 84.4614 92.1554Z" fill="#231F20"/>
<path d="M88.9578 92.1857H88.751V84.7874H91.7461C93.1565 84.7874 93.9953 85.4705 93.9953 86.8066C93.9953 88.1426 93.0101 88.8188 91.6439 88.8188H88.9578V92.1857ZM88.9578 88.612H91.7461C92.9079 88.612 93.7885 87.9591 93.7885 86.8066C93.7885 85.6541 93.1054 84.9942 91.7461 84.9942H88.9578V88.612Z" fill="#231F20"/>
<path d="M99.6444 86.86C99.5909 85.3473 98.5755 84.8175 97.2394 84.8175C96.1915 84.8175 94.9159 85.1916 94.9159 86.5184C94.9159 87.8452 96.2008 88.0101 97.4718 88.3099C98.8497 88.6631 99.9999 88.828 99.9999 90.3732C99.9999 91.7674 98.6522 92.3622 97.3882 92.3622C95.7105 92.3622 94.4674 91.5954 94.4976 89.7296H94.7044C94.7044 91.5025 95.8128 92.1554 97.3882 92.1554C98.55 92.1554 99.7931 91.6373 99.7931 90.3616C99.7931 88.8699 98.3432 88.7351 97.2023 88.4656C96.001 88.1867 94.716 87.9683 94.716 86.5184C94.716 85.0685 96.0521 84.6107 97.2441 84.6107C98.694 84.6107 99.7838 85.2009 99.8558 86.86H99.6444Z" fill="#231F20"/>
<path d="M13.1875 84.6942H18.8571V86.574H15.4577V87.4872H18.3831V89.2345H15.4577V92.0228H13.1875V84.6942Z" fill="#231F20"/>
<path d="M21.1393 84.6942H23.3467L26.0166 92.0275H23.6767L23.3677 90.9795H21.0441L20.7164 92.0275H18.4463L21.1393 84.6942ZM22.9146 89.4088L22.25 87.1479L21.5413 89.4088H22.9146Z" fill="#231F20"/>
<path d="M28.3192 89.5529C28.3169 89.7176 28.3445 89.8814 28.4005 90.0362C28.5655 90.4777 29.0581 90.5707 29.4787 90.5707C29.8481 90.5707 30.4081 90.4475 30.4081 89.9015C30.4081 89.5227 30.0898 89.4205 28.8281 89.0603C27.6663 88.7304 26.3418 88.4121 26.3418 86.9343C26.3418 85.238 27.7894 84.5084 29.2998 84.5084C30.8914 84.5084 32.2995 85.1149 32.3599 86.904H30.2246C30.246 86.7908 30.2318 86.6737 30.184 86.5688C30.1361 86.464 30.0569 86.3765 29.9573 86.3185C29.7591 86.1902 29.5265 86.1254 29.2905 86.1326C28.9814 86.1326 28.4772 86.2139 28.4772 86.6252C28.519 87.1503 29.567 87.2619 30.6033 87.5547C31.6396 87.8474 32.669 88.3261 32.669 89.6714C32.669 91.5814 30.9123 92.1972 29.2789 92.1972C28.447 92.1972 26.0746 91.8998 26.0537 89.5576L28.3192 89.5529Z" fill="#231F20"/>
<path d="M33.373 84.6942H35.6316V87.2502H37.7484V84.6942H40.0092V92.0275H37.7484V89.1207H35.6316V92.0275H33.373V84.6942Z" fill="#231F20"/>
<path d="M41.1689 84.6942H43.4298V92.0275H41.1689V84.6942Z" fill="#231F20"/>
<path d="M48.0928 84.5176C50.3211 84.5176 51.8105 86.1209 51.8105 88.3608C51.8105 90.6007 50.3211 92.2017 48.0928 92.2017C45.8644 92.2017 44.375 90.6007 44.375 88.3608C44.375 86.1209 45.8621 84.5176 48.0928 84.5176ZM48.0928 90.373C48.6667 90.373 49.5496 89.9943 49.5496 88.3608C49.5496 86.7273 48.6667 86.3463 48.0928 86.3463C47.5188 86.3463 46.6335 86.7273 46.6335 88.3608C46.6335 89.9943 47.5165 90.373 48.0928 90.373Z" fill="#231F20"/>
<path d="M52.7754 84.6942H55.099L57.2367 88.6164H57.2576V84.6942H59.393V92.0275H57.1949L54.9456 88.0216H54.9247V92.0275H52.787L52.7754 84.6942Z" fill="#231F20"/>
</svg>
