<svg width="112" height="112" viewBox="0 0 112 112" fill="none" xmlns="http://www.w3.org/2000/svg">
<path d="M74.335 26.0525V32.2547H86.4553V61.9935H94.1031V32.1961H106.115V26.0525H74.335Z" fill="black"/>
<mask id="mask0_806_8579" style="mask-type:luminance" maskUnits="userSpaceOnUse" x="6" y="26" width="101" height="37">
<path d="M106.116 26H6.00879V62.046H106.116V26Z" fill="white"/>
</mask>
<g mask="url(#mask0_806_8579)">
<path d="M13.6433 47.112C13.6192 47.2137 13.6016 47.3169 13.5908 47.4208C13.5908 50.1204 13.5908 52.82 13.5908 55.5196C13.5908 56.0231 13.7916 56.1096 14.2363 56.1065C18.0448 56.1065 21.8533 56.1065 25.6648 56.0879C26.1459 56.0881 26.6259 56.0415 27.098 55.9489C28.8493 55.5999 30.1157 54.6455 30.4771 52.8355C30.8385 51.0254 30.6871 49.3637 29.1706 48.0849C28.0895 47.1768 26.7706 47.0502 25.4301 47.0502C21.6926 47.0502 17.9562 47.0502 14.2209 47.0502C14.0316 47.0583 13.8429 47.0769 13.6556 47.1058M13.6371 41.0611C15.5522 41.0611 17.3807 41.0611 19.1969 41.0611C21.7482 41.0363 24.3026 41.0611 26.8478 40.919C28.4756 40.8325 29.7358 39.9923 30.2763 38.38C30.8663 36.6287 30.8292 34.9051 29.5567 33.438C28.4941 32.2024 27.0115 31.977 25.4887 31.9708C21.7544 31.9553 18.0201 31.9708 14.2857 31.9708C14.0757 31.9708 13.8688 32.0017 13.6248 32.0171L13.6371 41.0611ZM6.02637 26.0095H6.64412C13.878 26.0095 21.1089 25.9909 28.3428 26.0095C30.7183 25.9947 33.0398 26.7178 34.9867 28.0789C37.8963 30.1114 39.0886 33.577 38.3226 37.265C37.677 40.3846 35.9751 42.624 33.2694 43.9182C34.3782 44.746 35.657 45.4904 36.667 46.5066C38.7797 48.6285 39.2214 51.3405 38.8693 54.2007C38.2515 59.1767 34.8168 61.3945 30.4308 61.8578C28.6843 62.0005 26.9318 62.0541 25.1799 62.0184C19.0795 62.0369 12.9823 62.0184 6.88195 62.0184H6.03872L6.02637 26.0095Z" fill="black"/>
<path d="M50.1121 41.0641H70.7112V47.0439H50.109V61.9812H42.5014C42.4705 61.9176 42.4487 61.8501 42.4365 61.7805C42.4612 54.8369 42.4365 47.881 42.5385 40.9498C42.5817 37.8455 43.2365 34.8494 44.8767 32.1313C46.7855 28.9653 49.6087 27.1059 53.1978 26.4912C55.0956 26.1951 57.013 26.0423 58.9337 26.0341C62.841 25.9692 66.7452 26.0155 70.7112 26.0155V32.224H69.9359C66.1274 32.224 62.3159 32.1962 58.5074 32.2425C56.2372 32.2672 54.1337 32.8603 52.4442 34.5035C50.6125 36.2826 49.9114 38.4664 50.1121 41.0641Z" fill="black"/>
</g>
<mask id="mask1_806_8579" style="mask-type:luminance" maskUnits="userSpaceOnUse" x="6" y="69" width="101" height="17">
<path d="M106.107 69.2767H6V85.5855H106.107V69.2767Z" fill="white"/>
</mask>
<g mask="url(#mask1_806_8579)">
<path d="M105.94 85.5854H105.14C72.3994 85.5854 39.6522 85.5854 6.89883 85.5854C6.59251 85.5531 6.29092 85.4857 6 85.3846C6.29574 85.2573 6.60751 85.171 6.92663 85.1282C39.6985 85.1159 72.4704 85.1159 105.242 85.1282C105.502 85.1282 106.042 84.8502 105.943 85.5946" fill="black"/>
<path d="M105.94 69.7957H105.14C72.3994 69.7957 39.6522 69.7957 6.89883 69.7957C6.59276 69.762 6.29133 69.6946 6 69.5949C6.29574 69.4676 6.60751 69.3813 6.92663 69.3385C39.6985 69.3262 72.4704 69.3262 105.242 69.3385C105.502 69.3385 106.042 69.0605 105.943 69.808" fill="black"/>
<path d="M7.49439 78.4441C8.28821 78.4782 9.08332 78.4669 9.87584 78.4102C10.0255 78.3518 10.1583 78.2572 10.2624 78.1348C10.3664 78.0124 10.4384 77.8661 10.472 77.709C10.4998 77.4804 10.194 77.0079 9.9994 76.9893C9.17778 76.909 8.33763 76.9554 7.49439 76.9554V78.4441ZM7.49439 75.7847C8.26659 75.7847 8.96774 75.8125 9.65654 75.7847C10.1199 75.76 10.4967 75.5561 10.509 75.0002C10.509 74.5585 10.3546 74.2094 9.89129 74.1878C9.10674 74.1538 8.31909 74.1878 7.50057 74.1878L7.49439 75.7847ZM11.1731 76.3005C11.7909 76.7268 12.177 77.2426 12.1337 78.0117C12.0812 78.8951 11.516 79.5561 10.6357 79.5561C9.13145 79.5901 7.62721 79.5561 6.06738 79.5561V73.0604C7.61177 73.0604 9.15616 72.9955 10.7005 73.0882C11.0336 73.1152 11.347 73.2567 11.5874 73.4888C11.8279 73.7208 11.9806 74.0289 12.0194 74.3608C12.0998 74.7313 12.062 75.1178 11.9113 75.4658C11.7606 75.8137 11.5046 76.1057 11.1793 76.3005" fill="black"/>
<path d="M99.67 75.9484C98.9226 75.9762 98.07 75.6179 97.6592 76.4148C97.5417 76.6711 97.4772 76.9486 97.4698 77.2305C97.4623 77.5124 97.5121 77.7928 97.616 78.055C98.0299 78.9044 98.9195 78.4905 99.67 78.5554V75.9484ZM100.955 79.5716C99.8646 79.5716 98.8237 79.6117 97.7859 79.5716C96.5504 79.5098 95.7535 78.0642 96.0901 76.6249C96.3527 75.5067 97.0168 74.9538 98.1967 74.9137C98.6754 74.8952 99.1542 74.9137 99.704 74.9137V73.0604H100.94L100.955 79.5716Z" fill="black"/>
<path d="M104.813 78.5832V74.9415H106.095C106.095 76.7021 106.126 78.4442 106.095 80.1924C106.057 80.5356 105.897 80.8536 105.644 81.0885C105.391 81.3233 105.062 81.4592 104.717 81.4712C103.772 81.5021 102.827 81.4712 101.835 81.4712V80.5724C102.527 80.5724 103.204 80.6002 103.874 80.5724C104.396 80.5415 104.933 80.4519 104.776 79.584C104.238 79.584 103.689 79.584 103.142 79.584C102.237 79.584 101.755 79.0836 101.752 78.1847C101.752 77.1191 101.752 76.0566 101.752 74.9539H102.91V77.3477C102.91 78.4967 103.003 78.5832 104.146 78.5832H104.791" fill="black"/>
<path d="M37.6969 76.9029V79.5283H36.3348C36.3348 78.0365 36.2143 76.5539 36.3687 75.1021C36.5139 73.7153 37.4282 73.0574 38.8181 73.0172C39.6181 72.9925 40.4181 73.0172 41.2212 73.0172C41.3024 73.0314 41.3813 73.0563 41.4559 73.0913V74.1786C40.7116 74.1786 39.9888 74.1631 39.2691 74.1786C38.9551 74.1575 38.6425 74.2356 38.3753 74.4019C38.1082 74.5682 37.9 74.8142 37.7803 75.1052C37.5981 75.5469 37.6629 75.7909 38.222 75.7786C39.2845 75.757 40.3502 75.7786 41.4559 75.7786V76.8967L37.6969 76.9029Z" fill="black"/>
<path d="M54.8547 79.5562H53.6191V73.045H54.8176V74.8983C55.4353 74.8983 55.9944 74.8983 56.5442 74.8983C57.6068 74.9261 58.1288 75.3987 58.1689 76.4427C58.2091 77.4867 58.1689 78.4782 58.1689 79.5315H56.9334C56.9334 78.716 56.9334 77.9191 56.9334 77.1222C56.9334 76.001 56.8438 75.9207 55.6979 75.9145H54.8516L54.8547 79.5562Z" fill="black"/>
<path d="M45.2149 77.7522C44.7084 77.7279 44.2008 77.7351 43.6952 77.7738C43.4975 77.8016 43.3308 78.0487 43.1485 78.197C43.3308 78.3545 43.4975 78.6201 43.6952 78.6479C44.2008 78.6878 44.7084 78.695 45.2149 78.6696V77.7522ZM46.4751 79.5746C45.2581 79.5746 44.0968 79.59 42.9323 79.5746C42.2528 79.5746 41.774 78.997 41.7493 78.268C41.7215 77.4897 42.1601 76.8781 42.8767 76.8317C43.6427 76.7792 44.4211 76.8317 45.2025 76.8317C45.2458 76.146 44.9647 75.9206 44.4365 75.9206H42.1014C42.0829 75.6117 42.0644 75.3213 42.0427 74.9661C43.1339 74.9196 44.2266 74.9289 45.3168 74.9939C45.6384 75.0294 45.9349 75.1843 46.1477 75.428C46.3605 75.6717 46.474 75.9863 46.4659 76.3097C46.5029 77.3723 46.4659 78.4379 46.4659 79.5962" fill="black"/>
<path d="M20.8941 77.7771C20.3381 77.7771 19.8068 77.7462 19.2848 77.7956C19.1242 77.7956 18.9759 78.0334 18.8277 78.1601C18.9574 78.3053 19.0717 78.5585 19.223 78.5832C19.7574 78.6636 20.3072 78.6697 20.8941 78.7099V77.7771ZM22.1759 79.5747C20.9558 79.5747 19.813 79.5902 18.6732 79.5747C17.9721 79.5747 17.5427 79.0805 17.5088 78.3392C17.4686 77.4404 17.8454 76.8968 18.5991 76.8134C18.9852 76.7701 19.3775 76.7825 19.7667 76.7763C20.1558 76.7701 20.4802 76.7763 20.8539 76.7763C20.9404 76.1586 20.7334 75.9022 20.2053 75.8991H17.8423V74.9138C18.8647 74.9138 19.8809 74.8705 20.8941 74.9292C21.2377 74.9555 21.5591 75.1096 21.7947 75.3612C22.0303 75.6128 22.163 75.9436 22.1666 76.2883C22.2037 77.3539 22.1666 78.4226 22.1666 79.5717" fill="black"/>
<path d="M65.6875 77.1994C65.6875 76.3037 65.2613 75.8249 64.4706 75.8373C63.6798 75.8497 63.3277 76.3068 63.3339 77.2767C63.3401 78.2465 63.7478 78.7006 64.5045 78.7068C65.2613 78.7129 65.6875 78.1601 65.6875 77.1994ZM67.0126 77.3106C66.9756 78.9415 66.086 79.7539 64.3377 79.7199C62.7625 79.689 61.9964 78.7747 62.0335 76.9678C62.0613 75.5346 63.025 74.7377 64.6806 74.7717C66.1756 74.8057 67.0466 75.7508 67.0126 77.3106Z" fill="black"/>
</g>
<path d="M78.5144 79.5594H77.0472V74.1849H74.8604V73.0452H80.6549V74.1324H78.5144V79.5594Z" fill="black"/>
<mask id="mask2_806_8579" style="mask-type:luminance" maskUnits="userSpaceOnUse" x="6" y="69" width="101" height="17">
<path d="M106.107 69.2767H6V85.5855H106.107V69.2767Z" fill="white"/>
</mask>
<g mask="url(#mask2_806_8579)">
<path d="M23.3767 79.5777V78.682C24.1736 78.682 24.9427 78.682 25.7118 78.682C25.952 78.6914 26.1919 78.6558 26.4191 78.5769C26.497 78.5374 26.5644 78.4797 26.6154 78.4088C26.6665 78.3378 26.6998 78.2557 26.7125 78.1692C26.6906 78.0863 26.6474 78.0105 26.5873 77.9493C26.5272 77.8881 26.4522 77.8436 26.3697 77.8202C25.8662 77.7615 25.3535 77.7646 24.8469 77.7522C23.806 77.7244 23.3396 77.2735 23.3458 76.3036C23.3458 75.377 23.84 74.9291 24.8284 74.9167C25.8168 74.9044 26.8114 74.9167 27.8461 74.9167V75.9082C27.043 75.9082 26.2461 75.8681 25.4585 75.9268C25.1867 75.9484 24.9303 76.2079 24.6709 76.3561C24.8984 76.5368 25.1554 76.6769 25.4307 76.77C25.9311 76.8411 26.45 76.77 26.9565 76.8225C27.7689 76.8936 28.192 77.4712 28.155 78.3391C28.1554 78.5086 28.1209 78.6764 28.0536 78.832C27.9864 78.9876 27.8879 79.1277 27.7641 79.2436C27.6404 79.3595 27.4942 79.4487 27.3345 79.5056C27.1749 79.5626 27.0052 79.5861 26.8361 79.5746C25.6994 79.5746 24.5627 79.5746 23.3767 79.5746" fill="black"/>
<path d="M47.7623 79.5717V78.676C48.5345 78.676 49.2819 78.676 50.0294 78.676C50.2225 78.7001 50.4184 78.6822 50.6039 78.6235C50.7839 78.4975 50.9451 78.3467 51.0827 78.1756C50.9159 78.0397 50.7584 77.8111 50.5761 77.7864C50.0727 77.7246 49.5599 77.7586 49.0503 77.7308C48.1236 77.6752 47.7067 77.1995 47.7252 76.2698C47.7252 75.4204 48.2163 74.9324 49.0935 74.9169C50.1097 74.8984 51.1259 74.9169 52.1823 74.9169V75.9022C51.4533 75.9022 50.7553 75.9022 50.0572 75.9022C49.8399 75.8814 49.6207 75.8971 49.4086 75.9486C49.3263 75.9805 49.2524 76.0307 49.1924 76.0955C49.1325 76.1603 49.0881 76.2378 49.0626 76.3223C49.0825 76.4065 49.1236 76.4842 49.182 76.548C49.2404 76.6118 49.3141 76.6596 49.3962 76.6868C49.8761 76.7429 50.3586 76.7728 50.8418 76.7764C52.0464 76.8196 52.5313 77.3632 52.3861 78.5339C52.312 79.1362 51.963 79.547 51.3514 79.5686C50.1684 79.6088 48.9792 79.5686 47.7623 79.5686" fill="black"/>
<path d="M89.2947 74.9076V75.8033C88.433 75.8929 87.6021 75.9763 86.7712 76.0751C86.6971 76.0751 86.6044 76.1925 86.5735 76.2759C86.5302 76.4399 86.5012 76.6073 86.4871 76.7763H89.2916V77.7678H86.5396C86.4716 78.6944 87.1789 78.6018 87.6608 78.6728C88.1991 78.7178 88.74 78.724 89.2793 78.6913V79.5747C88.399 79.5747 87.5496 79.6211 86.7063 79.5562C86.3898 79.528 86.0869 79.4143 85.8301 79.2271C85.5732 79.0399 85.3722 78.7864 85.2484 78.4937C84.3558 76.7392 85.4183 74.9292 87.3673 74.9107C87.9851 74.9107 88.6214 74.9107 89.2855 74.9107" fill="black"/>
<path d="M69.4953 79.55H68.3154V74.9169C69.3718 74.9169 70.4096 74.8675 71.4413 74.9385C71.7521 74.9474 72.0481 75.0732 72.2702 75.2908C72.4923 75.5084 72.6243 75.8017 72.6397 76.1122C72.7108 77.2427 72.6582 78.3825 72.6582 79.5531H71.3795V77.008C71.3795 76.0196 71.2806 75.9238 70.2953 75.9207H69.4953V79.55Z" fill="black"/>
<path d="M91.6663 75.9609V79.5099H90.5234V74.9076C91.5613 74.9076 92.6022 74.8582 93.6369 74.9261C93.9482 74.9351 94.2446 75.0614 94.4669 75.2796C94.6891 75.4978 94.8207 75.7919 94.8354 76.103C94.9033 77.2365 94.8539 78.3763 94.8539 79.5377H93.5659C93.5659 78.6883 93.5659 77.8697 93.5659 77.0481C93.5659 75.9701 93.5041 75.9084 92.3952 75.9145C92.179 75.9145 91.9659 75.9362 91.6663 75.9516" fill="black"/>
</g>
<path d="M33.2269 73.042H31.8926V79.5315H33.2269V73.042Z" fill="black"/>
<mask id="mask3_806_8579" style="mask-type:luminance" maskUnits="userSpaceOnUse" x="6" y="69" width="101" height="17">
<path d="M106.107 69.2767H6V85.5855H106.107V69.2767Z" fill="white"/>
</mask>
<g mask="url(#mask3_806_8579)">
<path d="M81.5978 79.5562H80.3623V74.923C81.2117 74.923 82.055 74.8705 82.892 74.9385C83.6735 75.0003 83.9916 75.6736 83.8681 76.8504C83.6889 76.869 83.5036 76.8968 83.3152 76.906C83.1268 76.9153 82.9291 76.906 82.6727 76.906C82.6727 76.2203 82.4843 75.7138 81.6071 76.0196L81.5978 79.5562Z" fill="black"/>
<path d="M16.1901 76.8721H15.0843C15.0472 76.2544 14.8743 75.754 14.0156 75.9825V79.5346H12.7461V74.9262C13.5862 74.9262 14.4573 74.8644 15.3129 74.9478C16.0511 75.0189 16.3198 75.6706 16.1901 76.8721Z" fill="black"/>
</g>
<path d="M30.5955 74.9417H29.3291V79.5377H30.5955V74.9417Z" fill="black"/>
<path d="M60.6178 74.9324H59.4502V79.5285H60.6178V74.9324Z" fill="black"/>
<path d="M60.6205 73.3417H59.4561V74.4135H60.6205V73.3417Z" fill="black"/>
<path d="M30.583 73.3601H29.3135V74.4288H30.583V73.3601Z" fill="black"/>
</svg>
