<svg width="200" height="200" viewBox="0 0 200 200" fill="none" xmlns="http://www.w3.org/2000/svg">
<mask id="mask0_803_8294" style="mask-type:alpha" maskUnits="userSpaceOnUse" x="0" y="0" width="200" height="200">
<circle cx="100" cy="100" r="100" fill="#D9D9D9"/>
</mask>
<g mask="url(#mask0_803_8294)">
<path d="M-158 -224H358V424H-158V-224Z" fill="#1B5091"/>
<path d="M116.672 78.3679L117.135 79.3153L118.179 79.4684L151.148 84.3035C151.149 84.3036 151.15 84.3038 151.151 84.3039C152.335 84.483 153.157 85.5894 152.974 86.7808L152.973 86.7917L152.971 86.8027C152.903 87.2806 152.68 87.7199 152.338 88.0589C152.337 88.0591 152.337 88.0592 152.337 88.0594L128.482 111.528L127.738 112.26L127.913 113.289L133.55 146.434L133.55 146.436C133.756 147.641 132.952 148.762 131.789 148.965L131.786 148.965C131.323 149.046 130.844 148.97 130.442 148.754L130.433 148.749L100.938 133.1L100 132.603L99.0629 133.1L69.5678 148.749L69.5647 148.75C69.2108 148.939 68.813 149.023 68.416 148.995C68.0191 148.966 67.6364 148.826 67.3114 148.588C66.9863 148.349 66.7315 148.022 66.5783 147.641C66.4251 147.26 66.3804 146.843 66.45 146.437L66.4505 146.434L72.0872 113.289L72.2622 112.26L71.5181 111.528L47.6596 88.0557L47.6595 88.0556C47.2472 87.65 47.0079 87.0919 47.0002 86.503C46.9925 85.9153 47.216 85.352 47.6162 84.9354C47.9519 84.5908 48.381 84.3715 48.8412 84.3052L48.846 84.3045L81.8219 79.4684L82.8654 79.3153L83.3285 78.3679L98.0649 48.2209C98.0655 48.2195 98.0662 48.2182 98.0669 48.2168C98.6106 47.1249 99.9075 46.702 100.953 47.2227L100.955 47.2239C101.376 47.4326 101.72 47.7782 101.93 48.2095L101.931 48.2112L116.672 78.3679Z" stroke="white" stroke-width="4"/>
</g>
</svg>
