<svg width="84" height="50" viewBox="0 0 84 50" fill="none" xmlns="http://www.w3.org/2000/svg">
<g clip-path="url(#clip0_3147_6863)">
<mask id="mask0_3147_6863" style="mask-type:luminance" maskUnits="userSpaceOnUse" x="0" y="0" width="84" height="50">
<path d="M83.1999 0.845947H0.399902V49.1541H83.1999V0.845947Z" fill="white"/>
</mask>
<g mask="url(#mask0_3147_6863)">
<path d="M83.1999 33.0435H0.399902V49.1544H83.1999V33.0435Z" fill="black"/>
<mask id="mask1_3147_6863" style="mask-type:luminance" maskUnits="userSpaceOnUse" x="0" y="0" width="84" height="50">
<path d="M83.1999 0.845947H0.399902V49.1541H83.1999V0.845947Z" fill="white"/>
</mask>
<g mask="url(#mask1_3147_6863)">
<path d="M83.2747 49.2284H0.32666V32.9694H83.2747V49.2284ZM0.474688 49.0556H83.1267V33.1174H0.474688V49.0556Z" fill="black"/>
</g>
<path d="M83.1999 16.9572H0.399902V33.0434H83.1999V16.9572Z" fill="white"/>
<mask id="mask2_3147_6863" style="mask-type:luminance" maskUnits="userSpaceOnUse" x="0" y="0" width="84" height="50">
<path d="M83.1999 0.845947H0.399902V49.1541H83.1999V0.845947Z" fill="white"/>
</mask>
<g mask="url(#mask2_3147_6863)">
<path d="M83.2747 33.1171H0.32666V16.8582H83.2747V33.1171ZM0.474688 32.9691H83.1267V17.0309H0.474688V32.9691Z" fill="white"/>
</g>
<path d="M83.1999 0.845947H0.399902V16.9569H83.1999V0.845947Z" fill="#BC0030"/>
<mask id="mask3_3147_6863" style="mask-type:luminance" maskUnits="userSpaceOnUse" x="0" y="0" width="84" height="50">
<path d="M83.1999 0.845947H0.399902V49.1541H83.1999V0.845947Z" fill="white"/>
</mask>
<g mask="url(#mask3_3147_6863)">
<path d="M83.2747 17.0312H0.32666V0.895508H83.2747V17.1545V17.0312ZM0.474688 16.8584H83.1267V0.895508H0.474688V16.8337V16.8584Z" fill="#BC0030"/>
<path d="M41.3323 32.6236C42.6746 32.6585 44.0162 32.5343 45.3292 32.2536C45.6993 32.2536 45.6993 31.9822 45.6993 31.7355C46.0694 31.6121 45.8966 31.168 46.1434 31.168C45.8966 31.168 45.8227 30.7239 45.5019 30.7979C45.5019 30.3538 45.0578 30.2798 44.6877 30.4031C43.5904 30.6705 42.4604 30.7785 41.3323 30.7239C40.2132 30.7523 39.0947 30.6446 38.0016 30.4031C37.6068 30.4031 37.1874 30.4031 37.1874 30.7979C36.8667 30.7979 36.7926 31.242 36.5459 31.168C36.7926 31.168 36.5459 31.6121 36.99 31.7355C37.4341 31.8588 36.99 32.1795 37.3847 32.2536C38.681 32.5346 40.0064 32.6588 41.3323 32.6236Z" fill="white"/>
<path d="M41.3322 32.7969C39.9885 32.8344 38.6456 32.7017 37.3353 32.4021C37.2651 32.4022 37.1956 32.3881 37.1311 32.3605C37.0665 32.3329 37.0083 32.2925 36.9598 32.2418C36.9114 32.191 36.8738 32.1309 36.8492 32.0652C36.8247 31.9994 36.8137 31.9294 36.8171 31.8593C36.7456 31.8083 36.6864 31.742 36.6437 31.6652C36.601 31.5883 36.576 31.5029 36.5704 31.4153C36.5336 31.397 36.5025 31.3689 36.4808 31.334C36.459 31.2992 36.4473 31.259 36.447 31.2179C36.447 31.2179 36.447 31.0945 36.6197 31.0945H36.7431C36.8292 30.9722 36.9493 30.8779 37.0885 30.8231C37.0885 30.4531 37.6313 30.305 38.1001 30.4531C38.9578 30.6507 39.8352 30.75 40.7153 30.7491H41.4062C42.5099 30.8103 43.6165 30.7021 44.6875 30.4284C45.181 30.2803 45.6251 30.4284 45.6991 30.8231C45.8389 30.8638 45.9608 30.9508 46.0446 31.0699C46.0821 31.0719 46.1183 31.0845 46.1489 31.1063C46.1795 31.1282 46.2032 31.1583 46.2172 31.1932C46.2324 31.2239 46.2404 31.2577 46.2404 31.2919C46.2404 31.3262 46.2324 31.3599 46.2172 31.3906C46.2055 31.4794 46.1753 31.5649 46.1286 31.6414C46.0818 31.7179 46.0196 31.7838 45.9458 31.8347C45.9458 32.0568 45.9458 32.3035 45.4524 32.3775C44.1336 32.6768 42.7826 32.8095 41.4309 32.7723L41.3322 32.7969ZM36.8418 31.2425C36.8418 31.3906 36.8418 31.4646 37.0145 31.4893C37.0255 31.5124 37.0311 31.5377 37.0311 31.5633C37.0311 31.5889 37.0255 31.6142 37.0145 31.6373C37.0145 31.884 37.0145 31.958 37.2859 32.0074C39.8862 32.5005 42.556 32.5005 45.1563 32.0074C45.4277 32.0074 45.4277 32.0074 45.4277 31.6373C45.4168 31.6142 45.411 31.5889 45.411 31.5633C45.411 31.5377 45.4168 31.5124 45.4277 31.4893C45.5511 31.4893 45.5757 31.4893 45.6004 31.2425V31.0945C45.6004 31.0945 45.6004 30.9465 45.4524 30.9465C45.3043 30.9465 45.329 30.9465 45.3043 30.9465C45.3043 30.9465 45.3043 30.6504 44.9836 30.6504H44.6875C43.5704 30.8974 42.4257 30.9969 41.2828 30.9465H40.6166C39.705 30.9514 38.7953 30.8605 37.9027 30.6751H37.6066C37.2859 30.6751 37.2859 30.8972 37.2859 30.9712C37.2859 30.9712 37.2859 30.9712 37.1625 30.9712C37.0392 30.9712 37.0391 30.9712 36.9651 31.1192V31.2672L36.8418 31.2425Z" fill="#F0C727"/>
<path d="M37.7543 31.2174C37.5816 31.2174 37.5815 31.094 37.5815 31.0693C37.5815 31.0447 37.5816 30.9459 37.7543 30.9459C37.7852 30.9508 37.8139 30.9653 37.836 30.9875C37.8582 31.0097 37.8728 31.0384 37.8777 31.0693C37.8777 31.0693 37.8776 31.2174 37.7543 31.2174Z" fill="#F0C727"/>
<path d="M37.7539 30.7979V30.9213C37.8773 30.9213 37.8773 30.7979 37.7539 30.7979Z" fill="#F4D134"/>
<path d="M37.7537 30.9956C37.7188 30.985 37.687 30.9659 37.6612 30.9401C37.6354 30.9143 37.6163 30.8825 37.6057 30.8476C37.6057 30.8476 37.6057 30.7241 37.7537 30.7241C37.7922 30.7226 37.83 30.7338 37.8613 30.7561C37.8925 30.7785 37.9155 30.8107 37.9265 30.8476C37.9205 30.889 37.8997 30.9268 37.868 30.954C37.8362 30.9812 37.7956 30.996 37.7537 30.9956Z" fill="#F0C727"/>
<path d="M37.7537 31.9577C37.7188 31.9471 37.687 31.928 37.6612 31.9022C37.6354 31.8764 37.6163 31.8446 37.6057 31.8097C37.6057 31.8097 37.6057 31.637 37.7537 31.637C37.9018 31.637 37.8771 31.7603 37.8771 31.8097C37.8771 31.859 37.8771 31.9577 37.7537 31.9577Z" fill="#F0C727"/>
<path d="M38.0013 32.0069C38.0013 32.0069 37.8286 32.0069 37.8286 31.8589C37.8286 31.7109 37.8286 31.7356 38.0013 31.7356C38.174 31.7356 38.1247 31.7355 38.1247 31.8589C38.1252 31.8942 38.113 31.9286 38.0904 31.9558C38.0678 31.9829 38.0362 32.001 38.0013 32.0069Z" fill="#F0C727"/>
<path d="M38.2476 31.8594V31.9828C38.2476 31.9828 38.3709 31.8594 38.2476 31.8594Z" fill="#F4D134"/>
<path d="M38.2474 32.0811C38.2474 32.0811 38.124 32.0811 38.124 31.9084C38.124 31.7357 38.1241 31.785 38.2474 31.785C38.3708 31.785 38.4202 31.785 38.4202 31.9084C38.4202 31.9542 38.4019 31.9981 38.3696 32.0305C38.3372 32.0629 38.2932 32.0811 38.2474 32.0811Z" fill="#F0C727"/>
<path d="M42.17 31.4399C42.1307 31.4399 42.0931 31.4242 42.0653 31.3965C42.0376 31.3687 42.022 31.3311 42.022 31.2918C42.022 31.2526 42.0376 31.2149 42.0653 31.1872C42.0931 31.1594 42.1307 31.1438 42.17 31.1438C42.17 31.1438 42.17 31.1438 42.17 31.2918C42.17 31.4399 42.17 31.4399 42.17 31.4399Z" fill="#F0C727"/>
<path d="M42.4169 32.3522C42.4169 32.3522 42.2935 32.2289 42.2935 32.1795C42.2935 32.1302 42.2935 32.0315 42.4169 32.0315C42.5402 32.0315 42.5402 32.0315 42.5402 32.1795C42.5402 32.3276 42.5402 32.3522 42.4169 32.3522Z" fill="#F0C727"/>
<path d="M42.6643 32.1055C42.5409 32.1055 42.5409 32.2535 42.6643 32.2535C42.7877 32.2535 42.6643 32.1055 42.6643 32.1055Z" fill="#F4D134"/>
<path d="M42.6637 32.3522C42.6179 32.3522 42.574 32.334 42.5416 32.3016C42.5092 32.2693 42.491 32.2253 42.491 32.1795C42.491 32.1795 42.491 32.0315 42.6637 32.0315C42.8364 32.0315 42.787 32.0315 42.787 32.1795C42.787 32.3276 42.7871 32.3522 42.6637 32.3522Z" fill="#F0C727"/>
<path d="M45.2548 31.7604C45.082 31.7604 45.082 31.7603 45.082 31.637C45.082 31.5136 45.082 31.637 45.2548 31.637C45.3029 31.6218 45.3546 31.6218 45.4028 31.637C45.4028 31.637 45.4028 31.7604 45.2548 31.7604Z" fill="#F0C727"/>
<path d="M38.5431 31.8588H38.3951H38.2224C38.1582 31.8795 38.0892 31.8795 38.025 31.8588C38.025 31.8588 37.8523 31.8588 37.8523 31.5874C37.9119 31.4262 37.9613 31.2614 38.0003 31.094V30.9459V31.1186C37.9613 31.2861 37.9119 31.4509 37.8523 31.6121H37.9756C37.9756 31.6121 37.9756 31.6121 37.9756 31.4887C37.9756 31.3654 37.9756 31.316 37.9756 31.2914C37.9756 31.2914 37.9756 31.4147 37.9756 31.4394C37.9756 31.4394 37.9756 31.4394 37.9756 31.2174C37.9756 31.2174 37.9756 31.2174 38.1237 31.2174C38.2717 31.2174 38.1237 31.3407 38.1237 31.3654C38.1218 31.4955 38.0686 31.6197 37.9756 31.7108L38.5431 31.8588Z" fill="#F0C727"/>
<path d="M37.9269 31.6863C37.7295 31.6863 37.6309 31.5383 37.6309 31.4149C37.6309 31.2916 37.6309 31.2422 37.8776 31.2176C37.8379 31.2024 37.7939 31.2024 37.7542 31.2176H37.9516L37.9269 31.6863Z" fill="#F0C727"/>
<path d="M40.2709 32.4021V32.2788C40.3942 32.2788 40.4435 32.1307 40.4682 32.0567C40.4551 32.0298 40.4483 32.0003 40.4483 31.9704C40.4483 31.9404 40.4551 31.9109 40.4682 31.884C40.4682 31.884 40.5916 31.884 40.6162 32.0567C40.6162 32.0567 40.6162 32.0567 40.6162 31.9333V31.7853C40.6162 31.7853 40.6163 31.7853 40.7396 31.7853C40.8821 31.8429 41.0413 31.8429 41.1837 31.7853C41.3318 31.7853 41.4058 31.7853 41.4058 32.032V32.1554C41.4058 32.2788 41.4058 32.3528 41.233 32.3775C41.1692 32.4 41.0996 32.4 41.0357 32.3775C41.0357 32.3775 41.0357 32.3775 40.9123 32.3775H40.4189C40.3525 32.5026 40.2599 32.612 40.1475 32.6982L40.2709 32.4021ZM40.8383 31.9087H41.085C41.3317 31.9087 41.3565 32.032 41.3565 32.106C41.3565 32.106 41.3565 32.1061 41.3565 31.9827C41.1943 32.0215 41.0252 32.0215 40.863 31.9827L40.8383 31.9087Z" fill="#F0C727"/>
<path d="M41.8007 32.0813H41.6279H41.5046C41.4838 32.0256 41.4838 31.9643 41.5046 31.9086C41.5374 31.8863 41.576 31.8744 41.6156 31.8744C41.6552 31.8744 41.6939 31.8863 41.7267 31.9086C41.7619 31.9288 41.7915 31.9573 41.813 31.9918C41.8345 32.0262 41.8473 32.0654 41.85 32.1059C41.85 32.2293 41.6526 32.328 41.5786 32.328L41.8007 32.0813Z" fill="#F0C727"/>
<path d="M43.0589 32.2536C43.1245 32.1918 43.1752 32.1159 43.207 32.0316C43.0589 32.0316 43.0342 31.8589 43.0342 31.8095C43.0169 31.7795 43.0078 31.7455 43.0078 31.7108C43.0078 31.6762 43.0169 31.6422 43.0342 31.6122C43.0342 31.6122 43.1823 31.6122 43.2563 31.7355C43.293 31.8438 43.2961 31.9606 43.2652 32.0706C43.2344 32.1807 43.1711 32.2789 43.0836 32.3523L43.0589 32.2536Z" fill="#F0C727"/>
<path d="M43.4783 32.1305C43.5189 32.14 43.5611 32.14 43.6016 32.1305C43.4783 32.1305 43.4043 32.1305 43.4043 32.1305C43.4043 32.1305 43.4043 31.9578 43.5276 31.8838C43.651 31.8098 43.651 31.8838 43.6757 31.8838C43.7003 31.8838 43.6757 31.8838 43.7991 32.1058C44.0599 32.0597 44.3104 31.9679 44.5392 31.8345H44.6626C44.6626 31.8345 44.6626 31.8344 44.6626 31.9578C44.3986 32.1115 44.1035 32.2043 43.7991 32.2292C43.7881 32.2867 43.7616 32.34 43.7224 32.3835C43.6833 32.427 43.633 32.4589 43.577 32.4759L43.4783 32.1305Z" fill="#F0C727"/>
<path d="M44.2428 31.9082C44.2208 31.8275 44.2208 31.7423 44.2428 31.6615H44.0701C44.0718 31.6044 44.086 31.5483 44.1116 31.4972C44.1371 31.4461 44.1735 31.4011 44.2181 31.3654V31.1187C44.2181 31.1187 44.2181 31.1187 44.2181 30.9954V31.242H44.3661C44.4125 31.2597 44.4531 31.2899 44.4835 31.329C44.514 31.3682 44.5331 31.4149 44.5388 31.4642C44.5611 31.4969 44.573 31.5355 44.573 31.5751C44.573 31.6147 44.5611 31.6535 44.5388 31.6862C44.5115 31.6977 44.4821 31.7037 44.4525 31.7037C44.4228 31.7037 44.3935 31.6977 44.3661 31.6862L44.2428 31.9082Z" fill="#F0C727"/>
<path d="M44.7113 31.7357C44.6611 31.733 44.613 31.715 44.5733 31.6841C44.5336 31.6533 44.5043 31.611 44.4893 31.563V31.4396C44.5584 31.3718 44.6515 31.3339 44.7483 31.3339C44.8452 31.3339 44.9382 31.3718 45.0074 31.4396C45.0251 31.4784 45.0343 31.5204 45.0343 31.563C45.0343 31.6056 45.0251 31.6477 45.0074 31.6864C44.9327 31.7559 44.8375 31.7992 44.736 31.8097L44.7113 31.7357Z" fill="#F0C727"/>
<path d="M45.2539 31.5137C45.1059 31.5137 45.0319 31.2422 45.0319 30.9462C45.0319 30.6501 45.0319 30.8228 45.0319 30.8228C45.0056 30.8077 44.9758 30.7997 44.9455 30.7997C44.9152 30.7997 44.8854 30.8077 44.8592 30.8228H44.7358C44.79 30.7846 44.8546 30.764 44.9208 30.764C44.9871 30.764 45.0518 30.7846 45.1059 30.8228C45.1553 30.8476 45.1959 30.8869 45.2223 30.9354C45.2488 30.9839 45.2598 31.0393 45.2539 31.0942C45.2539 31.3656 45.2539 31.489 45.402 31.5137C45.402 31.5137 45.5253 31.3656 45.55 31.5137C45.5747 31.6617 45.55 31.5137 45.55 31.6617C45.4817 31.7438 45.3846 31.7967 45.2786 31.8097L45.2539 31.5137Z" fill="#F0C727"/>
<path d="M41.4063 25.3945L46.8341 30.3289L46.464 21.1756C46.464 19.7939 45.1811 20.1146 44.3176 20.6081C43.8698 20.8715 43.3667 21.0265 42.8483 21.0608C42.3299 21.0951 41.8108 21.0077 41.3323 20.8055C40.8579 21.0075 40.3427 21.0948 39.8283 21.0605C39.314 21.0262 38.8149 20.8712 38.3716 20.6081C37.508 20.1146 36.2991 19.7939 36.2251 21.1756L35.8303 30.5017L41.4063 25.3945Z" fill="white"/>
<path d="M35.8303 30.5025L36.2251 21.3491C36.2251 20.4609 36.7432 20.2635 37.1379 20.2635C37.6176 20.3094 38.0811 20.461 38.495 20.7076C38.9277 20.9626 39.4139 21.1131 39.9149 21.1473C40.416 21.1816 40.9182 21.0986 41.3816 20.905C41.8572 21.1013 42.3716 21.1856 42.885 21.1513C43.3983 21.1171 43.8969 20.9653 44.3423 20.7076C44.7488 20.4645 45.2035 20.3129 45.6746 20.2635C46.094 20.2635 46.5874 20.4609 46.6121 21.3491L47.0068 30.5025L41.6283 25.5681L36.1264 30.5025H35.8303ZM37.0639 20.3376C36.5952 20.3376 36.3485 20.6336 36.3238 21.2504L35.9537 30.2312L41.357 25.2967C41.357 25.2967 41.3569 25.2967 41.4803 25.2967L46.7601 30.2312L46.3654 21.2504C46.3654 20.2142 45.5265 20.0908 44.3669 20.7569C43.9093 21.0305 43.3931 21.1912 42.8611 21.2255C42.3291 21.2598 41.7965 21.1669 41.3076 20.9544C40.8304 21.1625 40.3103 21.2531 39.7909 21.2188C39.2715 21.1845 38.7679 21.026 38.3222 20.7569C37.9392 20.5253 37.5093 20.3821 37.0639 20.3376Z" fill="#F0C727"/>
<path d="M42.2204 21.2005C42.4808 21.3286 42.7695 21.388 43.0593 21.3732C42.7766 21.0973 42.5608 20.7606 42.4282 20.3885C42.2957 20.0165 42.2499 19.6191 42.2945 19.2267C42.4178 18.2151 42.2945 17.6723 41.5296 17.5243C41.3818 17.514 41.2334 17.514 41.0855 17.5243C40.9128 17.5243 40.7401 17.6724 40.6908 17.7957C40.6414 17.9191 40.3207 17.7957 40.148 17.5983C39.9753 17.4009 39.6299 17.5984 39.6299 18.0425H39.7532L40.0493 18.1905C40.1762 18.2544 40.2854 18.3486 40.3672 18.4648C40.4489 18.581 40.5007 18.7156 40.518 18.8566C40.6197 19.3359 40.5908 19.8336 40.4346 20.298C40.2784 20.7623 40.0005 21.1762 39.6299 21.4966C39.9119 21.5141 40.1934 21.4544 40.444 21.3238C40.3574 21.4564 40.2583 21.5803 40.148 21.6939C40.3204 21.6845 40.4882 21.6349 40.6381 21.5493C40.788 21.4636 40.9159 21.3442 41.0115 21.2005C41.0115 21.3239 41.2829 21.4966 41.3323 21.6446C41.3816 21.7926 41.6036 21.3239 41.6776 21.2005C41.7733 21.3442 41.9012 21.4636 42.0511 21.5493C42.201 21.6349 42.3688 21.6845 42.5412 21.6939C42.4223 21.5815 42.3148 21.4575 42.2204 21.3238V21.2005Z" fill="white"/>
<path d="M39.9012 21.6939L40.0986 21.5211C40.1264 21.4686 40.1693 21.4256 40.2219 21.3978C40.0258 21.4296 39.8259 21.4296 39.6298 21.3978H39.4324L39.5805 21.2498C39.9186 20.9431 40.1748 20.5568 40.3256 20.1259C40.4764 19.695 40.5171 19.2332 40.4439 18.7825C40.4369 18.6703 40.4016 18.5616 40.3412 18.4667C40.2808 18.3718 40.1973 18.2937 40.0986 18.2398L39.8518 18.1164H39.6545V17.993C39.6545 17.4749 40.0246 17.4009 40.2713 17.4749C40.3528 17.4909 40.4365 17.4909 40.518 17.4749H40.7647C40.8001 17.4128 40.8501 17.3602 40.9102 17.3216C40.9704 17.2829 41.0389 17.2594 41.1101 17.2529C41.2408 17.2303 41.3743 17.2303 41.5049 17.2529C42.1957 17.4009 42.4671 17.993 42.3438 19.0539C42.3112 19.4264 42.3581 19.8017 42.4815 20.1547C42.6048 20.5077 42.8017 20.8306 43.0592 21.1017L43.2813 21.2745H43.0346C42.8384 21.305 42.6386 21.305 42.4424 21.2745C42.4424 21.2745 42.4424 21.2744 42.5658 21.3978L42.7385 21.5705H42.4918C42.1657 21.5352 41.8655 21.3763 41.6529 21.1264V21.2745L41.5049 21.4718L41.3569 21.2745L41.2335 21.1264C41.0209 21.3763 40.7207 21.5352 40.3946 21.5705H40.1233L39.9012 21.6939ZM41.6529 20.929C41.7191 21.0321 41.8058 21.1204 41.9077 21.1883C42.0096 21.2563 42.1245 21.3024 42.245 21.3238L42.097 21.1511V21.0277C42.2711 21.1264 42.4649 21.1854 42.6645 21.2005C42.4301 20.9128 42.2548 20.5815 42.149 20.2259C42.0431 19.8702 42.0087 19.4971 42.0477 19.128C42.0477 18.1658 41.9243 17.623 41.3569 17.4996C41.3569 17.4996 41.3569 17.4996 41.1842 17.4996H41.0114C40.9429 17.5052 40.8764 17.5257 40.8167 17.5599C40.757 17.594 40.7056 17.6407 40.666 17.697C40.5854 17.6737 40.4999 17.6737 40.4193 17.697C40.3214 17.7145 40.2212 17.7145 40.1233 17.697C40.1233 17.697 39.8025 17.697 39.7531 17.9437C39.8699 17.9522 39.9815 17.9951 40.0739 18.067H40.1973C40.3174 18.1276 40.4195 18.2188 40.4931 18.3315C40.5668 18.4441 40.6094 18.5742 40.6167 18.7085C40.6895 19.1509 40.6584 19.6042 40.5256 20.0325C40.3929 20.4608 40.1622 20.8522 39.8518 21.1758C40.0612 21.1727 40.2658 21.113 40.4439 21.003V21.1264L40.2959 21.2991C40.4165 21.2777 40.5313 21.2316 40.6332 21.1636C40.7351 21.0957 40.822 21.0074 40.8881 20.9043C40.9487 20.9702 40.9986 21.0452 41.0361 21.1264C41.0466 21.1669 41.0466 21.2093 41.0361 21.2498V21.1264L41.2088 20.9043L41.6529 20.929Z" fill="#F0C727"/>
<path d="M42.2698 21.3488C42.045 20.9482 41.9181 20.5001 41.8997 20.0411H42.0724C42.07 20.4688 42.1899 20.8882 42.4178 21.2501L42.2698 21.3488Z" fill="#F0C727"/>
<path d="M41.6766 21.1514C41.4989 20.8009 41.422 20.408 41.4545 20.0165H41.6273C41.6098 20.3703 41.6687 20.7237 41.8 21.0527L41.6766 21.1514Z" fill="#F0C727"/>
<path d="M40.4187 21.3489C40.6363 20.9825 40.7553 20.5659 40.7641 20.1399H40.9368C40.9297 20.6006 40.8021 21.0514 40.5667 21.4475L40.4187 21.3489Z" fill="#F0C727"/>
<path d="M41.0115 21.1514C41.1689 20.8299 41.237 20.4721 41.2088 20.1152H41.3815C41.4062 20.5038 41.3386 20.8927 41.1842 21.2501L41.0115 21.1514Z" fill="#F0C727"/>
<path d="M39.679 17.9191C39.8138 17.9324 39.9422 17.9837 40.049 18.0671C40.1722 18.1229 40.2796 18.2085 40.3615 18.3162C40.4433 18.4239 40.497 18.5503 40.5178 18.6839C40.5178 18.4619 40.5178 18.2891 40.7152 18.3632C40.6285 18.1736 40.4744 18.0232 40.2828 17.9411C40.0913 17.859 39.876 17.8512 39.679 17.9191Z" fill="#F0C727"/>
<path d="M40.5173 18.7084C40.4865 18.5979 40.4334 18.4949 40.3613 18.4058C40.2891 18.3167 40.1995 18.2434 40.0979 18.1903C40.0979 18.1903 39.9498 18.1903 39.8512 18.1903C39.8711 18.1495 39.9031 18.1157 39.9428 18.0937C39.9825 18.0716 40.028 18.0622 40.0732 18.0669C40.2479 18.0638 40.4199 18.1111 40.5686 18.2029C40.7173 18.2948 40.8365 18.4274 40.912 18.585C40.8712 18.605 40.8376 18.6369 40.8155 18.6767C40.7935 18.7164 40.7841 18.7619 40.7887 18.8071L40.5173 18.7084ZM39.8018 17.9188H39.9745C40.1554 17.9985 40.3034 18.1379 40.3939 18.3136C40.4127 18.3028 40.434 18.2971 40.4556 18.2971C40.4773 18.2971 40.4985 18.3028 40.5173 18.3136C40.4204 18.1794 40.2889 18.0741 40.1368 18.0089C39.9847 17.9438 39.8178 17.9211 39.6538 17.9435L39.8018 17.9188Z" fill="#F0C727"/>
<path d="M41.6033 26.4069L42.3681 29.861L42.0967 30.1077L41.85 29.9103L41.4306 26.8263L41.6033 29.9103L41.3565 30.2557L41.1098 29.9103L41.2825 26.8263L40.8631 29.9103L40.5917 30.1077L40.345 29.861L41.1098 26.4069H41.6033Z" fill="#F0C727"/>
<path d="M41.3322 30.3297L41.0361 29.9597V28.4793L40.8387 29.9104L40.5426 30.157L40.1973 29.8857L40.9374 26.3575H41.5295L42.3437 29.8857L42.0723 30.2064L41.7269 30.009L41.5049 28.4793V29.9597L41.1594 30.3791L41.3322 30.3297ZM41.3322 26.8756L41.1594 29.9104L41.3322 30.1077L41.5295 29.861L41.3322 26.8756ZM41.5295 26.4069H41.0854L40.3946 29.8116L40.6413 30.009L40.7894 29.7869L41.2088 26.7523H41.4802L41.9243 29.8363L42.1463 29.9844L42.319 29.7376L41.5295 26.3575V26.4069Z" fill="#F0C727"/>
<path d="M36.8666 20.9291L36.4965 29.8358L35.8303 30.4032L36.2251 21.2498C36.4172 21.1042 36.6348 20.9954 36.8666 20.9291Z" fill="#F0C727"/>
<path d="M37.606 21.5707L37.31 28.9724L36.6685 29.6385L37.0386 21.028L37.606 21.5214V21.5707Z" fill="#F0C727"/>
<path d="M38.3212 22.1384L38.0498 28.3558L37.5564 28.8739L37.8771 21.7683L38.3212 22.1384Z" fill="#F0C727"/>
<path d="M39.0614 22.4589L38.8147 27.7635L38.3213 28.1582L38.568 22.2616C38.7234 22.3483 38.8892 22.4146 39.0614 22.4589Z" fill="#F0C727"/>
<path d="M39.7526 22.4591L39.5799 26.9001L39.0618 27.3689L39.2592 22.4344C39.2592 22.4344 39.7032 22.4344 39.7526 22.4344V22.4591Z" fill="#F0C727"/>
<path d="M45.9463 20.9291L46.3411 29.8358L46.9579 30.4032L46.5878 21.2498C46.393 21.1085 46.1762 21.0001 45.9463 20.9291Z" fill="#F0C727"/>
<path d="M45.0566 21.5707L45.3773 28.9724L46.0188 29.5398L45.6488 21.028L45.0566 21.5214V21.5707Z" fill="#F0C727"/>
<path d="M44.3662 22.1384L44.6376 28.3558L45.1311 28.7506L44.8104 21.7683L44.3662 22.1384Z" fill="#F0C727"/>
<path d="M43.626 22.4589L43.8727 27.6648L44.3661 28.0842L44.1195 22.2616C43.9641 22.3483 43.7982 22.4146 43.626 22.4589Z" fill="#F0C727"/>
<path d="M42.9353 22.4591L43.108 26.9001L43.6261 27.3689L43.4288 22.4344C43.3054 22.4344 42.9846 22.4344 42.9353 22.4344V22.4591Z" fill="#F0C727"/>
<path d="M39.6537 24.8768L38.124 30.2554L40.2212 30.5514L41.1094 26.5052L39.6537 24.8768Z" fill="white"/>
<path d="M40.1966 30.6255L38.124 30.3049L39.6291 24.9263L41.0847 26.5793L40.2212 30.6749L40.1966 30.6255ZM38.2227 30.1568L40.1225 30.4529L41.0107 26.4806L39.6784 25.0003L38.2227 30.1568Z" fill="#F0C727"/>
<path d="M43.0587 24.8768L44.5637 30.2554L42.4912 30.5514L41.603 26.5052L43.0587 24.8768Z" fill="white"/>
<path d="M42.4666 30.6254L41.5537 26.5792L43.0341 24.8768L44.539 30.2554L42.4666 30.5761V30.6254ZM43.0094 25.0249L41.6524 26.5545L42.5406 30.4528L44.465 30.1566L43.0094 25.0249Z" fill="#F0C727"/>
<path d="M39.3082 27.1958L39.1355 26.7517L39.2835 27.0724L39.7523 26.5543L39.1849 27.1958H39.3082Z" fill="#F0C727"/>
<path d="M40.0236 27.591L39.8262 25.8146L39.9989 27.3689L40.517 26.7027L39.9002 27.5416L40.0236 27.591Z" fill="#F0C727"/>
<path d="M40.7651 28.0354L40.395 27.0731L40.7898 28.0107C40.7898 28.0107 40.7898 28.0107 40.7898 28.1341L40.7651 28.0354Z" fill="#F0C727"/>
<path d="M40.3939 29.9345L40.2212 29.1697L39.8511 29.6632L39.6537 29.0464L39.2836 29.4905L38.8889 28.5529V28.4296L39.2343 29.2437L39.5797 28.7749L39.7771 29.3917L40.1718 28.849L40.3446 29.8112L40.3939 29.9345Z" fill="#F0C727"/>
<path d="M43.4774 27.1958L42.9099 26.5543H43.0333L43.5267 27.0724L43.6501 26.7517L43.4774 27.1958Z" fill="#F0C727"/>
<path d="M42.6642 27.5906L42.0474 26.7518C42.0474 26.7518 42.0473 26.7518 42.1707 26.7518L42.6888 27.4179L42.8368 25.8635L42.6642 27.6399V27.5906Z" fill="#F0C727"/>
<path d="M41.9233 28.035C41.9233 28.035 41.9233 28.035 41.9233 27.9117L42.3181 26.9741L41.948 27.9363L41.9233 28.035Z" fill="#F0C727"/>
<path d="M42.4661 28.7748L41.9727 28.2567H42.096L42.4908 28.6762L42.6881 27.7879L42.9842 28.232L43.1816 27.7633L43.749 28.2814V28.4047L43.2803 27.9607L43.0582 28.5034L42.7868 28.1087L42.5895 28.9228L42.4661 28.7748Z" fill="#F0C727"/>
<path d="M42.2935 29.9347L42.4662 28.9725L42.8856 29.4906L43.083 28.8738L43.4284 29.3426L43.7491 28.5284H43.9218L43.5271 29.4659L43.1817 29.0218L42.9843 29.6386L42.6142 29.1452L42.4415 29.9101L42.2935 29.9347Z" fill="#F0C727"/>
<path d="M42.7871 30.6255L42.417 30.3048L42.713 30.5515L42.9104 29.91L43.1818 30.4034L43.4532 29.7373L43.8479 30.2554C43.8479 30.2554 43.8479 30.2554 43.8479 30.3788L43.5766 29.984L43.4779 30.5021L43.2065 30.0334L43.0091 30.6255H42.7871Z" fill="#F0C727"/>
<path d="M41.3316 21.7683C42.0339 22.3087 42.9181 22.5562 43.7989 22.4591C44.1443 22.9083 44.3571 23.4454 44.4131 24.0093C44.4691 24.5732 44.3661 25.1415 44.1158 25.6499C43.8654 26.1583 43.4777 26.5864 42.9965 26.8858C42.5154 27.1852 41.96 27.3439 41.3933 27.3439C40.8266 27.3439 40.2712 27.1852 39.7901 26.8858C39.3089 26.5864 38.9212 26.1583 38.6708 25.6499C38.4205 25.1415 38.3175 24.5732 38.3735 24.0093C38.4295 23.4454 38.6423 22.9083 38.9878 22.4591C39.8689 22.5615 40.7551 22.3134 41.455 21.7683H41.3316Z" fill="white"/>
<path d="M41.3317 27.3932C40.5188 26.8644 39.8616 26.1284 39.4279 25.261C38.9943 24.3937 38.7997 23.4263 38.8644 22.4588C38.9704 22.4381 39.0793 22.4381 39.1852 22.4588C39.9422 22.4717 40.6812 22.2282 41.2823 21.7679C41.9999 22.2769 42.8719 22.5211 43.7495 22.4588C43.8276 23.4281 43.639 24.4003 43.2041 25.2701C42.7693 26.1399 42.1046 26.8741 41.2823 27.3932H41.3317ZM38.8644 22.4588C38.8438 23.3888 39.0593 24.3089 39.4907 25.133C39.9222 25.9571 40.5556 26.6583 41.3317 27.1712C42.1118 26.6529 42.7399 25.9365 43.1518 25.0954C43.5637 24.2543 43.7444 23.3188 43.6755 22.3848C43.6755 22.3848 43.6755 22.3848 43.4781 22.3848C42.6945 22.3976 41.9294 22.1456 41.307 21.6693C40.7207 22.1594 39.9734 22.4143 39.2098 22.3848H38.9385L38.8644 22.4588Z" fill="#F0C727"/>
<path d="M41.3315 27.0728C42.028 26.5713 42.5903 25.9061 42.9689 25.1359C43.3476 24.3658 43.5309 23.5143 43.5027 22.6565C42.7268 22.6986 41.96 22.4721 41.3315 22.015C40.6937 22.472 39.9192 22.6983 39.1357 22.6565C39.1289 23.5134 39.3242 24.3598 39.7057 25.1271C40.0872 25.8944 40.6442 26.561 41.3315 27.0728Z" fill="#F0C727"/>
<path d="M39.1846 30.231C39.6927 30.2916 40.2062 30.2916 40.7143 30.231C40.961 30.231 41.1337 30.6751 40.7143 30.7491C40.2064 30.8131 39.6925 30.8131 39.1846 30.7491C38.6925 30.6767 38.2061 30.5695 37.729 30.4284C37.2849 30.2557 37.729 29.8609 37.8523 29.9349C38.3043 30.076 38.7661 30.1832 39.234 30.2557L39.1846 30.231Z" fill="white"/>
<path d="M40.2212 30.8971C39.8518 30.9282 39.4805 30.9282 39.111 30.8971C38.815 30.8971 38.0995 30.7244 37.6554 30.6011C37.2113 30.4777 37.3593 30.2803 37.3839 30.2063C37.4012 30.1214 37.4478 30.0453 37.5154 29.9912C37.583 29.9372 37.6674 29.9085 37.754 29.9102C38.2286 30.0606 38.7158 30.168 39.2097 30.231C39.7093 30.2942 40.215 30.2942 40.7147 30.231C40.8006 30.236 40.882 30.2707 40.945 30.3292C41.0081 30.3878 41.0488 30.4664 41.0601 30.5517C41.0601 30.6997 41.0601 30.8478 40.6653 30.8971H40.2212ZM37.754 29.9842C37.7031 29.9833 37.6531 29.9967 37.6094 30.0229C37.5658 30.049 37.5304 30.087 37.5073 30.1323C37.5073 30.1323 37.5073 30.3049 37.68 30.3296C38.1573 30.4637 38.6439 30.5626 39.1356 30.6257C39.626 30.7037 40.1256 30.7037 40.616 30.6257C40.764 30.6257 40.8627 30.6257 40.8627 30.4283C40.8568 30.3869 40.8359 30.3491 40.8042 30.3219C40.7724 30.2946 40.7318 30.2799 40.69 30.2803C40.182 30.343 39.6683 30.343 39.1603 30.2803C38.683 30.2152 38.2124 30.1079 37.754 29.9595V29.9842Z" fill="#F0C727"/>
<path d="M43.4777 30.231C42.9696 30.2916 42.4561 30.2916 41.948 30.231C41.7013 30.231 41.5039 30.6751 41.948 30.7491C42.4559 30.8124 42.9697 30.8124 43.4777 30.7491C43.9698 30.6767 44.4562 30.5695 44.9333 30.4284C45.3774 30.2557 45.0567 29.8609 44.81 29.9349C44.358 30.076 43.8962 30.1832 43.4283 30.2557L43.4777 30.231Z" fill="white"/>
<path d="M42.467 30.8967H42.0229C41.7269 30.8967 41.6282 30.6993 41.6282 30.5513C41.6395 30.466 41.6802 30.3874 41.7432 30.3289C41.8063 30.2703 41.8877 30.2356 41.9736 30.2306C42.4732 30.2946 42.979 30.2946 43.4786 30.2306C43.9458 30.1658 44.4075 30.0668 44.8602 29.9345C44.9073 29.9197 44.9569 29.9151 45.0058 29.9211C45.0548 29.9271 45.1019 29.9435 45.1439 29.9693C45.186 29.995 45.2221 30.0294 45.2498 30.0702C45.2775 30.111 45.296 30.1573 45.3043 30.2059C45.3043 30.2059 45.3043 30.4773 45.033 30.6007C44.7616 30.724 43.8734 30.8474 43.5773 30.8967C43.2078 30.9267 42.8365 30.9267 42.467 30.8967ZM41.9736 30.3786C41.9736 30.3786 41.8009 30.3786 41.8009 30.5267C41.8009 30.6747 41.8009 30.6993 42.0476 30.724C42.5464 30.801 43.0539 30.801 43.5526 30.724C44.0358 30.6583 44.5139 30.5594 44.9836 30.4279C44.9836 30.4279 45.1563 30.428 45.1563 30.2306C45.1374 30.1872 45.1064 30.1502 45.067 30.1239C45.0276 30.0977 44.9816 30.0833 44.9342 30.0825C44.4665 30.2272 43.988 30.3345 43.5033 30.4033C42.9953 30.4652 42.4816 30.4652 41.9736 30.4033V30.3786Z" fill="#F0C727"/>
<path d="M37.6064 29.9841C37.5299 29.9747 37.4523 29.9866 37.3821 30.0184C37.3119 30.0502 37.2519 30.1008 37.2086 30.1646C37.1652 30.2283 37.1403 30.3027 37.1365 30.3797C37.1327 30.4566 37.1502 30.5332 37.187 30.6009C37.187 30.4775 37.5077 30.4775 37.5571 30.3541C37.6064 30.2308 37.5571 30.1568 37.5571 29.9841H37.6064Z" fill="white"/>
<path d="M37.186 30.6749C37.138 30.597 37.1125 30.5073 37.1125 30.4158C37.1125 30.3243 37.138 30.2346 37.186 30.1567C37.232 30.0935 37.291 30.0409 37.3591 30.0026C37.4273 29.9643 37.5028 29.9411 37.5807 29.9347H37.7041C37.7041 29.9347 37.7041 29.9347 37.7041 30.0827C37.7127 30.1565 37.7127 30.2311 37.7041 30.3048C37.7041 30.3048 37.5561 30.4281 37.4821 30.4775H37.3341L37.186 30.6749ZM37.4821 30.0581C37.4003 30.0815 37.33 30.1342 37.2847 30.2061C37.2626 30.2869 37.2626 30.3721 37.2847 30.4529H37.4081H37.5314C37.5314 30.4529 37.5314 30.4529 37.5314 30.3048L37.4821 30.0581Z" fill="#F0C727"/>
<path d="M39.1353 31.1435C39.1353 30.8721 39.3821 30.9215 39.3821 30.6748C39.3821 30.428 39.3821 30.354 39.1847 30.354C39.1212 30.3596 39.0616 30.3873 39.0164 30.4325C38.9713 30.4776 38.9435 30.5372 38.938 30.6007C38.938 30.8475 39.1353 30.8721 39.1353 31.1435Z" fill="white"/>
<path d="M39.1361 31.2175C39.1497 31.1863 39.1567 31.1527 39.1567 31.1188C39.1567 31.0848 39.1497 31.0512 39.1361 31.02C39.1036 30.9638 39.0866 30.9 39.0866 30.835C39.0866 30.7701 39.1036 30.7062 39.1361 30.65C39.1419 30.5668 39.1775 30.4885 39.2365 30.4296C39.2954 30.3706 39.3737 30.335 39.4569 30.3292C39.6542 30.3292 39.7529 30.576 39.7529 30.7487C39.7482 30.8078 39.7303 30.8652 39.7004 30.9164C39.6705 30.9677 39.6295 31.0115 39.5803 31.0447C39.5672 31.0716 39.5603 31.1012 39.5603 31.1311C39.5603 31.161 39.5672 31.1906 39.5803 31.2175H39.1361ZM39.1361 30.4279C39.1361 30.4279 38.9881 30.428 38.9881 30.6007C38.9658 30.6334 38.9539 30.672 38.9539 30.7116C38.9539 30.7512 38.9658 30.79 38.9881 30.8227C38.9881 30.8227 38.9881 30.8227 38.9881 30.65C38.9881 30.4773 38.9881 30.4032 38.8647 30.4032L39.1361 30.4279Z" fill="#F0C727"/>
<path d="M41.0106 30.5023C41.3807 30.5023 41.356 31.0204 41.1586 31.2672C41.1586 31.0944 40.8379 31.0204 40.8379 30.8971C40.8379 30.7737 41.134 30.6997 41.0106 30.5023Z" fill="white"/>
<path d="M41.0102 31.2422C41.0102 31.2422 41.0102 31.2422 40.8622 31.0942C40.7141 30.9461 40.6895 31.0942 40.6895 30.8721C40.6911 30.8218 40.7056 30.7728 40.7315 30.7296C40.7574 30.6864 40.7939 30.6505 40.8375 30.6254C40.8375 30.6254 40.8375 30.6254 40.8375 30.4774C40.9049 30.4722 40.9723 30.4886 41.0299 30.524C41.0875 30.5595 41.1324 30.6123 41.1582 30.6748C41.2106 30.7824 41.2378 30.9005 41.2378 31.0202C41.2378 31.1398 41.2106 31.258 41.1582 31.3656L41.0102 31.2422ZM41.0102 30.5268C41.0254 30.5749 41.0254 30.6266 41.0102 30.6748C41.0102 30.6748 41.0102 30.6748 41.0102 30.7981L41.1582 30.9215C41.1952 30.7925 41.1952 30.6557 41.1582 30.5268H41.0102Z" fill="#F0C727"/>
<path d="M45.0566 29.9842C45.135 29.9694 45.216 29.9772 45.2901 30.0068C45.3642 30.0364 45.4283 30.0865 45.475 30.1512C45.5216 30.216 45.5488 30.2927 45.5534 30.3724C45.5579 30.4521 45.5397 30.5314 45.5007 30.6011C45.5007 30.4777 45.18 30.4777 45.1307 30.3543C45.0813 30.231 45.1307 30.157 45.1307 29.9842H45.0566Z" fill="white"/>
<path d="M45.5003 30.6749H45.3522C45.3522 30.6749 45.1795 30.6749 45.1302 30.5022C45.1089 30.4297 45.1089 30.3526 45.1302 30.2801C45.1385 30.2311 45.1385 30.1811 45.1302 30.1321C45.2284 30.1208 45.3278 30.1353 45.4187 30.1742C45.5096 30.2131 45.5888 30.2752 45.6483 30.3542C45.6894 30.4343 45.7109 30.5231 45.7109 30.6132C45.7109 30.7033 45.6894 30.7921 45.6483 30.8722L45.5003 30.6749ZM45.2042 30.0581V30.2061C45.191 30.2462 45.191 30.2894 45.2042 30.3295H45.3522C45.37 30.2908 45.3791 30.2487 45.3791 30.2061C45.3791 30.1635 45.37 30.1214 45.3522 30.0827C45.3307 30.0462 45.3022 30.0144 45.2684 29.989C45.2345 29.9636 45.1959 29.9451 45.1548 29.9347L45.2042 30.0581Z" fill="#F0C727"/>
<path d="M43.4779 31.1435C43.4779 30.8721 43.2312 30.9215 43.2312 30.6748C43.2312 30.428 43.2312 30.354 43.4286 30.354C43.4922 30.3596 43.5517 30.3873 43.5968 30.4325C43.6419 30.4776 43.6697 30.5372 43.6753 30.6007C43.6753 30.8475 43.4779 30.8721 43.4779 31.1435Z" fill="white"/>
<path d="M43.4774 31.2175C43.4774 31.2175 43.4774 31.0941 43.4774 31.0447C43.4282 31.0115 43.3871 30.9677 43.3572 30.9164C43.3273 30.8652 43.3094 30.8078 43.3047 30.7487C43.3047 30.576 43.3047 30.3292 43.6007 30.3292C43.6904 30.335 43.775 30.3733 43.8386 30.4369C43.9022 30.5005 43.9404 30.585 43.9462 30.6747C43.9707 30.7289 43.9834 30.7878 43.9834 30.8474C43.9834 30.907 43.9707 30.9658 43.9462 31.02C43.9326 31.0512 43.9256 31.0848 43.9256 31.1188C43.9256 31.1527 43.9326 31.1863 43.9462 31.2175H43.4774ZM43.4774 30.4279C43.4774 30.4279 43.3541 30.4279 43.3541 30.6747C43.3541 30.9214 43.3541 30.7981 43.3541 30.8474C43.3742 30.8184 43.385 30.784 43.385 30.7487C43.385 30.7134 43.3742 30.6789 43.3541 30.65C43.3541 30.65 43.3541 30.4526 43.2061 30.4526L43.4774 30.4279Z" fill="#F0C727"/>
<path d="M41.7518 30.5023C41.3817 30.5023 41.4064 31.0204 41.6037 31.2672C41.6037 31.0944 41.9245 31.0204 41.9245 30.8971C41.9245 30.7737 41.6284 30.6997 41.7518 30.5023Z" fill="white"/>
<path d="M41.6025 31.2425C41.5442 31.1367 41.5137 31.0179 41.5137 30.8971C41.5137 30.7763 41.5442 30.6574 41.6025 30.5517C41.6283 30.4891 41.6733 30.4364 41.7309 30.401C41.7885 30.3655 41.8558 30.3492 41.9233 30.3543C41.9233 30.5023 42.096 30.5763 42.096 30.6997C42.096 30.823 42.096 30.8478 41.9233 30.9218C41.7506 30.9958 41.7752 30.9218 41.7752 31.0698L41.6025 31.2425ZM41.6025 30.527C41.5721 30.5884 41.5563 30.6559 41.5563 30.7244C41.5563 30.7929 41.5721 30.8605 41.6025 30.9218L41.7259 30.7984C41.7259 30.7984 41.7259 30.7984 41.7259 30.6751C41.6965 30.6599 41.6704 30.639 41.6492 30.6136C41.628 30.5881 41.6121 30.5587 41.6025 30.527Z" fill="#F0C727"/>
<path d="M37.7539 30.1075C37.8874 30.1075 38.0172 30.1509 38.124 30.231L37.7539 30.1075Z" fill="white"/>
<path d="M38.124 30.2805L37.7539 30.1571C37.9092 30.1658 38.057 30.2267 38.1734 30.3298L38.124 30.2805Z" fill="#F0C727"/>
<path d="M38.8154 30.502L38.3467 30.3787C38.3467 30.3787 38.6921 30.3787 38.8648 30.3787L38.8154 30.502Z" fill="#F0C727"/>
<path d="M40.666 30.5021C40.511 30.4739 40.3522 30.4739 40.1973 30.5021H40.666Z" fill="white"/>
<path d="M39.9497 30.5021C39.8814 30.4654 39.8052 30.4462 39.7277 30.4462C39.6502 30.4462 39.5739 30.4654 39.5056 30.5021H39.9497Z" fill="white"/>
<path d="M39.9497 30.5023H39.5056C39.5811 30.4481 39.6717 30.4189 39.7646 30.4189C39.8576 30.4189 39.9482 30.4481 40.0237 30.5023H39.9497Z" fill="#F0C727"/>
<path d="M44.9345 30.1075C44.8011 30.1075 44.6712 30.1509 44.5645 30.231L44.9345 30.1075Z" fill="white"/>
<path d="M44.5645 30.2804C44.6774 30.1911 44.8154 30.1393 44.9592 30.1323L44.5891 30.2557L44.5645 30.2804Z" fill="#F0C727"/>
<path d="M43.8726 30.502C43.8726 30.502 44.3907 30.3047 44.3907 30.502L43.9466 30.6254L43.8726 30.502Z" fill="#F0C727"/>
<path d="M42.022 30.5023C42.1684 30.4717 42.3196 30.4717 42.4661 30.5023H42.022Z" fill="white"/>
<path d="M42.4661 30.6503H42.022C42.1844 30.6133 42.353 30.6133 42.5154 30.6503H42.4661Z" fill="#F0C727"/>
<path d="M43.1826 30.5023H42.6646C42.74 30.4481 42.8306 30.4189 42.9236 30.4189C43.0165 30.4189 43.1071 30.4481 43.1826 30.5023Z" fill="#F0C727"/>
<path d="M42.2197 18.166C42.1677 18.0139 42.0801 17.8763 41.9643 17.7647C41.8484 17.6532 41.7076 17.5708 41.5536 17.5245H41.0108C40.8381 17.5245 40.6654 17.6972 40.616 17.8206C40.5667 17.944 40.8381 18.092 40.9368 18.1413C41.0355 18.1907 41.2329 18.1414 41.4303 17.944C41.4912 17.8966 41.5628 17.865 41.6389 17.8519C41.715 17.8389 41.7931 17.8448 41.8664 17.8692C41.9396 17.8936 42.0056 17.9357 42.0587 17.9918C42.1117 18.0479 42.1501 18.1163 42.1704 18.1907L42.2197 18.166Z" fill="#F0C727"/>
<path d="M41.0102 18.166C41.0102 18.166 41.0102 18.166 40.8869 18.166C40.8245 18.0882 40.7493 18.0215 40.6648 17.9687C40.6648 17.8453 40.8375 17.5985 41.0595 17.5985H41.2322C41.3624 17.5712 41.4968 17.5712 41.627 17.5985C41.7688 17.6328 41.9006 17.6998 42.012 17.7941C42.1233 17.8883 42.2112 18.0072 42.2685 18.1413C42.0218 17.9933 41.701 17.8946 41.553 18.1413C41.405 18.388 41.3063 18.3633 41.1582 18.3633L41.0102 18.166ZM41.0102 17.5492C40.9309 17.5484 40.8531 17.5714 40.7871 17.6155C40.7211 17.6595 40.6699 17.7224 40.6401 17.7959C40.721 17.8335 40.7895 17.8935 40.8375 17.9687H40.9609C41.1089 17.9687 41.1829 17.9686 41.3803 17.7959C41.4695 17.7298 41.5776 17.6941 41.6887 17.6941C41.7997 17.6941 41.9078 17.7298 41.9971 17.7959C41.8647 17.6516 41.6934 17.5487 41.5037 17.4999H41.0102V17.5492Z" fill="#F0C727"/>
<path d="M41.0109 17.8946C40.986 17.8949 40.9613 17.8897 40.9386 17.8795C40.9158 17.8693 40.8956 17.8544 40.8792 17.8356C40.8627 17.8169 40.8506 17.7948 40.8435 17.7709C40.8365 17.747 40.8346 17.7219 40.8382 17.6972C40.8382 17.4998 41.2083 17.4998 41.2083 17.6972C41.2125 17.7241 41.2103 17.7516 41.2019 17.7775C41.1934 17.8034 41.179 17.8268 41.1598 17.8461C41.1405 17.8653 41.1171 17.8797 41.0912 17.8882C41.0653 17.8966 41.0378 17.8989 41.0109 17.8946Z" fill="white"/>
<path d="M42.1217 22.4345V26.4067C41.8937 26.6673 41.6275 26.8919 41.3322 27.0728C41.0493 26.885 40.7922 26.6611 40.5674 26.4067V22.4345C40.8401 22.3299 41.0974 22.1887 41.3322 22.015C41.5701 22.1979 41.837 22.3397 42.1217 22.4345Z" fill="white"/>
</g>
</g>
</g>
<rect x="0.549902" y="0.995947" width="82.5" height="48.0082" stroke="#A2D5D6" stroke-width="0.3"/>
<defs>
<clipPath id="clip0_3147_6863">
<rect x="0.399902" y="0.845947" width="82.8" height="48.3082" fill="white"/>
</clipPath>
</defs>
</svg>
