<svg width="84" height="50" viewBox="0 0 84 50" fill="none" xmlns="http://www.w3.org/2000/svg">
<g clip-path="url(#clip0_3147_7069)">
<mask id="mask0_3147_7069" style="mask-type:luminance" maskUnits="userSpaceOnUse" x="0" y="0" width="84" height="50">
<path d="M83.6001 0.845825H0.800049V49.1541H83.6001V0.845825Z" fill="white"/>
</mask>
<g mask="url(#mask0_3147_7069)">
<path d="M83.6001 0.845825H0.800049V49.1541H83.6001V0.845825Z" fill="white"/>
<path d="M83.6001 0.845825H0.800049V16.9568H83.6001V0.845825Z" fill="#F0953E"/>
<path d="M83.6001 33.0431H0.800049V49.1294H83.6001V33.0431Z" fill="#3B8916"/>
<mask id="mask1_3147_7069" style="mask-type:luminance" maskUnits="userSpaceOnUse" x="0" y="0" width="84" height="50">
<path d="M83.6001 0.845825H0.800049V49.1541H83.6001V0.845825Z" fill="white"/>
</mask>
<g mask="url(#mask1_3147_7069)">
<path d="M42.1994 17.7712C40.7637 17.7712 39.3602 18.1973 38.1668 18.9954C36.9734 19.7936 36.0438 20.9279 35.4956 22.2548C34.9473 23.5816 34.8051 25.0413 35.087 26.4491C35.3689 27.8568 36.0621 29.1492 37.079 30.1627C38.0959 31.1761 39.3907 31.865 40.7994 32.1421C42.2081 32.4192 43.6674 32.272 44.9923 31.7192C46.3173 31.1664 47.4484 30.2329 48.2425 29.0368C49.0365 27.8407 49.4579 26.4359 49.453 25.0002C49.4465 23.0807 48.6793 21.2421 47.3197 19.8871C45.9601 18.5321 44.1189 17.7712 42.1994 17.7712ZM42.1994 18.4868L42.002 22.1136L42.1994 24.186L42.3967 22.1136L42.1994 18.6101H42.7421C42.7421 18.6952 42.7759 18.7767 42.8361 18.8369C42.8962 18.897 42.9778 18.9308 43.0629 18.9308C43.1357 18.9261 43.2048 18.8965 43.2586 18.8472C43.3125 18.7978 43.3478 18.7316 43.3589 18.6594L43.8771 18.8074L42.7668 22.2616L42.3967 24.3094L43.137 22.3602L43.9018 18.8074L44.4198 18.9802C44.4255 19.0568 44.4585 19.1288 44.5129 19.1831C44.5672 19.2375 44.6392 19.2705 44.7159 19.2762C44.776 19.2757 44.835 19.2595 44.8869 19.2292C44.9389 19.1989 44.9819 19.1556 45.0119 19.1036L45.4807 19.3502L43.5069 22.4096L42.6188 24.3094L43.8277 22.607L45.5054 19.3502L45.9495 19.6464C45.9316 19.7109 45.9316 19.7791 45.9495 19.8437C45.9495 19.9222 45.9807 19.9975 46.0362 20.053C46.0917 20.1085 46.167 20.1398 46.2455 20.1398C46.2929 20.1372 46.3394 20.125 46.3818 20.1038C46.4243 20.0825 46.4619 20.0528 46.4923 20.0164L46.887 20.3865L44.1978 22.8537L42.8408 24.4574L44.4692 23.1251L46.9364 20.4112C47.0589 20.5448 47.1742 20.6848 47.2819 20.8306C47.2662 20.8655 47.2581 20.9034 47.2581 20.9416C47.2581 20.9799 47.2662 21.0177 47.2819 21.0526C47.2819 21.1311 47.3129 21.2065 47.3685 21.262C47.424 21.3175 47.4994 21.3487 47.5779 21.3487H47.7507C47.872 21.4894 47.9718 21.6474 48.0467 21.8174L44.8146 23.4705L43.1123 24.6794L45.0119 23.8159L48.0714 21.8174C48.1636 21.9852 48.2459 22.1583 48.3181 22.3356C48.2662 22.3594 48.2222 22.3976 48.1916 22.4458C48.1609 22.4939 48.1449 22.5499 48.1453 22.607C48.1453 22.6855 48.1766 22.7608 48.2321 22.8164C48.2876 22.8719 48.3629 22.903 48.4414 22.903C48.51 23.0718 48.5677 23.245 48.6141 23.4212L45.0366 24.1613L43.0876 24.9015L45.1354 24.5561L48.6141 23.4458C48.6282 23.6182 48.6282 23.7916 48.6141 23.964C48.5399 23.9702 48.4709 24.0041 48.4206 24.0589C48.3703 24.1138 48.3425 24.1856 48.3428 24.26C48.3426 24.3011 48.3509 24.3417 48.3673 24.3793C48.3837 24.4169 48.4078 24.4508 48.4379 24.4786C48.4681 24.5065 48.5038 24.5277 48.5426 24.541C48.5814 24.5544 48.6226 24.5595 48.6635 24.5561C48.6758 24.7368 48.6758 24.9182 48.6635 25.0989L45.0119 24.9262L42.9395 25.0989L45.0119 25.3209L48.6635 25.1236C48.6764 25.3043 48.6764 25.4856 48.6635 25.6663C48.5826 25.6661 48.5045 25.6965 48.445 25.7514C48.3855 25.8063 48.349 25.8817 48.3428 25.9624C48.3475 26.0353 48.377 26.1044 48.4263 26.1582C48.4757 26.212 48.5419 26.2474 48.6141 26.2585C48.6141 26.4559 48.6141 26.6286 48.6141 26.8013L47.3805 26.4065L45.1354 25.6663L43.0876 25.3209L45.0366 26.0611L48.6141 26.8259C48.5715 26.9952 48.5136 27.1604 48.4414 27.3194C48.4005 27.316 48.3593 27.3211 48.3205 27.3344C48.2817 27.3478 48.2461 27.369 48.216 27.3969C48.1858 27.4247 48.1617 27.4585 48.1453 27.4962C48.1289 27.5338 48.1205 27.5744 48.1206 27.6154C48.1206 27.6154 48.1206 27.6155 48.1206 27.7388L47.874 28.2322L44.8146 26.2585L42.9148 25.3949L43.9018 26.0858L44.6172 26.5792L47.8493 28.2322L47.5532 28.701H47.3805C47.302 28.701 47.2267 28.7322 47.1712 28.7878C47.1157 28.8433 47.0845 28.9186 47.0845 28.9971C47.0845 28.9971 47.0845 29.1944 47.0845 29.2191C46.9827 29.3618 46.867 29.4941 46.739 29.6139L44.2718 26.9246L42.6682 25.5923L44.0004 27.196L46.6896 29.6633C46.5702 29.799 46.4381 29.923 46.2949 30.0333C46.2389 30.0145 46.1782 30.0145 46.1222 30.0333C46.0412 30.0331 45.9632 30.0635 45.9037 30.1184C45.8442 30.1733 45.8077 30.2487 45.8014 30.3294C45.8014 30.3294 45.8014 30.3294 45.8014 30.4774L45.3327 30.7735L43.655 27.5414L42.4461 25.8144L43.3342 27.7141L45.308 30.7735L44.9133 30.9462C44.8907 30.8914 44.8534 30.844 44.8055 30.8092C44.7576 30.7743 44.701 30.7535 44.6419 30.7489C44.561 30.7486 44.4829 30.779 44.4234 30.8339C44.3639 30.8888 44.3274 30.9642 44.3212 31.0449L43.803 31.1929L43.0382 27.6401L42.298 25.691L42.6682 27.7388L43.7783 31.2176C43.6064 31.2409 43.4322 31.2409 43.2603 31.2176C43.241 31.1517 43.2025 31.0931 43.1498 31.0491C43.097 31.0052 43.0325 30.978 42.9642 30.9709C42.8833 30.9707 42.8052 31.001 42.7457 31.0559C42.6862 31.1108 42.6497 31.1862 42.6435 31.267H42.1006L42.298 27.6154L42.1006 25.543L41.9033 27.6154L42.1006 31.267H41.5332C41.5332 31.1884 41.502 31.1131 41.4465 31.0576C41.3909 31.002 41.3157 30.9709 41.2371 30.9709C41.1677 30.9744 41.1013 31.0003 41.0479 31.0448C40.9945 31.0893 40.957 31.1499 40.9411 31.2176H40.4229L41.5332 27.7388L41.8786 25.691L41.1631 27.6401L40.3982 31.1929C40.2225 31.155 40.0495 31.1056 39.8802 31.0449C39.8802 30.9664 39.849 30.891 39.7935 30.8355C39.7379 30.78 39.6627 30.7489 39.5841 30.7489C39.5056 30.7489 39.4302 30.78 39.3747 30.8355C39.3192 30.891 39.2879 30.9664 39.2879 31.0449L38.8193 30.7735L40.7931 27.7141L41.6565 25.8144L40.4476 27.5167L38.7946 30.7735L38.3258 30.4774C38.3405 30.4208 38.3405 30.3613 38.3258 30.3047C38.3292 30.2658 38.3249 30.2266 38.313 30.1894C38.3012 30.1522 38.2821 30.1177 38.2569 30.0879C38.2316 30.058 38.2008 30.0336 38.1661 30.0157C38.1313 29.9979 38.0933 29.9871 38.0543 29.9839C38.0059 29.9806 37.9575 29.9903 37.9141 30.012C37.8707 30.0337 37.834 30.0666 37.8077 30.1074C37.6645 29.997 37.5324 29.873 37.413 29.7373L40.1022 27.2701L41.4346 25.6663L39.8308 26.9986L37.3636 29.6879L36.9934 29.2931C37.0091 29.2582 37.0172 29.2204 37.0172 29.1821C37.0172 29.1439 37.0091 29.106 36.9934 29.0711C36.9934 28.9926 36.9624 28.9173 36.9069 28.8618C36.8513 28.8062 36.7759 28.775 36.6974 28.775H36.5001C36.3953 28.6275 36.3043 28.4706 36.2286 28.3063L39.4607 26.6533L41.1631 25.469L39.2634 26.3325L36.2039 28.3063C36.2039 28.1582 36.0559 27.9856 35.9573 27.8129C36.0158 27.7963 36.0671 27.7605 36.1029 27.7113C36.1387 27.6621 36.157 27.6022 36.1547 27.5414C36.1547 27.4629 36.1235 27.3876 36.0679 27.3321C36.0124 27.2766 35.9371 27.2454 35.8586 27.2454H35.7353C35.6667 27.0765 35.6089 26.9035 35.5626 26.7273L39.1154 25.9624L41.0891 25.2222L39.0166 25.5677L35.5626 26.7026C35.5071 26.5252 35.4657 26.3437 35.4391 26.1598C35.5088 26.148 35.572 26.1117 35.6172 26.0574C35.6625 26.0031 35.6869 25.9344 35.6859 25.8637C35.6859 25.7852 35.6547 25.7099 35.5992 25.6543C35.5436 25.5988 35.4684 25.5677 35.3898 25.5677C35.377 25.387 35.377 25.2056 35.3898 25.0249L39.0166 25.2222L41.0891 25.0002L39.0166 24.8275L35.3898 25.0002C35.3775 24.8195 35.3775 24.6381 35.3898 24.4574C35.4684 24.4574 35.5436 24.4262 35.5992 24.3707C35.6547 24.3151 35.6859 24.2399 35.6859 24.1613C35.6862 24.0869 35.6583 24.0151 35.608 23.9602C35.5577 23.9054 35.4887 23.8715 35.4145 23.8653C35.4411 23.6894 35.4823 23.5161 35.5379 23.3472L38.9919 24.4574L41.0644 24.8028L39.0907 24.0626L35.5379 23.3225C35.5761 23.1439 35.634 22.9702 35.7106 22.8044C35.7891 22.8044 35.8644 22.7732 35.9199 22.7177C35.9754 22.6621 36.0066 22.5868 36.0066 22.5083C36.0071 22.4512 35.9909 22.3952 35.9603 22.3471C35.9296 22.2989 35.8858 22.2607 35.8339 22.2369C35.9062 22.0676 35.9885 21.9028 36.0806 21.7434L39.1399 23.7419L41.0397 24.6054L39.3373 23.3965L36.1053 21.7434C36.1855 21.5686 36.2848 21.4031 36.4013 21.25C36.4282 21.2631 36.4579 21.2699 36.4878 21.2699C36.5177 21.2699 36.5472 21.2631 36.5741 21.25C36.6526 21.25 36.7279 21.2188 36.7834 21.1633C36.8389 21.1078 36.8701 21.0325 36.8701 20.954C36.89 20.8729 36.89 20.7883 36.8701 20.7072L37.2156 20.3125L39.6828 23.0264L41.2865 24.3587L39.9541 22.755L37.265 20.2878L37.6596 19.9177C37.6877 19.9568 37.7248 19.9884 37.7678 20.0099C37.8107 20.0314 37.8583 20.042 37.9063 20.041C37.987 20.0348 38.0625 19.9984 38.1174 19.9389C38.1723 19.8794 38.2027 19.8013 38.2025 19.7204C38.214 19.693 38.22 19.6637 38.22 19.634C38.22 19.6043 38.214 19.575 38.2025 19.5476L38.6711 19.2516L40.3243 22.5083L41.5332 24.186L40.6697 22.3109L38.6958 19.2516L39.1646 19.0049C39.1884 19.0567 39.2267 19.1006 39.2748 19.1313C39.323 19.1619 39.3791 19.178 39.4361 19.1776C39.4738 19.181 39.5117 19.1765 39.5476 19.1644C39.5834 19.1523 39.6162 19.1329 39.6441 19.1073C39.672 19.0818 39.6943 19.0507 39.7094 19.0161C39.7246 18.9814 39.7323 18.944 39.7322 18.9061V18.7828C39.8996 18.7105 40.0729 18.6527 40.2502 18.6101L41.015 22.1629L41.7306 24.112L41.3852 22.0642L40.2749 18.6101C40.4442 18.5494 40.6173 18.5 40.7931 18.4621C40.8041 18.5342 40.8395 18.6005 40.8934 18.6498C40.9472 18.6992 41.0162 18.7286 41.0891 18.7334C41.1742 18.7334 41.2558 18.6997 41.3159 18.6395C41.3761 18.5794 41.4099 18.4978 41.4099 18.4127H41.9526" fill="#16007E"/>
<path d="M42.2001 23.9391C42.4159 23.9391 42.6266 24.0034 42.8056 24.1239C42.9847 24.2443 43.1238 24.4153 43.2051 24.6151C43.2865 24.815 43.3066 25.0344 43.2627 25.2457C43.2187 25.4569 43.1128 25.6502 42.9585 25.801C42.8042 25.9518 42.6085 26.0532 42.3963 26.0923C42.1842 26.1313 41.9651 26.1063 41.7672 26.0204C41.5693 25.9344 41.4016 25.7914 41.2853 25.6097C41.169 25.428 41.1096 25.2157 41.1145 25C41.121 24.7164 41.2381 24.4465 41.441 24.2482C41.6439 24.05 41.9164 23.939 42.2001 23.9391Z" fill="white"/>
<path d="M42.1998 24.186C42.418 24.1859 42.6277 24.2709 42.7843 24.4229C42.941 24.5749 43.0321 24.782 43.0385 25.0002C43.0385 25.1103 43.0168 25.2195 42.9747 25.3212C42.9325 25.423 42.8708 25.5155 42.7929 25.5933C42.715 25.6712 42.6224 25.733 42.5207 25.7752C42.4189 25.8173 42.3099 25.839 42.1998 25.839C42.0896 25.839 41.9805 25.8173 41.8787 25.7752C41.7769 25.733 41.6845 25.6712 41.6066 25.5933C41.5287 25.5155 41.4668 25.423 41.4247 25.3212C41.3825 25.2195 41.3608 25.1103 41.3608 25.0002C41.3673 24.782 41.4584 24.5749 41.615 24.4229C41.7717 24.2709 41.9815 24.1859 42.1998 24.186Z" fill="#16007E"/>
</g>
</g>
</g>
<rect x="0.950049" y="0.995825" width="82.5" height="48.0083" stroke="#A2D5D6" stroke-width="0.3"/>
<defs>
<clipPath id="clip0_3147_7069">
<rect x="0.800049" y="0.845825" width="82.8" height="48.3083" fill="white"/>
</clipPath>
</defs>
</svg>
