<svg width="83" height="50" viewBox="0 0 83 50" fill="none" xmlns="http://www.w3.org/2000/svg">
<g clip-path="url(#clip0_3147_7859)">
<mask id="mask0_3147_7859" style="mask-type:luminance" maskUnits="userSpaceOnUse" x="0" y="0" width="83" height="50">
<path d="M82.8 0.845947H0V49.1541H82.8V0.845947Z" fill="white"/>
</mask>
<g mask="url(#mask0_3147_7859)">
<path d="M82.8 0.845947H0V49.1542H82.8V0.845947Z" fill="#D00027"/>
<mask id="mask1_3147_7859" style="mask-type:luminance" maskUnits="userSpaceOnUse" x="0" y="0" width="83" height="50">
<path d="M82.8 0.845947H0V49.1541H82.8V0.845947Z" fill="white"/>
</mask>
<g mask="url(#mask1_3147_7859)">
<path d="M24.1543 12.935C26.5475 12.9301 28.8883 13.6356 30.8801 14.9621C32.872 16.2886 34.4253 18.1765 35.3434 20.3865C36.2615 22.5966 36.503 25.0294 36.0373 27.3768C35.5716 29.7242 34.4197 31.8806 32.7275 33.5728C31.0353 35.265 28.8789 36.417 26.5315 36.8826C24.1841 37.3483 21.7512 37.1068 19.5412 36.1887C17.3311 35.2707 15.4433 33.7173 14.1168 31.7255C12.7903 29.7336 12.0847 27.3929 12.0896 24.9997C12.0896 21.8 13.3607 18.7312 15.6233 16.4686C17.8859 14.2061 20.9546 12.935 24.1543 12.935Z" fill="white"/>
<path d="M27.1891 15.3528C29.103 15.3528 30.9739 15.9207 32.5649 16.9845C34.1559 18.0483 35.3955 19.5602 36.1268 21.3289C36.8581 23.0976 37.0481 25.0435 36.673 26.9203C36.2978 28.797 35.3742 30.5202 34.0191 31.8718C32.6641 33.2234 30.9385 34.1426 29.0608 34.513C27.1831 34.8834 25.2377 34.6883 23.4709 33.9525C21.7041 33.2167 20.1953 31.9733 19.1355 30.3795C18.0758 28.7858 17.5127 26.9136 17.5176 24.9997C17.5176 23.7307 17.7679 22.4742 18.2543 21.3022C18.7406 20.1302 19.4534 19.0657 20.3518 18.1696C21.2502 17.2734 22.3166 16.5633 23.4899 16.08C24.6631 15.5967 25.9202 15.3496 27.1891 15.3528Z" fill="#D00027"/>
<path d="M34.3672 24.9996L40.0911 26.8747L41.0287 23.988L34.3672 24.9996Z" fill="white"/>
<path d="M34.3672 24.9995L40.0911 23.149L41.0287 26.011L34.3672 24.9995Z" fill="white"/>
<path d="M38.5381 19.2512V25.2959H41.5481L38.5381 19.2512Z" fill="white"/>
<path d="M38.5381 19.2512L42.0662 24.1363L39.6483 25.9127L38.5381 19.2512Z" fill="white"/>
<path d="M38.5381 30.7484L42.0662 25.8633L39.6483 24.0869L38.5381 30.7484Z" fill="white"/>
<path d="M38.5381 30.7484V24.7037H41.5481L38.5381 30.7484Z" fill="white"/>
<path d="M45.2733 21.4714L39.5493 23.3219L40.4869 26.1838L45.2733 21.4714Z" fill="white"/>
<path d="M45.2732 21.4714L41.7204 26.3319L39.2778 24.5555L45.2732 21.4714Z" fill="white"/>
<path d="M45.2732 28.5527L41.7204 23.6676L39.2778 25.444L45.2732 28.5527Z" fill="white"/>
<path d="M45.2733 28.5523L39.5493 26.6772L40.4869 23.8152L45.2733 28.5523Z" fill="white"/>
</g>
</g>
</g>
<rect x="0.15" y="0.995947" width="82.5" height="48.0082" stroke="#A2D5D6" stroke-width="0.3"/>
<defs>
<clipPath id="clip0_3147_7859">
<rect y="0.845947" width="82.8" height="48.3082" fill="white"/>
</clipPath>
</defs>
</svg>
